0
SECTION
2
HEADER
9
$INSUNITS
70
4
9
$ACADVER
1
AC1014
9
$HANDSEED
5
FFFF
0
ENDSEC
0
SECTION
2
TABLES
0
TABLE
2
VPORT
5
8
100
AcDbSymbolTable
0
ENDTAB
0
TABLE
2
LTYPE
5
5
100
AcDbSymbolTable
0
LTYPE
5
14
100
AcDbSymbolTableRecord
100
AcDbLinetypeTableRecord
2
BYBLOCK
70
0
0
LTYPE
5
15
100
AcDbSymbolTableRecord
100
AcDbLinetypeTableRecord
2
BYLAYER
70
0
0
ENDTAB
0
TABLE
2
LAYER
5
2
100
AcDbSymbolTable
70
2
0
LAYER
5
50
100
AcDbSymbolTableRecord
100
AcDbLayerTableRecord
2
0
70
0
6
CONTINUOUS
0
ENDTAB
0
TABLE
2
STYLE
5
3
100
AcDbSymbolTable
70
1
0
STYLE
5
11
100
AcDbSymbolTableRecord
100
AcDbTextStyleTableRecord
2
STANDARD
70
0
0
ENDTAB
0
TABLE
2
VIEW
5
6
100
AcDbSymbolTable
70
0
0
ENDTAB
0
TABLE
2
UCS
5
7
100
AcDbSymbolTable
70
0
0
ENDTAB
0
TABLE
2
APPID
5
9
100
AcDbSymbolTable
70
2
0
APPID
5
12
100
AcDbSymbolTableRecord
100
AcDbRegAppTableRecord
2
ACAD
70
0
0
ENDTAB
0
TABLE
2
DIMSTYLE
5
A
100
AcDbSymbolTable
70
1
0
ENDTAB
0
TABLE
2
BLOCK_RECORD
5
1
100
AcDbSymbolTable
70
1
0
BLOCK_RECORD
5
1F
100
AcDbSymbolTableRecord
100
AcDbBlockTableRecord
2
*MODEL_SPACE
0
BLOCK_RECORD
5
1B
100
AcDbSymbolTableRecord
100
AcDbBlockTableRecord
2
*PAPER_SPACE
0
ENDTAB
0
ENDSEC
0
SECTION
2
BLOCKS
0
BLOCK
5
20
100
AcDbEntity
100
AcDbBlockBegin
2
*MODEL_SPACE
0
ENDBLK
5
21
100
AcDbEntity
100
AcDbBlockEnd
0
BLOCK
5
1C
100
AcDbEntity
100
AcDbBlockBegin
2
*PAPER_SPACE
0
ENDBLK
5
1D
100
AcDbEntity
100
AcDbBlockEnd
0
ENDSEC
0
SECTION
2
ENTITIES
0
LINE
5
100
100
AcDbEntity
8
0
100
AcDbLine
10
7.0000000000000009
20
0
30
0
11
7.0000000000000009
21
-73.849999999999994
31
0
0
LINE
5
101
100
AcDbEntity
8
0
100
AcDbLine
10
0
20
0
30
0
11
177.66409568252274
21
0
31
0
0
LINE
5
102
100
AcDbEntity
8
0
100
AcDbLine
10
26
20
0
30
0
11
26
21
-68.150000000000006
31
0
0
LINE
5
103
100
AcDbEntity
8
0
100
AcDbLine
10
45
20
0
30
0
11
45
21
-54.850000000000001
31
0
0
LINE
5
104
100
AcDbEntity
8
0
100
AcDbLine
10
14
20
-35.850000000000009
30
0
11
2.5737926198622301e-15
21
-35.850000000000009
31
0
0
LINE
5
105
100
AcDbEntity
8
0
100
AcDbLine
10
2.5737926198622301e-15
20
-35.850000000000009
30
0
11
2.5822985243173502e-15
21
-21.850000000000005
31
0
0
LINE
5
106
100
AcDbEntity
8
0
100
AcDbLine
10
2.5822985243173502e-15
20
-21.850000000000005
30
0
11
14
21
-21.850000000000005
31
0
0
LINE
5
107
100
AcDbEntity
8
0
100
AcDbLine
10
14
20
-21.850000000000005
30
0
11
14
21
-35.850000000000009
31
0
0
LINE
5
108
100
AcDbEntity
8
0
100
AcDbLine
10
14
20
-35.850000000000009
30
0
11
2.5822985243173502e-15
21
-21.850000000000005
31
0
0
LINE
5
109
100
AcDbEntity
8
0
100
AcDbLine
10
2.5737926198622301e-15
20
-35.850000000000009
30
0
11
14
21
-21.850000000000005
31
0
0
LINE
5
110
100
AcDbEntity
8
0
100
AcDbLine
10
33
20
-30.150000000000006
30
0
11
19
21
-30.150000000000006
31
0
0
LINE
5
111
100
AcDbEntity
8
0
100
AcDbLine
10
19
20
-30.150000000000006
30
0
11
19
21
-16.149999999999999
31
0
0
LINE
5
112
100
AcDbEntity
8
0
100
AcDbLine
10
19
20
-16.149999999999999
30
0
11
33
21
-16.149999999999999
31
0
0
LINE
5
113
100
AcDbEntity
8
0
100
AcDbLine
10
33
20
-16.149999999999999
30
0
11
33
21
-30.150000000000006
31
0
0
LINE
5
114
100
AcDbEntity
8
0
100
AcDbLine
10
33
20
-30.150000000000006
30
0
11
19
21
-16.149999999999999
31
0
0
LINE
5
115
100
AcDbEntity
8
0
100
AcDbLine
10
19
20
-30.150000000000006
30
0
11
33
21
-16.149999999999999
31
0
0
LINE
5
116
100
AcDbEntity
8
0
100
AcDbLine
10
52
20
-16.850000000000001
30
0
11
38
21
-16.850000000000001
31
0
0
LINE
5
117
100
AcDbEntity
8
0
100
AcDbLine
10
38
20
-16.850000000000001
30
0
11
38
21
-2.8499999999999992
31
0
0
LINE
5
118
100
AcDbEntity
8
0
100
AcDbLine
10
38
20
-2.8499999999999992
30
0
11
52
21
-2.8499999999999992
31
0
0
LINE
5
119
100
AcDbEntity
8
0
100
AcDbLine
10
52
20
-2.8499999999999992
30
0
11
52
21
-16.850000000000001
31
0
0
LINE
5
120
100
AcDbEntity
8
0
100
AcDbLine
10
52
20
-16.850000000000001
30
0
11
38
21
-2.8499999999999992
31
0
0
LINE
5
121
100
AcDbEntity
8
0
100
AcDbLine
10
38
20
-16.850000000000001
30
0
11
52
21
-2.8499999999999992
31
0
0
LINE
5
122
100
AcDbEntity
8
0
100
AcDbLine
10
64
20
0
30
0
11
64
21
-52
31
0
0
LINE
5
123
100
AcDbEntity
8
0
100
AcDbLine
10
71
20
-14.000000000000004
30
0
11
57
21
-14.000000000000004
31
0
0
LINE
5
124
100
AcDbEntity
8
0
100
AcDbLine
10
57
20
-14.000000000000004
30
0
11
57
21
1.1102230246251565e-15
31
0
0
LINE
5
125
100
AcDbEntity
8
0
100
AcDbLine
10
57
20
1.1102230246251565e-15
30
0
11
71
21
1.1102230246251565e-15
31
0
0
LINE
5
126
100
AcDbEntity
8
0
100
AcDbLine
10
71
20
1.1102230246251565e-15
30
0
11
71
21
-14.000000000000004
31
0
0
LINE
5
127
100
AcDbEntity
8
0
100
AcDbLine
10
71
20
-14.000000000000004
30
0
11
57
21
1.1102230246251565e-15
31
0
0
LINE
5
128
100
AcDbEntity
8
0
100
AcDbLine
10
57
20
-14.000000000000004
30
0
11
71
21
1.1102230246251565e-15
31
0
0
LINE
5
129
100
AcDbEntity
8
0
100
AcDbLine
10
83
20
0
30
0
11
83
21
-54.850000000000001
31
0
0
LINE
5
130
100
AcDbEntity
8
0
100
AcDbLine
10
90.000000000000014
20
-16.850000000000005
30
0
11
76
21
-16.850000000000005
31
0
0
LINE
5
131
100
AcDbEntity
8
0
100
AcDbLine
10
76
20
-16.850000000000005
30
0
11
76
21
-2.8500000000000005
31
0
0
LINE
5
132
100
AcDbEntity
8
0
100
AcDbLine
10
76
20
-2.8500000000000005
30
0
11
90.000000000000014
21
-2.8500000000000005
31
0
0
LINE
5
133
100
AcDbEntity
8
0
100
AcDbLine
10
90.000000000000014
20
-2.8500000000000005
30
0
11
90.000000000000014
21
-16.850000000000005
31
0
0
LINE
5
134
100
AcDbEntity
8
0
100
AcDbLine
10
90.000000000000014
20
-16.850000000000005
30
0
11
76
21
-2.8500000000000005
31
0
0
LINE
5
135
100
AcDbEntity
8
0
100
AcDbLine
10
76
20
-16.850000000000005
30
0
11
90.000000000000014
21
-2.8500000000000005
31
0
0
LINE
5
136
100
AcDbEntity
8
0
100
AcDbLine
10
102.00000000000001
20
0
30
0
11
102.00000000000001
21
-57.250000000000007
31
0
0
LINE
5
137
100
AcDbEntity
8
0
100
AcDbLine
10
109.00000000000003
20
-19.250000000000004
30
0
11
95
21
-19.250000000000004
31
0
0
LINE
5
138
100
AcDbEntity
8
0
100
AcDbLine
10
95
20
-19.250000000000004
30
0
11
95
21
-5.25
31
0
0
LINE
5
139
100
AcDbEntity
8
0
100
AcDbLine
10
95
20
-5.25
30
0
11
109.00000000000003
21
-5.25
31
0
0
LINE
5
140
100
AcDbEntity
8
0
100
AcDbLine
10
109.00000000000003
20
-5.25
30
0
11
109.00000000000003
21
-19.250000000000004
31
0
0
LINE
5
141
100
AcDbEntity
8
0
100
AcDbLine
10
109.00000000000003
20
-19.250000000000004
30
0
11
95
21
-5.25
31
0
0
LINE
5
142
100
AcDbEntity
8
0
100
AcDbLine
10
95
20
-19.250000000000004
30
0
11
109.00000000000003
21
-5.25
31
0
0
LINE
5
143
100
AcDbEntity
8
0
100
AcDbLine
10
121.00000000000001
20
0
30
0
11
121.00000000000001
21
-59.050000000000004
31
0
0
LINE
5
144
100
AcDbEntity
8
0
100
AcDbLine
10
128
20
-21.050000000000001
30
0
11
114.00000000000003
21
-21.050000000000001
31
0
0
LINE
5
145
100
AcDbEntity
8
0
100
AcDbLine
10
114.00000000000003
20
-21.050000000000001
30
0
11
114.00000000000003
21
-7.0500000000000007
31
0
0
LINE
5
146
100
AcDbEntity
8
0
100
AcDbLine
10
114.00000000000003
20
-7.0500000000000007
30
0
11
128
21
-7.0500000000000007
31
0
0
LINE
5
147
100
AcDbEntity
8
0
100
AcDbLine
10
128
20
-7.0500000000000007
30
0
11
128
21
-21.050000000000001
31
0
0
LINE
5
148
100
AcDbEntity
8
0
100
AcDbLine
10
128
20
-21.050000000000001
30
0
11
114.00000000000003
21
-7.0500000000000007
31
0
0
LINE
5
149
100
AcDbEntity
8
0
100
AcDbLine
10
114.00000000000003
20
-21.050000000000001
30
0
11
128
21
-7.0500000000000007
31
0
0
LWPOLYLINE
5
150
100
AcDbEntity
8
0
100
AcDbPolyline
90
4
70
1
43
0.0
10
14
20
-40.850000000000009
10
2.5822985243173502e-15
20
-40.850000000000009
10
2.2204460492503131e-15
20
-54.850000000000009
10
14
20
-54.850000000000009
0
LWPOLYLINE
5
151
100
AcDbEntity
8
0
100
AcDbPolyline
90
4
70
1
43
0.0
10
33
20
-35.149999999999999
10
19
20
-35.149999999999999
10
19
20
-49.150000000000006
10
33
20
-49.150000000000006
0
LWPOLYLINE
5
152
100
AcDbEntity
8
0
100
AcDbPolyline
90
4
70
1
43
0.0
10
38
20
-21.850000000000005
10
38
20
-35.850000000000009
10
52
20
-35.850000000000009
10
52
20
-21.850000000000005
0
LWPOLYLINE
5
153
100
AcDbEntity
8
0
100
AcDbPolyline
90
4
70
1
43
0.0
10
71
20
-19.000000000000004
10
57
20
-19.000000000000004
10
57
20
-33.000000000000007
10
71
20
-33.000000000000007
0
LWPOLYLINE
5
154
100
AcDbEntity
8
0
100
AcDbPolyline
90
4
70
1
43
0.0
10
90.000000000000014
20
-21.850000000000005
10
76
20
-21.850000000000005
10
76
20
-35.850000000000009
10
90.000000000000014
20
-35.850000000000009
0
LWPOLYLINE
5
155
100
AcDbEntity
8
0
100
AcDbPolyline
90
4
70
1
43
0.0
10
95
20
-38.250000000000007
10
109.00000000000003
20
-38.250000000000007
10
109.00000000000003
20
-24.250000000000004
10
95
20
-24.250000000000004
0
LWPOLYLINE
5
156
100
AcDbEntity
8
0
100
AcDbPolyline
90
4
70
1
43
0.0
10
128
20
-40.050000000000011
10
128
20
-26.050000000000004
10
114.00000000000003
20
-26.050000000000004
10
114.00000000000003
20
-40.050000000000011
0
LWPOLYLINE
5
157
100
AcDbEntity
8
0
100
AcDbPolyline
90
4
70
1
43
0.0
10
14
20
-59.850000000000009
10
2.5822985243173502e-15
20
-59.850000000000009
10
2.2204460492503131e-15
20
-73.850000000000023
10
14
20
-73.850000000000023
0
LWPOLYLINE
5
158
100
AcDbEntity
8
0
100
AcDbPolyline
90
4
70
1
43
0.0
10
33
20
-54.150000000000006
10
19
20
-54.150000000000006
10
19
20
-68.150000000000006
10
33
20
-68.150000000000006
0
LWPOLYLINE
5
159
100
AcDbEntity
8
0
100
AcDbPolyline
90
4
70
1
43
0.0
10
38
20
-40.850000000000009
10
38
20
-54.850000000000009
10
52
20
-54.850000000000009
10
52
20
-40.850000000000009
0
LWPOLYLINE
5
160
100
AcDbEntity
8
0
100
AcDbPolyline
90
4
70
1
43
0.0
10
71
20
-38.000000000000007
10
57
20
-38.000000000000007
10
57
20
-52.000000000000014
10
71
20
-52.000000000000014
0
LWPOLYLINE
5
161
100
AcDbEntity
8
0
100
AcDbPolyline
90
4
70
1
43
0.0
10
90.000000000000014
20
-40.850000000000009
10
76
20
-40.850000000000009
10
76
20
-54.850000000000009
10
90.000000000000014
20
-54.850000000000009
0
LWPOLYLINE
5
162
100
AcDbEntity
8
0
100
AcDbPolyline
90
4
70
1
43
0.0
10
95
20
-57.250000000000014
10
109.00000000000003
20
-57.250000000000014
10
109.00000000000003
20
-43.250000000000014
10
95
20
-43.250000000000014
0
LWPOLYLINE
5
163
100
AcDbEntity
8
0
100
AcDbPolyline
90
4
70
1
43
0.0
10
128
20
-59.050000000000011
10
128
20
-45.050000000000011
10
114.00000000000003
20
-45.050000000000011
10
114.00000000000003
20
-59.050000000000011
0
LINE
5
164
100
AcDbEntity
8
0
100
AcDbLine
10
64
20
0
30
0
11
63.999999999999979
21
-236.85000000000002
31
0
0
CIRCLE
5
165
100
AcDbEntity
8
0
100
AcDbCircle
10
63.999999999999979
20
-236.85000000000002
30
0
40
170
210
0
220
0
230
1
0
LINE
5
166
100
AcDbEntity
8
0
100
AcDbLine
10
71
20
-73.850000000000023
30
0
11
56.999999999999993
21
-73.850000000000023
31
0
0
LINE
5
167
100
AcDbEntity
8
0
100
AcDbLine
10
56.999999999999993
20
-73.850000000000023
30
0
11
56.999999999999993
21
-59.850000000000023
31
0
0
LINE
5
168
100
AcDbEntity
8
0
100
AcDbLine
10
56.999999999999993
20
-59.850000000000023
30
0
11
71
21
-59.850000000000023
31
0
0
LINE
5
169
100
AcDbEntity
8
0
100
AcDbLine
10
71
20
-59.850000000000023
30
0
11
71
21
-73.850000000000023
31
0
0
LINE
5
170
100
AcDbEntity
8
0
100
AcDbLine
10
71
20
-73.850000000000023
30
0
11
56.999999999999993
21
-59.850000000000023
31
0
0
LINE
5
171
100
AcDbEntity
8
0
100
AcDbLine
10
56.999999999999993
20
-73.850000000000023
30
0
11
71
21
-59.850000000000023
31
0
0
LWPOLYLINE
5
172
100
AcDbEntity
8
0
100
AcDbPolyline
90
4
70
1
43
0.0
10
91.537710123589704
20
-61.865216315391756
10
77.632713324476583
20
-60.237007478462573
10
76.004504487547408
20
-74.142004277575666
10
89.909501286660515
20
-75.77021311450487
0
LWPOLYLINE
5
173
100
AcDbEntity
8
0
100
AcDbPolyline
90
4
70
1
43
0.0
10
111.70168158905993
20
-66.255306138860419
10
98.080405020010502
20
-63.020986329462161
10
94.846085210612245
20
-76.642262898511561
10
108.46736177966164
20
-79.876582707909819
0
LWPOLYLINE
5
174
100
AcDbEntity
8
0
100
AcDbPolyline
90
4
70
1
43
0.0
10
131.21825127758038
20
-72.960687672490238
10
118.06556134919832
20
-68.164152709849262
10
113.26902638655736
20
-81.316842638231321
10
126.4217163149394
20
-86.113377600872269
0
LWPOLYLINE
5
175
100
AcDbEntity
8
0
100
AcDbPolyline
90
4
70
1
43
0.0
10
149.8225425333309
20
-81.890356243586467
10
137.31694605182605
20
-75.596704152648044
10
131.02329396088766
20
-88.102300634152911
10
143.52889044239251
20
-94.39595272509132
0
LWPOLYLINE
5
176
100
AcDbEntity
8
0
100
AcDbPolyline
90
4
70
1
43
0.0
10
153.78
20
-10.41383794641014
10
133
20
-10.41383794641014
10
133
20
-62.793837946410143
10
153.78
20
-62.793837946410143
0
LWPOLYLINE
5
177
100
AcDbEntity
8
0
100
AcDbPolyline
90
4
70
1
43
0.0
10
139.52000000000001
20
-10.41383794641014
10
158.78
20
-10.41383794641014
10
158.78
20
-37.113837946410143
10
139.52000000000001
20
-37.113837946410143
0
LWPOLYLINE
5
178
100
AcDbEntity
8
0
100
AcDbPolyline
90
9
70
1
43
0.0
10
153.17955120698147
20
-80.781080459556748
10
144.51166411967461
20
-98.004323291358105
42
0.13213157401166956
10
63.999999999999993
20
-76.350000000000023
10
-2.4999999999999973
20
-76.350000000000009
10
-2.5000000000000355
20
-19.350000000000026
42
-0.16122745970658262
10
63.500000000000007
20
2.5000000000000169
10
64.499999999999957
20
2.5000000000000577
42
-0.053646761628437886
10
161.28
20
-7.9138379464101405
10
161.28
20
-64.685347416029344
0
LINE
5
179
100
AcDbEntity
8
0
100
AcDbLine
10
63.999999999999979
20
-236.85000000000002
30
0
11
144.51166411967458
21
-98.004323291358133
31
0
0
ARC
5
180
100
AcDbEntity
8
0
100
AcDbCircle
10
57
20
-127.13058823900603
30
0
40
129.63024531643163
210
0
220
-0
230
1
100
AcDbArc
50
59.997125716511825
51
60.528917182025957
0
LWPOLYLINE
5
181
100
AcDbEntity
8
0
100
AcDbPolyline
90
4
70
1
43
0.0
10
157.00069711933696
20
-73.188396881500196
10
146.28161442090425
20
-67.793837946410136
10
143.58433495335922
20
-73.153379295626479
10
154.3034176517919
20
-78.547938230716582
0
ENDSEC
0
SECTION
2
OBJECTS
0
DICTIONARY
5
C
100
AcDbDictionary
3
ACAD_GROUP
350
D
3
ACAD_MLINESTYLE
350
17
0
DICTIONARY
5
D
100
AcDbDictionary
0
DICTIONARY
5
1A
330
C
100
AcDbDictionary
0
DICTIONARY
5
17
100
AcDbDictionary
0
ENDSEC
0
EOF
