%TF.GenerationSoftware,KiCad,Pcbnew,(5.1.9-0-10_14)*%
%TF.CreationDate,2021-03-31T13:24:37+01:00*%
%TF.ProjectId,peautkb,70656175-746b-4622-9e6b-696361645f70,rev?*%
%TF.SameCoordinates,Original*%
%TF.FileFunction,Profile,NP*%
%FSLAX46Y46*%
G04 Gerber Fmt 4.6, Leading zero omitted, Abs format (unit mm)*
G04 Created by KiCad (PCBNEW (5.1.9-0-10_14)) date 2021-03-31 13:24:37*
%MOMM*%
%LPD*%
G01*
G04 APERTURE LIST*
%TA.AperFunction,Profile*%
%ADD10C,0.200000*%
%TD*%
%TA.AperFunction,Profile*%
%ADD11C,0.120000*%
%TD*%
G04 APERTURE END LIST*
D10*
X84811635Y-18652000D02*
X83945360Y-18651981D01*
X17950000Y-44450000D02*
X18000127Y-40461282D01*
X17770000Y-44440000D02*
X17950000Y-44450000D01*
X17770000Y-49180000D02*
X17950000Y-49180000D01*
X17950000Y-86820000D02*
X17950000Y-49180000D01*
X17770000Y-86820000D02*
X17950000Y-86820000D01*
X17945361Y-97501981D02*
X17950000Y-91580000D01*
X17770000Y-91580000D02*
X17950000Y-91580000D01*
X16770000Y-43440000D02*
X16770000Y-16990000D01*
X16770000Y-85820000D02*
X16770000Y-50180000D01*
X17770000Y-44440000D02*
G75*
G02*
X16770000Y-43440000I0J1000000D01*
G01*
X16770000Y-50180000D02*
G75*
G02*
X17770000Y-49180000I1000000J0D01*
G01*
X16770000Y-98670000D02*
X16770000Y-92580000D01*
X16770000Y-92580000D02*
G75*
G02*
X17770000Y-91580000I1000000J0D01*
G01*
X17770000Y-86820000D02*
G75*
G02*
X16770000Y-85820000I0J1000000D01*
G01*
X25960000Y-97500000D02*
X17945361Y-97501981D01*
X25960000Y-97650000D02*
X25960000Y-97500000D01*
X24960000Y-98650000D02*
X16770000Y-98670000D01*
X25960000Y-97650000D02*
G75*
G02*
X24960000Y-98650000I-1000000J0D01*
G01*
X30690000Y-97650000D02*
X30690000Y-97500000D01*
X76970000Y-97500000D02*
X30690000Y-97500000D01*
X76970000Y-97650000D02*
X76970000Y-97500000D01*
X31690000Y-98650000D02*
X75970000Y-98650000D01*
X31690000Y-98650000D02*
G75*
G02*
X30690000Y-97650000I0J1000000D01*
G01*
X76970000Y-97650000D02*
G75*
G02*
X75970000Y-98650000I-1000000J0D01*
G01*
X84467543Y-97501982D02*
X81710000Y-97500000D01*
X81710000Y-97650000D02*
X81710000Y-97500000D01*
X82710000Y-98650000D02*
X85900000Y-98650000D01*
X82710000Y-98650000D02*
G75*
G02*
X81710000Y-97650000I0J1000000D01*
G01*
X181730000Y-82760000D02*
X181725360Y-85837328D01*
X182000000Y-82760000D02*
X181730000Y-82760000D01*
X182000000Y-82760000D02*
G75*
G02*
X183000000Y-83760000I0J-1000000D01*
G01*
X182000000Y-77990000D02*
X181730000Y-77990000D01*
X183000000Y-76990000D02*
G75*
G02*
X182000000Y-77990000I-1000000J0D01*
G01*
X181730000Y-39650000D02*
X181730000Y-77990000D01*
X182000000Y-39650000D02*
X181730000Y-39650000D01*
X182000000Y-39650000D02*
G75*
G02*
X183000000Y-40650000I0J-1000000D01*
G01*
X181730000Y-34900000D02*
X181725360Y-29065818D01*
X182000000Y-34900000D02*
X181730000Y-34900000D01*
X183000000Y-33900000D02*
G75*
G02*
X182000000Y-34900000I-1000000J0D01*
G01*
X189880000Y-34800000D02*
X189880170Y-29080781D01*
X353670000Y-91150000D02*
X353664320Y-97514800D01*
X354000000Y-91150000D02*
X353670000Y-91150000D01*
X353950000Y-86400000D02*
X353670000Y-86400000D01*
X353670000Y-47250000D02*
X353670000Y-86400000D01*
X353950000Y-47250000D02*
X353670000Y-47250000D01*
X353950000Y-42450000D02*
X353670000Y-42450000D01*
X346600000Y-97700000D02*
X346590000Y-97520000D01*
X353664320Y-97514800D02*
X346590000Y-97520000D01*
X341800000Y-97700000D02*
X341800000Y-97510000D01*
X294900000Y-97520000D02*
X341800000Y-97510000D01*
X294900000Y-97700000D02*
X294900000Y-97520000D01*
X290100000Y-97700000D02*
X290100000Y-97520000D01*
X189880000Y-82800000D02*
X189880000Y-85840000D01*
X189880000Y-39570000D02*
X189880000Y-78050000D01*
X188880000Y-83800000D02*
X189000000Y-120000000D01*
X189880000Y-34800000D02*
G75*
G02*
X188880000Y-33800000I0J1000000D01*
G01*
X188880000Y-40570000D02*
G75*
G02*
X189880000Y-39570000I1000000J0D01*
G01*
X188880000Y-83800000D02*
G75*
G02*
X189880000Y-82800000I1000000J0D01*
G01*
X189880000Y-78050000D02*
G75*
G02*
X188880000Y-77050000I0J1000000D01*
G01*
X12000000Y-125000000D02*
X12000000Y-12000000D01*
X360000000Y-125000000D02*
X12000000Y-125000000D01*
X360000000Y-12000000D02*
X360000000Y-125000000D01*
X12000000Y-12000000D02*
X360000000Y-12000000D01*
X354950000Y-17000000D02*
X354950000Y-41450000D01*
X188880000Y-17000000D02*
X354950000Y-17000000D01*
X354950000Y-41450000D02*
G75*
G02*
X353950000Y-42450000I-1000000J0D01*
G01*
X353950000Y-47250000D02*
G75*
G02*
X354950000Y-48250000I0J-1000000D01*
G01*
X354950000Y-85400000D02*
X354950000Y-48250000D01*
X354950000Y-85400000D02*
G75*
G02*
X353950000Y-86400000I-1000000J0D01*
G01*
X354000000Y-91150000D02*
G75*
G02*
X355000000Y-92150000I0J-1000000D01*
G01*
X355000000Y-98700000D02*
X355000000Y-92150000D01*
X354800000Y-98700000D02*
X355000000Y-98700000D01*
X347600000Y-98700000D02*
X354800000Y-98700000D01*
X347600000Y-98700000D02*
G75*
G02*
X346600000Y-97700000I0J1000000D01*
G01*
X341800000Y-97700000D02*
G75*
G02*
X340800000Y-98700000I-1000000J0D01*
G01*
X295900000Y-98700000D02*
X340800000Y-98700000D01*
X295900000Y-98700000D02*
G75*
G02*
X294900000Y-97700000I0J1000000D01*
G01*
X289100000Y-98700000D02*
X285000000Y-98700000D01*
X290100000Y-97700000D02*
G75*
G02*
X289100000Y-98700000I-1000000J0D01*
G01*
X285000000Y-120000000D02*
X285000000Y-98700000D01*
X189000000Y-120000000D02*
X285000000Y-120000000D01*
X188880000Y-40570000D02*
X188880000Y-77050000D01*
X85900000Y-120000000D02*
X85900000Y-98650000D01*
X183000000Y-83760000D02*
X183000000Y-120000000D01*
X183000000Y-76990000D02*
X183000000Y-40650000D01*
X85900000Y-120000000D02*
X183000000Y-120000000D01*
X188880000Y-17000000D02*
X188880000Y-33800000D01*
X183000000Y-17000000D02*
X183000000Y-33900000D01*
X16770000Y-16990000D02*
X183000000Y-17000000D01*
X286797480Y-18637500D02*
X287732200Y-18637500D01*
X287164320Y-97514800D02*
X290100000Y-97520000D01*
X206652655Y-119169124D02*
G75*
G02*
X287164320Y-97514800I80511665J-138845676D01*
G01*
X197984768Y-101945880D02*
X206652655Y-119169123D01*
X189880000Y-85840000D02*
X197984768Y-101945880D01*
X189880170Y-29080781D02*
G75*
G02*
X286796979Y-18637134I96916809J-444471076D01*
G01*
X287731213Y-18637500D02*
G75*
G02*
X353662980Y-40487479I-68233J-110604613D01*
G01*
X353670000Y-42450000D02*
X353662980Y-40487479D01*
X181725360Y-85837328D02*
X173624911Y-101933061D01*
X84811635Y-18652000D02*
G75*
G02*
X181725360Y-29065818I133725J-454914704D01*
G01*
X18000127Y-40461282D02*
G75*
G02*
X83945360Y-18651981I65945233J-88795332D01*
G01*
X84467543Y-97501983D02*
G75*
G02*
X164957024Y-119156304I-22183J-160499998D01*
G01*
X173624911Y-101933061D02*
X164957024Y-119156304D01*
D11*
%TO.C,LED1*%
X29160360Y-52906580D02*
X29160360Y-56006580D01*
X29160360Y-56006580D02*
X25560360Y-56006580D01*
X25560360Y-56006580D02*
X25560360Y-52906580D01*
X25560360Y-52906580D02*
X29160360Y-52906580D01*
%TO.C,LED2*%
X29287360Y-75031180D02*
X25687360Y-75031180D01*
X29287360Y-71931180D02*
X29287360Y-75031180D01*
X25687360Y-71931180D02*
X29287360Y-71931180D01*
X25687360Y-75031180D02*
X25687360Y-71931180D01*
%TO.C,LED3*%
X29217960Y-90817580D02*
X29217960Y-93917580D01*
X29217960Y-93917580D02*
X25617960Y-93917580D01*
X25617960Y-93917580D02*
X25617960Y-90817580D01*
X25617960Y-90817580D02*
X29217960Y-90817580D01*
%TO.C,LED4*%
X44661160Y-47191580D02*
X48261160Y-47191580D01*
X44661160Y-50291580D02*
X44661160Y-47191580D01*
X48261160Y-50291580D02*
X44661160Y-50291580D01*
X48261160Y-47191580D02*
X48261160Y-50291580D01*
%TO.C,LED5*%
X44762760Y-69392380D02*
X44762760Y-66292380D01*
X44762760Y-66292380D02*
X48362760Y-66292380D01*
X48362760Y-66292380D02*
X48362760Y-69392380D01*
X48362760Y-69392380D02*
X44762760Y-69392380D01*
%TO.C,LED6*%
X44744160Y-85153380D02*
X48344160Y-85153380D01*
X44744160Y-88253380D02*
X44744160Y-85153380D01*
X48344160Y-88253380D02*
X44744160Y-88253380D01*
X48344160Y-85153380D02*
X48344160Y-88253380D01*
%TO.C,LED7*%
X63787360Y-33958180D02*
X67387360Y-33958180D01*
X63787360Y-37058180D02*
X63787360Y-33958180D01*
X67387360Y-37058180D02*
X63787360Y-37058180D01*
X67387360Y-33958180D02*
X67387360Y-37058180D01*
%TO.C,LED8*%
X63711160Y-55854180D02*
X63711160Y-52754180D01*
X63711160Y-52754180D02*
X67311160Y-52754180D01*
X67311160Y-52754180D02*
X67311160Y-55854180D01*
X67311160Y-55854180D02*
X63711160Y-55854180D01*
%TO.C,LED9*%
X63711160Y-71854980D02*
X67311160Y-71854980D01*
X63711160Y-74954980D02*
X63711160Y-71854980D01*
X67311160Y-74954980D02*
X63711160Y-74954980D01*
X67311160Y-71854980D02*
X67311160Y-74954980D01*
%TO.C,LED10*%
X82742560Y-93968380D02*
X82742560Y-90868380D01*
X82742560Y-90868380D02*
X86342560Y-90868380D01*
X86342560Y-90868380D02*
X86342560Y-93968380D01*
X86342560Y-93968380D02*
X82742560Y-93968380D01*
%TO.C,LED11*%
X86335760Y-31138780D02*
X86335760Y-34238780D01*
X86335760Y-34238780D02*
X82735760Y-34238780D01*
X82735760Y-34238780D02*
X82735760Y-31138780D01*
X82735760Y-31138780D02*
X86335760Y-31138780D01*
%TO.C,LED12*%
X86335760Y-53288780D02*
X82735760Y-53288780D01*
X86335760Y-50188780D02*
X86335760Y-53288780D01*
X82735760Y-50188780D02*
X86335760Y-50188780D01*
X82735760Y-53288780D02*
X82735760Y-50188780D01*
%TO.C,LED13*%
X82786560Y-69010180D02*
X86386560Y-69010180D01*
X82786560Y-72110180D02*
X82786560Y-69010180D01*
X86386560Y-72110180D02*
X82786560Y-72110180D01*
X86386560Y-69010180D02*
X86386560Y-72110180D01*
%TO.C,LED14*%
X101598324Y-94971562D02*
X101960003Y-91892733D01*
X101960003Y-91892733D02*
X105535418Y-92312748D01*
X105535418Y-92312748D02*
X105173739Y-95391577D01*
X105173739Y-95391577D02*
X101598324Y-94971562D01*
%TO.C,LED15*%
X105233360Y-34161380D02*
X105233360Y-37261380D01*
X105233360Y-37261380D02*
X101633360Y-37261380D01*
X101633360Y-37261380D02*
X101633360Y-34161380D01*
X101633360Y-34161380D02*
X105233360Y-34161380D01*
%TO.C,LED16*%
X105284160Y-55955780D02*
X101684160Y-55955780D01*
X105284160Y-52855780D02*
X105284160Y-55955780D01*
X101684160Y-52855780D02*
X105284160Y-52855780D01*
X101684160Y-55955780D02*
X101684160Y-52855780D01*
%TO.C,LED17*%
X105316360Y-71843780D02*
X105316360Y-74943780D01*
X105316360Y-74943780D02*
X101716360Y-74943780D01*
X101716360Y-74943780D02*
X101716360Y-71843780D01*
X101716360Y-71843780D02*
X105316360Y-71843780D01*
%TO.C,LED18*%
X124052947Y-98748729D02*
X120550954Y-97914436D01*
X124771366Y-95733124D02*
X124052947Y-98748729D01*
X121269373Y-94898831D02*
X124771366Y-95733124D01*
X120550954Y-97914436D02*
X121269373Y-94898831D01*
%TO.C,LED19*%
X124308760Y-36472780D02*
X124308760Y-39572780D01*
X124308760Y-39572780D02*
X120708760Y-39572780D01*
X120708760Y-39572780D02*
X120708760Y-36472780D01*
X120708760Y-36472780D02*
X124308760Y-36472780D01*
%TO.C,LED20*%
X124334160Y-58317980D02*
X120734160Y-58317980D01*
X124334160Y-55217980D02*
X124334160Y-58317980D01*
X120734160Y-55217980D02*
X124334160Y-55217980D01*
X120734160Y-58317980D02*
X120734160Y-55217980D01*
%TO.C,LED21*%
X124207160Y-74267980D02*
X124207160Y-77367980D01*
X124207160Y-77367980D02*
X120607160Y-77367980D01*
X120607160Y-77367980D02*
X120607160Y-74267980D01*
X120607160Y-74267980D02*
X124207160Y-74267980D01*
%TO.C,LED22*%
X142161275Y-104407740D02*
X138778382Y-103176467D01*
X143221538Y-101494693D02*
X142161275Y-104407740D01*
X139838645Y-100263420D02*
X143221538Y-101494693D01*
X138778382Y-103176467D02*
X139838645Y-100263420D01*
%TO.C,LED23*%
X143231760Y-38047580D02*
X143231760Y-41147580D01*
X143231760Y-41147580D02*
X139631760Y-41147580D01*
X139631760Y-41147580D02*
X139631760Y-38047580D01*
X139631760Y-38047580D02*
X143231760Y-38047580D01*
%TO.C,LED24*%
X143333360Y-60222980D02*
X139733360Y-60222980D01*
X143333360Y-57122980D02*
X143333360Y-60222980D01*
X139733360Y-57122980D02*
X143333360Y-57122980D01*
X139733360Y-60222980D02*
X139733360Y-57122980D01*
%TO.C,LED25*%
X156602447Y-110658531D02*
X157995336Y-107889080D01*
X157995336Y-107889080D02*
X161211473Y-109506629D01*
X161211473Y-109506629D02*
X159818584Y-112276080D01*
X159818584Y-112276080D02*
X156602447Y-110658531D01*
%TO.C,LED26*%
X342480220Y-55902440D02*
X342480220Y-52802440D01*
X342480220Y-52802440D02*
X346080220Y-52802440D01*
X346080220Y-52802440D02*
X346080220Y-55902440D01*
X346080220Y-55902440D02*
X342480220Y-55902440D01*
%TO.C,LED27*%
X342312580Y-71877840D02*
X345912580Y-71877840D01*
X342312580Y-74977840D02*
X342312580Y-71877840D01*
X345912580Y-74977840D02*
X342312580Y-74977840D01*
X345912580Y-71877840D02*
X345912580Y-74977840D01*
%TO.C,LED28*%
X346010820Y-93927740D02*
X342410820Y-93927740D01*
X346010820Y-90827740D02*
X346010820Y-93927740D01*
X342410820Y-90827740D02*
X346010820Y-90827740D01*
X342410820Y-93927740D02*
X342410820Y-90827740D01*
%TO.C,LED29*%
X327047180Y-50519140D02*
X323447180Y-50519140D01*
X327047180Y-47419140D02*
X327047180Y-50519140D01*
X323447180Y-47419140D02*
X327047180Y-47419140D01*
X323447180Y-50519140D02*
X323447180Y-47419140D01*
%TO.C,LED30*%
X327047180Y-66352300D02*
X327047180Y-69452300D01*
X327047180Y-69452300D02*
X323447180Y-69452300D01*
X323447180Y-69452300D02*
X323447180Y-66352300D01*
X323447180Y-66352300D02*
X327047180Y-66352300D01*
%TO.C,LED31*%
X327009080Y-88423560D02*
X323409080Y-88423560D01*
X327009080Y-85323560D02*
X327009080Y-88423560D01*
X323409080Y-85323560D02*
X327009080Y-85323560D01*
X323409080Y-88423560D02*
X323409080Y-85323560D01*
%TO.C,LED32*%
X304433560Y-37022620D02*
X304433560Y-33922620D01*
X304433560Y-33922620D02*
X308033560Y-33922620D01*
X308033560Y-33922620D02*
X308033560Y-37022620D01*
X308033560Y-37022620D02*
X304433560Y-37022620D01*
%TO.C,LED33*%
X304326880Y-52924360D02*
X307926880Y-52924360D01*
X304326880Y-56024360D02*
X304326880Y-52924360D01*
X307926880Y-56024360D02*
X304326880Y-56024360D01*
X307926880Y-52924360D02*
X307926880Y-56024360D01*
%TO.C,LED34*%
X308275680Y-75044920D02*
X304675680Y-75044920D01*
X308275680Y-71944920D02*
X308275680Y-75044920D01*
X304675680Y-71944920D02*
X308275680Y-71944920D01*
X304675680Y-75044920D02*
X304675680Y-71944920D01*
%TO.C,LED35*%
X288993720Y-90978640D02*
X288993720Y-94078640D01*
X288993720Y-94078640D02*
X285393720Y-94078640D01*
X285393720Y-94078640D02*
X285393720Y-90978640D01*
X285393720Y-90978640D02*
X288993720Y-90978640D01*
%TO.C,LED36*%
X289146120Y-34195600D02*
X285546120Y-34195600D01*
X289146120Y-31095600D02*
X289146120Y-34195600D01*
X285546120Y-31095600D02*
X289146120Y-31095600D01*
X285546120Y-34195600D02*
X285546120Y-31095600D01*
%TO.C,LED37*%
X289072460Y-49983040D02*
X289072460Y-53083040D01*
X289072460Y-53083040D02*
X285472460Y-53083040D01*
X285472460Y-53083040D02*
X285472460Y-49983040D01*
X285472460Y-49983040D02*
X289072460Y-49983040D01*
%TO.C,LED38*%
X288993720Y-72178760D02*
X285393720Y-72178760D01*
X288993720Y-69078760D02*
X288993720Y-72178760D01*
X285393720Y-69078760D02*
X288993720Y-69078760D01*
X285393720Y-72178760D02*
X285393720Y-69078760D01*
%TO.C,LED39*%
X269585488Y-91739338D02*
X269947167Y-94818167D01*
X269947167Y-94818167D02*
X266371752Y-95238182D01*
X266371752Y-95238182D02*
X266010073Y-92159353D01*
X266010073Y-92159353D02*
X269585488Y-91739338D01*
%TO.C,LED40*%
X270179120Y-37003800D02*
X266579120Y-37003800D01*
X270179120Y-33903800D02*
X270179120Y-37003800D01*
X266579120Y-33903800D02*
X270179120Y-33903800D01*
X266579120Y-37003800D02*
X266579120Y-33903800D01*
%TO.C,LED41*%
X269969120Y-52914200D02*
X269969120Y-56014200D01*
X269969120Y-56014200D02*
X266369120Y-56014200D01*
X266369120Y-56014200D02*
X266369120Y-52914200D01*
X266369120Y-52914200D02*
X269969120Y-52914200D01*
%TO.C,LED42*%
X269943720Y-74886400D02*
X266343720Y-74886400D01*
X269943720Y-71786400D02*
X269943720Y-74886400D01*
X266343720Y-71786400D02*
X269943720Y-71786400D01*
X266343720Y-74886400D02*
X266343720Y-71786400D01*
%TO.C,LED43*%
X246978434Y-95776304D02*
X250480427Y-94942011D01*
X247696853Y-98791909D02*
X246978434Y-95776304D01*
X251198846Y-97957616D02*
X247696853Y-98791909D01*
X250480427Y-94942011D02*
X251198846Y-97957616D01*
%TO.C,LED44*%
X247471520Y-39580400D02*
X247471520Y-36480400D01*
X247471520Y-36480400D02*
X251071520Y-36480400D01*
X251071520Y-36480400D02*
X251071520Y-39580400D01*
X251071520Y-39580400D02*
X247471520Y-39580400D01*
%TO.C,LED45*%
X247452920Y-55262200D02*
X251052920Y-55262200D01*
X247452920Y-58362200D02*
X247452920Y-55262200D01*
X251052920Y-58362200D02*
X247452920Y-58362200D01*
X251052920Y-55262200D02*
X251052920Y-58362200D01*
%TO.C,LED46*%
X250925920Y-77440600D02*
X247325920Y-77440600D01*
X250925920Y-74340600D02*
X250925920Y-77440600D01*
X247325920Y-74340600D02*
X250925920Y-74340600D01*
X247325920Y-77440600D02*
X247325920Y-74340600D01*
%TO.C,LED47*%
X228256482Y-101581053D02*
X231639375Y-100349780D01*
X229316745Y-104494100D02*
X228256482Y-101581053D01*
X232699638Y-103262827D02*
X229316745Y-104494100D01*
X231639375Y-100349780D02*
X232699638Y-103262827D01*
%TO.C,LED48*%
X228446920Y-41282200D02*
X228446920Y-38182200D01*
X228446920Y-38182200D02*
X232046920Y-38182200D01*
X232046920Y-38182200D02*
X232046920Y-41282200D01*
X232046920Y-41282200D02*
X228446920Y-41282200D01*
%TO.C,LED49*%
X231945320Y-57156000D02*
X231945320Y-60256000D01*
X231945320Y-60256000D02*
X228345320Y-60256000D01*
X228345320Y-60256000D02*
X228345320Y-57156000D01*
X228345320Y-57156000D02*
X231945320Y-57156000D01*
%TO.C,LED50*%
X213734144Y-107856060D02*
X215127033Y-110625511D01*
X215127033Y-110625511D02*
X211910896Y-112243060D01*
X211910896Y-112243060D02*
X210518007Y-109473609D01*
X210518007Y-109473609D02*
X213734144Y-107856060D01*
%TD*%
M02*
