M48
; DRILL file {KiCad (5.1.9-0-10_14)} date Monday, April 12, 2021 at 11:07:05 PM
; FORMAT={-:-/ absolute / inch / decimal}
; #@! TF.CreationDate,2021-04-12T23:07:05+01:00
; #@! TF.GenerationSoftware,Kicad,Pcbnew,(5.1.9-0-10_14)
; #@! TF.FileFunction,Plated,1,4,PTH
FMAT,2
INCH
T1C0.0157
T2C0.0320
T3C0.0394
T4C0.0591
%
G90
G05
T1
X0.8858Y-3.7205
X0.9055Y-2.126
X0.9055Y-2.2047
X0.9055Y-2.8543
X0.9055Y-3.6122
X0.9732Y-2.9972
X1.0433Y-4.4291
X1.2527Y-2.9205
X1.2598Y-2.1654
X1.2598Y-3.6614
X1.3386Y-4.252
X1.3583Y-3.0315
X1.3929Y-2.3874
X1.4764Y-4.4291
X1.5453Y-3.4843
X1.5476Y-1.7488
X1.5476Y-2.2791
X1.5492Y-2.4988
X1.5492Y-3.0311
X1.5992Y-2.1161
X1.6535Y-1.9685
X1.6535Y-2.6575
X1.6634Y-3.3957
X1.6732Y-1.8898
X1.7717Y-1.2795
X1.7717Y-1.3583
X1.7717Y-4.252
X1.8898Y-3.5827
X1.9094Y-4.4291
X2.0079Y-1.9488
X2.0079Y-2.6969
X2.0079Y-2.7953
X2.0079Y-3.4449
X2.0789Y-3.575
X2.0866Y-1.2205
X2.1146Y-1.3508
X2.1346Y-1.8913
X2.135Y-1.4331
X2.2047Y-4.252
X2.2567Y-1.5673
X2.2972Y-1.2205
X2.2972Y-1.7394
X2.2972Y-1.9661
X2.2972Y-2.4972
X2.2972Y-2.7799
X2.3425Y-4.4291
X2.3622Y-2.9823
X2.3819Y-1.3583
X2.3819Y-1.437
X2.4016Y-2.126
X2.4016Y-3.1693
X2.4016Y-3.4449
X2.4096Y-2.8624
X2.6378Y-4.252
X2.7362Y-2.1654
X2.7392Y-2.2667
X2.7559Y-1.4173
X2.7559Y-2.9134
X2.7756Y-4.4291
X2.8776Y-3.3673
X2.9675Y-2.7018
X3.0071Y-1.1079
X3.0071Y-1.6264
X3.011Y-2.6224
X3.0169Y-1.8606
X3.0169Y-2.3713
X3.1201Y-2.8642
X3.1496Y-1.2402
X3.1496Y-1.3189
X3.1496Y-2.0079
X3.1496Y-3.6024
X3.1693Y-2.7362
X3.3563Y-1.4764
X3.4055Y-2.9035
X3.4547Y-3.0512
X3.4843Y-2.0669
X3.4872Y-2.1683
X3.4993Y-3.6661
X3.5039Y-1.3189
X3.5039Y-2.815
X3.6713Y-3.6713
X3.7185Y-1.4154
X3.7291Y-3.4968
X3.746Y-2.8798
X3.7681Y-1.2091
X3.7681Y-1.7339
X3.7925Y-2.7457
X3.7933Y-1.9614
X3.7933Y-2.4988
X3.8012Y-3.1469
X3.8976Y-1.3976
X3.8976Y-2.1063
X3.9173Y-2.8543
X3.9567Y-3.5827
X4.1929Y-1.4764
X4.1929Y-2.9724
X4.2323Y-2.1654
X4.2352Y-2.2667
X4.2421Y-3.7267
X4.4094Y-3.7598
X4.4488Y-1.4567
X4.4587Y-2.9528
X4.4772Y-3.613
X4.5412Y-2.0595
X4.5412Y-2.8243
X4.5421Y-1.3094
X4.5433Y-2.5961
X4.5441Y-1.8409
X4.6276Y-3.339
X4.6457Y-1.4567
X4.6457Y-2.2047
X4.6457Y-2.9528
X4.6654Y-3.7402
X4.9803Y-1.5551
X4.9803Y-2.2638
X4.9803Y-3.0118
X4.9803Y-3.878
X4.9833Y-2.3652
X5.0886Y-3.9862
X5.1504Y-3.8197
X5.1575Y-2.9134
X5.1969Y-1.5157
X5.2892Y-1.3789
X5.2892Y-1.9097
X5.2892Y-2.1328
X5.2913Y-1.0
X5.311Y-1.2047
X5.3476Y-1.6354
X5.3488Y-1.8307
X5.3496Y-1.7717
X5.3543Y-1.7146
X5.374Y-1.5945
X5.3937Y-1.5157
X5.3937Y-1.6732
X5.3937Y-2.2835
X5.3937Y-3.937
X5.4Y-3.4846
X5.6004Y-2.4311
X5.7087Y-1.811
X5.7283Y-2.3425
X5.7283Y-4.1339
X5.8268Y-4.2717
X5.8661Y-3.1693
X5.8803Y-4.0815
X5.9055Y-2.6732
X5.9055Y-2.7197
X5.9055Y-3.5138
X5.9646Y-1.7323
X6.0126Y-1.2287
X6.0126Y-2.1709
X6.0146Y-3.1362
X6.0425Y-3.3484
X6.0433Y-3.622
X6.122Y-4.2323
X6.1516Y-3.8437
X6.3035Y-3.1224
X6.3496Y-3.1614
X6.3529Y-3.529
X6.4173Y-4.4291
X6.4669Y-3.4122
X6.503Y-4.5502
X6.5299Y-4.4638
X6.8661Y-1.1772
X7.9626Y-4.124
X8.2227Y-4.4038
X8.2577Y-4.4824
X8.2756Y-3.6929
X8.378Y-3.3858
X8.5242Y-3.4522
X8.5575Y-4.3086
X8.6102Y-2.1142
X8.6417Y-1.7756
X8.6526Y-3.3652
X8.6732Y-1.6024
X8.6811Y-2.5591
X8.685Y-4.1496
X8.7829Y-1.3746
X8.7829Y-1.9522
X8.7829Y-2.1128
X8.8681Y-1.6398
X8.878Y-1.9193
X8.8832Y-1.5367
X8.8898Y-2.2835
X8.8898Y-2.4016
X8.8968Y-4.1094
X8.9272Y-1.8898
X9.0039Y-1.6693
X9.0748Y-1.6929
X9.2047Y-4.0748
X9.2362Y-1.5984
X9.2362Y-2.3386
X9.2618Y-3.1693
X9.4409Y-1.5827
X9.4528Y-2.2244
X9.4643Y-3.5278
X9.4813Y-3.8396
X9.5079Y-2.4213
X9.5177Y-1.2992
X9.5177Y-1.8799
X9.5374Y-2.0866
X9.5374Y-2.6181
X9.6161Y-3.8445
X9.626Y-3.0118
X9.6378Y-2.937
X9.6405Y-1.4697
X9.6457Y-2.2126
X9.9385Y-3.1826
X9.9488Y-3.878
X9.9843Y-3.0709
X9.9877Y-2.2643
X10.0Y-1.5276
X10.1457Y-3.7205
X10.189Y-2.1575
X10.2205Y-1.5276
X10.2381Y-3.3484
X10.2559Y-2.6969
X10.2657Y-1.2205
X10.2657Y-1.7618
X10.2657Y-1.9488
X10.2657Y-2.5295
X10.3543Y-3.6732
X10.3794Y-2.8597
X10.3872Y-2.1167
X10.3876Y-1.3683
X10.5197Y-1.5354
X10.6611Y-3.7477
X10.6772Y-1.4724
X10.7008Y-2.9606
X10.7309Y-2.1718
X10.7874Y-3.0472
X10.843Y-1.531
X10.9213Y-3.6378
X10.9528Y-2.0551
X10.9685Y-1.2835
X11.0138Y-1.1024
X11.0138Y-1.6732
X11.0138Y-1.8406
X11.0138Y-2.4213
X11.0138Y-2.5787
X11.0335Y-3.2776
X11.0425Y-2.8748
X11.1012Y-3.6153
X11.113Y-2.7531
X11.1404Y-2.0013
X11.1417Y-1.252
X11.2598Y-2.9291
X11.4173Y-2.8661
X11.4182Y-2.1094
X11.4871Y-3.6704
X11.4903Y-1.3128
X11.5157Y-3.6122
X11.6929Y-1.3228
X11.7087Y-2.063
X11.7618Y-1.9488
X11.7618Y-2.5295
X11.7618Y-2.6969
X11.7717Y-1.2106
X11.7717Y-1.7815
X11.8819Y-2.1181
X11.8858Y-1.3543
X11.8898Y-2.8504
X12.0236Y-3.0236
X12.1605Y-2.2253
X12.1811Y-2.9685
X12.2283Y-1.4331
X12.2917Y-3.6335
X12.3908Y-1.369
X12.4016Y-3.1772
X12.4252Y-1.4331
X12.4508Y-3.3839
X12.4705Y-1.2205
X12.4724Y-1.3071
X12.5Y-1.7224
X12.5Y-2.2933
X12.5229Y-2.4771
X12.5229Y-3.0446
X12.5591Y-1.4272
X12.5748Y-2.7795
X12.6083Y-1.9587
X12.6299Y-2.6378
X12.631Y-3.3927
X12.6326Y-1.9004
X12.7953Y-1.2126
X12.9262Y-1.2943
X12.9695Y-3.4478
X12.9764Y-2.7323
X12.9793Y-2.0423
X12.9843Y-1.9606
X13.0236Y-3.6063
X13.189Y-3.3268
X13.1908Y-2.6163
X13.2362Y-2.7638
X13.2689Y-1.9575
X13.3749Y-3.6094
X13.383Y-2.8633
X13.4252Y-2.0551
X13.5276Y-2.2835
X13.6599Y-3.5547
X13.6626Y-2.2272
X13.7106Y-3.6713
X13.7244Y-2.9291
X13.7462Y-2.1123
X13.7598Y-2.8642
X13.8317Y-3.751
T2
X6.9783Y-2.2819
X6.9783Y-2.3819
X6.9783Y-2.4819
X6.9783Y-2.5819
X7.6476Y-2.2835
X7.6476Y-2.3835
X7.6476Y-2.4835
X7.6476Y-2.5835
T3
X0.8071Y-4.2685
X0.8071Y-4.3685
X0.8071Y-4.4685
X5.2742Y-2.783
X5.2742Y-2.8814
X5.2742Y-2.9798
X5.845Y-2.783
X5.845Y-2.9798
X6.149Y-1.3168
X6.149Y-1.4168
X6.149Y-1.5168
X6.149Y-1.6168
X6.149Y-1.7168
X6.149Y-1.8168
X6.149Y-1.9168
X6.149Y-2.0168
X6.149Y-2.1168
X6.149Y-2.2168
X6.149Y-2.3168
X6.149Y-2.4168
X6.149Y-2.5168
X6.149Y-2.6168
X6.149Y-2.7168
X6.149Y-2.8168
X6.149Y-2.9168
X6.149Y-3.0168
X6.149Y-3.1168
X6.149Y-3.2168
X6.748Y-1.3168
X6.748Y-1.4168
X6.748Y-1.5168
X6.748Y-1.6168
X6.748Y-1.7168
X6.748Y-1.8168
X6.748Y-1.9168
X6.748Y-2.0168
X6.748Y-2.1168
X6.748Y-2.2168
X6.748Y-2.3168
X6.748Y-2.4168
X6.748Y-2.5168
X6.748Y-2.6168
X6.748Y-2.7168
X6.748Y-2.8168
X6.748Y-2.9168
X6.748Y-3.0168
X6.748Y-3.1168
X6.748Y-3.2168
X7.8817Y-1.3151
X7.8817Y-1.4151
X7.8817Y-1.5151
X7.8817Y-1.6151
X7.8817Y-1.7151
X7.8817Y-1.8151
X7.8817Y-1.9151
X7.8817Y-2.0151
X7.8817Y-2.1151
X7.8817Y-2.2151
X7.8817Y-2.3151
X7.8817Y-2.4151
X7.8817Y-2.5151
X7.8817Y-2.6151
X7.8817Y-2.7151
X7.8817Y-2.8151
X7.8817Y-2.9151
X7.8817Y-3.0151
X7.8817Y-3.1151
X7.8817Y-3.2151
X8.4807Y-1.3151
X8.4807Y-1.4151
X8.4807Y-1.5151
X8.4807Y-1.6151
X8.4807Y-1.7151
X8.4807Y-1.8151
X8.4807Y-1.9151
X8.4807Y-2.0151
X8.4807Y-2.1151
X8.4807Y-2.2151
X8.4807Y-2.3151
X8.4807Y-2.4151
X8.4807Y-2.5151
X8.4807Y-2.6151
X8.4807Y-2.7151
X8.4807Y-2.8151
X8.4807Y-2.9151
X8.4807Y-3.0151
X8.4807Y-3.1151
X8.4807Y-3.2151
X8.7851Y-2.7841
X8.7851Y-2.981
X9.3559Y-2.7841
X9.3559Y-2.8825
X9.3559Y-2.981
T3
G00X6.5148Y-3.628
M15
G01X6.4972Y-3.6191
M16
G05
G00X6.5366Y-3.716
M15
G01X6.519Y-3.7072
M16
G05
G00X6.5581Y-3.5418
M15
G01X6.5405Y-3.5329
M16
G05
G00X6.6418Y-3.5068
M15
G01X6.6242Y-3.4979
M16
G05
G00X6.6772Y-3.7868
M15
G01X6.6597Y-3.778
M16
G05
G00X6.7825Y-3.5775
M15
G01X6.7649Y-3.5687
M16
G05
G00X6.7828Y-3.8399
M15
G01X6.7652Y-3.831
M16
G05
G00X6.888Y-3.6306
M15
G01X6.8704Y-3.6217
M16
G05
G00X7.74Y-3.6314
M15
G01X7.7576Y-3.6226
M16
G05
G00X7.8452Y-3.8407
M15
G01X7.8628Y-3.8319
M16
G05
G00X7.8455Y-3.5784
M15
G01X7.8631Y-3.5695
M16
G05
G00X7.9507Y-3.7876
M15
G01X7.9683Y-3.7788
M16
G05
G00X7.9862Y-3.5076
M15
G01X8.0038Y-3.4988
M16
G05
G00X8.0699Y-3.5426
M15
G01X8.0875Y-3.5338
M16
G05
G00X8.0914Y-3.7169
M15
G01X8.109Y-3.708
M16
G05
G00X8.1132Y-3.6288
M15
G01X8.1308Y-3.62
M16
G05
T4
G00X5.5439Y-2.6609
M15
G01X5.595Y-2.6609
M16
G05
G00X5.5439Y-3.1019
M15
G01X5.595Y-3.1019
M16
G05
G00X9.0863Y-2.6621
M15
G01X9.0351Y-2.6621
M16
G05
G00X9.0863Y-3.103
M15
G01X9.0351Y-3.103
M16
G05
T0
M30
