M48
; DRILL file {KiCad (5.1.9-0-10_14)} date Thursday, April 15, 2021 at 12:01:35 AM
; FORMAT={-:-/ absolute / inch / decimal}
; #@! TF.CreationDate,2021-04-15T00:01:35+01:00
; #@! TF.GenerationSoftware,Kicad,Pcbnew,(5.1.9-0-10_14)
; #@! TF.FileFunction,Plated,1,2,PTH
FMAT,2
INCH
T1C0.0157
T2C0.0320
T3C0.0394
T4C0.0591
%
G90
G05
T1
X0.7579Y-2.0079
X0.7579Y-2.5197
X0.7579Y-2.7067
X0.7579Y-3.2677
X0.8268Y-3.0217
X0.8465Y-2.2441
X0.8465Y-3.7402
X0.9053Y-2.1164
X0.9055Y-3.6122
X0.9067Y-2.8654
X0.9689Y-2.2299
X0.9744Y-1.6634
X0.9744Y-2.9823
X1.063Y-2.2835
X1.2365Y-2.1715
X1.2431Y-3.0148
X1.2473Y-3.6641
X1.4764Y-2.4803
X1.4764Y-3.0413
X1.4862Y-1.7323
X1.4862Y-2.2736
X1.5482Y-3.4774
X1.6142Y-2.0374
X1.6634Y-3.3858
X1.6634Y-3.5925
X1.6676Y-2.6434
X1.6716Y-1.8914
X1.7323Y-1.2303
X1.7708Y-1.1328
X1.779Y-1.351
X1.9336Y-1.225
X1.9459Y-3.5069
X1.9957Y-1.9465
X1.998Y-1.8898
X2.0079Y-2.6969
X2.0714Y-1.225
X2.123Y-2.7785
X2.2047Y-1.2303
X2.2244Y-1.7618
X2.2244Y-1.9587
X2.2244Y-2.3228
X2.2244Y-2.5098
X2.2343Y-2.7067
X2.2343Y-3.3268
X2.2638Y-2.1654
X2.2638Y-2.4508
X2.2963Y-1.4596
X2.3002Y-2.9459
X2.3206Y-0.9373
X2.3975Y-3.449
X2.3993Y-1.3704
X2.4016Y-3.5728
X2.4114Y-2.8642
X2.4155Y-2.1104
X2.4709Y-2.972
X2.7362Y-2.185
X2.7392Y-2.2667
X2.7444Y-1.4255
X2.7502Y-2.9175
X2.8982Y-2.8006
X2.8982Y-3.2731
X2.9002Y-1.3155
X2.9002Y-1.6175
X2.9002Y-2.0636
X2.9002Y-2.4081
X2.9626Y-1.6634
X2.9823Y-1.1024
X2.9921Y-1.8504
X2.9921Y-2.3031
X2.9921Y-2.4114
X3.002Y-2.5886
X3.002Y-3.1594
X3.0581Y-2.8278
X3.0691Y-0.8286
X3.0906Y-1.3878
X3.1496Y-1.3583
X3.15Y-1.2594
X3.1511Y-2.0094
X3.1607Y-3.611
X3.1693Y-2.7559
X3.1693Y-2.8839
X3.4364Y-1.3569
X3.4384Y-2.8805
X3.4547Y-3.0315
X3.4744Y-1.4862
X3.4941Y-2.0866
X3.4941Y-3.6713
X3.5994Y-2.1683
X3.6811Y-3.6713
X3.7008Y-2.8543
X3.7205Y-1.3091
X3.7402Y-2.6969
X3.75Y-1.9587
X3.75Y-2.5098
X3.7598Y-1.2106
X3.7598Y-1.7618
X3.8209Y-0.8248
X3.8386Y-1.4862
X3.8972Y-1.3784
X3.8976Y-2.0965
X3.9124Y-3.6467
X3.9173Y-2.8642
X4.0748Y-3.3957
X4.1804Y-1.4836
X4.1831Y-2.9626
X4.2323Y-3.7303
X4.2421Y-2.185
X4.311Y-1.378
X4.3474Y-2.2667
X4.4193Y-3.7303
X4.4488Y-2.9528
X4.4882Y-2.7953
X4.498Y-1.2894
X4.498Y-1.8701
X4.498Y-2.0571
X4.498Y-2.6181
X4.5669Y-0.9449
X4.6428Y-1.4694
X4.6555Y-2.9528
X4.6555Y-3.7598
X4.6582Y-2.2074
X4.7146Y-3.3957
X4.9311Y-1.565
X4.9803Y-2.2835
X4.9803Y-3.8681
X4.9894Y-3.0125
X5.0856Y-3.9596
X5.0984Y-2.9626
X5.1053Y-2.3652
X5.1476Y-2.6181
X5.187Y-2.5394
X5.1969Y-1.5157
X5.2559Y-1.378
X5.2559Y-1.9291
X5.2559Y-2.126
X5.2657Y-2.6575
X5.315Y-0.9449
X5.315Y-3.7598
X5.3346Y-2.3819
X5.3977Y-1.5314
X5.3977Y-1.628
X5.4046Y-2.2824
X5.4232Y-3.937
X5.5118Y-1.8602
X5.6004Y-2.4311
X5.6764Y-1.6365
X5.6831Y-3.4705
X5.6977Y-1.81
X5.7087Y-2.372
X5.7283Y-4.1142
X5.747Y-2.2824
X5.748Y-2.6083
X5.748Y-3.0512
X5.7874Y-1.5256
X5.8268Y-1.8307
X5.8268Y-2.2343
X5.8337Y-4.2451
X5.8858Y-1.7815
X5.9744Y-2.628
X5.9744Y-3.2087
X5.9843Y-3.2874
X6.0039Y-1.8209
X6.0335Y-2.6969
X6.0728Y-3.8583
X6.0763Y-2.8706
X6.1327Y-4.2216
X6.2402Y-3.4449
X6.2795Y-3.3563
X6.3287Y-3.3957
X6.3439Y-3.529
X6.3878Y-3.6614
X6.3878Y-4.5276
X6.4469Y-4.3996
X7.9626Y-4.124
X8.2227Y-4.4038
X8.2577Y-4.4824
X8.2756Y-3.6929
X8.378Y-3.3858
X8.5242Y-3.4522
X8.5575Y-4.3086
X8.6102Y-2.1142
X8.6417Y-1.7756
X8.6526Y-3.3652
X8.6732Y-1.6024
X8.6811Y-2.5591
X8.685Y-4.1496
X8.7283Y-2.1142
X8.7829Y-1.3746
X8.7829Y-1.9522
X8.8189Y-1.4469
X8.8681Y-1.6398
X8.878Y-1.9193
X8.8832Y-1.5367
X8.8898Y-2.2835
X8.8898Y-2.4016
X8.8968Y-4.1094
X8.9272Y-1.8898
X9.0039Y-1.6693
X9.0333Y-1.2085
X9.0551Y-2.9035
X9.0748Y-1.6929
X9.2047Y-4.0748
X9.2362Y-1.5984
X9.2362Y-2.3386
X9.2618Y-3.1693
X9.3602Y-2.4213
X9.439Y-2.8248
X9.4409Y-1.5827
X9.4443Y-2.7113
X9.4528Y-2.2244
X9.4643Y-3.5278
X9.4813Y-3.8396
X9.4882Y-3.3465
X9.5177Y-1.2992
X9.5177Y-1.8799
X9.5374Y-2.8642
X9.6161Y-3.8445
X9.626Y-3.0118
X9.6378Y-2.937
X9.6405Y-1.4697
X9.6457Y-1.6831
X9.6457Y-2.2126
X9.6654Y-3.1398
X9.685Y-2.372
X9.7502Y-1.1085
X9.9385Y-3.1826
X9.9488Y-3.878
X9.9843Y-3.0709
X9.9877Y-2.2643
X10.0Y-1.5276
X10.1457Y-3.7205
X10.189Y-2.1575
X10.2205Y-1.5276
X10.2381Y-3.3484
X10.2559Y-2.6969
X10.2657Y-1.2205
X10.2657Y-1.7618
X10.2657Y-1.9488
X10.2657Y-2.5295
X10.3543Y-3.6732
X10.3794Y-2.8597
X10.3872Y-2.1167
X10.3876Y-1.3683
X10.5197Y-1.5354
X10.5413Y-1.0236
X10.6611Y-3.7477
X10.6772Y-1.4724
X10.7008Y-2.9606
X10.7309Y-2.1718
X10.7384Y-0.827
X10.7874Y-3.0472
X10.843Y-1.531
X10.9213Y-3.6378
X10.9528Y-2.0551
X10.9685Y-1.2835
X11.0138Y-1.1024
X11.0138Y-1.6732
X11.0138Y-1.8406
X11.0138Y-2.4213
X11.0138Y-2.5787
X11.0335Y-3.2776
X11.0425Y-2.8748
X11.1012Y-3.6153
X11.113Y-2.7531
X11.1404Y-2.0013
X11.1417Y-1.252
X11.2598Y-2.9291
X11.2992Y-0.8268
X11.4173Y-2.8661
X11.4182Y-2.1094
X11.4871Y-3.6704
X11.4903Y-1.3128
X11.5157Y-3.6122
X11.6929Y-1.3228
X11.7087Y-2.063
X11.7618Y-1.9488
X11.7618Y-2.5295
X11.7618Y-2.6969
X11.7717Y-1.2106
X11.7717Y-1.7815
X11.8819Y-2.1181
X11.8858Y-1.3543
X11.8898Y-2.8504
X12.0236Y-3.0236
X12.0669Y-0.935
X12.1605Y-2.2253
X12.1811Y-2.9685
X12.2283Y-1.4331
X12.2917Y-3.6335
X12.3908Y-1.369
X12.4016Y-3.1772
X12.4252Y-1.4331
X12.4508Y-3.3839
X12.4705Y-1.2205
X12.4724Y-1.3071
X12.5Y-1.7224
X12.5Y-2.2933
X12.5229Y-2.4771
X12.5229Y-3.0446
X12.5591Y-1.4272
X12.5748Y-2.7795
X12.6083Y-1.9587
X12.6299Y-2.6378
X12.631Y-3.3927
X12.6326Y-1.9004
X12.7953Y-1.2126
X12.9262Y-1.2943
X12.9695Y-3.4478
X12.9764Y-2.7323
X12.9793Y-2.0423
X12.9843Y-1.9606
X13.0236Y-3.6063
X13.189Y-3.3268
X13.1908Y-2.6163
X13.2362Y-2.7638
X13.2689Y-1.9575
X13.3749Y-3.6094
X13.383Y-2.8633
X13.4252Y-2.0551
X13.5276Y-2.2835
X13.6599Y-3.5547
X13.6626Y-2.2272
X13.7106Y-3.6713
X13.7244Y-2.9291
X13.7462Y-2.1123
X13.7598Y-2.8642
X13.8317Y-3.751
T2
X6.9783Y-2.2819
X6.9783Y-2.3819
X6.9783Y-2.4819
X6.9783Y-2.5819
X7.6476Y-2.2835
X7.6476Y-2.3835
X7.6476Y-2.4835
X7.6476Y-2.5835
T3
X5.2742Y-2.783
X5.2742Y-2.8814
X5.2742Y-2.9798
X5.845Y-2.783
X5.845Y-2.9798
X6.149Y-1.3168
X6.149Y-1.4168
X6.149Y-1.5168
X6.149Y-1.6168
X6.149Y-1.7168
X6.149Y-1.8168
X6.149Y-1.9168
X6.149Y-2.0168
X6.149Y-2.1168
X6.149Y-2.2168
X6.149Y-2.3168
X6.149Y-2.4168
X6.149Y-2.5168
X6.149Y-2.6168
X6.149Y-2.7168
X6.149Y-2.8168
X6.149Y-2.9168
X6.149Y-3.0168
X6.149Y-3.1168
X6.149Y-3.2168
X6.748Y-1.3168
X6.748Y-1.4168
X6.748Y-1.5168
X6.748Y-1.6168
X6.748Y-1.7168
X6.748Y-1.8168
X6.748Y-1.9168
X6.748Y-2.0168
X6.748Y-2.1168
X6.748Y-2.2168
X6.748Y-2.3168
X6.748Y-2.4168
X6.748Y-2.5168
X6.748Y-2.6168
X6.748Y-2.7168
X6.748Y-2.8168
X6.748Y-2.9168
X6.748Y-3.0168
X6.748Y-3.1168
X6.748Y-3.2168
X7.8817Y-1.3151
X7.8817Y-1.4151
X7.8817Y-1.5151
X7.8817Y-1.6151
X7.8817Y-1.7151
X7.8817Y-1.8151
X7.8817Y-1.9151
X7.8817Y-2.0151
X7.8817Y-2.1151
X7.8817Y-2.2151
X7.8817Y-2.3151
X7.8817Y-2.4151
X7.8817Y-2.5151
X7.8817Y-2.6151
X7.8817Y-2.7151
X7.8817Y-2.8151
X7.8817Y-2.9151
X7.8817Y-3.0151
X7.8817Y-3.1151
X7.8817Y-3.2151
X8.4807Y-1.3151
X8.4807Y-1.4151
X8.4807Y-1.5151
X8.4807Y-1.6151
X8.4807Y-1.7151
X8.4807Y-1.8151
X8.4807Y-1.9151
X8.4807Y-2.0151
X8.4807Y-2.1151
X8.4807Y-2.2151
X8.4807Y-2.3151
X8.4807Y-2.4151
X8.4807Y-2.5151
X8.4807Y-2.6151
X8.4807Y-2.7151
X8.4807Y-2.8151
X8.4807Y-2.9151
X8.4807Y-3.0151
X8.4807Y-3.1151
X8.4807Y-3.2151
X8.7851Y-2.7841
X8.7851Y-2.981
X9.3559Y-2.7841
X9.3559Y-2.8825
X9.3559Y-2.981
T3
G00X6.5148Y-3.628
M15
G01X6.4972Y-3.6191
M16
G05
G00X6.5366Y-3.716
M15
G01X6.519Y-3.7072
M16
G05
G00X6.5581Y-3.5418
M15
G01X6.5405Y-3.5329
M16
G05
G00X6.6418Y-3.5068
M15
G01X6.6242Y-3.4979
M16
G05
G00X6.6772Y-3.7868
M15
G01X6.6597Y-3.778
M16
G05
G00X6.7825Y-3.5775
M15
G01X6.7649Y-3.5687
M16
G05
G00X6.7828Y-3.8399
M15
G01X6.7652Y-3.831
M16
G05
G00X6.888Y-3.6306
M15
G01X6.8704Y-3.6217
M16
G05
G00X7.74Y-3.6314
M15
G01X7.7576Y-3.6226
M16
G05
G00X7.8452Y-3.8407
M15
G01X7.8628Y-3.8319
M16
G05
G00X7.8455Y-3.5784
M15
G01X7.8631Y-3.5695
M16
G05
G00X7.9507Y-3.7876
M15
G01X7.9683Y-3.7788
M16
G05
G00X7.9862Y-3.5076
M15
G01X8.0038Y-3.4988
M16
G05
G00X8.0699Y-3.5426
M15
G01X8.0875Y-3.5338
M16
G05
G00X8.0914Y-3.7169
M15
G01X8.109Y-3.708
M16
G05
G00X8.1132Y-3.6288
M15
G01X8.1308Y-3.62
M16
G05
T4
G00X5.5439Y-2.6609
M15
G01X5.595Y-2.6609
M16
G05
G00X5.5439Y-3.1019
M15
G01X5.595Y-3.1019
M16
G05
G00X9.0863Y-2.6621
M15
G01X9.0351Y-2.6621
M16
G05
G00X9.0863Y-3.103
M15
G01X9.0351Y-3.103
M16
G05
T0
M30
