M48
; DRILL file {KiCad (5.1.9-0-10_14)} date Wednesday, March 31, 2021 at 01:24:29 PM
; FORMAT={-:-/ absolute / inch / decimal}
; #@! TF.CreationDate,2021-03-31T13:24:29+01:00
; #@! TF.GenerationSoftware,Kicad,Pcbnew,(5.1.9-0-10_14)
; #@! TF.FileFunction,NonPlated,1,4,NPTH
FMAT,2
INCH
T1C0.0118
T2C0.0472
T3C0.0748
T4C0.0866
T5C0.1181
T6C0.1614
T7C0.1693
%
G90
G05
T1
X0.6996Y-3.4183
X0.6996Y-3.4417
X0.6996Y-3.4651
X0.6996Y-3.4884
X0.6996Y-3.5118
X0.6996Y-3.5352
X0.6996Y-3.5586
X0.6996Y-3.5819
X0.6996Y-3.6053
X0.7008Y-1.749
X0.7008Y-1.7724
X0.7008Y-1.7958
X0.7008Y-1.8191
X0.7008Y-1.8425
X0.7008Y-1.8659
X0.7008Y-1.8893
X0.7008Y-1.9126
X0.7008Y-1.936
X1.0216Y-3.8451
X1.045Y-3.8451
X1.0684Y-3.8451
X1.0917Y-3.8451
X1.1151Y-3.8451
X1.1385Y-3.8451
X1.1619Y-3.8451
X1.1852Y-3.8451
X1.2086Y-3.8451
X3.0301Y-3.8449
X3.0534Y-3.8449
X3.0768Y-3.8449
X3.1002Y-3.8449
X3.1236Y-3.8449
X3.1469Y-3.8449
X3.1703Y-3.8449
X3.1937Y-3.8449
X3.2171Y-3.8449
X7.164Y-1.3741
X7.164Y-1.3974
X7.164Y-1.4208
X7.164Y-1.4442
X7.164Y-1.4676
X7.164Y-1.4909
X7.164Y-1.5143
X7.164Y-1.5377
X7.164Y-1.5611
X7.164Y-3.0709
X7.164Y-3.0943
X7.164Y-3.1177
X7.164Y-3.141
X7.164Y-3.1644
X7.164Y-3.1878
X7.164Y-3.2112
X7.164Y-3.2345
X7.164Y-3.2579
X7.4689Y-3.0726
X7.4689Y-3.096
X7.4689Y-3.1194
X7.4689Y-3.1428
X7.4689Y-3.1661
X7.4689Y-3.1895
X7.4689Y-3.2129
X7.4689Y-3.2363
X7.4689Y-3.2596
X7.4724Y-1.3703
X7.4724Y-1.3937
X7.4724Y-1.4171
X7.4724Y-1.4405
X7.4724Y-1.4638
X7.4724Y-1.4872
X7.4724Y-1.5106
X7.4724Y-1.534
X7.4724Y-1.5573
X11.4222Y-3.8465
X11.4456Y-3.8465
X11.469Y-3.8465
X11.4924Y-3.8465
X11.5157Y-3.8465
X11.5391Y-3.8465
X11.5625Y-3.8465
X11.5859Y-3.8465
X11.6093Y-3.8465
X13.4577Y-3.8465
X13.4811Y-3.8465
X13.5044Y-3.8465
X13.5278Y-3.8465
X13.5512Y-3.8465
X13.5746Y-3.8465
X13.5979Y-3.8465
X13.6213Y-3.8465
X13.6447Y-3.8465
X13.9291Y-3.4026
X13.9291Y-3.4259
X13.9291Y-3.4493
X13.9291Y-3.4727
X13.9291Y-3.4961
X13.9291Y-3.5194
X13.9291Y-3.5428
X13.9291Y-3.5662
X13.9291Y-3.5896
X13.9311Y-1.6722
X13.9311Y-1.6956
X13.9311Y-1.719
X13.9311Y-1.7424
X13.9311Y-1.7657
X13.9311Y-1.7891
X13.9311Y-1.8125
X13.9311Y-1.8359
X13.9311Y-1.8593
T2
X6.6282Y-3.6696
X6.6592Y-3.608
X6.8744Y-3.7934
X6.9054Y-3.7319
X7.7226Y-3.7327
X7.7536Y-3.7943
X7.9688Y-3.6089
X7.9998Y-3.6704
T3
X0.8802Y-1.967
X0.8802Y-2.715
X0.8802Y-3.465
X1.2802Y-1.967
X1.2802Y-2.715
X1.2802Y-3.465
X1.6262Y-1.743
X1.6282Y-2.491
X1.6282Y-3.239
X2.0262Y-1.743
X2.0282Y-2.491
X2.0282Y-3.239
X2.3762Y-1.221
X2.3762Y-1.967
X2.3762Y-2.715
X2.7762Y-1.221
X2.7762Y-1.967
X2.7762Y-2.715
X3.1242Y-1.107
X3.1242Y-1.855
X3.1242Y-2.603
X3.1242Y-3.463
X3.5242Y-1.107
X3.5242Y-1.855
X3.5242Y-2.603
X3.5242Y-3.463
X3.8722Y-1.221
X3.8722Y-1.967
X3.8722Y-2.715
X3.9035Y-3.4856
X4.2722Y-1.221
X4.2722Y-1.967
X4.2722Y-2.715
X4.3008Y-3.5323
X4.6202Y-1.315
X4.6202Y-2.063
X4.6202Y-2.811
X4.6756Y-3.5966
X5.0202Y-1.315
X5.0202Y-2.063
X5.0202Y-2.811
X5.0647Y-3.6893
X5.3682Y-1.385
X5.3682Y-2.133
X5.4302Y-3.8006
X5.7682Y-1.385
X5.7682Y-2.133
X5.8061Y-3.9374
X6.1555Y-4.0891
X6.5129Y-4.2688
X8.1172Y-4.2701
X8.4745Y-4.0904
X8.8239Y-3.9387
X8.8618Y-1.3853
X8.8618Y-2.1333
X9.1998Y-3.8019
X9.2618Y-1.3853
X9.2618Y-2.1333
X9.5643Y-3.6916
X9.6098Y-1.3153
X9.6098Y-2.0633
X9.6098Y-2.8113
X9.9534Y-3.5989
X10.0098Y-1.3153
X10.0098Y-2.0633
X10.0098Y-2.8113
X10.3282Y-3.5346
X10.3578Y-1.2213
X10.3578Y-1.9673
X10.3578Y-2.7173
X10.7255Y-3.4879
X10.7578Y-1.2213
X10.7578Y-1.9673
X10.7578Y-2.7173
X11.1058Y-1.1093
X11.1058Y-1.8573
X11.1058Y-2.6053
X11.1058Y-3.4643
X11.5058Y-1.1093
X11.5058Y-1.8573
X11.5058Y-2.6053
X11.5058Y-3.4643
X11.8538Y-1.2213
X11.8538Y-1.9693
X11.8538Y-2.7173
X12.2538Y-1.2213
X12.2538Y-1.9693
X12.2538Y-2.7173
X12.6018Y-1.7433
X12.6018Y-2.4933
X12.6018Y-3.2413
X13.0018Y-1.7433
X13.0018Y-2.4933
X13.0018Y-3.2413
X13.3478Y-1.9673
X13.3488Y-3.4653
X13.3498Y-2.7163
X13.7478Y-1.9673
X13.7488Y-3.4653
X13.7498Y-2.7163
T4
X6.3465Y-3.3937
X7.0039Y-1.8898
X7.6378Y-1.8898
X8.2559Y-3.3898
T5
X0.9302Y-1.867
X0.9302Y-2.615
X0.9302Y-3.365
X1.1802Y-1.767
X1.1802Y-2.515
X1.1802Y-3.265
X1.6762Y-1.643
X1.6782Y-2.391
X1.6782Y-3.139
X1.9262Y-1.543
X1.9282Y-2.291
X1.9282Y-3.039
X2.4262Y-1.121
X2.4262Y-1.867
X2.4262Y-2.615
X2.6762Y-1.021
X2.6762Y-1.767
X2.6762Y-2.515
X3.1742Y-1.007
X3.1742Y-1.755
X3.1742Y-2.503
X3.1742Y-3.363
X3.4242Y-0.907
X3.4242Y-1.655
X3.4242Y-2.403
X3.4242Y-3.263
X3.9222Y-1.121
X3.9222Y-1.867
X3.9222Y-2.615
X3.9649Y-3.3921
X4.1722Y-1.021
X4.1722Y-1.767
X4.1722Y-2.515
X4.2248Y-3.322
X4.6702Y-1.215
X4.6702Y-1.963
X4.6702Y-2.711
X4.7474Y-3.5109
X4.9202Y-1.115
X4.9202Y-1.863
X4.9202Y-2.611
X5.0138Y-3.4716
X5.4182Y-1.285
X5.4182Y-2.033
X5.5114Y-3.7237
X5.6682Y-1.185
X5.6682Y-1.933
X5.7806Y-3.7152
X6.2451Y-4.0222
X6.5134Y-4.0452
X8.1169Y-4.1583
X8.2953Y-3.9567
X8.8367Y-3.8276
X8.9118Y-1.2853
X8.9118Y-2.0333
X9.0374Y-3.6481
X9.1618Y-1.1853
X9.1618Y-1.9333
X9.5897Y-3.5827
X9.6598Y-1.2153
X9.6598Y-1.9633
X9.6598Y-2.7113
X9.8098Y-3.4275
X9.9098Y-1.1153
X9.9098Y-1.8633
X9.9098Y-2.6113
X10.3662Y-3.4294
X10.4078Y-1.1213
X10.4078Y-1.8673
X10.4078Y-2.6173
X10.6028Y-3.301
X10.6578Y-1.0213
X10.6578Y-1.7673
X10.6578Y-2.5173
X11.1558Y-1.0093
X11.1558Y-1.7573
X11.1558Y-2.5053
X11.1558Y-3.3643
X11.4058Y-0.9093
X11.4058Y-1.6573
X11.4058Y-2.4053
X11.4058Y-3.2643
X11.9038Y-1.1213
X11.9038Y-1.8693
X11.9038Y-2.6173
X12.1538Y-1.0213
X12.1538Y-1.7693
X12.1538Y-2.5173
X12.6518Y-1.6433
X12.6518Y-2.3933
X12.6518Y-3.1413
X12.9018Y-1.5433
X12.9018Y-2.2933
X12.9018Y-3.0413
X13.3978Y-1.8673
X13.3988Y-3.3653
X13.3998Y-2.6163
X13.6478Y-1.7673
X13.6488Y-3.2653
X13.6498Y-2.5163
T6
X1.0802Y-1.967
X1.0802Y-2.715
X1.0802Y-3.465
X1.8262Y-1.743
X1.8282Y-2.491
X1.8282Y-3.239
X2.5762Y-1.221
X2.5762Y-1.967
X2.5762Y-2.715
X3.3242Y-1.107
X3.3242Y-1.855
X3.3242Y-2.603
X3.3242Y-3.463
X4.0722Y-1.221
X4.0722Y-1.967
X4.0722Y-2.715
X4.1022Y-3.509
X4.8202Y-1.315
X4.8202Y-2.063
X4.8202Y-2.811
X4.8702Y-3.643
X5.5682Y-1.385
X5.5682Y-2.133
X5.6182Y-3.869
X6.3342Y-4.179
X8.2958Y-4.1803
X9.0118Y-3.8703
X9.0618Y-1.3853
X9.0618Y-2.1333
X9.7588Y-3.6453
X9.8098Y-1.3153
X9.8098Y-2.0633
X9.8098Y-2.8113
X10.5268Y-3.5113
X10.5578Y-1.2213
X10.5578Y-1.9673
X10.5578Y-2.7173
X11.3058Y-1.1093
X11.3058Y-1.8573
X11.3058Y-2.6053
X11.3058Y-3.4643
X12.0538Y-1.2213
X12.0538Y-1.9693
X12.0538Y-2.7173
X12.8018Y-1.7433
X12.8018Y-2.4933
X12.8018Y-3.2413
X13.5478Y-1.9673
X13.5488Y-3.4653
X13.5498Y-2.7163
T7
X1.3307Y-1.4724
X2.5551Y-3.6024
X5.7441Y-3.3268
X7.0079Y-1.4567
X7.6378Y-1.4567
X8.9449Y-3.3228
X12.0512Y-3.6024
X13.2874Y-1.4764
T0
M30
