%TF.GenerationSoftware,KiCad,Pcbnew,(5.1.9-0-10_14)*%
%TF.CreationDate,2021-03-31T13:24:37+01:00*%
%TF.ProjectId,peautkb,70656175-746b-4622-9e6b-696361645f70,rev?*%
%TF.SameCoordinates,Original*%
%TF.FileFunction,Legend,Top*%
%TF.FilePolarity,Positive*%
%FSLAX46Y46*%
G04 Gerber Fmt 4.6, Leading zero omitted, Abs format (unit mm)*
G04 Created by KiCad (PCBNEW (5.1.9-0-10_14)) date 2021-03-31 13:24:37*
%MOMM*%
%LPD*%
G01*
G04 APERTURE LIST*
%ADD10C,0.150000*%
%ADD11C,0.010000*%
%ADD12C,0.120000*%
G04 APERTURE END LIST*
D10*
X23857142Y-115952380D02*
X23380952Y-115952380D01*
X23333333Y-116428571D01*
X23380952Y-116380952D01*
X23476190Y-116333333D01*
X23714285Y-116333333D01*
X23809523Y-116380952D01*
X23857142Y-116428571D01*
X23904761Y-116523809D01*
X23904761Y-116761904D01*
X23857142Y-116857142D01*
X23809523Y-116904761D01*
X23714285Y-116952380D01*
X23476190Y-116952380D01*
X23380952Y-116904761D01*
X23333333Y-116857142D01*
X24238095Y-116285714D02*
X24476190Y-116952380D01*
X24714285Y-116285714D01*
X24238095Y-104500000D02*
X24142857Y-104452380D01*
X24000000Y-104452380D01*
X23857142Y-104500000D01*
X23761904Y-104595238D01*
X23714285Y-104690476D01*
X23666666Y-104880952D01*
X23666666Y-105023809D01*
X23714285Y-105214285D01*
X23761904Y-105309523D01*
X23857142Y-105404761D01*
X24000000Y-105452380D01*
X24095238Y-105452380D01*
X24238095Y-105404761D01*
X24285714Y-105357142D01*
X24285714Y-105023809D01*
X24095238Y-105023809D01*
X24714285Y-105452380D02*
X24714285Y-104452380D01*
X25285714Y-105452380D01*
X25285714Y-104452380D01*
X25761904Y-105452380D02*
X25761904Y-104452380D01*
X26000000Y-104452380D01*
X26142857Y-104500000D01*
X26238095Y-104595238D01*
X26285714Y-104690476D01*
X26333333Y-104880952D01*
X26333333Y-105023809D01*
X26285714Y-105214285D01*
X26238095Y-105309523D01*
X26142857Y-105404761D01*
X26000000Y-105452380D01*
X25761904Y-105452380D01*
X207252380Y-70019047D02*
X207966666Y-70019047D01*
X208109523Y-70066666D01*
X208204761Y-70161904D01*
X208252380Y-70304761D01*
X208252380Y-70400000D01*
X208252380Y-69066666D02*
X208252380Y-69542857D01*
X207252380Y-69542857D01*
X208157142Y-68161904D02*
X208204761Y-68209523D01*
X208252380Y-68352380D01*
X208252380Y-68447619D01*
X208204761Y-68590476D01*
X208109523Y-68685714D01*
X208014285Y-68733333D01*
X207823809Y-68780952D01*
X207680952Y-68780952D01*
X207490476Y-68733333D01*
X207395238Y-68685714D01*
X207300000Y-68590476D01*
X207252380Y-68447619D01*
X207252380Y-68352380D01*
X207300000Y-68209523D01*
X207347619Y-68161904D01*
X207252380Y-67447619D02*
X207966666Y-67447619D01*
X208109523Y-67495238D01*
X208204761Y-67590476D01*
X208252380Y-67733333D01*
X208252380Y-67828571D01*
X208252380Y-66495238D02*
X208252380Y-66971428D01*
X207252380Y-66971428D01*
X208157142Y-65590476D02*
X208204761Y-65638095D01*
X208252380Y-65780952D01*
X208252380Y-65876190D01*
X208204761Y-66019047D01*
X208109523Y-66114285D01*
X208014285Y-66161904D01*
X207823809Y-66209523D01*
X207680952Y-66209523D01*
X207490476Y-66161904D01*
X207395238Y-66114285D01*
X207300000Y-66019047D01*
X207252380Y-65876190D01*
X207252380Y-65780952D01*
X207300000Y-65638095D01*
X207347619Y-65590476D01*
X207252380Y-64876190D02*
X207966666Y-64876190D01*
X208109523Y-64923809D01*
X208204761Y-65019047D01*
X208252380Y-65161904D01*
X208252380Y-65257142D01*
X208252380Y-63923809D02*
X208252380Y-64400000D01*
X207252380Y-64400000D01*
X208157142Y-63019047D02*
X208204761Y-63066666D01*
X208252380Y-63209523D01*
X208252380Y-63304761D01*
X208204761Y-63447619D01*
X208109523Y-63542857D01*
X208014285Y-63590476D01*
X207823809Y-63638095D01*
X207680952Y-63638095D01*
X207490476Y-63590476D01*
X207395238Y-63542857D01*
X207300000Y-63447619D01*
X207252380Y-63304761D01*
X207252380Y-63209523D01*
X207300000Y-63066666D01*
X207347619Y-63019047D01*
X207252380Y-62304761D02*
X207966666Y-62304761D01*
X208109523Y-62352380D01*
X208204761Y-62447619D01*
X208252380Y-62590476D01*
X208252380Y-62685714D01*
X208252380Y-61352380D02*
X208252380Y-61828571D01*
X207252380Y-61828571D01*
X208157142Y-60447619D02*
X208204761Y-60495238D01*
X208252380Y-60638095D01*
X208252380Y-60733333D01*
X208204761Y-60876190D01*
X208109523Y-60971428D01*
X208014285Y-61019047D01*
X207823809Y-61066666D01*
X207680952Y-61066666D01*
X207490476Y-61019047D01*
X207395238Y-60971428D01*
X207300000Y-60876190D01*
X207252380Y-60733333D01*
X207252380Y-60638095D01*
X207300000Y-60495238D01*
X207347619Y-60447619D01*
D11*
%TO.C,G\u002A\u002A\u002A*%
G36*
X64686247Y-82585523D02*
G01*
X64819720Y-82604755D01*
X64887445Y-82585988D01*
X64997484Y-82572635D01*
X65152691Y-82608207D01*
X65318494Y-82678663D01*
X65460321Y-82769964D01*
X65533035Y-82848166D01*
X65665293Y-83036840D01*
X65809991Y-83204319D01*
X65947650Y-83331142D01*
X66058791Y-83397849D01*
X66088773Y-83403399D01*
X66175337Y-83430811D01*
X66198200Y-83473675D01*
X66240761Y-83541909D01*
X66299799Y-83570519D01*
X66382419Y-83626106D01*
X66401400Y-83678044D01*
X66440018Y-83748398D01*
X66477600Y-83759000D01*
X66539656Y-83801351D01*
X66553800Y-83860600D01*
X66573012Y-83943179D01*
X66599630Y-83962200D01*
X66656624Y-84010156D01*
X66703930Y-84143030D01*
X66738048Y-84344328D01*
X66755479Y-84597555D01*
X66757000Y-84703928D01*
X66757000Y-85125695D01*
X66134700Y-85115447D01*
X65854160Y-85114297D01*
X65573991Y-85119081D01*
X65330066Y-85128874D01*
X65182200Y-85140000D01*
X64965218Y-85150710D01*
X64749390Y-85142058D01*
X64623400Y-85124047D01*
X64479004Y-85105519D01*
X64264478Y-85094534D01*
X64011079Y-85092110D01*
X63797899Y-85097158D01*
X63200999Y-85121023D01*
X63201000Y-84644659D01*
X63206169Y-84389091D01*
X63225459Y-84199659D01*
X63264546Y-84041250D01*
X63322323Y-83893962D01*
X63392629Y-83704321D01*
X63409258Y-83579126D01*
X63399891Y-83549613D01*
X63394215Y-83499303D01*
X63466161Y-83467517D01*
X63544775Y-83454200D01*
X63686892Y-83415861D01*
X63748772Y-83344034D01*
X63752355Y-83329399D01*
X63797676Y-83245895D01*
X63898937Y-83118216D01*
X64034995Y-82968375D01*
X64184705Y-82818386D01*
X64326926Y-82690260D01*
X64440512Y-82606011D01*
X64454973Y-82597886D01*
X64615378Y-82567952D01*
X64686247Y-82585523D01*
G37*
X64686247Y-82585523D02*
X64819720Y-82604755D01*
X64887445Y-82585988D01*
X64997484Y-82572635D01*
X65152691Y-82608207D01*
X65318494Y-82678663D01*
X65460321Y-82769964D01*
X65533035Y-82848166D01*
X65665293Y-83036840D01*
X65809991Y-83204319D01*
X65947650Y-83331142D01*
X66058791Y-83397849D01*
X66088773Y-83403399D01*
X66175337Y-83430811D01*
X66198200Y-83473675D01*
X66240761Y-83541909D01*
X66299799Y-83570519D01*
X66382419Y-83626106D01*
X66401400Y-83678044D01*
X66440018Y-83748398D01*
X66477600Y-83759000D01*
X66539656Y-83801351D01*
X66553800Y-83860600D01*
X66573012Y-83943179D01*
X66599630Y-83962200D01*
X66656624Y-84010156D01*
X66703930Y-84143030D01*
X66738048Y-84344328D01*
X66755479Y-84597555D01*
X66757000Y-84703928D01*
X66757000Y-85125695D01*
X66134700Y-85115447D01*
X65854160Y-85114297D01*
X65573991Y-85119081D01*
X65330066Y-85128874D01*
X65182200Y-85140000D01*
X64965218Y-85150710D01*
X64749390Y-85142058D01*
X64623400Y-85124047D01*
X64479004Y-85105519D01*
X64264478Y-85094534D01*
X64011079Y-85092110D01*
X63797899Y-85097158D01*
X63200999Y-85121023D01*
X63201000Y-84644659D01*
X63206169Y-84389091D01*
X63225459Y-84199659D01*
X63264546Y-84041250D01*
X63322323Y-83893962D01*
X63392629Y-83704321D01*
X63409258Y-83579126D01*
X63399891Y-83549613D01*
X63394215Y-83499303D01*
X63466161Y-83467517D01*
X63544775Y-83454200D01*
X63686892Y-83415861D01*
X63748772Y-83344034D01*
X63752355Y-83329399D01*
X63797676Y-83245895D01*
X63898937Y-83118216D01*
X64034995Y-82968375D01*
X64184705Y-82818386D01*
X64326926Y-82690260D01*
X64440512Y-82606011D01*
X64454973Y-82597886D01*
X64615378Y-82567952D01*
X64686247Y-82585523D01*
G36*
X66223308Y-85184430D02*
G01*
X66403056Y-85216394D01*
X66495344Y-85252868D01*
X66526033Y-85324776D01*
X66518568Y-85453272D01*
X66478563Y-85603256D01*
X66419439Y-85727500D01*
X66375373Y-85783625D01*
X66313257Y-85817694D01*
X66209382Y-85835104D01*
X66040044Y-85841257D01*
X65917628Y-85841800D01*
X65694075Y-85837796D01*
X65547457Y-85822804D01*
X65453316Y-85792347D01*
X65390572Y-85745372D01*
X65311205Y-85628457D01*
X65259845Y-85483946D01*
X65246123Y-85350712D01*
X65273531Y-85272948D01*
X65375826Y-85223686D01*
X65550291Y-85189737D01*
X65768586Y-85171568D01*
X66002371Y-85169644D01*
X66223308Y-85184430D01*
G37*
X66223308Y-85184430D02*
X66403056Y-85216394D01*
X66495344Y-85252868D01*
X66526033Y-85324776D01*
X66518568Y-85453272D01*
X66478563Y-85603256D01*
X66419439Y-85727500D01*
X66375373Y-85783625D01*
X66313257Y-85817694D01*
X66209382Y-85835104D01*
X66040044Y-85841257D01*
X65917628Y-85841800D01*
X65694075Y-85837796D01*
X65547457Y-85822804D01*
X65453316Y-85792347D01*
X65390572Y-85745372D01*
X65311205Y-85628457D01*
X65259845Y-85483946D01*
X65246123Y-85350712D01*
X65273531Y-85272948D01*
X65375826Y-85223686D01*
X65550291Y-85189737D01*
X65768586Y-85171568D01*
X66002371Y-85169644D01*
X66223308Y-85184430D01*
G36*
X64222020Y-85186265D02*
G01*
X64433714Y-85199371D01*
X64591316Y-85218483D01*
X64650808Y-85232963D01*
X64746036Y-85286293D01*
X64764070Y-85367390D01*
X64753422Y-85423463D01*
X64697310Y-85571061D01*
X64628528Y-85689400D01*
X64572481Y-85753976D01*
X64502253Y-85793078D01*
X64391634Y-85813968D01*
X64214418Y-85823912D01*
X64135520Y-85826062D01*
X63935298Y-85827238D01*
X63769182Y-85821586D01*
X63667857Y-85810298D01*
X63658200Y-85807518D01*
X63530246Y-85710229D01*
X63464782Y-85535002D01*
X63455000Y-85400290D01*
X63455000Y-85181400D01*
X63985092Y-85181400D01*
X64222020Y-85186265D01*
G37*
X64222020Y-85186265D02*
X64433714Y-85199371D01*
X64591316Y-85218483D01*
X64650808Y-85232963D01*
X64746036Y-85286293D01*
X64764070Y-85367390D01*
X64753422Y-85423463D01*
X64697310Y-85571061D01*
X64628528Y-85689400D01*
X64572481Y-85753976D01*
X64502253Y-85793078D01*
X64391634Y-85813968D01*
X64214418Y-85823912D01*
X64135520Y-85826062D01*
X63935298Y-85827238D01*
X63769182Y-85821586D01*
X63667857Y-85810298D01*
X63658200Y-85807518D01*
X63530246Y-85710229D01*
X63464782Y-85535002D01*
X63455000Y-85400290D01*
X63455000Y-85181400D01*
X63985092Y-85181400D01*
X64222020Y-85186265D01*
G36*
X65061022Y-85351031D02*
G01*
X65125752Y-85404231D01*
X65197284Y-85524568D01*
X65233000Y-85597574D01*
X65317773Y-85751001D01*
X65412869Y-85852695D01*
X65539063Y-85910716D01*
X65717132Y-85933124D01*
X65967854Y-85927977D01*
X66068572Y-85921709D01*
X66302144Y-85899469D01*
X66455827Y-85862552D01*
X66551309Y-85798332D01*
X66610281Y-85694184D01*
X66642204Y-85587800D01*
X66690749Y-85453312D01*
X66746818Y-85419160D01*
X66816754Y-85484085D01*
X66854649Y-85545663D01*
X66892433Y-85633675D01*
X66906515Y-85738914D01*
X66897981Y-85890414D01*
X66874380Y-86072923D01*
X66842322Y-86262539D01*
X66808422Y-86410705D01*
X66779055Y-86490522D01*
X66774091Y-86496060D01*
X66713027Y-86575254D01*
X66633293Y-86726972D01*
X66545404Y-86926423D01*
X66459874Y-87148812D01*
X66387217Y-87369347D01*
X66356701Y-87480273D01*
X66262431Y-87799076D01*
X66143986Y-88072997D01*
X65981050Y-88343838D01*
X65844542Y-88534200D01*
X65711509Y-88697099D01*
X65600497Y-88792127D01*
X65484676Y-88840498D01*
X65446656Y-88848772D01*
X65236759Y-88872163D01*
X64981703Y-88878926D01*
X64736629Y-88868636D01*
X64623400Y-88855119D01*
X64297715Y-88753060D01*
X64022757Y-88564213D01*
X63803588Y-88292550D01*
X63728675Y-88153200D01*
X63659374Y-87977551D01*
X63615660Y-87810452D01*
X63607896Y-87738311D01*
X63587172Y-87595366D01*
X63535214Y-87416866D01*
X63502919Y-87333679D01*
X63426872Y-87129545D01*
X63361404Y-86909815D01*
X63345160Y-86841509D01*
X63293512Y-86673375D01*
X63224256Y-86534332D01*
X63192159Y-86493359D01*
X63070965Y-86314540D01*
X62990828Y-86082142D01*
X62964953Y-85840293D01*
X62971805Y-85757053D01*
X63024630Y-85565728D01*
X63106019Y-85462176D01*
X63203102Y-85449548D01*
X63303011Y-85530994D01*
X63373338Y-85658764D01*
X63439504Y-85767974D01*
X63541894Y-85842948D01*
X63696728Y-85888552D01*
X63920228Y-85909654D01*
X64215209Y-85911364D01*
X64437716Y-85899701D01*
X64585077Y-85862472D01*
X64683423Y-85782205D01*
X64758887Y-85641429D01*
X64805412Y-85516760D01*
X64882708Y-85387870D01*
X64983212Y-85344853D01*
X65061022Y-85351031D01*
G37*
X65061022Y-85351031D02*
X65125752Y-85404231D01*
X65197284Y-85524568D01*
X65233000Y-85597574D01*
X65317773Y-85751001D01*
X65412869Y-85852695D01*
X65539063Y-85910716D01*
X65717132Y-85933124D01*
X65967854Y-85927977D01*
X66068572Y-85921709D01*
X66302144Y-85899469D01*
X66455827Y-85862552D01*
X66551309Y-85798332D01*
X66610281Y-85694184D01*
X66642204Y-85587800D01*
X66690749Y-85453312D01*
X66746818Y-85419160D01*
X66816754Y-85484085D01*
X66854649Y-85545663D01*
X66892433Y-85633675D01*
X66906515Y-85738914D01*
X66897981Y-85890414D01*
X66874380Y-86072923D01*
X66842322Y-86262539D01*
X66808422Y-86410705D01*
X66779055Y-86490522D01*
X66774091Y-86496060D01*
X66713027Y-86575254D01*
X66633293Y-86726972D01*
X66545404Y-86926423D01*
X66459874Y-87148812D01*
X66387217Y-87369347D01*
X66356701Y-87480273D01*
X66262431Y-87799076D01*
X66143986Y-88072997D01*
X65981050Y-88343838D01*
X65844542Y-88534200D01*
X65711509Y-88697099D01*
X65600497Y-88792127D01*
X65484676Y-88840498D01*
X65446656Y-88848772D01*
X65236759Y-88872163D01*
X64981703Y-88878926D01*
X64736629Y-88868636D01*
X64623400Y-88855119D01*
X64297715Y-88753060D01*
X64022757Y-88564213D01*
X63803588Y-88292550D01*
X63728675Y-88153200D01*
X63659374Y-87977551D01*
X63615660Y-87810452D01*
X63607896Y-87738311D01*
X63587172Y-87595366D01*
X63535214Y-87416866D01*
X63502919Y-87333679D01*
X63426872Y-87129545D01*
X63361404Y-86909815D01*
X63345160Y-86841509D01*
X63293512Y-86673375D01*
X63224256Y-86534332D01*
X63192159Y-86493359D01*
X63070965Y-86314540D01*
X62990828Y-86082142D01*
X62964953Y-85840293D01*
X62971805Y-85757053D01*
X63024630Y-85565728D01*
X63106019Y-85462176D01*
X63203102Y-85449548D01*
X63303011Y-85530994D01*
X63373338Y-85658764D01*
X63439504Y-85767974D01*
X63541894Y-85842948D01*
X63696728Y-85888552D01*
X63920228Y-85909654D01*
X64215209Y-85911364D01*
X64437716Y-85899701D01*
X64585077Y-85862472D01*
X64683423Y-85782205D01*
X64758887Y-85641429D01*
X64805412Y-85516760D01*
X64882708Y-85387870D01*
X64983212Y-85344853D01*
X65061022Y-85351031D01*
G36*
X305786247Y-82485523D02*
G01*
X305919720Y-82504755D01*
X305987445Y-82485988D01*
X306097484Y-82472635D01*
X306252691Y-82508207D01*
X306418494Y-82578663D01*
X306560321Y-82669964D01*
X306633035Y-82748166D01*
X306765293Y-82936840D01*
X306909991Y-83104319D01*
X307047650Y-83231142D01*
X307158791Y-83297849D01*
X307188773Y-83303399D01*
X307275337Y-83330811D01*
X307298200Y-83373675D01*
X307340761Y-83441909D01*
X307399799Y-83470519D01*
X307482419Y-83526106D01*
X307501400Y-83578044D01*
X307540018Y-83648398D01*
X307577600Y-83659000D01*
X307639656Y-83701351D01*
X307653800Y-83760600D01*
X307673012Y-83843179D01*
X307699630Y-83862200D01*
X307756624Y-83910156D01*
X307803930Y-84043030D01*
X307838048Y-84244328D01*
X307855479Y-84497555D01*
X307857000Y-84603928D01*
X307857000Y-85025695D01*
X307234700Y-85015447D01*
X306954160Y-85014297D01*
X306673991Y-85019081D01*
X306430066Y-85028874D01*
X306282200Y-85040000D01*
X306065218Y-85050710D01*
X305849390Y-85042058D01*
X305723400Y-85024047D01*
X305579004Y-85005519D01*
X305364478Y-84994534D01*
X305111079Y-84992110D01*
X304897899Y-84997158D01*
X304300999Y-85021023D01*
X304301000Y-84544659D01*
X304306169Y-84289091D01*
X304325459Y-84099659D01*
X304364546Y-83941250D01*
X304422323Y-83793962D01*
X304492629Y-83604321D01*
X304509258Y-83479126D01*
X304499891Y-83449613D01*
X304494215Y-83399303D01*
X304566161Y-83367517D01*
X304644775Y-83354200D01*
X304786892Y-83315861D01*
X304848772Y-83244034D01*
X304852355Y-83229399D01*
X304897676Y-83145895D01*
X304998937Y-83018216D01*
X305134995Y-82868375D01*
X305284705Y-82718386D01*
X305426926Y-82590260D01*
X305540512Y-82506011D01*
X305554973Y-82497886D01*
X305715378Y-82467952D01*
X305786247Y-82485523D01*
G37*
X305786247Y-82485523D02*
X305919720Y-82504755D01*
X305987445Y-82485988D01*
X306097484Y-82472635D01*
X306252691Y-82508207D01*
X306418494Y-82578663D01*
X306560321Y-82669964D01*
X306633035Y-82748166D01*
X306765293Y-82936840D01*
X306909991Y-83104319D01*
X307047650Y-83231142D01*
X307158791Y-83297849D01*
X307188773Y-83303399D01*
X307275337Y-83330811D01*
X307298200Y-83373675D01*
X307340761Y-83441909D01*
X307399799Y-83470519D01*
X307482419Y-83526106D01*
X307501400Y-83578044D01*
X307540018Y-83648398D01*
X307577600Y-83659000D01*
X307639656Y-83701351D01*
X307653800Y-83760600D01*
X307673012Y-83843179D01*
X307699630Y-83862200D01*
X307756624Y-83910156D01*
X307803930Y-84043030D01*
X307838048Y-84244328D01*
X307855479Y-84497555D01*
X307857000Y-84603928D01*
X307857000Y-85025695D01*
X307234700Y-85015447D01*
X306954160Y-85014297D01*
X306673991Y-85019081D01*
X306430066Y-85028874D01*
X306282200Y-85040000D01*
X306065218Y-85050710D01*
X305849390Y-85042058D01*
X305723400Y-85024047D01*
X305579004Y-85005519D01*
X305364478Y-84994534D01*
X305111079Y-84992110D01*
X304897899Y-84997158D01*
X304300999Y-85021023D01*
X304301000Y-84544659D01*
X304306169Y-84289091D01*
X304325459Y-84099659D01*
X304364546Y-83941250D01*
X304422323Y-83793962D01*
X304492629Y-83604321D01*
X304509258Y-83479126D01*
X304499891Y-83449613D01*
X304494215Y-83399303D01*
X304566161Y-83367517D01*
X304644775Y-83354200D01*
X304786892Y-83315861D01*
X304848772Y-83244034D01*
X304852355Y-83229399D01*
X304897676Y-83145895D01*
X304998937Y-83018216D01*
X305134995Y-82868375D01*
X305284705Y-82718386D01*
X305426926Y-82590260D01*
X305540512Y-82506011D01*
X305554973Y-82497886D01*
X305715378Y-82467952D01*
X305786247Y-82485523D01*
G36*
X307323308Y-85084430D02*
G01*
X307503056Y-85116394D01*
X307595344Y-85152868D01*
X307626033Y-85224776D01*
X307618568Y-85353272D01*
X307578563Y-85503256D01*
X307519439Y-85627500D01*
X307475373Y-85683625D01*
X307413257Y-85717694D01*
X307309382Y-85735104D01*
X307140044Y-85741257D01*
X307017628Y-85741800D01*
X306794075Y-85737796D01*
X306647457Y-85722804D01*
X306553316Y-85692347D01*
X306490572Y-85645372D01*
X306411205Y-85528457D01*
X306359845Y-85383946D01*
X306346123Y-85250712D01*
X306373531Y-85172948D01*
X306475826Y-85123686D01*
X306650291Y-85089737D01*
X306868586Y-85071568D01*
X307102371Y-85069644D01*
X307323308Y-85084430D01*
G37*
X307323308Y-85084430D02*
X307503056Y-85116394D01*
X307595344Y-85152868D01*
X307626033Y-85224776D01*
X307618568Y-85353272D01*
X307578563Y-85503256D01*
X307519439Y-85627500D01*
X307475373Y-85683625D01*
X307413257Y-85717694D01*
X307309382Y-85735104D01*
X307140044Y-85741257D01*
X307017628Y-85741800D01*
X306794075Y-85737796D01*
X306647457Y-85722804D01*
X306553316Y-85692347D01*
X306490572Y-85645372D01*
X306411205Y-85528457D01*
X306359845Y-85383946D01*
X306346123Y-85250712D01*
X306373531Y-85172948D01*
X306475826Y-85123686D01*
X306650291Y-85089737D01*
X306868586Y-85071568D01*
X307102371Y-85069644D01*
X307323308Y-85084430D01*
G36*
X305322020Y-85086265D02*
G01*
X305533714Y-85099371D01*
X305691316Y-85118483D01*
X305750808Y-85132963D01*
X305846036Y-85186293D01*
X305864070Y-85267390D01*
X305853422Y-85323463D01*
X305797310Y-85471061D01*
X305728528Y-85589400D01*
X305672481Y-85653976D01*
X305602253Y-85693078D01*
X305491634Y-85713968D01*
X305314418Y-85723912D01*
X305235520Y-85726062D01*
X305035298Y-85727238D01*
X304869182Y-85721586D01*
X304767857Y-85710298D01*
X304758200Y-85707518D01*
X304630246Y-85610229D01*
X304564782Y-85435002D01*
X304555000Y-85300290D01*
X304555000Y-85081400D01*
X305085092Y-85081400D01*
X305322020Y-85086265D01*
G37*
X305322020Y-85086265D02*
X305533714Y-85099371D01*
X305691316Y-85118483D01*
X305750808Y-85132963D01*
X305846036Y-85186293D01*
X305864070Y-85267390D01*
X305853422Y-85323463D01*
X305797310Y-85471061D01*
X305728528Y-85589400D01*
X305672481Y-85653976D01*
X305602253Y-85693078D01*
X305491634Y-85713968D01*
X305314418Y-85723912D01*
X305235520Y-85726062D01*
X305035298Y-85727238D01*
X304869182Y-85721586D01*
X304767857Y-85710298D01*
X304758200Y-85707518D01*
X304630246Y-85610229D01*
X304564782Y-85435002D01*
X304555000Y-85300290D01*
X304555000Y-85081400D01*
X305085092Y-85081400D01*
X305322020Y-85086265D01*
G36*
X306161022Y-85251031D02*
G01*
X306225752Y-85304231D01*
X306297284Y-85424568D01*
X306333000Y-85497574D01*
X306417773Y-85651001D01*
X306512869Y-85752695D01*
X306639063Y-85810716D01*
X306817132Y-85833124D01*
X307067854Y-85827977D01*
X307168572Y-85821709D01*
X307402144Y-85799469D01*
X307555827Y-85762552D01*
X307651309Y-85698332D01*
X307710281Y-85594184D01*
X307742204Y-85487800D01*
X307790749Y-85353312D01*
X307846818Y-85319160D01*
X307916754Y-85384085D01*
X307954649Y-85445663D01*
X307992433Y-85533675D01*
X308006515Y-85638914D01*
X307997981Y-85790414D01*
X307974380Y-85972923D01*
X307942322Y-86162539D01*
X307908422Y-86310705D01*
X307879055Y-86390522D01*
X307874091Y-86396060D01*
X307813027Y-86475254D01*
X307733293Y-86626972D01*
X307645404Y-86826423D01*
X307559874Y-87048812D01*
X307487217Y-87269347D01*
X307456701Y-87380273D01*
X307362431Y-87699076D01*
X307243986Y-87972997D01*
X307081050Y-88243838D01*
X306944542Y-88434200D01*
X306811509Y-88597099D01*
X306700497Y-88692127D01*
X306584676Y-88740498D01*
X306546656Y-88748772D01*
X306336759Y-88772163D01*
X306081703Y-88778926D01*
X305836629Y-88768636D01*
X305723400Y-88755119D01*
X305397715Y-88653060D01*
X305122757Y-88464213D01*
X304903588Y-88192550D01*
X304828675Y-88053200D01*
X304759374Y-87877551D01*
X304715660Y-87710452D01*
X304707896Y-87638311D01*
X304687172Y-87495366D01*
X304635214Y-87316866D01*
X304602919Y-87233679D01*
X304526872Y-87029545D01*
X304461404Y-86809815D01*
X304445160Y-86741509D01*
X304393512Y-86573375D01*
X304324256Y-86434332D01*
X304292159Y-86393359D01*
X304170965Y-86214540D01*
X304090828Y-85982142D01*
X304064953Y-85740293D01*
X304071805Y-85657053D01*
X304124630Y-85465728D01*
X304206019Y-85362176D01*
X304303102Y-85349548D01*
X304403011Y-85430994D01*
X304473338Y-85558764D01*
X304539504Y-85667974D01*
X304641894Y-85742948D01*
X304796728Y-85788552D01*
X305020228Y-85809654D01*
X305315209Y-85811364D01*
X305537716Y-85799701D01*
X305685077Y-85762472D01*
X305783423Y-85682205D01*
X305858887Y-85541429D01*
X305905412Y-85416760D01*
X305982708Y-85287870D01*
X306083212Y-85244853D01*
X306161022Y-85251031D01*
G37*
X306161022Y-85251031D02*
X306225752Y-85304231D01*
X306297284Y-85424568D01*
X306333000Y-85497574D01*
X306417773Y-85651001D01*
X306512869Y-85752695D01*
X306639063Y-85810716D01*
X306817132Y-85833124D01*
X307067854Y-85827977D01*
X307168572Y-85821709D01*
X307402144Y-85799469D01*
X307555827Y-85762552D01*
X307651309Y-85698332D01*
X307710281Y-85594184D01*
X307742204Y-85487800D01*
X307790749Y-85353312D01*
X307846818Y-85319160D01*
X307916754Y-85384085D01*
X307954649Y-85445663D01*
X307992433Y-85533675D01*
X308006515Y-85638914D01*
X307997981Y-85790414D01*
X307974380Y-85972923D01*
X307942322Y-86162539D01*
X307908422Y-86310705D01*
X307879055Y-86390522D01*
X307874091Y-86396060D01*
X307813027Y-86475254D01*
X307733293Y-86626972D01*
X307645404Y-86826423D01*
X307559874Y-87048812D01*
X307487217Y-87269347D01*
X307456701Y-87380273D01*
X307362431Y-87699076D01*
X307243986Y-87972997D01*
X307081050Y-88243838D01*
X306944542Y-88434200D01*
X306811509Y-88597099D01*
X306700497Y-88692127D01*
X306584676Y-88740498D01*
X306546656Y-88748772D01*
X306336759Y-88772163D01*
X306081703Y-88778926D01*
X305836629Y-88768636D01*
X305723400Y-88755119D01*
X305397715Y-88653060D01*
X305122757Y-88464213D01*
X304903588Y-88192550D01*
X304828675Y-88053200D01*
X304759374Y-87877551D01*
X304715660Y-87710452D01*
X304707896Y-87638311D01*
X304687172Y-87495366D01*
X304635214Y-87316866D01*
X304602919Y-87233679D01*
X304526872Y-87029545D01*
X304461404Y-86809815D01*
X304445160Y-86741509D01*
X304393512Y-86573375D01*
X304324256Y-86434332D01*
X304292159Y-86393359D01*
X304170965Y-86214540D01*
X304090828Y-85982142D01*
X304064953Y-85740293D01*
X304071805Y-85657053D01*
X304124630Y-85465728D01*
X304206019Y-85362176D01*
X304303102Y-85349548D01*
X304403011Y-85430994D01*
X304473338Y-85558764D01*
X304539504Y-85667974D01*
X304641894Y-85742948D01*
X304796728Y-85788552D01*
X305020228Y-85809654D01*
X305315209Y-85811364D01*
X305537716Y-85799701D01*
X305685077Y-85762472D01*
X305783423Y-85682205D01*
X305858887Y-85541429D01*
X305905412Y-85416760D01*
X305982708Y-85287870D01*
X306083212Y-85244853D01*
X306161022Y-85251031D01*
D10*
%TO.C,D12*%
X321715360Y-106944820D02*
X321715360Y-112344820D01*
X323215360Y-112344820D02*
X323215360Y-106944820D01*
X323215360Y-106944820D02*
X321715360Y-106944820D01*
X323215360Y-112344820D02*
X321715360Y-112344820D01*
X322965360Y-110144820D02*
X321965360Y-110144820D01*
X321965360Y-110144820D02*
X322465360Y-109244820D01*
X322465360Y-109244820D02*
X322965360Y-110144820D01*
X322965360Y-109144820D02*
X321965360Y-109144820D01*
X332215360Y-106944820D02*
X332215360Y-112344820D01*
X333715360Y-112344820D02*
X333715360Y-106944820D01*
X333715360Y-106944820D02*
X332215360Y-106944820D01*
X333715360Y-112344820D02*
X332215360Y-112344820D01*
X333465360Y-110144820D02*
X332465360Y-110144820D01*
X332465360Y-110144820D02*
X332965360Y-109244820D01*
X332965360Y-109244820D02*
X333465360Y-110144820D01*
X333465360Y-109144820D02*
X332465360Y-109144820D01*
X325215360Y-106944820D02*
X325215360Y-112344820D01*
X326715360Y-112344820D02*
X326715360Y-106944820D01*
X326715360Y-106944820D02*
X325215360Y-106944820D01*
X326715360Y-112344820D02*
X325215360Y-112344820D01*
X326465360Y-110144820D02*
X325465360Y-110144820D01*
X325465360Y-110144820D02*
X325965360Y-109244820D01*
X325965360Y-109244820D02*
X326465360Y-110144820D01*
X326465360Y-109144820D02*
X325465360Y-109144820D01*
X328715360Y-106944820D02*
X328715360Y-112344820D01*
X330215360Y-112344820D02*
X330215360Y-106944820D01*
X330215360Y-106944820D02*
X328715360Y-106944820D01*
X330215360Y-112344820D02*
X328715360Y-112344820D01*
X329965360Y-110144820D02*
X328965360Y-110144820D01*
X328965360Y-110144820D02*
X329465360Y-109244820D01*
X329465360Y-109244820D02*
X329965360Y-110144820D01*
X329965360Y-109144820D02*
X328965360Y-109144820D01*
X335750000Y-106944820D02*
X335750000Y-112344820D01*
X337250000Y-112344820D02*
X337250000Y-106944820D01*
X337250000Y-106944820D02*
X335750000Y-106944820D01*
X337250000Y-112344820D02*
X335750000Y-112344820D01*
X337000000Y-110144820D02*
X336000000Y-110144820D01*
X336000000Y-110144820D02*
X336500000Y-109244820D01*
X336500000Y-109244820D02*
X337000000Y-110144820D01*
X337000000Y-109144820D02*
X336000000Y-109144820D01*
D12*
%TO.C,D5*%
X78200000Y-113250000D02*
X78200000Y-112100000D01*
X70900000Y-113250000D02*
X78200000Y-113250000D01*
X70900000Y-107750000D02*
X78200000Y-107750000D01*
X67150000Y-113250000D02*
X67150000Y-112100000D01*
X59850000Y-113250000D02*
X67150000Y-113250000D01*
X59850000Y-107750000D02*
X67150000Y-107750000D01*
X56150000Y-113250000D02*
X56150000Y-112100000D01*
X48850000Y-113250000D02*
X56150000Y-113250000D01*
X48850000Y-107750000D02*
X56150000Y-107750000D01*
%TO.C,REF\u002A\u002A*%
X21830000Y-107090000D02*
X19170000Y-107090000D01*
X21830000Y-112230000D02*
X21830000Y-107090000D01*
X19170000Y-112230000D02*
X19170000Y-107090000D01*
X21830000Y-112230000D02*
X19170000Y-112230000D01*
X21830000Y-113500000D02*
X21830000Y-114830000D01*
X21830000Y-114830000D02*
X20500000Y-114830000D01*
%TO.C,D5*%
X45150000Y-113250000D02*
X45150000Y-112100000D01*
X37850000Y-113250000D02*
X45150000Y-113250000D01*
X37850000Y-107750000D02*
X45150000Y-107750000D01*
X34150000Y-113250000D02*
X34150000Y-112100000D01*
X26850000Y-113250000D02*
X34150000Y-113250000D01*
X26850000Y-107750000D02*
X34150000Y-107750000D01*
%TO.C,C9*%
X46265000Y-110261252D02*
X46265000Y-109738748D01*
X47735000Y-110261252D02*
X47735000Y-109738748D01*
X24265000Y-110261252D02*
X24265000Y-109738748D01*
X25735000Y-110261252D02*
X25735000Y-109738748D01*
X68265000Y-110261252D02*
X68265000Y-109738748D01*
X69735000Y-110261252D02*
X69735000Y-109738748D01*
X57265000Y-110261252D02*
X57265000Y-109738748D01*
X58735000Y-110261252D02*
X58735000Y-109738748D01*
X35265000Y-110298752D02*
X35265000Y-109776248D01*
X36735000Y-110298752D02*
X36735000Y-109776248D01*
D10*
%TO.C,D12*%
X318250000Y-106944820D02*
X318250000Y-112344820D01*
X319750000Y-112344820D02*
X319750000Y-106944820D01*
X319750000Y-106944820D02*
X318250000Y-106944820D01*
X319750000Y-112344820D02*
X318250000Y-112344820D01*
X319500000Y-110144820D02*
X318500000Y-110144820D01*
X318500000Y-110144820D02*
X319000000Y-109244820D01*
X319000000Y-109244820D02*
X319500000Y-110144820D01*
X319500000Y-109144820D02*
X318500000Y-109144820D01*
X314715360Y-106944820D02*
X314715360Y-112344820D01*
X316215360Y-112344820D02*
X316215360Y-106944820D01*
X316215360Y-106944820D02*
X314715360Y-106944820D01*
X316215360Y-112344820D02*
X314715360Y-112344820D01*
X315965360Y-110144820D02*
X314965360Y-110144820D01*
X314965360Y-110144820D02*
X315465360Y-109244820D01*
X315465360Y-109244820D02*
X315965360Y-110144820D01*
X315965360Y-109144820D02*
X314965360Y-109144820D01*
X311215360Y-106944820D02*
X311215360Y-112344820D01*
X312715360Y-112344820D02*
X312715360Y-106944820D01*
X312715360Y-106944820D02*
X311215360Y-106944820D01*
X312715360Y-112344820D02*
X311215360Y-112344820D01*
X312465360Y-110144820D02*
X311465360Y-110144820D01*
X311465360Y-110144820D02*
X311965360Y-109244820D01*
X311965360Y-109244820D02*
X312465360Y-110144820D01*
X312465360Y-109144820D02*
X311465360Y-109144820D01*
X307715360Y-106944820D02*
X307715360Y-112344820D01*
X309215360Y-112344820D02*
X309215360Y-106944820D01*
X309215360Y-106944820D02*
X307715360Y-106944820D01*
X309215360Y-112344820D02*
X307715360Y-112344820D01*
X308965360Y-110144820D02*
X307965360Y-110144820D01*
X307965360Y-110144820D02*
X308465360Y-109244820D01*
X308465360Y-109244820D02*
X308965360Y-110144820D01*
X308965360Y-109144820D02*
X307965360Y-109144820D01*
X304215360Y-106944820D02*
X304215360Y-112344820D01*
X305715360Y-112344820D02*
X305715360Y-106944820D01*
X305715360Y-106944820D02*
X304215360Y-106944820D01*
X305715360Y-112344820D02*
X304215360Y-112344820D01*
X305465360Y-110144820D02*
X304465360Y-110144820D01*
X304465360Y-110144820D02*
X304965360Y-109244820D01*
X304965360Y-109244820D02*
X305465360Y-110144820D01*
X305465360Y-109144820D02*
X304465360Y-109144820D01*
%TO.C,J1*%
X178167160Y-75266180D02*
X175867160Y-75266180D01*
X175867160Y-65366180D02*
X178167160Y-65366180D01*
X175867160Y-75266180D02*
X175867160Y-65366180D01*
X178167160Y-75266180D02*
X178167160Y-65366180D01*
%TO.C,J2*%
X177298317Y-94346866D02*
X174602403Y-99707094D01*
X174602403Y-99707094D02*
X163881946Y-94315266D01*
X163881946Y-94315266D02*
X166577860Y-88955038D01*
X166577860Y-88955038D02*
X177298317Y-94346866D01*
%TO.C,J3*%
X193917920Y-65277600D02*
X193917920Y-75177600D01*
X196217920Y-65277600D02*
X196217920Y-75177600D01*
X196217920Y-75177600D02*
X193917920Y-75177600D01*
X193917920Y-65277600D02*
X196217920Y-65277600D01*
%TO.C,J4*%
X206882334Y-92773486D02*
X196161877Y-98165314D01*
X204186420Y-87413258D02*
X206882334Y-92773486D01*
X193465963Y-92805086D02*
X204186420Y-87413258D01*
X196161877Y-98165314D02*
X193465963Y-92805086D01*
D12*
%TO.C,SW28*%
X144464160Y-73187180D02*
G75*
G03*
X144464160Y-73187180I-3000000J0D01*
G01*
X143464160Y-67287180D02*
X147564160Y-67287180D01*
X147564160Y-79087180D02*
X143464160Y-79087180D01*
X139464160Y-79087180D02*
X135364160Y-79087180D01*
X139464160Y-67287180D02*
X135364160Y-67287180D01*
X135364160Y-67287180D02*
X135364160Y-79087180D01*
X133964160Y-69387180D02*
X133664160Y-69087180D01*
X133664160Y-69087180D02*
X134264160Y-69087180D01*
X134264160Y-69087180D02*
X133964160Y-69387180D01*
X147564160Y-67287180D02*
X147564160Y-69687180D01*
X147564160Y-71887180D02*
X147564160Y-74487180D01*
X147564160Y-76687180D02*
X147564160Y-79087180D01*
X141464160Y-72687180D02*
X141464160Y-73687180D01*
X140964160Y-73187180D02*
X141964160Y-73187180D01*
%TO.C,SW57*%
X230640860Y-73216380D02*
X229640860Y-73216380D01*
X230140860Y-73716380D02*
X230140860Y-72716380D01*
X224040860Y-69716380D02*
X224040860Y-67316380D01*
X224040860Y-74516380D02*
X224040860Y-71916380D01*
X224040860Y-79116380D02*
X224040860Y-76716380D01*
X237340860Y-77316380D02*
X237640860Y-77016380D01*
X237940860Y-77316380D02*
X237340860Y-77316380D01*
X237640860Y-77016380D02*
X237940860Y-77316380D01*
X236240860Y-79116380D02*
X236240860Y-67316380D01*
X232140860Y-79116380D02*
X236240860Y-79116380D01*
X232140860Y-67316380D02*
X236240860Y-67316380D01*
X224040860Y-67316380D02*
X228140860Y-67316380D01*
X228140860Y-79116380D02*
X224040860Y-79116380D01*
X233140860Y-73216380D02*
G75*
G03*
X233140860Y-73216380I-3000000J0D01*
G01*
%TO.C,U1*%
X166660360Y-33246980D02*
X161260360Y-33246980D01*
X166660360Y-31621980D02*
X166660360Y-33246980D01*
X161260360Y-31621980D02*
X166660360Y-31621980D01*
X161260360Y-33246980D02*
X161260360Y-31621980D01*
X157515360Y-32116980D02*
X157515360Y-33446980D01*
X154855360Y-34716980D02*
X157515360Y-34716980D01*
X157515360Y-34716980D02*
X157515360Y-83036980D01*
X156185360Y-32116980D02*
X157515360Y-32116980D01*
X154855360Y-83036980D02*
X157515360Y-83036980D01*
X154855360Y-34716980D02*
X154855360Y-83036980D01*
X172729960Y-34716980D02*
X172729960Y-83036980D01*
X171399960Y-32116980D02*
X172729960Y-32116980D01*
X170069960Y-83036980D02*
X172729960Y-83036980D01*
X172729960Y-32116980D02*
X172729960Y-33446980D01*
X170069960Y-34716980D02*
X172729960Y-34716980D01*
X170069960Y-34716980D02*
X170069960Y-83036980D01*
%TO.C,U2*%
X214079520Y-34673800D02*
X214079520Y-82993800D01*
X214079520Y-34673800D02*
X216739520Y-34673800D01*
X216739520Y-32073800D02*
X216739520Y-33403800D01*
X214079520Y-82993800D02*
X216739520Y-82993800D01*
X215409520Y-32073800D02*
X216739520Y-32073800D01*
X216739520Y-34673800D02*
X216739520Y-82993800D01*
X198864920Y-34673800D02*
X198864920Y-82993800D01*
X198864920Y-82993800D02*
X201524920Y-82993800D01*
X200194920Y-32073800D02*
X201524920Y-32073800D01*
X201524920Y-34673800D02*
X201524920Y-82993800D01*
X198864920Y-34673800D02*
X201524920Y-34673800D01*
X201524920Y-32073800D02*
X201524920Y-33403800D01*
X205269920Y-33203800D02*
X205269920Y-31578800D01*
X205269920Y-31578800D02*
X210669920Y-31578800D01*
X210669920Y-31578800D02*
X210669920Y-33203800D01*
X210669920Y-33203800D02*
X205269920Y-33203800D01*
%TO.C,D5*%
D10*
X73786504Y-110799980D02*
X73786504Y-109799980D01*
X74024600Y-109799980D01*
X74167457Y-109847600D01*
X74262695Y-109942838D01*
X74310314Y-110038076D01*
X74357933Y-110228552D01*
X74357933Y-110371409D01*
X74310314Y-110561885D01*
X74262695Y-110657123D01*
X74167457Y-110752361D01*
X74024600Y-110799980D01*
X73786504Y-110799980D01*
X75262695Y-109799980D02*
X74786504Y-109799980D01*
X74738885Y-110276171D01*
X74786504Y-110228552D01*
X74881742Y-110180933D01*
X75119838Y-110180933D01*
X75215076Y-110228552D01*
X75262695Y-110276171D01*
X75310314Y-110371409D01*
X75310314Y-110609504D01*
X75262695Y-110704742D01*
X75215076Y-110752361D01*
X75119838Y-110799980D01*
X74881742Y-110799980D01*
X74786504Y-110752361D01*
X74738885Y-110704742D01*
X62736504Y-110799980D02*
X62736504Y-109799980D01*
X62974600Y-109799980D01*
X63117457Y-109847600D01*
X63212695Y-109942838D01*
X63260314Y-110038076D01*
X63307933Y-110228552D01*
X63307933Y-110371409D01*
X63260314Y-110561885D01*
X63212695Y-110657123D01*
X63117457Y-110752361D01*
X62974600Y-110799980D01*
X62736504Y-110799980D01*
X64212695Y-109799980D02*
X63736504Y-109799980D01*
X63688885Y-110276171D01*
X63736504Y-110228552D01*
X63831742Y-110180933D01*
X64069838Y-110180933D01*
X64165076Y-110228552D01*
X64212695Y-110276171D01*
X64260314Y-110371409D01*
X64260314Y-110609504D01*
X64212695Y-110704742D01*
X64165076Y-110752361D01*
X64069838Y-110799980D01*
X63831742Y-110799980D01*
X63736504Y-110752361D01*
X63688885Y-110704742D01*
X51736504Y-110799980D02*
X51736504Y-109799980D01*
X51974600Y-109799980D01*
X52117457Y-109847600D01*
X52212695Y-109942838D01*
X52260314Y-110038076D01*
X52307933Y-110228552D01*
X52307933Y-110371409D01*
X52260314Y-110561885D01*
X52212695Y-110657123D01*
X52117457Y-110752361D01*
X51974600Y-110799980D01*
X51736504Y-110799980D01*
X53212695Y-109799980D02*
X52736504Y-109799980D01*
X52688885Y-110276171D01*
X52736504Y-110228552D01*
X52831742Y-110180933D01*
X53069838Y-110180933D01*
X53165076Y-110228552D01*
X53212695Y-110276171D01*
X53260314Y-110371409D01*
X53260314Y-110609504D01*
X53212695Y-110704742D01*
X53165076Y-110752361D01*
X53069838Y-110799980D01*
X52831742Y-110799980D01*
X52736504Y-110752361D01*
X52688885Y-110704742D01*
%TO.C,REF\u002A\u002A*%
X19166666Y-116282380D02*
X18833333Y-115806190D01*
X18595238Y-116282380D02*
X18595238Y-115282380D01*
X18976190Y-115282380D01*
X19071428Y-115330000D01*
X19119047Y-115377619D01*
X19166666Y-115472857D01*
X19166666Y-115615714D01*
X19119047Y-115710952D01*
X19071428Y-115758571D01*
X18976190Y-115806190D01*
X18595238Y-115806190D01*
X19595238Y-115758571D02*
X19928571Y-115758571D01*
X20071428Y-116282380D02*
X19595238Y-116282380D01*
X19595238Y-115282380D01*
X20071428Y-115282380D01*
X20833333Y-115758571D02*
X20500000Y-115758571D01*
X20500000Y-116282380D02*
X20500000Y-115282380D01*
X20976190Y-115282380D01*
X21500000Y-115282380D02*
X21500000Y-115520476D01*
X21261904Y-115425238D02*
X21500000Y-115520476D01*
X21738095Y-115425238D01*
X21357142Y-115710952D02*
X21500000Y-115520476D01*
X21642857Y-115710952D01*
X22261904Y-115282380D02*
X22261904Y-115520476D01*
X22023809Y-115425238D02*
X22261904Y-115520476D01*
X22500000Y-115425238D01*
X22119047Y-115710952D02*
X22261904Y-115520476D01*
X22404761Y-115710952D01*
%TO.C,D5*%
X40736504Y-110799980D02*
X40736504Y-109799980D01*
X40974600Y-109799980D01*
X41117457Y-109847600D01*
X41212695Y-109942838D01*
X41260314Y-110038076D01*
X41307933Y-110228552D01*
X41307933Y-110371409D01*
X41260314Y-110561885D01*
X41212695Y-110657123D01*
X41117457Y-110752361D01*
X40974600Y-110799980D01*
X40736504Y-110799980D01*
X42212695Y-109799980D02*
X41736504Y-109799980D01*
X41688885Y-110276171D01*
X41736504Y-110228552D01*
X41831742Y-110180933D01*
X42069838Y-110180933D01*
X42165076Y-110228552D01*
X42212695Y-110276171D01*
X42260314Y-110371409D01*
X42260314Y-110609504D01*
X42212695Y-110704742D01*
X42165076Y-110752361D01*
X42069838Y-110799980D01*
X41831742Y-110799980D01*
X41736504Y-110752361D01*
X41688885Y-110704742D01*
X29736504Y-110799980D02*
X29736504Y-109799980D01*
X29974600Y-109799980D01*
X30117457Y-109847600D01*
X30212695Y-109942838D01*
X30260314Y-110038076D01*
X30307933Y-110228552D01*
X30307933Y-110371409D01*
X30260314Y-110561885D01*
X30212695Y-110657123D01*
X30117457Y-110752361D01*
X29974600Y-110799980D01*
X29736504Y-110799980D01*
X31212695Y-109799980D02*
X30736504Y-109799980D01*
X30688885Y-110276171D01*
X30736504Y-110228552D01*
X30831742Y-110180933D01*
X31069838Y-110180933D01*
X31165076Y-110228552D01*
X31212695Y-110276171D01*
X31260314Y-110371409D01*
X31260314Y-110609504D01*
X31212695Y-110704742D01*
X31165076Y-110752361D01*
X31069838Y-110799980D01*
X30831742Y-110799980D01*
X30736504Y-110752361D01*
X30688885Y-110704742D01*
%TO.C,C9*%
X45677142Y-110166666D02*
X45724761Y-110214285D01*
X45772380Y-110357142D01*
X45772380Y-110452380D01*
X45724761Y-110595238D01*
X45629523Y-110690476D01*
X45534285Y-110738095D01*
X45343809Y-110785714D01*
X45200952Y-110785714D01*
X45010476Y-110738095D01*
X44915238Y-110690476D01*
X44820000Y-110595238D01*
X44772380Y-110452380D01*
X44772380Y-110357142D01*
X44820000Y-110214285D01*
X44867619Y-110166666D01*
X45772380Y-109690476D02*
X45772380Y-109500000D01*
X45724761Y-109404761D01*
X45677142Y-109357142D01*
X45534285Y-109261904D01*
X45343809Y-109214285D01*
X44962857Y-109214285D01*
X44867619Y-109261904D01*
X44820000Y-109309523D01*
X44772380Y-109404761D01*
X44772380Y-109595238D01*
X44820000Y-109690476D01*
X44867619Y-109738095D01*
X44962857Y-109785714D01*
X45200952Y-109785714D01*
X45296190Y-109738095D01*
X45343809Y-109690476D01*
X45391428Y-109595238D01*
X45391428Y-109404761D01*
X45343809Y-109309523D01*
X45296190Y-109261904D01*
X45200952Y-109214285D01*
X23677142Y-110166666D02*
X23724761Y-110214285D01*
X23772380Y-110357142D01*
X23772380Y-110452380D01*
X23724761Y-110595238D01*
X23629523Y-110690476D01*
X23534285Y-110738095D01*
X23343809Y-110785714D01*
X23200952Y-110785714D01*
X23010476Y-110738095D01*
X22915238Y-110690476D01*
X22820000Y-110595238D01*
X22772380Y-110452380D01*
X22772380Y-110357142D01*
X22820000Y-110214285D01*
X22867619Y-110166666D01*
X23772380Y-109690476D02*
X23772380Y-109500000D01*
X23724761Y-109404761D01*
X23677142Y-109357142D01*
X23534285Y-109261904D01*
X23343809Y-109214285D01*
X22962857Y-109214285D01*
X22867619Y-109261904D01*
X22820000Y-109309523D01*
X22772380Y-109404761D01*
X22772380Y-109595238D01*
X22820000Y-109690476D01*
X22867619Y-109738095D01*
X22962857Y-109785714D01*
X23200952Y-109785714D01*
X23296190Y-109738095D01*
X23343809Y-109690476D01*
X23391428Y-109595238D01*
X23391428Y-109404761D01*
X23343809Y-109309523D01*
X23296190Y-109261904D01*
X23200952Y-109214285D01*
X67677142Y-110166666D02*
X67724761Y-110214285D01*
X67772380Y-110357142D01*
X67772380Y-110452380D01*
X67724761Y-110595238D01*
X67629523Y-110690476D01*
X67534285Y-110738095D01*
X67343809Y-110785714D01*
X67200952Y-110785714D01*
X67010476Y-110738095D01*
X66915238Y-110690476D01*
X66820000Y-110595238D01*
X66772380Y-110452380D01*
X66772380Y-110357142D01*
X66820000Y-110214285D01*
X66867619Y-110166666D01*
X67772380Y-109690476D02*
X67772380Y-109500000D01*
X67724761Y-109404761D01*
X67677142Y-109357142D01*
X67534285Y-109261904D01*
X67343809Y-109214285D01*
X66962857Y-109214285D01*
X66867619Y-109261904D01*
X66820000Y-109309523D01*
X66772380Y-109404761D01*
X66772380Y-109595238D01*
X66820000Y-109690476D01*
X66867619Y-109738095D01*
X66962857Y-109785714D01*
X67200952Y-109785714D01*
X67296190Y-109738095D01*
X67343809Y-109690476D01*
X67391428Y-109595238D01*
X67391428Y-109404761D01*
X67343809Y-109309523D01*
X67296190Y-109261904D01*
X67200952Y-109214285D01*
X56677142Y-110129166D02*
X56724761Y-110176785D01*
X56772380Y-110319642D01*
X56772380Y-110414880D01*
X56724761Y-110557738D01*
X56629523Y-110652976D01*
X56534285Y-110700595D01*
X56343809Y-110748214D01*
X56200952Y-110748214D01*
X56010476Y-110700595D01*
X55915238Y-110652976D01*
X55820000Y-110557738D01*
X55772380Y-110414880D01*
X55772380Y-110319642D01*
X55820000Y-110176785D01*
X55867619Y-110129166D01*
X56772380Y-109652976D02*
X56772380Y-109462500D01*
X56724761Y-109367261D01*
X56677142Y-109319642D01*
X56534285Y-109224404D01*
X56343809Y-109176785D01*
X55962857Y-109176785D01*
X55867619Y-109224404D01*
X55820000Y-109272023D01*
X55772380Y-109367261D01*
X55772380Y-109557738D01*
X55820000Y-109652976D01*
X55867619Y-109700595D01*
X55962857Y-109748214D01*
X56200952Y-109748214D01*
X56296190Y-109700595D01*
X56343809Y-109652976D01*
X56391428Y-109557738D01*
X56391428Y-109367261D01*
X56343809Y-109272023D01*
X56296190Y-109224404D01*
X56200952Y-109176785D01*
X34677142Y-110204166D02*
X34724761Y-110251785D01*
X34772380Y-110394642D01*
X34772380Y-110489880D01*
X34724761Y-110632738D01*
X34629523Y-110727976D01*
X34534285Y-110775595D01*
X34343809Y-110823214D01*
X34200952Y-110823214D01*
X34010476Y-110775595D01*
X33915238Y-110727976D01*
X33820000Y-110632738D01*
X33772380Y-110489880D01*
X33772380Y-110394642D01*
X33820000Y-110251785D01*
X33867619Y-110204166D01*
X34772380Y-109727976D02*
X34772380Y-109537500D01*
X34724761Y-109442261D01*
X34677142Y-109394642D01*
X34534285Y-109299404D01*
X34343809Y-109251785D01*
X33962857Y-109251785D01*
X33867619Y-109299404D01*
X33820000Y-109347023D01*
X33772380Y-109442261D01*
X33772380Y-109632738D01*
X33820000Y-109727976D01*
X33867619Y-109775595D01*
X33962857Y-109823214D01*
X34200952Y-109823214D01*
X34296190Y-109775595D01*
X34343809Y-109727976D01*
X34391428Y-109632738D01*
X34391428Y-109442261D01*
X34343809Y-109347023D01*
X34296190Y-109299404D01*
X34200952Y-109251785D01*
%TO.C,J1*%
X174369540Y-71768560D02*
X174369540Y-71578084D01*
X174417160Y-71482846D01*
X174512398Y-71387608D01*
X174702874Y-71339989D01*
X175036207Y-71339989D01*
X175226683Y-71387608D01*
X175321921Y-71482846D01*
X175369540Y-71578084D01*
X175369540Y-71768560D01*
X175321921Y-71863799D01*
X175226683Y-71959037D01*
X175036207Y-72006656D01*
X174702874Y-72006656D01*
X174512398Y-71959037D01*
X174417160Y-71863799D01*
X174369540Y-71768560D01*
X175369540Y-70435227D02*
X175369540Y-70911418D01*
X174369540Y-70911418D01*
X174845731Y-70101894D02*
X174845731Y-69768560D01*
X175369540Y-69625703D02*
X175369540Y-70101894D01*
X174369540Y-70101894D01*
X174369540Y-69625703D01*
X175369540Y-69197132D02*
X174369540Y-69197132D01*
X174369540Y-68959037D01*
X174417160Y-68816180D01*
X174512398Y-68720941D01*
X174607636Y-68673322D01*
X174798112Y-68625703D01*
X174940969Y-68625703D01*
X175131445Y-68673322D01*
X175226683Y-68720941D01*
X175321921Y-68816180D01*
X175369540Y-68959037D01*
X175369540Y-69197132D01*
%TO.C,J2*%
X169244219Y-94786823D02*
X169500973Y-94276325D01*
X170265967Y-94980893D02*
X169372596Y-94531574D01*
X170800871Y-93917356D02*
X170225683Y-94001185D01*
X170544117Y-94427854D02*
X169650746Y-93978535D01*
X169821915Y-93638203D01*
X169907249Y-93574516D01*
X169971186Y-93553371D01*
X170077665Y-93553621D01*
X170205290Y-93617810D01*
X170268977Y-93703144D01*
X170290122Y-93767081D01*
X170289871Y-93873560D01*
X170118702Y-94213892D01*
X171250190Y-93023984D02*
X170675002Y-93107813D01*
X170993436Y-93534482D02*
X170100065Y-93085163D01*
X170271234Y-92744831D01*
X170356568Y-92681145D01*
X170420505Y-92659999D01*
X170526984Y-92660250D01*
X170654609Y-92724438D01*
X170718296Y-92809772D01*
X170739441Y-92873710D01*
X170739190Y-92980189D01*
X170568021Y-93320521D01*
X171378817Y-92662256D02*
X171485547Y-92556028D01*
X171592528Y-92343321D01*
X171592779Y-92236841D01*
X171571634Y-92172904D01*
X171507947Y-92087570D01*
X171422864Y-92044778D01*
X171316385Y-92044527D01*
X171252447Y-92065672D01*
X171167113Y-92129359D01*
X171038987Y-92278129D01*
X170953653Y-92341816D01*
X170889716Y-92362961D01*
X170783237Y-92362710D01*
X170698154Y-92319918D01*
X170634467Y-92234584D01*
X170613321Y-92170647D01*
X170613572Y-92064168D01*
X170720553Y-91851460D01*
X170827283Y-91745232D01*
%TO.C,J3*%
X196620300Y-71679980D02*
X196620300Y-71489504D01*
X196667920Y-71394266D01*
X196763158Y-71299028D01*
X196953634Y-71251409D01*
X197286967Y-71251409D01*
X197477443Y-71299028D01*
X197572681Y-71394266D01*
X197620300Y-71489504D01*
X197620300Y-71679980D01*
X197572681Y-71775219D01*
X197477443Y-71870457D01*
X197286967Y-71918076D01*
X196953634Y-71918076D01*
X196763158Y-71870457D01*
X196667920Y-71775219D01*
X196620300Y-71679980D01*
X197620300Y-70346647D02*
X197620300Y-70822838D01*
X196620300Y-70822838D01*
X197096491Y-70013314D02*
X197096491Y-69679980D01*
X197620300Y-69537123D02*
X197620300Y-70013314D01*
X196620300Y-70013314D01*
X196620300Y-69537123D01*
X197620300Y-69108552D02*
X196620300Y-69108552D01*
X196620300Y-68870457D01*
X196667920Y-68727600D01*
X196763158Y-68632361D01*
X196858396Y-68584742D01*
X197048872Y-68537123D01*
X197191729Y-68537123D01*
X197382205Y-68584742D01*
X197477443Y-68632361D01*
X197572681Y-68727600D01*
X197620300Y-68870457D01*
X197620300Y-69108552D01*
%TO.C,J4*%
X200610724Y-91437030D02*
X200867478Y-91947527D01*
X199845730Y-92141598D02*
X200739101Y-91692279D01*
X200380633Y-93205135D02*
X200656275Y-92693383D01*
X200123880Y-92694637D02*
X201017251Y-92245318D01*
X201188420Y-92585650D01*
X201188671Y-92692129D01*
X201167526Y-92756067D01*
X201103839Y-92841400D01*
X200976214Y-92905589D01*
X200869735Y-92905840D01*
X200805798Y-92884694D01*
X200720464Y-92821007D01*
X200549295Y-92480676D01*
X200829952Y-94098506D02*
X201105594Y-93586754D01*
X200573199Y-93588008D02*
X201466570Y-93138689D01*
X201637739Y-93479021D01*
X201637990Y-93585500D01*
X201616845Y-93649438D01*
X201553158Y-93734772D01*
X201425533Y-93798960D01*
X201319054Y-93799211D01*
X201255117Y-93778066D01*
X201169783Y-93714379D01*
X200998614Y-93374047D01*
X201043663Y-94417442D02*
X201065310Y-94566463D01*
X201172291Y-94779170D01*
X201257625Y-94842857D01*
X201321562Y-94864002D01*
X201428041Y-94863752D01*
X201513124Y-94820959D01*
X201576811Y-94735626D01*
X201597956Y-94671688D01*
X201597706Y-94565209D01*
X201554663Y-94373647D01*
X201554412Y-94267168D01*
X201575557Y-94203230D01*
X201639244Y-94117896D01*
X201724327Y-94075104D01*
X201830806Y-94074853D01*
X201894744Y-94095998D01*
X201980078Y-94159685D01*
X202087058Y-94372393D01*
X202108705Y-94521413D01*
%TO.C,SW28*%
X134954636Y-66391941D02*
X135097493Y-66439560D01*
X135335588Y-66439560D01*
X135430826Y-66391941D01*
X135478445Y-66344322D01*
X135526064Y-66249084D01*
X135526064Y-66153846D01*
X135478445Y-66058608D01*
X135430826Y-66010989D01*
X135335588Y-65963370D01*
X135145112Y-65915751D01*
X135049874Y-65868132D01*
X135002255Y-65820513D01*
X134954636Y-65725275D01*
X134954636Y-65630037D01*
X135002255Y-65534799D01*
X135049874Y-65487180D01*
X135145112Y-65439560D01*
X135383207Y-65439560D01*
X135526064Y-65487180D01*
X135859398Y-65439560D02*
X136097493Y-66439560D01*
X136287969Y-65725275D01*
X136478445Y-66439560D01*
X136716540Y-65439560D01*
X137049874Y-65534799D02*
X137097493Y-65487180D01*
X137192731Y-65439560D01*
X137430826Y-65439560D01*
X137526064Y-65487180D01*
X137573683Y-65534799D01*
X137621302Y-65630037D01*
X137621302Y-65725275D01*
X137573683Y-65868132D01*
X137002255Y-66439560D01*
X137621302Y-66439560D01*
X138192731Y-65868132D02*
X138097493Y-65820513D01*
X138049874Y-65772894D01*
X138002255Y-65677656D01*
X138002255Y-65630037D01*
X138049874Y-65534799D01*
X138097493Y-65487180D01*
X138192731Y-65439560D01*
X138383207Y-65439560D01*
X138478445Y-65487180D01*
X138526064Y-65534799D01*
X138573683Y-65630037D01*
X138573683Y-65677656D01*
X138526064Y-65772894D01*
X138478445Y-65820513D01*
X138383207Y-65868132D01*
X138192731Y-65868132D01*
X138097493Y-65915751D01*
X138049874Y-65963370D01*
X138002255Y-66058608D01*
X138002255Y-66249084D01*
X138049874Y-66344322D01*
X138097493Y-66391941D01*
X138192731Y-66439560D01*
X138383207Y-66439560D01*
X138478445Y-66391941D01*
X138526064Y-66344322D01*
X138573683Y-66249084D01*
X138573683Y-66058608D01*
X138526064Y-65963370D01*
X138478445Y-65915751D01*
X138383207Y-65868132D01*
%TO.C,SW57*%
X233031336Y-80821141D02*
X233174193Y-80868760D01*
X233412288Y-80868760D01*
X233507526Y-80821141D01*
X233555145Y-80773522D01*
X233602764Y-80678284D01*
X233602764Y-80583046D01*
X233555145Y-80487808D01*
X233507526Y-80440189D01*
X233412288Y-80392570D01*
X233221812Y-80344951D01*
X233126574Y-80297332D01*
X233078955Y-80249713D01*
X233031336Y-80154475D01*
X233031336Y-80059237D01*
X233078955Y-79963999D01*
X233126574Y-79916380D01*
X233221812Y-79868760D01*
X233459907Y-79868760D01*
X233602764Y-79916380D01*
X233936098Y-79868760D02*
X234174193Y-80868760D01*
X234364669Y-80154475D01*
X234555145Y-80868760D01*
X234793240Y-79868760D01*
X235650383Y-79868760D02*
X235174193Y-79868760D01*
X235126574Y-80344951D01*
X235174193Y-80297332D01*
X235269431Y-80249713D01*
X235507526Y-80249713D01*
X235602764Y-80297332D01*
X235650383Y-80344951D01*
X235698002Y-80440189D01*
X235698002Y-80678284D01*
X235650383Y-80773522D01*
X235602764Y-80821141D01*
X235507526Y-80868760D01*
X235269431Y-80868760D01*
X235174193Y-80821141D01*
X235126574Y-80773522D01*
X236031336Y-79868760D02*
X236698002Y-79868760D01*
X236269431Y-80868760D01*
%TO.C,U1*%
X162223455Y-55824360D02*
X162223455Y-56633884D01*
X162271074Y-56729122D01*
X162318693Y-56776741D01*
X162413931Y-56824360D01*
X162604407Y-56824360D01*
X162699645Y-56776741D01*
X162747264Y-56729122D01*
X162794883Y-56633884D01*
X162794883Y-55824360D01*
X163794883Y-56824360D02*
X163223455Y-56824360D01*
X163509169Y-56824360D02*
X163509169Y-55824360D01*
X163413931Y-55967218D01*
X163318693Y-56062456D01*
X163223455Y-56110075D01*
X161579407Y-31974360D02*
X161579407Y-32783884D01*
X161627026Y-32879122D01*
X161674645Y-32926741D01*
X161769883Y-32974360D01*
X161960360Y-32974360D01*
X162055598Y-32926741D01*
X162103217Y-32879122D01*
X162150836Y-32783884D01*
X162150836Y-31974360D01*
X162579407Y-32926741D02*
X162722264Y-32974360D01*
X162960360Y-32974360D01*
X163055598Y-32926741D01*
X163103217Y-32879122D01*
X163150836Y-32783884D01*
X163150836Y-32688646D01*
X163103217Y-32593408D01*
X163055598Y-32545789D01*
X162960360Y-32498170D01*
X162769883Y-32450551D01*
X162674645Y-32402932D01*
X162627026Y-32355313D01*
X162579407Y-32260075D01*
X162579407Y-32164837D01*
X162627026Y-32069599D01*
X162674645Y-32021980D01*
X162769883Y-31974360D01*
X163007979Y-31974360D01*
X163150836Y-32021980D01*
X163912740Y-32450551D02*
X164055598Y-32498170D01*
X164103217Y-32545789D01*
X164150836Y-32641027D01*
X164150836Y-32783884D01*
X164103217Y-32879122D01*
X164055598Y-32926741D01*
X163960360Y-32974360D01*
X163579407Y-32974360D01*
X163579407Y-31974360D01*
X163912740Y-31974360D01*
X164007979Y-32021980D01*
X164055598Y-32069599D01*
X164103217Y-32164837D01*
X164103217Y-32260075D01*
X164055598Y-32355313D01*
X164007979Y-32402932D01*
X163912740Y-32450551D01*
X163579407Y-32450551D01*
X164579407Y-32593408D02*
X165341312Y-32593408D01*
X166388931Y-32879122D02*
X166341312Y-32926741D01*
X166198455Y-32974360D01*
X166103217Y-32974360D01*
X165960360Y-32926741D01*
X165865121Y-32831503D01*
X165817502Y-32736265D01*
X165769883Y-32545789D01*
X165769883Y-32402932D01*
X165817502Y-32212456D01*
X165865121Y-32117218D01*
X165960360Y-32021980D01*
X166103217Y-31974360D01*
X166198455Y-31974360D01*
X166341312Y-32021980D01*
X166388931Y-32069599D01*
X167702026Y-81299360D02*
X168035360Y-82299360D01*
X168368693Y-81299360D01*
X169035360Y-81775551D02*
X169178217Y-81823170D01*
X169225836Y-81870789D01*
X169273455Y-81966027D01*
X169273455Y-82108884D01*
X169225836Y-82204122D01*
X169178217Y-82251741D01*
X169082979Y-82299360D01*
X168702026Y-82299360D01*
X168702026Y-81299360D01*
X169035360Y-81299360D01*
X169130598Y-81346980D01*
X169178217Y-81394599D01*
X169225836Y-81489837D01*
X169225836Y-81585075D01*
X169178217Y-81680313D01*
X169130598Y-81727932D01*
X169035360Y-81775551D01*
X168702026Y-81775551D01*
X158222264Y-81299360D02*
X158841312Y-81299360D01*
X158507979Y-81680313D01*
X158650836Y-81680313D01*
X158746074Y-81727932D01*
X158793693Y-81775551D01*
X158841312Y-81870789D01*
X158841312Y-82108884D01*
X158793693Y-82204122D01*
X158746074Y-82251741D01*
X158650836Y-82299360D01*
X158365121Y-82299360D01*
X158269883Y-82251741D01*
X158222264Y-82204122D01*
X159127026Y-81299360D02*
X159460360Y-82299360D01*
X159793693Y-81299360D01*
X160031788Y-81299360D02*
X160650836Y-81299360D01*
X160317502Y-81680313D01*
X160460360Y-81680313D01*
X160555598Y-81727932D01*
X160603217Y-81775551D01*
X160650836Y-81870789D01*
X160650836Y-82108884D01*
X160603217Y-82204122D01*
X160555598Y-82251741D01*
X160460360Y-82299360D01*
X160174645Y-82299360D01*
X160079407Y-82251741D01*
X160031788Y-82204122D01*
X168344883Y-32899360D02*
X167868693Y-32899360D01*
X167821074Y-33375551D01*
X167868693Y-33327932D01*
X167963931Y-33280313D01*
X168202026Y-33280313D01*
X168297264Y-33327932D01*
X168344883Y-33375551D01*
X168392502Y-33470789D01*
X168392502Y-33708884D01*
X168344883Y-33804122D01*
X168297264Y-33851741D01*
X168202026Y-33899360D01*
X167963931Y-33899360D01*
X167868693Y-33851741D01*
X167821074Y-33804122D01*
X168678217Y-32899360D02*
X169011550Y-33899360D01*
X169344883Y-32899360D01*
X158579407Y-33450551D02*
X158722264Y-33498170D01*
X158769883Y-33545789D01*
X158817502Y-33641027D01*
X158817502Y-33783884D01*
X158769883Y-33879122D01*
X158722264Y-33926741D01*
X158627026Y-33974360D01*
X158246074Y-33974360D01*
X158246074Y-32974360D01*
X158579407Y-32974360D01*
X158674645Y-33021980D01*
X158722264Y-33069599D01*
X158769883Y-33164837D01*
X158769883Y-33260075D01*
X158722264Y-33355313D01*
X158674645Y-33402932D01*
X158579407Y-33450551D01*
X158246074Y-33450551D01*
X159769883Y-33974360D02*
X159198455Y-33974360D01*
X159484169Y-33974360D02*
X159484169Y-32974360D01*
X159388931Y-33117218D01*
X159293693Y-33212456D01*
X159198455Y-33260075D01*
X160150836Y-33069599D02*
X160198455Y-33021980D01*
X160293693Y-32974360D01*
X160531788Y-32974360D01*
X160627026Y-33021980D01*
X160674645Y-33069599D01*
X160722264Y-33164837D01*
X160722264Y-33260075D01*
X160674645Y-33402932D01*
X160103217Y-33974360D01*
X160722264Y-33974360D01*
%TO.C,U2*%
X206233015Y-55781180D02*
X206233015Y-56590704D01*
X206280634Y-56685942D01*
X206328253Y-56733561D01*
X206423491Y-56781180D01*
X206613967Y-56781180D01*
X206709205Y-56733561D01*
X206756824Y-56685942D01*
X206804443Y-56590704D01*
X206804443Y-55781180D01*
X207233015Y-55876419D02*
X207280634Y-55828800D01*
X207375872Y-55781180D01*
X207613967Y-55781180D01*
X207709205Y-55828800D01*
X207756824Y-55876419D01*
X207804443Y-55971657D01*
X207804443Y-56066895D01*
X207756824Y-56209752D01*
X207185396Y-56781180D01*
X207804443Y-56781180D01*
X202588967Y-33407371D02*
X202731824Y-33454990D01*
X202779443Y-33502609D01*
X202827062Y-33597847D01*
X202827062Y-33740704D01*
X202779443Y-33835942D01*
X202731824Y-33883561D01*
X202636586Y-33931180D01*
X202255634Y-33931180D01*
X202255634Y-32931180D01*
X202588967Y-32931180D01*
X202684205Y-32978800D01*
X202731824Y-33026419D01*
X202779443Y-33121657D01*
X202779443Y-33216895D01*
X202731824Y-33312133D01*
X202684205Y-33359752D01*
X202588967Y-33407371D01*
X202255634Y-33407371D01*
X203779443Y-33931180D02*
X203208015Y-33931180D01*
X203493729Y-33931180D02*
X203493729Y-32931180D01*
X203398491Y-33074038D01*
X203303253Y-33169276D01*
X203208015Y-33216895D01*
X204160396Y-33026419D02*
X204208015Y-32978800D01*
X204303253Y-32931180D01*
X204541348Y-32931180D01*
X204636586Y-32978800D01*
X204684205Y-33026419D01*
X204731824Y-33121657D01*
X204731824Y-33216895D01*
X204684205Y-33359752D01*
X204112777Y-33931180D01*
X204731824Y-33931180D01*
X212354443Y-32856180D02*
X211878253Y-32856180D01*
X211830634Y-33332371D01*
X211878253Y-33284752D01*
X211973491Y-33237133D01*
X212211586Y-33237133D01*
X212306824Y-33284752D01*
X212354443Y-33332371D01*
X212402062Y-33427609D01*
X212402062Y-33665704D01*
X212354443Y-33760942D01*
X212306824Y-33808561D01*
X212211586Y-33856180D01*
X211973491Y-33856180D01*
X211878253Y-33808561D01*
X211830634Y-33760942D01*
X212687777Y-32856180D02*
X213021110Y-33856180D01*
X213354443Y-32856180D01*
X202231824Y-81256180D02*
X202850872Y-81256180D01*
X202517539Y-81637133D01*
X202660396Y-81637133D01*
X202755634Y-81684752D01*
X202803253Y-81732371D01*
X202850872Y-81827609D01*
X202850872Y-82065704D01*
X202803253Y-82160942D01*
X202755634Y-82208561D01*
X202660396Y-82256180D01*
X202374681Y-82256180D01*
X202279443Y-82208561D01*
X202231824Y-82160942D01*
X203136586Y-81256180D02*
X203469920Y-82256180D01*
X203803253Y-81256180D01*
X204041348Y-81256180D02*
X204660396Y-81256180D01*
X204327062Y-81637133D01*
X204469920Y-81637133D01*
X204565158Y-81684752D01*
X204612777Y-81732371D01*
X204660396Y-81827609D01*
X204660396Y-82065704D01*
X204612777Y-82160942D01*
X204565158Y-82208561D01*
X204469920Y-82256180D01*
X204184205Y-82256180D01*
X204088967Y-82208561D01*
X204041348Y-82160942D01*
X211711586Y-81256180D02*
X212044920Y-82256180D01*
X212378253Y-81256180D01*
X213044920Y-81732371D02*
X213187777Y-81779990D01*
X213235396Y-81827609D01*
X213283015Y-81922847D01*
X213283015Y-82065704D01*
X213235396Y-82160942D01*
X213187777Y-82208561D01*
X213092539Y-82256180D01*
X212711586Y-82256180D01*
X212711586Y-81256180D01*
X213044920Y-81256180D01*
X213140158Y-81303800D01*
X213187777Y-81351419D01*
X213235396Y-81446657D01*
X213235396Y-81541895D01*
X213187777Y-81637133D01*
X213140158Y-81684752D01*
X213044920Y-81732371D01*
X212711586Y-81732371D01*
X205588967Y-31931180D02*
X205588967Y-32740704D01*
X205636586Y-32835942D01*
X205684205Y-32883561D01*
X205779443Y-32931180D01*
X205969920Y-32931180D01*
X206065158Y-32883561D01*
X206112777Y-32835942D01*
X206160396Y-32740704D01*
X206160396Y-31931180D01*
X206588967Y-32883561D02*
X206731824Y-32931180D01*
X206969920Y-32931180D01*
X207065158Y-32883561D01*
X207112777Y-32835942D01*
X207160396Y-32740704D01*
X207160396Y-32645466D01*
X207112777Y-32550228D01*
X207065158Y-32502609D01*
X206969920Y-32454990D01*
X206779443Y-32407371D01*
X206684205Y-32359752D01*
X206636586Y-32312133D01*
X206588967Y-32216895D01*
X206588967Y-32121657D01*
X206636586Y-32026419D01*
X206684205Y-31978800D01*
X206779443Y-31931180D01*
X207017539Y-31931180D01*
X207160396Y-31978800D01*
X207922300Y-32407371D02*
X208065158Y-32454990D01*
X208112777Y-32502609D01*
X208160396Y-32597847D01*
X208160396Y-32740704D01*
X208112777Y-32835942D01*
X208065158Y-32883561D01*
X207969920Y-32931180D01*
X207588967Y-32931180D01*
X207588967Y-31931180D01*
X207922300Y-31931180D01*
X208017539Y-31978800D01*
X208065158Y-32026419D01*
X208112777Y-32121657D01*
X208112777Y-32216895D01*
X208065158Y-32312133D01*
X208017539Y-32359752D01*
X207922300Y-32407371D01*
X207588967Y-32407371D01*
X208588967Y-32550228D02*
X209350872Y-32550228D01*
X210398491Y-32835942D02*
X210350872Y-32883561D01*
X210208015Y-32931180D01*
X210112777Y-32931180D01*
X209969920Y-32883561D01*
X209874681Y-32788323D01*
X209827062Y-32693085D01*
X209779443Y-32502609D01*
X209779443Y-32359752D01*
X209827062Y-32169276D01*
X209874681Y-32074038D01*
X209969920Y-31978800D01*
X210112777Y-31931180D01*
X210208015Y-31931180D01*
X210350872Y-31978800D01*
X210398491Y-32026419D01*
%TD*%
M02*
