%TF.GenerationSoftware,KiCad,Pcbnew,(5.1.9-0-10_14)*%
%TF.CreationDate,2021-03-29T23:19:48+01:00*%
%TF.ProjectId,peautkb,70656175-746b-4622-9e6b-696361645f70,rev?*%
%TF.SameCoordinates,Original*%
%TF.FileFunction,Copper,L4,Bot*%
%TF.FilePolarity,Positive*%
%FSLAX46Y46*%
G04 Gerber Fmt 4.6, Leading zero omitted, Abs format (unit mm)*
G04 Created by KiCad (PCBNEW (5.1.9-0-10_14)) date 2021-03-29 23:19:48*
%MOMM*%
%LPD*%
G01*
G04 APERTURE LIST*
%TA.AperFunction,SMDPad,CuDef*%
%ADD10R,1.500000X1.000000*%
%TD*%
%TA.AperFunction,SMDPad,CuDef*%
%ADD11R,1.000000X1.400000*%
%TD*%
%TA.AperFunction,SMDPad,CuDef*%
%ADD12C,0.100000*%
%TD*%
%TA.AperFunction,ComponentPad*%
%ADD13O,1.778000X1.397000*%
%TD*%
%TA.AperFunction,SMDPad,CuDef*%
%ADD14R,1.700000X1.000000*%
%TD*%
%TA.AperFunction,SMDPad,CuDef*%
%ADD15R,2.550000X2.500000*%
%TD*%
%TA.AperFunction,ComponentPad*%
%ADD16C,2.000000*%
%TD*%
%TA.AperFunction,ComponentPad*%
%ADD17R,3.200000X2.000000*%
%TD*%
%TA.AperFunction,ComponentPad*%
%ADD18R,2.000000X2.000000*%
%TD*%
%TA.AperFunction,ComponentPad*%
%ADD19O,1.700000X1.700000*%
%TD*%
%TA.AperFunction,ComponentPad*%
%ADD20R,1.700000X1.700000*%
%TD*%
%TA.AperFunction,ViaPad*%
%ADD21C,0.800000*%
%TD*%
%TA.AperFunction,Conductor*%
%ADD22C,0.500000*%
%TD*%
%TA.AperFunction,Conductor*%
%ADD23C,0.250000*%
%TD*%
G04 APERTURE END LIST*
D10*
%TO.P,D62,1*%
%TO.N,GND2*%
X211614580Y-92698620D03*
%TO.P,D62,2*%
%TO.N,Net-(D62-Pad2)*%
X211614580Y-89498620D03*
%TO.P,D62,4*%
%TO.N,Net-(D62-Pad4)*%
X216514580Y-92698620D03*
%TO.P,D62,3*%
%TO.N,VCC*%
X216514580Y-89498620D03*
%TD*%
%TO.P,D1,3*%
%TO.N,VDD*%
X46474960Y-34314180D03*
%TO.P,D1,4*%
%TO.N,Net-(D1-Pad4)*%
X46474960Y-31114180D03*
%TO.P,D1,2*%
%TO.N,Net-(D1-Pad2)*%
X51374960Y-34314180D03*
%TO.P,D1,1*%
%TO.N,GND1*%
X51374960Y-31114180D03*
%TD*%
%TO.P,D5,1*%
%TO.N,GND1*%
X59299760Y-87603780D03*
%TO.P,D5,2*%
%TO.N,Net-(D5-Pad2)*%
X59299760Y-90803780D03*
%TO.P,D5,4*%
%TO.N,Net-(D5-Pad4)*%
X54399760Y-87603780D03*
%TO.P,D5,3*%
%TO.N,VDD*%
X54399760Y-90803780D03*
%TD*%
D11*
%TO.P,D6,1*%
%TO.N,LRow0*%
X35666160Y-50872180D03*
%TO.P,D6,2*%
%TO.N,Net-(D6-Pad2)*%
X35666160Y-47322180D03*
%TD*%
%TO.P,D7,1*%
%TO.N,LRow1*%
X35666160Y-69820580D03*
%TO.P,D7,2*%
%TO.N,Net-(D7-Pad2)*%
X35666160Y-66270580D03*
%TD*%
%TO.P,D8,1*%
%TO.N,LRow2*%
X35666160Y-88972180D03*
%TO.P,D8,2*%
%TO.N,Net-(D8-Pad2)*%
X35666160Y-85422180D03*
%TD*%
D10*
%TO.P,D9,3*%
%TO.N,VDD*%
X89550000Y-37819380D03*
%TO.P,D9,4*%
%TO.N,Net-(D9-Pad4)*%
X89550000Y-34619380D03*
%TO.P,D9,2*%
%TO.N,Net-(D9-Pad2)*%
X94450000Y-37819380D03*
%TO.P,D9,1*%
%TO.N,GND1*%
X94450000Y-34619380D03*
%TD*%
D11*
%TO.P,D10,2*%
%TO.N,Net-(D10-Pad2)*%
X54665360Y-41581780D03*
%TO.P,D10,1*%
%TO.N,LRow0*%
X54665360Y-45131780D03*
%TD*%
%TO.P,D11,2*%
%TO.N,Net-(D11-Pad2)*%
X54730000Y-57865000D03*
%TO.P,D11,1*%
%TO.N,LRow1*%
X54730000Y-61415000D03*
%TD*%
%TO.P,D12,2*%
%TO.N,Net-(D12-Pad2)*%
X54665360Y-79580180D03*
%TO.P,D12,1*%
%TO.N,LRow2*%
X54665360Y-83130180D03*
%TD*%
D10*
%TO.P,D13,1*%
%TO.N,GND1*%
X93950000Y-74344980D03*
%TO.P,D13,2*%
%TO.N,Net-(D13-Pad2)*%
X93950000Y-77544980D03*
%TO.P,D13,4*%
%TO.N,Net-(D13-Pad4)*%
X89050000Y-74344980D03*
%TO.P,D13,3*%
%TO.N,VDD*%
X89050000Y-77544980D03*
%TD*%
D11*
%TO.P,D14,1*%
%TO.N,LRow0*%
X73664560Y-31771380D03*
%TO.P,D14,2*%
%TO.N,Net-(D14-Pad2)*%
X73664560Y-28221380D03*
%TD*%
%TO.P,D15,1*%
%TO.N,LRow1*%
X73664560Y-50719780D03*
%TO.P,D15,2*%
%TO.N,Net-(D15-Pad2)*%
X73664560Y-47169780D03*
%TD*%
%TO.P,D16,2*%
%TO.N,Net-(D16-Pad2)*%
X92663760Y-85269780D03*
%TO.P,D16,1*%
%TO.N,LRow3*%
X92663760Y-88819780D03*
%TD*%
%TO.P,D17,1*%
%TO.N,LRow2*%
X73613760Y-69820580D03*
%TO.P,D17,2*%
%TO.N,Net-(D17-Pad2)*%
X73613760Y-66270580D03*
%TD*%
D10*
%TO.P,D18,3*%
%TO.N,VDD*%
X146220760Y-45972780D03*
%TO.P,D18,4*%
%TO.N,Net-(D18-Pad4)*%
X146220760Y-42772780D03*
%TO.P,D18,2*%
%TO.N,LLED_In*%
X151120760Y-45972780D03*
%TO.P,D18,1*%
%TO.N,GND1*%
X151120760Y-42772780D03*
%TD*%
D11*
%TO.P,D19,2*%
%TO.N,Net-(D19-Pad2)*%
X92663760Y-25478180D03*
%TO.P,D19,1*%
%TO.N,LRow0*%
X92663760Y-29028180D03*
%TD*%
%TO.P,D20,2*%
%TO.N,Net-(D20-Pad2)*%
X92612960Y-44477380D03*
%TO.P,D20,1*%
%TO.N,LRow1*%
X92612960Y-48027380D03*
%TD*%
%TA.AperFunction,SMDPad,CuDef*%
D12*
%TO.P,D21,1*%
%TO.N,LRow3*%
G36*
X112632785Y-91796413D02*
G01*
X111639614Y-91679742D01*
X111802953Y-90289303D01*
X112796124Y-90405974D01*
X112632785Y-91796413D01*
G37*
%TD.AperFunction*%
%TA.AperFunction,SMDPad,CuDef*%
%TO.P,D21,2*%
%TO.N,Net-(D21-Pad2)*%
G36*
X113046967Y-88270657D02*
G01*
X112053796Y-88153986D01*
X112217135Y-86763547D01*
X113210306Y-86880218D01*
X113046967Y-88270657D01*
G37*
%TD.AperFunction*%
%TD*%
D10*
%TO.P,D22,1*%
%TO.N,GND1*%
X159807560Y-89635780D03*
%TO.P,D22,2*%
%TO.N,Net-(D22-Pad2)*%
X159807560Y-92835780D03*
%TO.P,D22,4*%
%TO.N,Net-(D22-Pad4)*%
X154907560Y-89635780D03*
%TO.P,D22,3*%
%TO.N,VDD*%
X154907560Y-92835780D03*
%TD*%
D11*
%TO.P,D23,2*%
%TO.N,Net-(D23-Pad2)*%
X92714560Y-63374980D03*
%TO.P,D23,1*%
%TO.N,LRow2*%
X92714560Y-66924980D03*
%TD*%
%TO.P,D24,2*%
%TO.N,Net-(D24-Pad2)*%
X111612160Y-28373780D03*
%TO.P,D24,1*%
%TO.N,LRow0*%
X111612160Y-31923780D03*
%TD*%
%TO.P,D25,1*%
%TO.N,LRow1*%
X111662960Y-50872180D03*
%TO.P,D25,2*%
%TO.N,Net-(D25-Pad2)*%
X111662960Y-47322180D03*
%TD*%
%TA.AperFunction,SMDPad,CuDef*%
D12*
%TO.P,D26,2*%
%TO.N,Net-(D26-Pad2)*%
G36*
X132642277Y-92668120D02*
G01*
X131669502Y-92436372D01*
X131993949Y-91074486D01*
X132966724Y-91306234D01*
X132642277Y-92668120D01*
G37*
%TD.AperFunction*%
%TA.AperFunction,SMDPad,CuDef*%
%TO.P,D26,1*%
%TO.N,LRow3*%
G36*
X131819571Y-96121474D02*
G01*
X130846796Y-95889726D01*
X131171243Y-94527840D01*
X132144018Y-94759588D01*
X131819571Y-96121474D01*
G37*
%TD.AperFunction*%
%TD*%
D11*
%TO.P,D27,1*%
%TO.N,LRow2*%
X111612160Y-69769780D03*
%TO.P,D27,2*%
%TO.N,Net-(D27-Pad2)*%
X111612160Y-66219780D03*
%TD*%
%TO.P,D28,1*%
%TO.N,LRow0*%
X130712960Y-34260580D03*
%TO.P,D28,2*%
%TO.N,Net-(D28-Pad2)*%
X130712960Y-30710580D03*
%TD*%
%TO.P,D29,1*%
%TO.N,LRow1*%
X130611360Y-53259780D03*
%TO.P,D29,2*%
%TO.N,Net-(D29-Pad2)*%
X130611360Y-49709780D03*
%TD*%
%TA.AperFunction,SMDPad,CuDef*%
D12*
%TO.P,D30,1*%
%TO.N,LRow3*%
G36*
X150376906Y-102800329D02*
G01*
X149437214Y-102458309D01*
X149916042Y-101142739D01*
X150855734Y-101484759D01*
X150376906Y-102800329D01*
G37*
%TD.AperFunction*%
%TA.AperFunction,SMDPad,CuDef*%
%TO.P,D30,2*%
%TO.N,Net-(D30-Pad2)*%
G36*
X151591078Y-99464421D02*
G01*
X150651386Y-99122401D01*
X151130214Y-97806831D01*
X152069906Y-98148851D01*
X151591078Y-99464421D01*
G37*
%TD.AperFunction*%
%TD*%
D11*
%TO.P,D31,1*%
%TO.N,LRow2*%
X130712960Y-72258980D03*
%TO.P,D31,2*%
%TO.N,Net-(D31-Pad2)*%
X130712960Y-68708980D03*
%TD*%
%TO.P,D32,1*%
%TO.N,LRow2*%
X151185360Y-79370980D03*
%TO.P,D32,2*%
%TO.N,Net-(D32-Pad2)*%
X151185360Y-75820980D03*
%TD*%
%TO.P,D33,1*%
%TO.N,LRow1*%
X149661360Y-55085580D03*
%TO.P,D33,2*%
%TO.N,Net-(D33-Pad2)*%
X149661360Y-51535580D03*
%TD*%
%TO.P,D34,2*%
%TO.N,Net-(D34-Pad2)*%
X149661360Y-32590180D03*
%TO.P,D34,1*%
%TO.N,LRow0*%
X149661360Y-36140180D03*
%TD*%
%TA.AperFunction,SMDPad,CuDef*%
D12*
%TO.P,D35,2*%
%TO.N,Net-(D35-Pad2)*%
G36*
X169564863Y-108254665D02*
G01*
X168671492Y-107805346D01*
X169300539Y-106554627D01*
X170193910Y-107003946D01*
X169564863Y-108254665D01*
G37*
%TD.AperFunction*%
%TA.AperFunction,SMDPad,CuDef*%
%TO.P,D35,1*%
%TO.N,LRow3*%
G36*
X167969781Y-111426133D02*
G01*
X167076410Y-110976814D01*
X167705457Y-109726095D01*
X168598828Y-110175414D01*
X167969781Y-111426133D01*
G37*
%TD.AperFunction*%
%TD*%
D11*
%TO.P,D39,1*%
%TO.N,RRow0*%
X352344720Y-50930600D03*
%TO.P,D39,2*%
%TO.N,Net-(D39-Pad2)*%
X352344720Y-47380600D03*
%TD*%
%TO.P,D40,1*%
%TO.N,RRow1*%
X352370120Y-69980600D03*
%TO.P,D40,2*%
%TO.N,Net-(D40-Pad2)*%
X352370120Y-66430600D03*
%TD*%
%TO.P,D41,1*%
%TO.N,RRow2*%
X352344720Y-88827400D03*
%TO.P,D41,2*%
%TO.N,Net-(D41-Pad2)*%
X352344720Y-85277400D03*
%TD*%
D10*
%TO.P,D42,3*%
%TO.N,VCC*%
X280311760Y-34497460D03*
%TO.P,D42,4*%
%TO.N,Net-(D42-Pad4)*%
X280311760Y-37697460D03*
%TO.P,D42,2*%
%TO.N,Net-(D42-Pad2)*%
X275411760Y-34497460D03*
%TO.P,D42,1*%
%TO.N,GND2*%
X275411760Y-37697460D03*
%TD*%
D11*
%TO.P,D43,2*%
%TO.N,Net-(D43-Pad2)*%
X333345520Y-41691000D03*
%TO.P,D43,1*%
%TO.N,RRow0*%
X333345520Y-45241000D03*
%TD*%
%TO.P,D44,2*%
%TO.N,Net-(D44-Pad2)*%
X333396320Y-60741000D03*
%TO.P,D44,1*%
%TO.N,RRow1*%
X333396320Y-64291000D03*
%TD*%
%TO.P,D45,2*%
%TO.N,Net-(D45-Pad2)*%
X333396320Y-79587800D03*
%TO.P,D45,1*%
%TO.N,RRow2*%
X333396320Y-83137800D03*
%TD*%
D10*
%TO.P,D46,1*%
%TO.N,GND2*%
X220809380Y-46160740D03*
%TO.P,D46,2*%
%TO.N,RLED_In*%
X220809380Y-42960740D03*
%TO.P,D46,4*%
%TO.N,Net-(D46-Pad4)*%
X225709380Y-46160740D03*
%TO.P,D46,3*%
%TO.N,VCC*%
X225709380Y-42960740D03*
%TD*%
D11*
%TO.P,D47,1*%
%TO.N,RRow0*%
X314346320Y-31880600D03*
%TO.P,D47,2*%
%TO.N,Net-(D47-Pad2)*%
X314346320Y-28330600D03*
%TD*%
%TO.P,D48,1*%
%TO.N,RRow1*%
X314397120Y-51133800D03*
%TO.P,D48,2*%
%TO.N,Net-(D48-Pad2)*%
X314397120Y-47583800D03*
%TD*%
%TO.P,D49,2*%
%TO.N,Net-(D49-Pad2)*%
X295397920Y-85302800D03*
%TO.P,D49,1*%
%TO.N,RRow3*%
X295397920Y-88852800D03*
%TD*%
%TO.P,D50,1*%
%TO.N,RRow2*%
X314397120Y-69980600D03*
%TO.P,D50,2*%
%TO.N,Net-(D50-Pad2)*%
X314397120Y-66430600D03*
%TD*%
D10*
%TO.P,D51,3*%
%TO.N,VCC*%
X323565420Y-30844940D03*
%TO.P,D51,4*%
%TO.N,Net-(D51-Pad4)*%
X323565420Y-34044940D03*
%TO.P,D51,2*%
%TO.N,Net-(D51-Pad2)*%
X318665420Y-30844940D03*
%TO.P,D51,1*%
%TO.N,GND2*%
X318665420Y-34044940D03*
%TD*%
%TO.P,D56,1*%
%TO.N,GND2*%
X312208740Y-90681860D03*
%TO.P,D56,2*%
%TO.N,Net-(D56-Pad2)*%
X312208740Y-87481860D03*
%TO.P,D56,4*%
%TO.N,Net-(D56-Pad4)*%
X317108740Y-90681860D03*
%TO.P,D56,3*%
%TO.N,VCC*%
X317108740Y-87481860D03*
%TD*%
%TO.P,D61,3*%
%TO.N,VCC*%
X280479400Y-74177340D03*
%TO.P,D61,4*%
%TO.N,Net-(D61-Pad4)*%
X280479400Y-77377340D03*
%TO.P,D61,2*%
%TO.N,Net-(D61-Pad2)*%
X275579400Y-74177340D03*
%TO.P,D61,1*%
%TO.N,GND2*%
X275579400Y-77377340D03*
%TD*%
D13*
%TO.P,J1,1*%
%TO.N,LSCA*%
X177017160Y-74116180D03*
%TO.P,J1,2*%
%TO.N,LSCL*%
X177017160Y-71576180D03*
%TO.P,J1,3*%
%TO.N,VDD*%
X177017160Y-69036180D03*
%TO.P,J1,4*%
%TO.N,GND1*%
X177017160Y-66496180D03*
%TD*%
%TO.P,J2,A*%
%TO.N,TRRS_VDD*%
%TA.AperFunction,ComponentPad*%
G36*
G01*
X166376720Y-88909842D02*
X167091418Y-89269298D01*
G75*
G02*
X167468863Y-90410585I-381921J-759366D01*
G01*
X167468863Y-90410585D01*
G75*
G02*
X166327576Y-90788030I-759366J381921D01*
G01*
X165612878Y-90428574D01*
G75*
G02*
X165235433Y-89287287I381921J759366D01*
G01*
X165235433Y-89287287D01*
G75*
G02*
X166376720Y-88909842I759366J-381921D01*
G01*
G37*
%TD.AperFunction*%
%TO.P,J2,D*%
%TO.N,LUSART_TX*%
%TA.AperFunction,ComponentPad*%
G36*
G01*
X165829637Y-93335980D02*
X166544335Y-93695436D01*
G75*
G02*
X166921780Y-94836723I-381921J-759366D01*
G01*
X166921780Y-94836723D01*
G75*
G02*
X165780493Y-95214168I-759366J381921D01*
G01*
X165065795Y-94854712D01*
G75*
G02*
X164688350Y-93713425I381921J759366D01*
G01*
X164688350Y-93713425D01*
G75*
G02*
X165829637Y-93335980I759366J-381921D01*
G01*
G37*
%TD.AperFunction*%
%TO.P,J2,C*%
%TO.N,LUSART_RX*%
%TA.AperFunction,ComponentPad*%
G36*
G01*
X169403122Y-95133256D02*
X170117820Y-95492712D01*
G75*
G02*
X170495265Y-96633999I-381921J-759366D01*
G01*
X170495265Y-96633999D01*
G75*
G02*
X169353978Y-97011444I-759366J381921D01*
G01*
X168639280Y-96651988D01*
G75*
G02*
X168261835Y-95510701I381921J759366D01*
G01*
X168261835Y-95510701D01*
G75*
G02*
X169403122Y-95133256I759366J-381921D01*
G01*
G37*
%TD.AperFunction*%
%TO.P,J2,B*%
%TO.N,GND1*%
%TA.AperFunction,ComponentPad*%
G36*
G01*
X172083237Y-96481213D02*
X172797935Y-96840669D01*
G75*
G02*
X173175380Y-97981956I-381921J-759366D01*
G01*
X173175380Y-97981956D01*
G75*
G02*
X172034093Y-98359401I-759366J381921D01*
G01*
X171319395Y-97999945D01*
G75*
G02*
X170941950Y-96858658I381921J759366D01*
G01*
X170941950Y-96858658D01*
G75*
G02*
X172083237Y-96481213I759366J-381921D01*
G01*
G37*
%TD.AperFunction*%
%TO.P,J2,C*%
%TO.N,LUSART_RX*%
%TA.AperFunction,ComponentPad*%
G36*
G01*
X172076570Y-89817696D02*
X172791268Y-90177152D01*
G75*
G02*
X173168713Y-91318439I-381921J-759366D01*
G01*
X173168713Y-91318439D01*
G75*
G02*
X172027426Y-91695884I-759366J381921D01*
G01*
X171312728Y-91336428D01*
G75*
G02*
X170935283Y-90195141I381921J759366D01*
G01*
X170935283Y-90195141D01*
G75*
G02*
X172076570Y-89817696I759366J-381921D01*
G01*
G37*
%TD.AperFunction*%
%TO.P,J2,B*%
%TO.N,GND1*%
%TA.AperFunction,ComponentPad*%
G36*
G01*
X174756685Y-91165653D02*
X175471383Y-91525109D01*
G75*
G02*
X175848828Y-92666396I-381921J-759366D01*
G01*
X175848828Y-92666396D01*
G75*
G02*
X174707541Y-93043841I-759366J381921D01*
G01*
X173992843Y-92684385D01*
G75*
G02*
X173615398Y-91543098I381921J759366D01*
G01*
X173615398Y-91543098D01*
G75*
G02*
X174756685Y-91165653I759366J-381921D01*
G01*
G37*
%TD.AperFunction*%
%TO.P,J2,A*%
%TO.N,TRRS_VDD*%
%TA.AperFunction,ComponentPad*%
G36*
G01*
X165275888Y-91098602D02*
X165990586Y-91458058D01*
G75*
G02*
X166368031Y-92599345I-381921J-759366D01*
G01*
X166368031Y-92599345D01*
G75*
G02*
X165226744Y-92976790I-759366J381921D01*
G01*
X164512046Y-92617334D01*
G75*
G02*
X164134601Y-91476047I381921J759366D01*
G01*
X164134601Y-91476047D01*
G75*
G02*
X165275888Y-91098602I759366J-381921D01*
G01*
G37*
%TD.AperFunction*%
%TO.P,J2,D*%
%TO.N,LUSART_TX*%
%TA.AperFunction,ComponentPad*%
G36*
G01*
X168503085Y-88020420D02*
X169217783Y-88379876D01*
G75*
G02*
X169595228Y-89521163I-381921J-759366D01*
G01*
X169595228Y-89521163D01*
G75*
G02*
X168453941Y-89898608I-759366J381921D01*
G01*
X167739243Y-89539152D01*
G75*
G02*
X167361798Y-88397865I381921J759366D01*
G01*
X167361798Y-88397865D01*
G75*
G02*
X168503085Y-88020420I759366J-381921D01*
G01*
G37*
%TD.AperFunction*%
%TD*%
%TO.P,J3,4*%
%TO.N,GND2*%
X195067920Y-74047600D03*
%TO.P,J3,3*%
%TO.N,VCC*%
X195067920Y-71507600D03*
%TO.P,J3,2*%
%TO.N,RSCL*%
X195067920Y-68967600D03*
%TO.P,J3,1*%
%TO.N,RSCA*%
X195067920Y-66427600D03*
%TD*%
%TO.P,J4,D*%
%TO.N,RUSART_RX*%
%TA.AperFunction,ComponentPad*%
G36*
G01*
X206484793Y-94876332D02*
X205770095Y-95235788D01*
G75*
G02*
X204628808Y-94858343I-381921J759366D01*
G01*
X204628808Y-94858343D01*
G75*
G02*
X205006253Y-93717056I759366J381921D01*
G01*
X205720951Y-93357600D01*
G75*
G02*
X206862238Y-93735045I381921J-759366D01*
G01*
X206862238Y-93735045D01*
G75*
G02*
X206484793Y-94876332I-759366J-381921D01*
G01*
G37*
%TD.AperFunction*%
%TO.P,J4,A*%
%TO.N,TRRS_VCC*%
%TA.AperFunction,ComponentPad*%
G36*
G01*
X205937711Y-90450194D02*
X205223013Y-90809650D01*
G75*
G02*
X204081726Y-90432205I-381921J759366D01*
G01*
X204081726Y-90432205D01*
G75*
G02*
X204459171Y-89290918I759366J381921D01*
G01*
X205173869Y-88931462D01*
G75*
G02*
X206315156Y-89308907I381921J-759366D01*
G01*
X206315156Y-89308907D01*
G75*
G02*
X205937711Y-90450194I-759366J-381921D01*
G01*
G37*
%TD.AperFunction*%
%TO.P,J4,B*%
%TO.N,GND2*%
%TA.AperFunction,ComponentPad*%
G36*
G01*
X200231194Y-98021565D02*
X199516496Y-98381021D01*
G75*
G02*
X198375209Y-98003576I-381921J759366D01*
G01*
X198375209Y-98003576D01*
G75*
G02*
X198752654Y-96862289I759366J381921D01*
G01*
X199467352Y-96502833D01*
G75*
G02*
X200608639Y-96880278I381921J-759366D01*
G01*
X200608639Y-96880278D01*
G75*
G02*
X200231194Y-98021565I-759366J-381921D01*
G01*
G37*
%TD.AperFunction*%
%TO.P,J4,C*%
%TO.N,RUSART_TX*%
%TA.AperFunction,ComponentPad*%
G36*
G01*
X202911308Y-96673608D02*
X202196610Y-97033064D01*
G75*
G02*
X201055323Y-96655619I-381921J759366D01*
G01*
X201055323Y-96655619D01*
G75*
G02*
X201432768Y-95514332I759366J381921D01*
G01*
X202147466Y-95154876D01*
G75*
G02*
X203288753Y-95532321I381921J-759366D01*
G01*
X203288753Y-95532321D01*
G75*
G02*
X202911308Y-96673608I-759366J-381921D01*
G01*
G37*
%TD.AperFunction*%
%TO.P,J4,B*%
%TO.N,GND2*%
%TA.AperFunction,ComponentPad*%
G36*
G01*
X197557746Y-92706005D02*
X196843048Y-93065461D01*
G75*
G02*
X195701761Y-92688016I-381921J759366D01*
G01*
X195701761Y-92688016D01*
G75*
G02*
X196079206Y-91546729I759366J381921D01*
G01*
X196793904Y-91187273D01*
G75*
G02*
X197935191Y-91564718I381921J-759366D01*
G01*
X197935191Y-91564718D01*
G75*
G02*
X197557746Y-92706005I-759366J-381921D01*
G01*
G37*
%TD.AperFunction*%
%TO.P,J4,C*%
%TO.N,RUSART_TX*%
%TA.AperFunction,ComponentPad*%
G36*
G01*
X200237860Y-91358048D02*
X199523162Y-91717504D01*
G75*
G02*
X198381875Y-91340059I-381921J759366D01*
G01*
X198381875Y-91340059D01*
G75*
G02*
X198759320Y-90198772I759366J381921D01*
G01*
X199474018Y-89839316D01*
G75*
G02*
X200615305Y-90216761I381921J-759366D01*
G01*
X200615305Y-90216761D01*
G75*
G02*
X200237860Y-91358048I-759366J-381921D01*
G01*
G37*
%TD.AperFunction*%
%TO.P,J4,D*%
%TO.N,RUSART_RX*%
%TA.AperFunction,ComponentPad*%
G36*
G01*
X203811345Y-89560772D02*
X203096647Y-89920228D01*
G75*
G02*
X201955360Y-89542783I-381921J759366D01*
G01*
X201955360Y-89542783D01*
G75*
G02*
X202332805Y-88401496I759366J381921D01*
G01*
X203047503Y-88042040D01*
G75*
G02*
X204188790Y-88419485I381921J-759366D01*
G01*
X204188790Y-88419485D01*
G75*
G02*
X203811345Y-89560772I-759366J-381921D01*
G01*
G37*
%TD.AperFunction*%
%TO.P,J4,A*%
%TO.N,TRRS_VCC*%
%TA.AperFunction,ComponentPad*%
G36*
G01*
X207038542Y-92638954D02*
X206323844Y-92998410D01*
G75*
G02*
X205182557Y-92620965I-381921J759366D01*
G01*
X205182557Y-92620965D01*
G75*
G02*
X205560002Y-91479678I759366J381921D01*
G01*
X206274700Y-91120222D01*
G75*
G02*
X207415987Y-91497667I381921J-759366D01*
G01*
X207415987Y-91497667D01*
G75*
G02*
X207038542Y-92638954I-759366J-381921D01*
G01*
G37*
%TD.AperFunction*%
%TD*%
D14*
%TO.P,LED1,2*%
%TO.N,Net-(LED1-Pad2)*%
X24610360Y-55156580D03*
%TO.P,LED1,1*%
%TO.N,VDD*%
X24610360Y-53756580D03*
%TO.P,LED1,3*%
%TO.N,GND1*%
X30110360Y-55156580D03*
%TO.P,LED1,4*%
%TO.N,Net-(LED1-Pad4)*%
X30110360Y-53756580D03*
%TD*%
%TO.P,LED2,4*%
%TO.N,Net-(LED1-Pad2)*%
X24737360Y-74181180D03*
%TO.P,LED2,3*%
%TO.N,GND1*%
X24737360Y-72781180D03*
%TO.P,LED2,1*%
%TO.N,VDD*%
X30237360Y-74181180D03*
%TO.P,LED2,2*%
%TO.N,Net-(LED2-Pad2)*%
X30237360Y-72781180D03*
%TD*%
%TO.P,LED3,2*%
%TO.N,Net-(LED10-Pad4)*%
X24667960Y-93067580D03*
%TO.P,LED3,1*%
%TO.N,VDD*%
X24667960Y-91667580D03*
%TO.P,LED3,3*%
%TO.N,GND1*%
X30167960Y-93067580D03*
%TO.P,LED3,4*%
%TO.N,Net-(LED3-Pad4)*%
X30167960Y-91667580D03*
%TD*%
%TO.P,LED4,4*%
%TO.N,Net-(D1-Pad4)*%
X49211160Y-48041580D03*
%TO.P,LED4,3*%
%TO.N,GND1*%
X49211160Y-49441580D03*
%TO.P,LED4,1*%
%TO.N,VDD*%
X43711160Y-48041580D03*
%TO.P,LED4,2*%
%TO.N,Net-(LED1-Pad4)*%
X43711160Y-49441580D03*
%TD*%
%TO.P,LED5,2*%
%TO.N,Net-(LED5-Pad2)*%
X49312760Y-67142380D03*
%TO.P,LED5,1*%
%TO.N,VDD*%
X49312760Y-68542380D03*
%TO.P,LED5,3*%
%TO.N,GND1*%
X43812760Y-67142380D03*
%TO.P,LED5,4*%
%TO.N,Net-(LED2-Pad2)*%
X43812760Y-68542380D03*
%TD*%
%TO.P,LED6,4*%
%TO.N,Net-(D5-Pad4)*%
X49294160Y-86003380D03*
%TO.P,LED6,3*%
%TO.N,GND1*%
X49294160Y-87403380D03*
%TO.P,LED6,1*%
%TO.N,VDD*%
X43794160Y-86003380D03*
%TO.P,LED6,2*%
%TO.N,Net-(LED3-Pad4)*%
X43794160Y-87403380D03*
%TD*%
%TO.P,LED7,4*%
%TO.N,Net-(LED11-Pad2)*%
X68337360Y-34808180D03*
%TO.P,LED7,3*%
%TO.N,GND1*%
X68337360Y-36208180D03*
%TO.P,LED7,1*%
%TO.N,VDD*%
X62837360Y-34808180D03*
%TO.P,LED7,2*%
%TO.N,Net-(D1-Pad2)*%
X62837360Y-36208180D03*
%TD*%
%TO.P,LED8,2*%
%TO.N,Net-(LED12-Pad4)*%
X68261160Y-53604180D03*
%TO.P,LED8,1*%
%TO.N,VDD*%
X68261160Y-55004180D03*
%TO.P,LED8,3*%
%TO.N,GND1*%
X62761160Y-53604180D03*
%TO.P,LED8,4*%
%TO.N,Net-(LED5-Pad2)*%
X62761160Y-55004180D03*
%TD*%
%TO.P,LED9,4*%
%TO.N,Net-(LED13-Pad2)*%
X68261160Y-72704980D03*
%TO.P,LED9,3*%
%TO.N,GND1*%
X68261160Y-74104980D03*
%TO.P,LED9,1*%
%TO.N,VDD*%
X62761160Y-72704980D03*
%TO.P,LED9,2*%
%TO.N,Net-(D5-Pad2)*%
X62761160Y-74104980D03*
%TD*%
%TO.P,LED10,2*%
%TO.N,Net-(LED10-Pad2)*%
X87292560Y-91718380D03*
%TO.P,LED10,1*%
%TO.N,VDD*%
X87292560Y-93118380D03*
%TO.P,LED10,3*%
%TO.N,GND1*%
X81792560Y-91718380D03*
%TO.P,LED10,4*%
%TO.N,Net-(LED10-Pad4)*%
X81792560Y-93118380D03*
%TD*%
%TO.P,LED11,2*%
%TO.N,Net-(LED11-Pad2)*%
X81785760Y-33388780D03*
%TO.P,LED11,1*%
%TO.N,VDD*%
X81785760Y-31988780D03*
%TO.P,LED11,3*%
%TO.N,GND1*%
X87285760Y-33388780D03*
%TO.P,LED11,4*%
%TO.N,Net-(D9-Pad4)*%
X87285760Y-31988780D03*
%TD*%
%TO.P,LED12,4*%
%TO.N,Net-(LED12-Pad4)*%
X81785760Y-52438780D03*
%TO.P,LED12,3*%
%TO.N,GND1*%
X81785760Y-51038780D03*
%TO.P,LED12,1*%
%TO.N,VDD*%
X87285760Y-52438780D03*
%TO.P,LED12,2*%
%TO.N,Net-(LED12-Pad2)*%
X87285760Y-51038780D03*
%TD*%
%TO.P,LED13,4*%
%TO.N,Net-(D13-Pad4)*%
X87336560Y-69860180D03*
%TO.P,LED13,3*%
%TO.N,GND1*%
X87336560Y-71260180D03*
%TO.P,LED13,1*%
%TO.N,VDD*%
X81836560Y-69860180D03*
%TO.P,LED13,2*%
%TO.N,Net-(LED13-Pad2)*%
X81836560Y-71260180D03*
%TD*%
%TA.AperFunction,SMDPad,CuDef*%
D12*
%TO.P,LED14,2*%
%TO.N,Net-(LED14-Pad2)*%
G36*
X105477230Y-93665195D02*
G01*
X105593900Y-92672025D01*
X107282290Y-92870365D01*
X107165620Y-93863535D01*
X105477230Y-93665195D01*
G37*
%TD.AperFunction*%
%TA.AperFunction,SMDPad,CuDef*%
%TO.P,LED14,1*%
%TO.N,VDD*%
G36*
X105313891Y-95055634D02*
G01*
X105430561Y-94062464D01*
X107118951Y-94260804D01*
X107002281Y-95253974D01*
X105313891Y-95055634D01*
G37*
%TD.AperFunction*%
%TA.AperFunction,SMDPad,CuDef*%
%TO.P,LED14,3*%
%TO.N,GND1*%
G36*
X100014791Y-93023506D02*
G01*
X100131461Y-92030336D01*
X101819851Y-92228676D01*
X101703181Y-93221846D01*
X100014791Y-93023506D01*
G37*
%TD.AperFunction*%
%TA.AperFunction,SMDPad,CuDef*%
%TO.P,LED14,4*%
%TO.N,Net-(LED10-Pad2)*%
G36*
X99851452Y-94413945D02*
G01*
X99968122Y-93420775D01*
X101656512Y-93619115D01*
X101539842Y-94612285D01*
X99851452Y-94413945D01*
G37*
%TD.AperFunction*%
%TD*%
D14*
%TO.P,LED15,2*%
%TO.N,Net-(D9-Pad2)*%
X100683360Y-36411380D03*
%TO.P,LED15,1*%
%TO.N,VDD*%
X100683360Y-35011380D03*
%TO.P,LED15,3*%
%TO.N,GND1*%
X106183360Y-36411380D03*
%TO.P,LED15,4*%
%TO.N,Net-(LED15-Pad4)*%
X106183360Y-35011380D03*
%TD*%
%TO.P,LED16,4*%
%TO.N,Net-(LED12-Pad2)*%
X100734160Y-55105780D03*
%TO.P,LED16,3*%
%TO.N,GND1*%
X100734160Y-53705780D03*
%TO.P,LED16,1*%
%TO.N,VDD*%
X106234160Y-55105780D03*
%TO.P,LED16,2*%
%TO.N,Net-(LED16-Pad2)*%
X106234160Y-53705780D03*
%TD*%
%TO.P,LED17,2*%
%TO.N,Net-(D13-Pad2)*%
X100766360Y-74093780D03*
%TO.P,LED17,1*%
%TO.N,VDD*%
X100766360Y-72693780D03*
%TO.P,LED17,3*%
%TO.N,GND1*%
X106266360Y-74093780D03*
%TO.P,LED17,4*%
%TO.N,Net-(LED17-Pad4)*%
X106266360Y-72693780D03*
%TD*%
%TA.AperFunction,SMDPad,CuDef*%
D12*
%TO.P,LED18,4*%
%TO.N,Net-(LED14-Pad2)*%
G36*
X118881070Y-97156818D02*
G01*
X119112817Y-96184042D01*
X120766536Y-96578014D01*
X120534789Y-97550790D01*
X118881070Y-97156818D01*
G37*
%TD.AperFunction*%
%TA.AperFunction,SMDPad,CuDef*%
%TO.P,LED18,3*%
%TO.N,GND1*%
G36*
X119205517Y-95794932D02*
G01*
X119437264Y-94822156D01*
X121090983Y-95216128D01*
X120859236Y-96188904D01*
X119205517Y-95794932D01*
G37*
%TD.AperFunction*%
%TA.AperFunction,SMDPad,CuDef*%
%TO.P,LED18,1*%
%TO.N,VDD*%
G36*
X124231337Y-98431432D02*
G01*
X124463084Y-97458656D01*
X126116803Y-97852628D01*
X125885056Y-98825404D01*
X124231337Y-98431432D01*
G37*
%TD.AperFunction*%
%TA.AperFunction,SMDPad,CuDef*%
%TO.P,LED18,2*%
%TO.N,Net-(LED18-Pad2)*%
G36*
X124555784Y-97069546D02*
G01*
X124787531Y-96096770D01*
X126441250Y-96490742D01*
X126209503Y-97463518D01*
X124555784Y-97069546D01*
G37*
%TD.AperFunction*%
%TD*%
D14*
%TO.P,LED19,2*%
%TO.N,Net-(LED15-Pad4)*%
X119758760Y-38722780D03*
%TO.P,LED19,1*%
%TO.N,VDD*%
X119758760Y-37322780D03*
%TO.P,LED19,3*%
%TO.N,GND1*%
X125258760Y-38722780D03*
%TO.P,LED19,4*%
%TO.N,Net-(LED19-Pad4)*%
X125258760Y-37322780D03*
%TD*%
%TO.P,LED20,4*%
%TO.N,Net-(LED16-Pad2)*%
X119784160Y-57467980D03*
%TO.P,LED20,3*%
%TO.N,GND1*%
X119784160Y-56067980D03*
%TO.P,LED20,1*%
%TO.N,VDD*%
X125284160Y-57467980D03*
%TO.P,LED20,2*%
%TO.N,Net-(LED20-Pad2)*%
X125284160Y-56067980D03*
%TD*%
%TO.P,LED21,2*%
%TO.N,Net-(LED17-Pad4)*%
X119657160Y-76517980D03*
%TO.P,LED21,1*%
%TO.N,VDD*%
X119657160Y-75117980D03*
%TO.P,LED21,3*%
%TO.N,GND1*%
X125157160Y-76517980D03*
%TO.P,LED21,4*%
%TO.N,Net-(LED21-Pad4)*%
X125157160Y-75117980D03*
%TD*%
%TA.AperFunction,SMDPad,CuDef*%
D12*
%TO.P,LED22,4*%
%TO.N,Net-(LED18-Pad2)*%
G36*
X137206642Y-102231938D02*
G01*
X137548662Y-101292246D01*
X139146140Y-101873680D01*
X138804120Y-102813372D01*
X137206642Y-102231938D01*
G37*
%TD.AperFunction*%
%TA.AperFunction,SMDPad,CuDef*%
%TO.P,LED22,3*%
%TO.N,GND1*%
G36*
X137685470Y-100916369D02*
G01*
X138027490Y-99976677D01*
X139624968Y-100558111D01*
X139282948Y-101497803D01*
X137685470Y-100916369D01*
G37*
%TD.AperFunction*%
%TA.AperFunction,SMDPad,CuDef*%
%TO.P,LED22,1*%
%TO.N,VDD*%
G36*
X142374952Y-104113049D02*
G01*
X142716972Y-103173357D01*
X144314450Y-103754791D01*
X143972430Y-104694483D01*
X142374952Y-104113049D01*
G37*
%TD.AperFunction*%
%TA.AperFunction,SMDPad,CuDef*%
%TO.P,LED22,2*%
%TO.N,Net-(LED22-Pad2)*%
G36*
X142853780Y-102797480D02*
G01*
X143195800Y-101857788D01*
X144793278Y-102439222D01*
X144451258Y-103378914D01*
X142853780Y-102797480D01*
G37*
%TD.AperFunction*%
%TD*%
D14*
%TO.P,LED23,2*%
%TO.N,Net-(LED19-Pad4)*%
X138681760Y-40297580D03*
%TO.P,LED23,1*%
%TO.N,VDD*%
X138681760Y-38897580D03*
%TO.P,LED23,3*%
%TO.N,GND1*%
X144181760Y-40297580D03*
%TO.P,LED23,4*%
%TO.N,Net-(D18-Pad4)*%
X144181760Y-38897580D03*
%TD*%
%TO.P,LED24,4*%
%TO.N,Net-(LED20-Pad2)*%
X138783360Y-59372980D03*
%TO.P,LED24,3*%
%TO.N,GND1*%
X138783360Y-57972980D03*
%TO.P,LED24,1*%
%TO.N,VDD*%
X144283360Y-59372980D03*
%TO.P,LED24,2*%
%TO.N,Net-(LED21-Pad4)*%
X144283360Y-57972980D03*
%TD*%
%TA.AperFunction,SMDPad,CuDef*%
D12*
%TO.P,LED25,2*%
%TO.N,Net-(D22-Pad2)*%
G36*
X160694230Y-110757612D02*
G01*
X161143549Y-109864240D01*
X162662280Y-110628082D01*
X162212961Y-111521454D01*
X160694230Y-110757612D01*
G37*
%TD.AperFunction*%
%TA.AperFunction,SMDPad,CuDef*%
%TO.P,LED25,1*%
%TO.N,VDD*%
G36*
X160065183Y-112008332D02*
G01*
X160514502Y-111114960D01*
X162033233Y-111878802D01*
X161583914Y-112772174D01*
X160065183Y-112008332D01*
G37*
%TD.AperFunction*%
%TA.AperFunction,SMDPad,CuDef*%
%TO.P,LED25,3*%
%TO.N,GND1*%
G36*
X155780687Y-108286358D02*
G01*
X156230006Y-107392986D01*
X157748737Y-108156828D01*
X157299418Y-109050200D01*
X155780687Y-108286358D01*
G37*
%TD.AperFunction*%
%TA.AperFunction,SMDPad,CuDef*%
%TO.P,LED25,4*%
%TO.N,Net-(LED22-Pad2)*%
G36*
X155151640Y-109537078D02*
G01*
X155600959Y-108643706D01*
X157119690Y-109407548D01*
X156670371Y-110300920D01*
X155151640Y-109537078D01*
G37*
%TD.AperFunction*%
%TD*%
D14*
%TO.P,LED26,2*%
%TO.N,Net-(LED26-Pad2)*%
X347030220Y-53652440D03*
%TO.P,LED26,1*%
%TO.N,VCC*%
X347030220Y-55052440D03*
%TO.P,LED26,3*%
%TO.N,GND2*%
X341530220Y-53652440D03*
%TO.P,LED26,4*%
%TO.N,Net-(LED26-Pad4)*%
X341530220Y-55052440D03*
%TD*%
%TO.P,LED27,4*%
%TO.N,Net-(LED26-Pad2)*%
X346862580Y-72727840D03*
%TO.P,LED27,3*%
%TO.N,GND2*%
X346862580Y-74127840D03*
%TO.P,LED27,1*%
%TO.N,VCC*%
X341362580Y-72727840D03*
%TO.P,LED27,2*%
%TO.N,Net-(LED27-Pad2)*%
X341362580Y-74127840D03*
%TD*%
%TO.P,LED28,4*%
%TO.N,Net-(LED28-Pad4)*%
X341460820Y-93077740D03*
%TO.P,LED28,3*%
%TO.N,GND2*%
X341460820Y-91677740D03*
%TO.P,LED28,1*%
%TO.N,VCC*%
X346960820Y-93077740D03*
%TO.P,LED28,2*%
%TO.N,Net-(LED28-Pad2)*%
X346960820Y-91677740D03*
%TD*%
%TO.P,LED29,4*%
%TO.N,Net-(D51-Pad4)*%
X322497180Y-49669140D03*
%TO.P,LED29,3*%
%TO.N,GND2*%
X322497180Y-48269140D03*
%TO.P,LED29,1*%
%TO.N,VCC*%
X327997180Y-49669140D03*
%TO.P,LED29,2*%
%TO.N,Net-(LED26-Pad4)*%
X327997180Y-48269140D03*
%TD*%
%TO.P,LED30,2*%
%TO.N,Net-(LED30-Pad2)*%
X322497180Y-68602300D03*
%TO.P,LED30,1*%
%TO.N,VCC*%
X322497180Y-67202300D03*
%TO.P,LED30,3*%
%TO.N,GND2*%
X327997180Y-68602300D03*
%TO.P,LED30,4*%
%TO.N,Net-(LED27-Pad2)*%
X327997180Y-67202300D03*
%TD*%
%TO.P,LED31,4*%
%TO.N,Net-(D56-Pad4)*%
X322459080Y-87573560D03*
%TO.P,LED31,3*%
%TO.N,GND2*%
X322459080Y-86173560D03*
%TO.P,LED31,1*%
%TO.N,VCC*%
X327959080Y-87573560D03*
%TO.P,LED31,2*%
%TO.N,Net-(LED28-Pad4)*%
X327959080Y-86173560D03*
%TD*%
%TO.P,LED32,2*%
%TO.N,Net-(D51-Pad2)*%
X308983560Y-34772620D03*
%TO.P,LED32,1*%
%TO.N,VCC*%
X308983560Y-36172620D03*
%TO.P,LED32,3*%
%TO.N,GND2*%
X303483560Y-34772620D03*
%TO.P,LED32,4*%
%TO.N,Net-(LED32-Pad4)*%
X303483560Y-36172620D03*
%TD*%
%TO.P,LED33,4*%
%TO.N,Net-(LED30-Pad2)*%
X308876880Y-53774360D03*
%TO.P,LED33,3*%
%TO.N,GND2*%
X308876880Y-55174360D03*
%TO.P,LED33,1*%
%TO.N,VCC*%
X303376880Y-53774360D03*
%TO.P,LED33,2*%
%TO.N,Net-(LED33-Pad2)*%
X303376880Y-55174360D03*
%TD*%
%TO.P,LED34,4*%
%TO.N,Net-(LED34-Pad4)*%
X303725680Y-74194920D03*
%TO.P,LED34,3*%
%TO.N,GND2*%
X303725680Y-72794920D03*
%TO.P,LED34,1*%
%TO.N,VCC*%
X309225680Y-74194920D03*
%TO.P,LED34,2*%
%TO.N,Net-(D56-Pad2)*%
X309225680Y-72794920D03*
%TD*%
%TO.P,LED35,2*%
%TO.N,Net-(LED35-Pad2)*%
X284443720Y-93228640D03*
%TO.P,LED35,1*%
%TO.N,VCC*%
X284443720Y-91828640D03*
%TO.P,LED35,3*%
%TO.N,GND2*%
X289943720Y-93228640D03*
%TO.P,LED35,4*%
%TO.N,Net-(LED28-Pad2)*%
X289943720Y-91828640D03*
%TD*%
%TO.P,LED36,4*%
%TO.N,Net-(D42-Pad4)*%
X284596120Y-33345600D03*
%TO.P,LED36,3*%
%TO.N,GND2*%
X284596120Y-31945600D03*
%TO.P,LED36,1*%
%TO.N,VCC*%
X290096120Y-33345600D03*
%TO.P,LED36,2*%
%TO.N,Net-(LED32-Pad4)*%
X290096120Y-31945600D03*
%TD*%
%TO.P,LED37,2*%
%TO.N,Net-(LED37-Pad2)*%
X284522460Y-52233040D03*
%TO.P,LED37,1*%
%TO.N,VCC*%
X284522460Y-50833040D03*
%TO.P,LED37,3*%
%TO.N,GND2*%
X290022460Y-52233040D03*
%TO.P,LED37,4*%
%TO.N,Net-(LED33-Pad2)*%
X290022460Y-50833040D03*
%TD*%
%TO.P,LED38,4*%
%TO.N,Net-(D61-Pad4)*%
X284443720Y-71328760D03*
%TO.P,LED38,3*%
%TO.N,GND2*%
X284443720Y-69928760D03*
%TO.P,LED38,1*%
%TO.N,VCC*%
X289943720Y-71328760D03*
%TO.P,LED38,2*%
%TO.N,Net-(LED34-Pad4)*%
X289943720Y-69928760D03*
%TD*%
%TA.AperFunction,SMDPad,CuDef*%
D12*
%TO.P,LED39,2*%
%TO.N,Net-(LED39-Pad2)*%
G36*
X266114930Y-93909069D02*
G01*
X266231600Y-94902239D01*
X264543210Y-95100579D01*
X264426540Y-94107409D01*
X266114930Y-93909069D01*
G37*
%TD.AperFunction*%
%TA.AperFunction,SMDPad,CuDef*%
%TO.P,LED39,1*%
%TO.N,VCC*%
G36*
X265951591Y-92518630D02*
G01*
X266068261Y-93511800D01*
X264379871Y-93710140D01*
X264263201Y-92716970D01*
X265951591Y-92518630D01*
G37*
%TD.AperFunction*%
%TA.AperFunction,SMDPad,CuDef*%
%TO.P,LED39,3*%
%TO.N,GND2*%
G36*
X271577369Y-93267380D02*
G01*
X271694039Y-94260550D01*
X270005649Y-94458890D01*
X269888979Y-93465720D01*
X271577369Y-93267380D01*
G37*
%TD.AperFunction*%
%TA.AperFunction,SMDPad,CuDef*%
%TO.P,LED39,4*%
%TO.N,Net-(LED35-Pad2)*%
G36*
X271414030Y-91876941D02*
G01*
X271530700Y-92870111D01*
X269842310Y-93068451D01*
X269725640Y-92075281D01*
X271414030Y-91876941D01*
G37*
%TD.AperFunction*%
%TD*%
D14*
%TO.P,LED40,4*%
%TO.N,Net-(LED40-Pad4)*%
X265629120Y-36153800D03*
%TO.P,LED40,3*%
%TO.N,GND2*%
X265629120Y-34753800D03*
%TO.P,LED40,1*%
%TO.N,VCC*%
X271129120Y-36153800D03*
%TO.P,LED40,2*%
%TO.N,Net-(D42-Pad2)*%
X271129120Y-34753800D03*
%TD*%
%TO.P,LED41,2*%
%TO.N,Net-(LED41-Pad2)*%
X265419120Y-55164200D03*
%TO.P,LED41,1*%
%TO.N,VCC*%
X265419120Y-53764200D03*
%TO.P,LED41,3*%
%TO.N,GND2*%
X270919120Y-55164200D03*
%TO.P,LED41,4*%
%TO.N,Net-(LED37-Pad2)*%
X270919120Y-53764200D03*
%TD*%
%TO.P,LED42,4*%
%TO.N,Net-(LED42-Pad4)*%
X265393720Y-74036400D03*
%TO.P,LED42,3*%
%TO.N,GND2*%
X265393720Y-72636400D03*
%TO.P,LED42,1*%
%TO.N,VCC*%
X270893720Y-74036400D03*
%TO.P,LED42,2*%
%TO.N,Net-(D61-Pad2)*%
X270893720Y-72636400D03*
%TD*%
%TA.AperFunction,SMDPad,CuDef*%
D12*
%TO.P,LED43,4*%
%TO.N,Net-(LED39-Pad2)*%
G36*
X252312536Y-94865336D02*
G01*
X252544283Y-95838112D01*
X250890564Y-96232084D01*
X250658817Y-95259308D01*
X252312536Y-94865336D01*
G37*
%TD.AperFunction*%
%TA.AperFunction,SMDPad,CuDef*%
%TO.P,LED43,3*%
%TO.N,GND2*%
G36*
X252636983Y-96227222D02*
G01*
X252868730Y-97199998D01*
X251215011Y-97593970D01*
X250983264Y-96621194D01*
X252636983Y-96227222D01*
G37*
%TD.AperFunction*%
%TA.AperFunction,SMDPad,CuDef*%
%TO.P,LED43,1*%
%TO.N,VCC*%
G36*
X246962269Y-96139950D02*
G01*
X247194016Y-97112726D01*
X245540297Y-97506698D01*
X245308550Y-96533922D01*
X246962269Y-96139950D01*
G37*
%TD.AperFunction*%
%TA.AperFunction,SMDPad,CuDef*%
%TO.P,LED43,2*%
%TO.N,Net-(LED43-Pad2)*%
G36*
X247286716Y-97501836D02*
G01*
X247518463Y-98474612D01*
X245864744Y-98868584D01*
X245632997Y-97895808D01*
X247286716Y-97501836D01*
G37*
%TD.AperFunction*%
%TD*%
D14*
%TO.P,LED44,2*%
%TO.N,Net-(LED40-Pad4)*%
X252021520Y-37330400D03*
%TO.P,LED44,1*%
%TO.N,VCC*%
X252021520Y-38730400D03*
%TO.P,LED44,3*%
%TO.N,GND2*%
X246521520Y-37330400D03*
%TO.P,LED44,4*%
%TO.N,Net-(LED44-Pad4)*%
X246521520Y-38730400D03*
%TD*%
%TO.P,LED45,4*%
%TO.N,Net-(LED41-Pad2)*%
X252002920Y-56112200D03*
%TO.P,LED45,3*%
%TO.N,GND2*%
X252002920Y-57512200D03*
%TO.P,LED45,1*%
%TO.N,VCC*%
X246502920Y-56112200D03*
%TO.P,LED45,2*%
%TO.N,Net-(LED45-Pad2)*%
X246502920Y-57512200D03*
%TD*%
%TO.P,LED46,4*%
%TO.N,Net-(LED46-Pad4)*%
X246375920Y-76590600D03*
%TO.P,LED46,3*%
%TO.N,GND2*%
X246375920Y-75190600D03*
%TO.P,LED46,1*%
%TO.N,VCC*%
X251875920Y-76590600D03*
%TO.P,LED46,2*%
%TO.N,Net-(LED42-Pad4)*%
X251875920Y-75190600D03*
%TD*%
%TA.AperFunction,SMDPad,CuDef*%
D12*
%TO.P,LED47,4*%
%TO.N,Net-(LED43-Pad2)*%
G36*
X233450530Y-100063037D02*
G01*
X233792550Y-101002729D01*
X232195072Y-101584163D01*
X231853052Y-100644471D01*
X233450530Y-100063037D01*
G37*
%TD.AperFunction*%
%TA.AperFunction,SMDPad,CuDef*%
%TO.P,LED47,3*%
%TO.N,GND2*%
G36*
X233929358Y-101378606D02*
G01*
X234271378Y-102318298D01*
X232673900Y-102899732D01*
X232331880Y-101960040D01*
X233929358Y-101378606D01*
G37*
%TD.AperFunction*%
%TA.AperFunction,SMDPad,CuDef*%
%TO.P,LED47,1*%
%TO.N,VCC*%
G36*
X228282220Y-101944148D02*
G01*
X228624240Y-102883840D01*
X227026762Y-103465274D01*
X226684742Y-102525582D01*
X228282220Y-101944148D01*
G37*
%TD.AperFunction*%
%TA.AperFunction,SMDPad,CuDef*%
%TO.P,LED47,2*%
%TO.N,Net-(LED47-Pad2)*%
G36*
X228761048Y-103259717D02*
G01*
X229103068Y-104199409D01*
X227505590Y-104780843D01*
X227163570Y-103841151D01*
X228761048Y-103259717D01*
G37*
%TD.AperFunction*%
%TD*%
D14*
%TO.P,LED48,2*%
%TO.N,Net-(LED44-Pad4)*%
X232996920Y-39032200D03*
%TO.P,LED48,1*%
%TO.N,VCC*%
X232996920Y-40432200D03*
%TO.P,LED48,3*%
%TO.N,GND2*%
X227496920Y-39032200D03*
%TO.P,LED48,4*%
%TO.N,Net-(D46-Pad4)*%
X227496920Y-40432200D03*
%TD*%
%TO.P,LED49,2*%
%TO.N,Net-(LED46-Pad4)*%
X227395320Y-59406000D03*
%TO.P,LED49,1*%
%TO.N,VCC*%
X227395320Y-58006000D03*
%TO.P,LED49,3*%
%TO.N,GND2*%
X232895320Y-59406000D03*
%TO.P,LED49,4*%
%TO.N,Net-(LED45-Pad2)*%
X232895320Y-58006000D03*
%TD*%
%TA.AperFunction,SMDPad,CuDef*%
D12*
%TO.P,LED50,2*%
%TO.N,Net-(D62-Pad2)*%
G36*
X211214978Y-111081940D02*
G01*
X211664297Y-111975312D01*
X210145566Y-112739154D01*
X209696247Y-111845782D01*
X211214978Y-111081940D01*
G37*
%TD.AperFunction*%
%TA.AperFunction,SMDPad,CuDef*%
%TO.P,LED50,1*%
%TO.N,VCC*%
G36*
X210585931Y-109831220D02*
G01*
X211035250Y-110724592D01*
X209516519Y-111488434D01*
X209067200Y-110595062D01*
X210585931Y-109831220D01*
G37*
%TD.AperFunction*%
%TA.AperFunction,SMDPad,CuDef*%
%TO.P,LED50,3*%
%TO.N,GND2*%
G36*
X216128521Y-108610686D02*
G01*
X216577840Y-109504058D01*
X215059109Y-110267900D01*
X214609790Y-109374528D01*
X216128521Y-108610686D01*
G37*
%TD.AperFunction*%
%TA.AperFunction,SMDPad,CuDef*%
%TO.P,LED50,4*%
%TO.N,Net-(LED47-Pad2)*%
G36*
X215499474Y-107359966D02*
G01*
X215948793Y-108253338D01*
X214430062Y-109017180D01*
X213980743Y-108123808D01*
X215499474Y-107359966D01*
G37*
%TD.AperFunction*%
%TD*%
D15*
%TO.P,SW4,2*%
%TO.N,Net-(D6-Pad2)*%
X33278560Y-44880780D03*
%TO.P,SW4,1*%
%TO.N,LCol1*%
X20351560Y-47420780D03*
%TD*%
%TO.P,SW5,2*%
%TO.N,Net-(D7-Pad2)*%
X33278560Y-63879980D03*
%TO.P,SW5,1*%
%TO.N,LCol1*%
X20351560Y-66419980D03*
%TD*%
%TO.P,SW6,1*%
%TO.N,LCol1*%
X20351560Y-85469980D03*
%TO.P,SW6,2*%
%TO.N,Net-(D8-Pad2)*%
X33278560Y-82929980D03*
%TD*%
%TO.P,SW7,1*%
%TO.N,LCol2*%
X39299960Y-41731180D03*
%TO.P,SW7,2*%
%TO.N,Net-(D10-Pad2)*%
X52226960Y-39191180D03*
%TD*%
%TO.P,SW8,1*%
%TO.N,LCol2*%
X39350760Y-60730380D03*
%TO.P,SW8,2*%
%TO.N,Net-(D11-Pad2)*%
X52277760Y-58190380D03*
%TD*%
%TO.P,SW9,2*%
%TO.N,Net-(D12-Pad2)*%
X52277760Y-77189580D03*
%TO.P,SW9,1*%
%TO.N,LCol2*%
X39350760Y-79729580D03*
%TD*%
%TO.P,SW10,2*%
%TO.N,Net-(D14-Pad2)*%
X71276960Y-25932380D03*
%TO.P,SW10,1*%
%TO.N,LCol3*%
X58349960Y-28472380D03*
%TD*%
%TO.P,SW11,2*%
%TO.N,Net-(D15-Pad2)*%
X71276960Y-44880780D03*
%TO.P,SW11,1*%
%TO.N,LCol3*%
X58349960Y-47420780D03*
%TD*%
%TO.P,SW12,1*%
%TO.N,LCol3*%
X77349160Y-85419180D03*
%TO.P,SW12,2*%
%TO.N,Net-(D16-Pad2)*%
X90276160Y-82879180D03*
%TD*%
%TO.P,SW13,1*%
%TO.N,LCol3*%
X58349960Y-66419980D03*
%TO.P,SW13,2*%
%TO.N,Net-(D17-Pad2)*%
X71276960Y-63879980D03*
%TD*%
%TO.P,SW14,1*%
%TO.N,LCol4*%
X77349160Y-25576780D03*
%TO.P,SW14,2*%
%TO.N,Net-(D19-Pad2)*%
X90276160Y-23036780D03*
%TD*%
%TO.P,SW15,1*%
%TO.N,LCol4*%
X77349160Y-44575980D03*
%TO.P,SW15,2*%
%TO.N,Net-(D20-Pad2)*%
X90276160Y-42035980D03*
%TD*%
%TA.AperFunction,SMDPad,CuDef*%
D12*
%TO.P,SW16,2*%
%TO.N,Net-(D21-Pad2)*%
G36*
X112002281Y-83671156D02*
G01*
X111710604Y-86154083D01*
X109178019Y-85856572D01*
X109469696Y-83373645D01*
X112002281Y-83671156D01*
G37*
%TD.AperFunction*%
%TA.AperFunction,SMDPad,CuDef*%
%TO.P,SW16,1*%
%TO.N,LCol4*%
G36*
X98867221Y-84685606D02*
G01*
X98575544Y-87168533D01*
X96042959Y-86871022D01*
X96334636Y-84388095D01*
X98867221Y-84685606D01*
G37*
%TD.AperFunction*%
%TD*%
D15*
%TO.P,SW17,2*%
%TO.N,Net-(D23-Pad2)*%
X90276160Y-61035180D03*
%TO.P,SW17,1*%
%TO.N,LCol4*%
X77349160Y-63575180D03*
%TD*%
%TO.P,SW18,2*%
%TO.N,Net-(D24-Pad2)*%
X109275360Y-25932380D03*
%TO.P,SW18,1*%
%TO.N,LCol5*%
X96348360Y-28472380D03*
%TD*%
%TO.P,SW19,2*%
%TO.N,Net-(D25-Pad2)*%
X109275360Y-44880780D03*
%TO.P,SW19,1*%
%TO.N,LCol5*%
X96348360Y-47420780D03*
%TD*%
%TA.AperFunction,SMDPad,CuDef*%
D12*
%TO.P,SW20,1*%
%TO.N,LCol5*%
G36*
X118929057Y-87497904D02*
G01*
X118349687Y-89929843D01*
X115869109Y-89338886D01*
X116448479Y-86906947D01*
X118929057Y-87497904D01*
G37*
%TD.AperFunction*%
%TA.AperFunction,SMDPad,CuDef*%
%TO.P,SW20,2*%
%TO.N,Net-(D26-Pad2)*%
G36*
X132092770Y-88022859D02*
G01*
X131513400Y-90454798D01*
X129032822Y-89863841D01*
X129612192Y-87431902D01*
X132092770Y-88022859D01*
G37*
%TD.AperFunction*%
%TD*%
D15*
%TO.P,SW21,1*%
%TO.N,LCol5*%
X96348360Y-66419980D03*
%TO.P,SW21,2*%
%TO.N,Net-(D27-Pad2)*%
X109275360Y-63879980D03*
%TD*%
%TO.P,SW22,1*%
%TO.N,LCol6*%
X115347560Y-30859980D03*
%TO.P,SW22,2*%
%TO.N,Net-(D28-Pad2)*%
X128274560Y-28319980D03*
%TD*%
%TO.P,SW23,1*%
%TO.N,LCol6*%
X115347560Y-49859180D03*
%TO.P,SW23,2*%
%TO.N,Net-(D29-Pad2)*%
X128274560Y-47319180D03*
%TD*%
%TA.AperFunction,SMDPad,CuDef*%
D12*
%TO.P,SW24,2*%
%TO.N,Net-(D30-Pad2)*%
G36*
X151554540Y-94757483D02*
G01*
X150699490Y-97106714D01*
X148303274Y-96234563D01*
X149158324Y-93885332D01*
X151554540Y-94757483D01*
G37*
%TD.AperFunction*%
%TA.AperFunction,SMDPad,CuDef*%
%TO.P,SW24,1*%
%TO.N,LCol6*%
G36*
X138538402Y-92723008D02*
G01*
X137683352Y-95072239D01*
X135287136Y-94200088D01*
X136142186Y-91850857D01*
X138538402Y-92723008D01*
G37*
%TD.AperFunction*%
%TD*%
D15*
%TO.P,SW25,2*%
%TO.N,Net-(D31-Pad2)*%
X128274560Y-66318380D03*
%TO.P,SW25,1*%
%TO.N,LCol6*%
X115347560Y-68858380D03*
%TD*%
%TO.P,SW26,2*%
%TO.N,Net-(D33-Pad2)*%
X147273760Y-49097180D03*
%TO.P,SW26,1*%
%TO.N,LCol7*%
X134346760Y-51637180D03*
%TD*%
%TO.P,SW27,1*%
%TO.N,LCol7*%
X134346760Y-32637980D03*
%TO.P,SW27,2*%
%TO.N,Net-(D34-Pad2)*%
X147273760Y-30097980D03*
%TD*%
D16*
%TO.P,SW28,S1*%
%TO.N,Net-(D32-Pad2)*%
X148464160Y-75687180D03*
%TO.P,SW28,S2*%
%TO.N,LCol7*%
X148464160Y-70687180D03*
D17*
%TO.P,SW28,MP*%
%TO.N,N/C*%
X141464160Y-78787180D03*
X141464160Y-67587180D03*
D16*
%TO.P,SW28,B*%
%TO.N,LENCB*%
X133964160Y-75687180D03*
%TO.P,SW28,C*%
%TO.N,GND1*%
X133964160Y-73187180D03*
D18*
%TO.P,SW28,A*%
%TO.N,LENCA*%
X133964160Y-70687180D03*
%TD*%
%TA.AperFunction,SMDPad,CuDef*%
D12*
%TO.P,SW29,2*%
%TO.N,Net-(D35-Pad2)*%
G36*
X170090473Y-103688342D02*
G01*
X168967176Y-105921771D01*
X166689079Y-104776008D01*
X167812376Y-102542579D01*
X170090473Y-103688342D01*
G37*
%TD.AperFunction*%
%TA.AperFunction,SMDPad,CuDef*%
%TO.P,SW29,1*%
%TO.N,LCol7*%
G36*
X157400591Y-100149159D02*
G01*
X156277294Y-102382588D01*
X153999197Y-101236825D01*
X155122494Y-99003396D01*
X157400591Y-100149159D01*
G37*
%TD.AperFunction*%
%TD*%
D15*
%TO.P,SW33,2*%
%TO.N,Net-(D39-Pad2)*%
X349957120Y-44888400D03*
%TO.P,SW33,1*%
%TO.N,RCol1*%
X337030120Y-47428400D03*
%TD*%
%TO.P,SW34,1*%
%TO.N,RCol1*%
X337080920Y-66453000D03*
%TO.P,SW34,2*%
%TO.N,Net-(D40-Pad2)*%
X350007920Y-63913000D03*
%TD*%
%TO.P,SW35,2*%
%TO.N,Net-(D41-Pad2)*%
X349982520Y-82937600D03*
%TO.P,SW35,1*%
%TO.N,RCol1*%
X337055520Y-85477600D03*
%TD*%
%TO.P,SW36,1*%
%TO.N,RCol2*%
X318081720Y-41738800D03*
%TO.P,SW36,2*%
%TO.N,Net-(D43-Pad2)*%
X331008720Y-39198800D03*
%TD*%
%TO.P,SW37,2*%
%TO.N,Net-(D44-Pad2)*%
X331008720Y-58248800D03*
%TO.P,SW37,1*%
%TO.N,RCol2*%
X318081720Y-60788800D03*
%TD*%
%TO.P,SW38,1*%
%TO.N,RCol2*%
X318081720Y-79788000D03*
%TO.P,SW38,2*%
%TO.N,Net-(D45-Pad2)*%
X331008720Y-77248000D03*
%TD*%
%TO.P,SW39,2*%
%TO.N,Net-(D47-Pad2)*%
X312009520Y-25940000D03*
%TO.P,SW39,1*%
%TO.N,RCol3*%
X299082520Y-28480000D03*
%TD*%
%TO.P,SW40,1*%
%TO.N,RCol3*%
X299082520Y-47479200D03*
%TO.P,SW40,2*%
%TO.N,Net-(D48-Pad2)*%
X312009520Y-44939200D03*
%TD*%
%TO.P,SW41,2*%
%TO.N,Net-(D49-Pad2)*%
X293010320Y-82912200D03*
%TO.P,SW41,1*%
%TO.N,RCol3*%
X280083320Y-85452200D03*
%TD*%
%TO.P,SW42,2*%
%TO.N,Net-(D50-Pad2)*%
X312009520Y-63938400D03*
%TO.P,SW42,1*%
%TO.N,RCol3*%
X299082520Y-66478400D03*
%TD*%
%TO.P,SW43,1*%
%TO.N,RCol4*%
X280083320Y-25635200D03*
%TO.P,SW43,2*%
%TO.N,Net-(D52-Pad2)*%
X293010320Y-23095200D03*
%TD*%
%TO.P,SW44,2*%
%TO.N,Net-(D53-Pad2)*%
X293010320Y-42094400D03*
%TO.P,SW44,1*%
%TO.N,RCol4*%
X280083320Y-44634400D03*
%TD*%
%TA.AperFunction,SMDPad,CuDef*%
D12*
%TO.P,SW45,1*%
%TO.N,RCol4*%
G36*
X261169216Y-86099740D02*
G01*
X261460893Y-88582667D01*
X258928308Y-88880178D01*
X258636631Y-86397251D01*
X261169216Y-86099740D01*
G37*
%TD.AperFunction*%
%TA.AperFunction,SMDPad,CuDef*%
%TO.P,SW45,2*%
%TO.N,Net-(D54-Pad2)*%
G36*
X273711590Y-82068884D02*
G01*
X274003267Y-84551811D01*
X271470682Y-84849322D01*
X271179005Y-82366395D01*
X273711590Y-82068884D01*
G37*
%TD.AperFunction*%
%TD*%
D15*
%TO.P,SW46,1*%
%TO.N,RCol4*%
X280083320Y-63633600D03*
%TO.P,SW46,2*%
%TO.N,Net-(D55-Pad2)*%
X293010320Y-61093600D03*
%TD*%
%TO.P,SW47,2*%
%TO.N,Net-(D57-Pad2)*%
X274011120Y-25940000D03*
%TO.P,SW47,1*%
%TO.N,RCol5*%
X261084120Y-28480000D03*
%TD*%
%TO.P,SW48,1*%
%TO.N,RCol5*%
X261084120Y-47428400D03*
%TO.P,SW48,2*%
%TO.N,Net-(D58-Pad2)*%
X274011120Y-44888400D03*
%TD*%
%TA.AperFunction,SMDPad,CuDef*%
D12*
%TO.P,SW49,2*%
%TO.N,Net-(D59-Pad2)*%
G36*
X253330801Y-84782579D02*
G01*
X253910171Y-87214518D01*
X251429593Y-87805475D01*
X250850223Y-85373536D01*
X253330801Y-84782579D01*
G37*
%TD.AperFunction*%
%TA.AperFunction,SMDPad,CuDef*%
%TO.P,SW49,1*%
%TO.N,RCol5*%
G36*
X241344367Y-90249235D02*
G01*
X241923737Y-92681174D01*
X239443159Y-93272131D01*
X238863789Y-90840192D01*
X241344367Y-90249235D01*
G37*
%TD.AperFunction*%
%TD*%
D15*
%TO.P,SW50,2*%
%TO.N,Net-(D60-Pad2)*%
X274011120Y-63938400D03*
%TO.P,SW50,1*%
%TO.N,RCol5*%
X261084120Y-66478400D03*
%TD*%
%TO.P,SW51,1*%
%TO.N,RCol6*%
X242084920Y-30867600D03*
%TO.P,SW51,2*%
%TO.N,Net-(D63-Pad2)*%
X255011920Y-28327600D03*
%TD*%
%TO.P,SW52,2*%
%TO.N,Net-(D64-Pad2)*%
X255011920Y-47326800D03*
%TO.P,SW52,1*%
%TO.N,RCol6*%
X242084920Y-49866800D03*
%TD*%
%TA.AperFunction,SMDPad,CuDef*%
D12*
%TO.P,SW53,1*%
%TO.N,RCol6*%
G36*
X222144850Y-96730302D02*
G01*
X222999900Y-99079533D01*
X220603684Y-99951684D01*
X219748634Y-97602453D01*
X222144850Y-96730302D01*
G37*
%TD.AperFunction*%
%TA.AperFunction,SMDPad,CuDef*%
%TO.P,SW53,2*%
%TO.N,Net-(D65-Pad2)*%
G36*
X233423525Y-89922189D02*
G01*
X234278575Y-92271420D01*
X231882359Y-93143571D01*
X231027309Y-90794340D01*
X233423525Y-89922189D01*
G37*
%TD.AperFunction*%
%TD*%
D15*
%TO.P,SW54,2*%
%TO.N,Net-(D66-Pad2)*%
X255011920Y-66326000D03*
%TO.P,SW54,1*%
%TO.N,RCol6*%
X242084920Y-68866000D03*
%TD*%
%TO.P,SW55,1*%
%TO.N,RCol7*%
X223085720Y-51644800D03*
%TO.P,SW55,2*%
%TO.N,Net-(D68-Pad2)*%
X236012720Y-49104800D03*
%TD*%
%TO.P,SW56,2*%
%TO.N,Net-(D69-Pad2)*%
X236012720Y-30105600D03*
%TO.P,SW56,1*%
%TO.N,RCol7*%
X223085720Y-32645600D03*
%TD*%
D18*
%TO.P,SW57,A*%
%TO.N,RENCA*%
X237640860Y-75716380D03*
D16*
%TO.P,SW57,C*%
%TO.N,GND2*%
X237640860Y-73216380D03*
%TO.P,SW57,B*%
%TO.N,RENCB*%
X237640860Y-70716380D03*
D17*
%TO.P,SW57,MP*%
%TO.N,N/C*%
X230140860Y-78816380D03*
X230140860Y-67616380D03*
D16*
%TO.P,SW57,S2*%
%TO.N,RCol7*%
X223140860Y-75716380D03*
%TO.P,SW57,S1*%
%TO.N,Net-(D67-Pad2)*%
X223140860Y-70716380D03*
%TD*%
%TA.AperFunction,SMDPad,CuDef*%
D12*
%TO.P,SW58,1*%
%TO.N,RCol7*%
G36*
X203820913Y-105403266D02*
G01*
X204944210Y-107636695D01*
X202666113Y-108782458D01*
X201542816Y-106549029D01*
X203820913Y-105403266D01*
G37*
%TD.AperFunction*%
%TA.AperFunction,SMDPad,CuDef*%
%TO.P,SW58,2*%
%TO.N,Net-(D70-Pad2)*%
G36*
X214228255Y-97325756D02*
G01*
X215351552Y-99559185D01*
X213073455Y-100704948D01*
X211950158Y-98471519D01*
X214228255Y-97325756D01*
G37*
%TD.AperFunction*%
%TD*%
D19*
%TO.P,U1,6*%
%TO.N,LUSART_TX*%
X156185360Y-46146980D03*
%TO.P,U1,10*%
%TO.N,Net-(U1-Pad10)*%
X156185360Y-56306980D03*
%TO.P,U1,12*%
%TO.N,Net-(U1-Pad12)*%
X156185360Y-61386980D03*
%TO.P,U1,20*%
%TO.N,Net-(U1-Pad20)*%
X156185360Y-81706980D03*
%TO.P,U1,16*%
%TO.N,Net-(U1-Pad16)*%
X156185360Y-71546980D03*
%TO.P,U1,5*%
%TO.N,Net-(U1-Pad5)*%
X156185360Y-43606980D03*
%TO.P,U1,11*%
%TO.N,LLED_In*%
X156185360Y-58846980D03*
%TO.P,U1,7*%
%TO.N,LUSART_RX*%
X156185360Y-48686980D03*
%TO.P,U1,19*%
%TO.N,GND1*%
X156185360Y-79166980D03*
%TO.P,U1,4*%
%TO.N,Net-(U1-Pad4)*%
X156185360Y-41066980D03*
%TO.P,U1,3*%
%TO.N,Net-(U1-Pad3)*%
X156185360Y-38526980D03*
%TO.P,U1,17*%
%TO.N,Net-(U1-Pad17)*%
X156185360Y-74086980D03*
%TO.P,U1,8*%
%TO.N,Net-(U1-Pad8)*%
X156185360Y-51226980D03*
%TO.P,U1,15*%
%TO.N,LSCA*%
X156185360Y-69006980D03*
%TO.P,U1,9*%
%TO.N,Net-(U1-Pad9)*%
X156185360Y-53766980D03*
%TO.P,U1,18*%
%TO.N,TRRS_VDD*%
X156185360Y-76626980D03*
%TO.P,U1,2*%
%TO.N,Net-(U1-Pad2)*%
X156185360Y-35986980D03*
D20*
%TO.P,U1,1*%
%TO.N,Net-(U1-Pad1)*%
X156185360Y-33446980D03*
D19*
%TO.P,U1,14*%
%TO.N,LSCL*%
X156185360Y-66466980D03*
%TO.P,U1,13*%
%TO.N,Net-(U1-Pad13)*%
X156185360Y-63926980D03*
%TO.P,U1,28*%
%TO.N,LCol5*%
X171399960Y-63926980D03*
%TO.P,U1,27*%
%TO.N,LCol6*%
X171399960Y-66466980D03*
D20*
%TO.P,U1,40*%
%TO.N,VDD*%
X171399960Y-33446980D03*
D19*
%TO.P,U1,39*%
%TO.N,GND1*%
X171399960Y-35986980D03*
%TO.P,U1,23*%
%TO.N,LENCA*%
X171399960Y-76626980D03*
%TO.P,U1,32*%
%TO.N,LCol1*%
X171399960Y-53766980D03*
%TO.P,U1,26*%
%TO.N,Net-(U1-Pad26)*%
X171399960Y-69006980D03*
%TO.P,U1,33*%
%TO.N,LCol7*%
X171399960Y-51226980D03*
%TO.P,U1,24*%
%TO.N,Net-(U1-Pad24)*%
X171399960Y-74086980D03*
%TO.P,U1,38*%
%TO.N,Net-(U1-Pad38)*%
X171399960Y-38526980D03*
%TO.P,U1,37*%
%TO.N,LRow0*%
X171399960Y-41066980D03*
%TO.P,U1,22*%
%TO.N,LENCB*%
X171399960Y-79166980D03*
%TO.P,U1,34*%
%TO.N,LRow3*%
X171399960Y-48686980D03*
%TO.P,U1,30*%
%TO.N,LCol3*%
X171399960Y-58846980D03*
%TO.P,U1,36*%
%TO.N,LRow1*%
X171399960Y-43606980D03*
%TO.P,U1,25*%
%TO.N,Net-(U1-Pad25)*%
X171399960Y-71546980D03*
%TO.P,U1,21*%
%TO.N,Net-(U1-Pad21)*%
X171399960Y-81706980D03*
%TO.P,U1,29*%
%TO.N,LCol4*%
X171399960Y-61386980D03*
%TO.P,U1,31*%
%TO.N,LCol2*%
X171399960Y-56306980D03*
%TO.P,U1,35*%
%TO.N,LRow2*%
X171399960Y-46146980D03*
%TD*%
%TO.P,U2,35*%
%TO.N,RRow2*%
X215409520Y-46103800D03*
%TO.P,U2,31*%
%TO.N,RCol2*%
X215409520Y-56263800D03*
%TO.P,U2,29*%
%TO.N,RCol4*%
X215409520Y-61343800D03*
%TO.P,U2,21*%
%TO.N,Net-(U2-Pad21)*%
X215409520Y-81663800D03*
%TO.P,U2,25*%
%TO.N,Net-(U2-Pad25)*%
X215409520Y-71503800D03*
%TO.P,U2,36*%
%TO.N,RRow1*%
X215409520Y-43563800D03*
%TO.P,U2,30*%
%TO.N,RCol3*%
X215409520Y-58803800D03*
%TO.P,U2,34*%
%TO.N,RRow3*%
X215409520Y-48643800D03*
%TO.P,U2,22*%
%TO.N,RENCB*%
X215409520Y-79123800D03*
%TO.P,U2,37*%
%TO.N,RRow0*%
X215409520Y-41023800D03*
%TO.P,U2,38*%
%TO.N,Net-(U2-Pad38)*%
X215409520Y-38483800D03*
%TO.P,U2,24*%
%TO.N,Net-(U2-Pad24)*%
X215409520Y-74043800D03*
%TO.P,U2,33*%
%TO.N,RCol7*%
X215409520Y-51183800D03*
%TO.P,U2,26*%
%TO.N,Net-(U2-Pad26)*%
X215409520Y-68963800D03*
%TO.P,U2,32*%
%TO.N,RCol1*%
X215409520Y-53723800D03*
%TO.P,U2,23*%
%TO.N,RENCA*%
X215409520Y-76583800D03*
%TO.P,U2,39*%
%TO.N,GND2*%
X215409520Y-35943800D03*
D20*
%TO.P,U2,40*%
%TO.N,VCC*%
X215409520Y-33403800D03*
D19*
%TO.P,U2,27*%
%TO.N,RCol6*%
X215409520Y-66423800D03*
%TO.P,U2,28*%
%TO.N,RCol5*%
X215409520Y-63883800D03*
%TO.P,U2,13*%
%TO.N,Net-(U2-Pad13)*%
X200194920Y-63883800D03*
%TO.P,U2,14*%
%TO.N,RSCL*%
X200194920Y-66423800D03*
D20*
%TO.P,U2,1*%
%TO.N,Net-(U2-Pad1)*%
X200194920Y-33403800D03*
D19*
%TO.P,U2,2*%
%TO.N,Net-(U2-Pad2)*%
X200194920Y-35943800D03*
%TO.P,U2,18*%
%TO.N,TRRS_VCC*%
X200194920Y-76583800D03*
%TO.P,U2,9*%
%TO.N,Net-(U2-Pad9)*%
X200194920Y-53723800D03*
%TO.P,U2,15*%
%TO.N,RSCA*%
X200194920Y-68963800D03*
%TO.P,U2,8*%
%TO.N,Net-(U2-Pad8)*%
X200194920Y-51183800D03*
%TO.P,U2,17*%
%TO.N,Net-(U2-Pad17)*%
X200194920Y-74043800D03*
%TO.P,U2,3*%
%TO.N,Net-(U2-Pad3)*%
X200194920Y-38483800D03*
%TO.P,U2,4*%
%TO.N,Net-(U2-Pad4)*%
X200194920Y-41023800D03*
%TO.P,U2,19*%
%TO.N,GND2*%
X200194920Y-79123800D03*
%TO.P,U2,7*%
%TO.N,RUSART_RX*%
X200194920Y-48643800D03*
%TO.P,U2,11*%
%TO.N,RLED_In*%
X200194920Y-58803800D03*
%TO.P,U2,5*%
%TO.N,Net-(U2-Pad5)*%
X200194920Y-43563800D03*
%TO.P,U2,16*%
%TO.N,Net-(U2-Pad16)*%
X200194920Y-71503800D03*
%TO.P,U2,20*%
%TO.N,Net-(U2-Pad20)*%
X200194920Y-81663800D03*
%TO.P,U2,12*%
%TO.N,Net-(U2-Pad12)*%
X200194920Y-61343800D03*
%TO.P,U2,10*%
%TO.N,Net-(U2-Pad10)*%
X200194920Y-56263800D03*
%TO.P,U2,6*%
%TO.N,RUSART_TX*%
X200194920Y-46103800D03*
%TD*%
D11*
%TO.P,D52,2*%
%TO.N,Net-(D52-Pad2)*%
X295397920Y-25485800D03*
%TO.P,D52,1*%
%TO.N,RRow0*%
X295397920Y-29035800D03*
%TD*%
%TO.P,D53,1*%
%TO.N,RRow1*%
X295397920Y-48035000D03*
%TO.P,D53,2*%
%TO.N,Net-(D53-Pad2)*%
X295397920Y-44485000D03*
%TD*%
%TA.AperFunction,SMDPad,CuDef*%
D12*
%TO.P,D54,2*%
%TO.N,Net-(D54-Pad2)*%
G36*
X275830084Y-86231206D02*
G01*
X274836913Y-86347877D01*
X274673574Y-84957438D01*
X275666745Y-84840767D01*
X275830084Y-86231206D01*
G37*
%TD.AperFunction*%
%TA.AperFunction,SMDPad,CuDef*%
%TO.P,D54,1*%
%TO.N,RRow3*%
G36*
X276244266Y-89756962D02*
G01*
X275251095Y-89873633D01*
X275087756Y-88483194D01*
X276080927Y-88366523D01*
X276244266Y-89756962D01*
G37*
%TD.AperFunction*%
%TD*%
D11*
%TO.P,D55,2*%
%TO.N,Net-(D55-Pad2)*%
X295397920Y-63535000D03*
%TO.P,D55,1*%
%TO.N,RRow2*%
X295397920Y-67085000D03*
%TD*%
%TO.P,D57,1*%
%TO.N,RRow0*%
X276398720Y-31931400D03*
%TO.P,D57,2*%
%TO.N,Net-(D57-Pad2)*%
X276398720Y-28381400D03*
%TD*%
%TO.P,D58,2*%
%TO.N,Net-(D58-Pad2)*%
X276347920Y-47431400D03*
%TO.P,D58,1*%
%TO.N,RRow1*%
X276347920Y-50981400D03*
%TD*%
%TA.AperFunction,SMDPad,CuDef*%
D12*
%TO.P,D59,1*%
%TO.N,RRow3*%
G36*
X256783084Y-92163546D02*
G01*
X255810309Y-92395294D01*
X255485862Y-91033408D01*
X256458637Y-90801660D01*
X256783084Y-92163546D01*
G37*
%TD.AperFunction*%
%TA.AperFunction,SMDPad,CuDef*%
%TO.P,D59,2*%
%TO.N,Net-(D59-Pad2)*%
G36*
X255960378Y-88710192D02*
G01*
X254987603Y-88941940D01*
X254663156Y-87580054D01*
X255635931Y-87348306D01*
X255960378Y-88710192D01*
G37*
%TD.AperFunction*%
%TD*%
D11*
%TO.P,D60,1*%
%TO.N,RRow2*%
X276449520Y-69777400D03*
%TO.P,D60,2*%
%TO.N,Net-(D60-Pad2)*%
X276449520Y-66227400D03*
%TD*%
%TO.P,D63,2*%
%TO.N,Net-(D63-Pad2)*%
X257501120Y-30819800D03*
%TO.P,D63,1*%
%TO.N,RRow0*%
X257501120Y-34369800D03*
%TD*%
%TO.P,D64,1*%
%TO.N,RRow1*%
X257348720Y-53267400D03*
%TO.P,D64,2*%
%TO.N,Net-(D64-Pad2)*%
X257348720Y-49717400D03*
%TD*%
%TA.AperFunction,SMDPad,CuDef*%
D12*
%TO.P,D65,2*%
%TO.N,Net-(D65-Pad2)*%
G36*
X236419694Y-93364221D02*
G01*
X235480002Y-93706241D01*
X235001174Y-92390671D01*
X235940866Y-92048651D01*
X236419694Y-93364221D01*
G37*
%TD.AperFunction*%
%TA.AperFunction,SMDPad,CuDef*%
%TO.P,D65,1*%
%TO.N,RRow3*%
G36*
X237633866Y-96700129D02*
G01*
X236694174Y-97042149D01*
X236215346Y-95726579D01*
X237155038Y-95384559D01*
X237633866Y-96700129D01*
G37*
%TD.AperFunction*%
%TD*%
D11*
%TO.P,D66,1*%
%TO.N,RRow2*%
X257450320Y-72368200D03*
%TO.P,D66,2*%
%TO.N,Net-(D66-Pad2)*%
X257450320Y-68818200D03*
%TD*%
%TO.P,D67,1*%
%TO.N,RRow2*%
X220500000Y-67225000D03*
%TO.P,D67,2*%
%TO.N,Net-(D67-Pad2)*%
X220500000Y-70775000D03*
%TD*%
%TO.P,D68,2*%
%TO.N,Net-(D68-Pad2)*%
X238451120Y-51546200D03*
%TO.P,D68,1*%
%TO.N,RRow1*%
X238451120Y-55096200D03*
%TD*%
%TO.P,D69,1*%
%TO.N,RRow0*%
X238298720Y-36147800D03*
%TO.P,D69,2*%
%TO.N,Net-(D69-Pad2)*%
X238298720Y-32597800D03*
%TD*%
%TA.AperFunction,SMDPad,CuDef*%
D12*
%TO.P,D70,2*%
%TO.N,Net-(D70-Pad2)*%
G36*
X217688388Y-100472366D02*
G01*
X216795017Y-100921685D01*
X216165970Y-99670966D01*
X217059341Y-99221647D01*
X217688388Y-100472366D01*
G37*
%TD.AperFunction*%
%TA.AperFunction,SMDPad,CuDef*%
%TO.P,D70,1*%
%TO.N,RRow3*%
G36*
X219283470Y-103643834D02*
G01*
X218390099Y-104093153D01*
X217761052Y-102842434D01*
X218654423Y-102393115D01*
X219283470Y-103643834D01*
G37*
%TD.AperFunction*%
%TD*%
%TO.P,C1,1*%
%TO.N,VDD*%
%TA.AperFunction,SMDPad,CuDef*%
G36*
G01*
X78775000Y-69162500D02*
X79725000Y-69162500D01*
G75*
G02*
X79975000Y-69412500I0J-250000D01*
G01*
X79975000Y-70087500D01*
G75*
G02*
X79725000Y-70337500I-250000J0D01*
G01*
X78775000Y-70337500D01*
G75*
G02*
X78525000Y-70087500I0J250000D01*
G01*
X78525000Y-69412500D01*
G75*
G02*
X78775000Y-69162500I250000J0D01*
G01*
G37*
%TD.AperFunction*%
%TO.P,C1,2*%
%TO.N,GND1*%
%TA.AperFunction,SMDPad,CuDef*%
G36*
G01*
X78775000Y-71237500D02*
X79725000Y-71237500D01*
G75*
G02*
X79975000Y-71487500I0J-250000D01*
G01*
X79975000Y-72162500D01*
G75*
G02*
X79725000Y-72412500I-250000J0D01*
G01*
X78775000Y-72412500D01*
G75*
G02*
X78525000Y-72162500I0J250000D01*
G01*
X78525000Y-71487500D01*
G75*
G02*
X78775000Y-71237500I250000J0D01*
G01*
G37*
%TD.AperFunction*%
%TD*%
%TO.P,C2,2*%
%TO.N,GND1*%
%TA.AperFunction,SMDPad,CuDef*%
G36*
G01*
X144012500Y-61275000D02*
X144012500Y-62225000D01*
G75*
G02*
X143762500Y-62475000I-250000J0D01*
G01*
X143087500Y-62475000D01*
G75*
G02*
X142837500Y-62225000I0J250000D01*
G01*
X142837500Y-61275000D01*
G75*
G02*
X143087500Y-61025000I250000J0D01*
G01*
X143762500Y-61025000D01*
G75*
G02*
X144012500Y-61275000I0J-250000D01*
G01*
G37*
%TD.AperFunction*%
%TO.P,C2,1*%
%TO.N,VDD*%
%TA.AperFunction,SMDPad,CuDef*%
G36*
G01*
X146087500Y-61275000D02*
X146087500Y-62225000D01*
G75*
G02*
X145837500Y-62475000I-250000J0D01*
G01*
X145162500Y-62475000D01*
G75*
G02*
X144912500Y-62225000I0J250000D01*
G01*
X144912500Y-61275000D01*
G75*
G02*
X145162500Y-61025000I250000J0D01*
G01*
X145837500Y-61025000D01*
G75*
G02*
X146087500Y-61275000I0J-250000D01*
G01*
G37*
%TD.AperFunction*%
%TD*%
%TO.P,C3,2*%
%TO.N,GND1*%
%TA.AperFunction,SMDPad,CuDef*%
G36*
G01*
X40275000Y-87737500D02*
X41225000Y-87737500D01*
G75*
G02*
X41475000Y-87987500I0J-250000D01*
G01*
X41475000Y-88662500D01*
G75*
G02*
X41225000Y-88912500I-250000J0D01*
G01*
X40275000Y-88912500D01*
G75*
G02*
X40025000Y-88662500I0J250000D01*
G01*
X40025000Y-87987500D01*
G75*
G02*
X40275000Y-87737500I250000J0D01*
G01*
G37*
%TD.AperFunction*%
%TO.P,C3,1*%
%TO.N,VDD*%
%TA.AperFunction,SMDPad,CuDef*%
G36*
G01*
X40275000Y-85662500D02*
X41225000Y-85662500D01*
G75*
G02*
X41475000Y-85912500I0J-250000D01*
G01*
X41475000Y-86587500D01*
G75*
G02*
X41225000Y-86837500I-250000J0D01*
G01*
X40275000Y-86837500D01*
G75*
G02*
X40025000Y-86587500I0J250000D01*
G01*
X40025000Y-85912500D01*
G75*
G02*
X40275000Y-85662500I250000J0D01*
G01*
G37*
%TD.AperFunction*%
%TD*%
%TO.P,C4,1*%
%TO.N,VDD*%
%TA.AperFunction,SMDPad,CuDef*%
G36*
G01*
X70525000Y-54912500D02*
X71475000Y-54912500D01*
G75*
G02*
X71725000Y-55162500I0J-250000D01*
G01*
X71725000Y-55837500D01*
G75*
G02*
X71475000Y-56087500I-250000J0D01*
G01*
X70525000Y-56087500D01*
G75*
G02*
X70275000Y-55837500I0J250000D01*
G01*
X70275000Y-55162500D01*
G75*
G02*
X70525000Y-54912500I250000J0D01*
G01*
G37*
%TD.AperFunction*%
%TO.P,C4,2*%
%TO.N,GND1*%
%TA.AperFunction,SMDPad,CuDef*%
G36*
G01*
X70525000Y-56987500D02*
X71475000Y-56987500D01*
G75*
G02*
X71725000Y-57237500I0J-250000D01*
G01*
X71725000Y-57912500D01*
G75*
G02*
X71475000Y-58162500I-250000J0D01*
G01*
X70525000Y-58162500D01*
G75*
G02*
X70275000Y-57912500I0J250000D01*
G01*
X70275000Y-57237500D01*
G75*
G02*
X70525000Y-56987500I250000J0D01*
G01*
G37*
%TD.AperFunction*%
%TD*%
%TO.P,C5,1*%
%TO.N,VDD*%
%TA.AperFunction,SMDPad,CuDef*%
G36*
G01*
X86975000Y-77587500D02*
X86025000Y-77587500D01*
G75*
G02*
X85775000Y-77337500I0J250000D01*
G01*
X85775000Y-76662500D01*
G75*
G02*
X86025000Y-76412500I250000J0D01*
G01*
X86975000Y-76412500D01*
G75*
G02*
X87225000Y-76662500I0J-250000D01*
G01*
X87225000Y-77337500D01*
G75*
G02*
X86975000Y-77587500I-250000J0D01*
G01*
G37*
%TD.AperFunction*%
%TO.P,C5,2*%
%TO.N,GND1*%
%TA.AperFunction,SMDPad,CuDef*%
G36*
G01*
X86975000Y-75512500D02*
X86025000Y-75512500D01*
G75*
G02*
X85775000Y-75262500I0J250000D01*
G01*
X85775000Y-74587500D01*
G75*
G02*
X86025000Y-74337500I250000J0D01*
G01*
X86975000Y-74337500D01*
G75*
G02*
X87225000Y-74587500I0J-250000D01*
G01*
X87225000Y-75262500D01*
G75*
G02*
X86975000Y-75512500I-250000J0D01*
G01*
G37*
%TD.AperFunction*%
%TD*%
%TO.P,C6,2*%
%TO.N,GND1*%
%TA.AperFunction,SMDPad,CuDef*%
G36*
G01*
X91487500Y-93725000D02*
X91487500Y-92775000D01*
G75*
G02*
X91737500Y-92525000I250000J0D01*
G01*
X92412500Y-92525000D01*
G75*
G02*
X92662500Y-92775000I0J-250000D01*
G01*
X92662500Y-93725000D01*
G75*
G02*
X92412500Y-93975000I-250000J0D01*
G01*
X91737500Y-93975000D01*
G75*
G02*
X91487500Y-93725000I0J250000D01*
G01*
G37*
%TD.AperFunction*%
%TO.P,C6,1*%
%TO.N,VDD*%
%TA.AperFunction,SMDPad,CuDef*%
G36*
G01*
X89412500Y-93725000D02*
X89412500Y-92775000D01*
G75*
G02*
X89662500Y-92525000I250000J0D01*
G01*
X90337500Y-92525000D01*
G75*
G02*
X90587500Y-92775000I0J-250000D01*
G01*
X90587500Y-93725000D01*
G75*
G02*
X90337500Y-93975000I-250000J0D01*
G01*
X89662500Y-93975000D01*
G75*
G02*
X89412500Y-93725000I0J250000D01*
G01*
G37*
%TD.AperFunction*%
%TD*%
%TO.P,C7,2*%
%TO.N,GND1*%
%TA.AperFunction,SMDPad,CuDef*%
G36*
G01*
X40525000Y-49987500D02*
X41475000Y-49987500D01*
G75*
G02*
X41725000Y-50237500I0J-250000D01*
G01*
X41725000Y-50912500D01*
G75*
G02*
X41475000Y-51162500I-250000J0D01*
G01*
X40525000Y-51162500D01*
G75*
G02*
X40275000Y-50912500I0J250000D01*
G01*
X40275000Y-50237500D01*
G75*
G02*
X40525000Y-49987500I250000J0D01*
G01*
G37*
%TD.AperFunction*%
%TO.P,C7,1*%
%TO.N,VDD*%
%TA.AperFunction,SMDPad,CuDef*%
G36*
G01*
X40525000Y-47912500D02*
X41475000Y-47912500D01*
G75*
G02*
X41725000Y-48162500I0J-250000D01*
G01*
X41725000Y-48837500D01*
G75*
G02*
X41475000Y-49087500I-250000J0D01*
G01*
X40525000Y-49087500D01*
G75*
G02*
X40275000Y-48837500I0J250000D01*
G01*
X40275000Y-48162500D01*
G75*
G02*
X40525000Y-47912500I250000J0D01*
G01*
G37*
%TD.AperFunction*%
%TD*%
%TO.P,C8,1*%
%TO.N,VDD*%
%TA.AperFunction,SMDPad,CuDef*%
G36*
G01*
X127525000Y-57412500D02*
X128475000Y-57412500D01*
G75*
G02*
X128725000Y-57662500I0J-250000D01*
G01*
X128725000Y-58337500D01*
G75*
G02*
X128475000Y-58587500I-250000J0D01*
G01*
X127525000Y-58587500D01*
G75*
G02*
X127275000Y-58337500I0J250000D01*
G01*
X127275000Y-57662500D01*
G75*
G02*
X127525000Y-57412500I250000J0D01*
G01*
G37*
%TD.AperFunction*%
%TO.P,C8,2*%
%TO.N,GND1*%
%TA.AperFunction,SMDPad,CuDef*%
G36*
G01*
X127525000Y-59487500D02*
X128475000Y-59487500D01*
G75*
G02*
X128725000Y-59737500I0J-250000D01*
G01*
X128725000Y-60412500D01*
G75*
G02*
X128475000Y-60662500I-250000J0D01*
G01*
X127525000Y-60662500D01*
G75*
G02*
X127275000Y-60412500I0J250000D01*
G01*
X127275000Y-59737500D01*
G75*
G02*
X127525000Y-59487500I250000J0D01*
G01*
G37*
%TD.AperFunction*%
%TD*%
%TO.P,C9,1*%
%TO.N,VDD*%
%TA.AperFunction,SMDPad,CuDef*%
G36*
G01*
X21025000Y-91162500D02*
X21975000Y-91162500D01*
G75*
G02*
X22225000Y-91412500I0J-250000D01*
G01*
X22225000Y-92087500D01*
G75*
G02*
X21975000Y-92337500I-250000J0D01*
G01*
X21025000Y-92337500D01*
G75*
G02*
X20775000Y-92087500I0J250000D01*
G01*
X20775000Y-91412500D01*
G75*
G02*
X21025000Y-91162500I250000J0D01*
G01*
G37*
%TD.AperFunction*%
%TO.P,C9,2*%
%TO.N,GND1*%
%TA.AperFunction,SMDPad,CuDef*%
G36*
G01*
X21025000Y-93237500D02*
X21975000Y-93237500D01*
G75*
G02*
X22225000Y-93487500I0J-250000D01*
G01*
X22225000Y-94162500D01*
G75*
G02*
X21975000Y-94412500I-250000J0D01*
G01*
X21025000Y-94412500D01*
G75*
G02*
X20775000Y-94162500I0J250000D01*
G01*
X20775000Y-93487500D01*
G75*
G02*
X21025000Y-93237500I250000J0D01*
G01*
G37*
%TD.AperFunction*%
%TD*%
%TO.P,C10,2*%
%TO.N,GND1*%
%TA.AperFunction,SMDPad,CuDef*%
G36*
G01*
X87475000Y-36012500D02*
X86525000Y-36012500D01*
G75*
G02*
X86275000Y-35762500I0J250000D01*
G01*
X86275000Y-35087500D01*
G75*
G02*
X86525000Y-34837500I250000J0D01*
G01*
X87475000Y-34837500D01*
G75*
G02*
X87725000Y-35087500I0J-250000D01*
G01*
X87725000Y-35762500D01*
G75*
G02*
X87475000Y-36012500I-250000J0D01*
G01*
G37*
%TD.AperFunction*%
%TO.P,C10,1*%
%TO.N,VDD*%
%TA.AperFunction,SMDPad,CuDef*%
G36*
G01*
X87475000Y-38087500D02*
X86525000Y-38087500D01*
G75*
G02*
X86275000Y-37837500I0J250000D01*
G01*
X86275000Y-37162500D01*
G75*
G02*
X86525000Y-36912500I250000J0D01*
G01*
X87475000Y-36912500D01*
G75*
G02*
X87725000Y-37162500I0J-250000D01*
G01*
X87725000Y-37837500D01*
G75*
G02*
X87475000Y-38087500I-250000J0D01*
G01*
G37*
%TD.AperFunction*%
%TD*%
%TO.P,C11,2*%
%TO.N,GND1*%
%TA.AperFunction,SMDPad,CuDef*%
G36*
G01*
X127275000Y-99987500D02*
X128225000Y-99987500D01*
G75*
G02*
X128475000Y-100237500I0J-250000D01*
G01*
X128475000Y-100912500D01*
G75*
G02*
X128225000Y-101162500I-250000J0D01*
G01*
X127275000Y-101162500D01*
G75*
G02*
X127025000Y-100912500I0J250000D01*
G01*
X127025000Y-100237500D01*
G75*
G02*
X127275000Y-99987500I250000J0D01*
G01*
G37*
%TD.AperFunction*%
%TO.P,C11,1*%
%TO.N,VDD*%
%TA.AperFunction,SMDPad,CuDef*%
G36*
G01*
X127275000Y-97912500D02*
X128225000Y-97912500D01*
G75*
G02*
X128475000Y-98162500I0J-250000D01*
G01*
X128475000Y-98837500D01*
G75*
G02*
X128225000Y-99087500I-250000J0D01*
G01*
X127275000Y-99087500D01*
G75*
G02*
X127025000Y-98837500I0J250000D01*
G01*
X127025000Y-98162500D01*
G75*
G02*
X127275000Y-97912500I250000J0D01*
G01*
G37*
%TD.AperFunction*%
%TD*%
%TO.P,C12,1*%
%TO.N,VDD*%
%TA.AperFunction,SMDPad,CuDef*%
G36*
G01*
X52025000Y-67912500D02*
X52975000Y-67912500D01*
G75*
G02*
X53225000Y-68162500I0J-250000D01*
G01*
X53225000Y-68837500D01*
G75*
G02*
X52975000Y-69087500I-250000J0D01*
G01*
X52025000Y-69087500D01*
G75*
G02*
X51775000Y-68837500I0J250000D01*
G01*
X51775000Y-68162500D01*
G75*
G02*
X52025000Y-67912500I250000J0D01*
G01*
G37*
%TD.AperFunction*%
%TO.P,C12,2*%
%TO.N,GND1*%
%TA.AperFunction,SMDPad,CuDef*%
G36*
G01*
X52025000Y-69987500D02*
X52975000Y-69987500D01*
G75*
G02*
X53225000Y-70237500I0J-250000D01*
G01*
X53225000Y-70912500D01*
G75*
G02*
X52975000Y-71162500I-250000J0D01*
G01*
X52025000Y-71162500D01*
G75*
G02*
X51775000Y-70912500I0J250000D01*
G01*
X51775000Y-70237500D01*
G75*
G02*
X52025000Y-69987500I250000J0D01*
G01*
G37*
%TD.AperFunction*%
%TD*%
%TO.P,C13,1*%
%TO.N,VDD*%
%TA.AperFunction,SMDPad,CuDef*%
G36*
G01*
X117337500Y-74525000D02*
X117337500Y-75475000D01*
G75*
G02*
X117087500Y-75725000I-250000J0D01*
G01*
X116412500Y-75725000D01*
G75*
G02*
X116162500Y-75475000I0J250000D01*
G01*
X116162500Y-74525000D01*
G75*
G02*
X116412500Y-74275000I250000J0D01*
G01*
X117087500Y-74275000D01*
G75*
G02*
X117337500Y-74525000I0J-250000D01*
G01*
G37*
%TD.AperFunction*%
%TO.P,C13,2*%
%TO.N,GND1*%
%TA.AperFunction,SMDPad,CuDef*%
G36*
G01*
X115262500Y-74525000D02*
X115262500Y-75475000D01*
G75*
G02*
X115012500Y-75725000I-250000J0D01*
G01*
X114337500Y-75725000D01*
G75*
G02*
X114087500Y-75475000I0J250000D01*
G01*
X114087500Y-74525000D01*
G75*
G02*
X114337500Y-74275000I250000J0D01*
G01*
X115012500Y-74275000D01*
G75*
G02*
X115262500Y-74525000I0J-250000D01*
G01*
G37*
%TD.AperFunction*%
%TD*%
%TO.P,C14,2*%
%TO.N,GND1*%
%TA.AperFunction,SMDPad,CuDef*%
G36*
G01*
X97025000Y-35987500D02*
X97975000Y-35987500D01*
G75*
G02*
X98225000Y-36237500I0J-250000D01*
G01*
X98225000Y-36912500D01*
G75*
G02*
X97975000Y-37162500I-250000J0D01*
G01*
X97025000Y-37162500D01*
G75*
G02*
X96775000Y-36912500I0J250000D01*
G01*
X96775000Y-36237500D01*
G75*
G02*
X97025000Y-35987500I250000J0D01*
G01*
G37*
%TD.AperFunction*%
%TO.P,C14,1*%
%TO.N,VDD*%
%TA.AperFunction,SMDPad,CuDef*%
G36*
G01*
X97025000Y-33912500D02*
X97975000Y-33912500D01*
G75*
G02*
X98225000Y-34162500I0J-250000D01*
G01*
X98225000Y-34837500D01*
G75*
G02*
X97975000Y-35087500I-250000J0D01*
G01*
X97025000Y-35087500D01*
G75*
G02*
X96775000Y-34837500I0J250000D01*
G01*
X96775000Y-34162500D01*
G75*
G02*
X97025000Y-33912500I250000J0D01*
G01*
G37*
%TD.AperFunction*%
%TD*%
%TO.P,C15,2*%
%TO.N,GND1*%
%TA.AperFunction,SMDPad,CuDef*%
G36*
G01*
X50012500Y-90525000D02*
X50012500Y-91475000D01*
G75*
G02*
X49762500Y-91725000I-250000J0D01*
G01*
X49087500Y-91725000D01*
G75*
G02*
X48837500Y-91475000I0J250000D01*
G01*
X48837500Y-90525000D01*
G75*
G02*
X49087500Y-90275000I250000J0D01*
G01*
X49762500Y-90275000D01*
G75*
G02*
X50012500Y-90525000I0J-250000D01*
G01*
G37*
%TD.AperFunction*%
%TO.P,C15,1*%
%TO.N,VDD*%
%TA.AperFunction,SMDPad,CuDef*%
G36*
G01*
X52087500Y-90525000D02*
X52087500Y-91475000D01*
G75*
G02*
X51837500Y-91725000I-250000J0D01*
G01*
X51162500Y-91725000D01*
G75*
G02*
X50912500Y-91475000I0J250000D01*
G01*
X50912500Y-90525000D01*
G75*
G02*
X51162500Y-90275000I250000J0D01*
G01*
X51837500Y-90275000D01*
G75*
G02*
X52087500Y-90525000I0J-250000D01*
G01*
G37*
%TD.AperFunction*%
%TD*%
%TO.P,C16,1*%
%TO.N,VDD*%
%TA.AperFunction,SMDPad,CuDef*%
G36*
G01*
X44475000Y-35087500D02*
X43525000Y-35087500D01*
G75*
G02*
X43275000Y-34837500I0J250000D01*
G01*
X43275000Y-34162500D01*
G75*
G02*
X43525000Y-33912500I250000J0D01*
G01*
X44475000Y-33912500D01*
G75*
G02*
X44725000Y-34162500I0J-250000D01*
G01*
X44725000Y-34837500D01*
G75*
G02*
X44475000Y-35087500I-250000J0D01*
G01*
G37*
%TD.AperFunction*%
%TO.P,C16,2*%
%TO.N,GND1*%
%TA.AperFunction,SMDPad,CuDef*%
G36*
G01*
X44475000Y-33012500D02*
X43525000Y-33012500D01*
G75*
G02*
X43275000Y-32762500I0J250000D01*
G01*
X43275000Y-32087500D01*
G75*
G02*
X43525000Y-31837500I250000J0D01*
G01*
X44475000Y-31837500D01*
G75*
G02*
X44725000Y-32087500I0J-250000D01*
G01*
X44725000Y-32762500D01*
G75*
G02*
X44475000Y-33012500I-250000J0D01*
G01*
G37*
%TD.AperFunction*%
%TD*%
%TO.P,C17,1*%
%TO.N,VDD*%
%TA.AperFunction,SMDPad,CuDef*%
G36*
G01*
X163275000Y-112912500D02*
X164225000Y-112912500D01*
G75*
G02*
X164475000Y-113162500I0J-250000D01*
G01*
X164475000Y-113837500D01*
G75*
G02*
X164225000Y-114087500I-250000J0D01*
G01*
X163275000Y-114087500D01*
G75*
G02*
X163025000Y-113837500I0J250000D01*
G01*
X163025000Y-113162500D01*
G75*
G02*
X163275000Y-112912500I250000J0D01*
G01*
G37*
%TD.AperFunction*%
%TO.P,C17,2*%
%TO.N,GND1*%
%TA.AperFunction,SMDPad,CuDef*%
G36*
G01*
X163275000Y-114987500D02*
X164225000Y-114987500D01*
G75*
G02*
X164475000Y-115237500I0J-250000D01*
G01*
X164475000Y-115912500D01*
G75*
G02*
X164225000Y-116162500I-250000J0D01*
G01*
X163275000Y-116162500D01*
G75*
G02*
X163025000Y-115912500I0J250000D01*
G01*
X163025000Y-115237500D01*
G75*
G02*
X163275000Y-114987500I250000J0D01*
G01*
G37*
%TD.AperFunction*%
%TD*%
%TO.P,C18,2*%
%TO.N,GND1*%
%TA.AperFunction,SMDPad,CuDef*%
G36*
G01*
X115087500Y-36525000D02*
X115087500Y-37475000D01*
G75*
G02*
X114837500Y-37725000I-250000J0D01*
G01*
X114162500Y-37725000D01*
G75*
G02*
X113912500Y-37475000I0J250000D01*
G01*
X113912500Y-36525000D01*
G75*
G02*
X114162500Y-36275000I250000J0D01*
G01*
X114837500Y-36275000D01*
G75*
G02*
X115087500Y-36525000I0J-250000D01*
G01*
G37*
%TD.AperFunction*%
%TO.P,C18,1*%
%TO.N,VDD*%
%TA.AperFunction,SMDPad,CuDef*%
G36*
G01*
X117162500Y-36525000D02*
X117162500Y-37475000D01*
G75*
G02*
X116912500Y-37725000I-250000J0D01*
G01*
X116237500Y-37725000D01*
G75*
G02*
X115987500Y-37475000I0J250000D01*
G01*
X115987500Y-36525000D01*
G75*
G02*
X116237500Y-36275000I250000J0D01*
G01*
X116912500Y-36275000D01*
G75*
G02*
X117162500Y-36525000I0J-250000D01*
G01*
G37*
%TD.AperFunction*%
%TD*%
%TO.P,C19,2*%
%TO.N,GND1*%
%TA.AperFunction,SMDPad,CuDef*%
G36*
G01*
X89525000Y-54487500D02*
X90475000Y-54487500D01*
G75*
G02*
X90725000Y-54737500I0J-250000D01*
G01*
X90725000Y-55412500D01*
G75*
G02*
X90475000Y-55662500I-250000J0D01*
G01*
X89525000Y-55662500D01*
G75*
G02*
X89275000Y-55412500I0J250000D01*
G01*
X89275000Y-54737500D01*
G75*
G02*
X89525000Y-54487500I250000J0D01*
G01*
G37*
%TD.AperFunction*%
%TO.P,C19,1*%
%TO.N,VDD*%
%TA.AperFunction,SMDPad,CuDef*%
G36*
G01*
X89525000Y-52412500D02*
X90475000Y-52412500D01*
G75*
G02*
X90725000Y-52662500I0J-250000D01*
G01*
X90725000Y-53337500D01*
G75*
G02*
X90475000Y-53587500I-250000J0D01*
G01*
X89525000Y-53587500D01*
G75*
G02*
X89275000Y-53337500I0J250000D01*
G01*
X89275000Y-52662500D01*
G75*
G02*
X89525000Y-52412500I250000J0D01*
G01*
G37*
%TD.AperFunction*%
%TD*%
%TO.P,C20,1*%
%TO.N,VDD*%
%TA.AperFunction,SMDPad,CuDef*%
G36*
G01*
X59525000Y-72162500D02*
X60475000Y-72162500D01*
G75*
G02*
X60725000Y-72412500I0J-250000D01*
G01*
X60725000Y-73087500D01*
G75*
G02*
X60475000Y-73337500I-250000J0D01*
G01*
X59525000Y-73337500D01*
G75*
G02*
X59275000Y-73087500I0J250000D01*
G01*
X59275000Y-72412500D01*
G75*
G02*
X59525000Y-72162500I250000J0D01*
G01*
G37*
%TD.AperFunction*%
%TO.P,C20,2*%
%TO.N,GND1*%
%TA.AperFunction,SMDPad,CuDef*%
G36*
G01*
X59525000Y-74237500D02*
X60475000Y-74237500D01*
G75*
G02*
X60725000Y-74487500I0J-250000D01*
G01*
X60725000Y-75162500D01*
G75*
G02*
X60475000Y-75412500I-250000J0D01*
G01*
X59525000Y-75412500D01*
G75*
G02*
X59275000Y-75162500I0J250000D01*
G01*
X59275000Y-74487500D01*
G75*
G02*
X59525000Y-74237500I250000J0D01*
G01*
G37*
%TD.AperFunction*%
%TD*%
%TO.P,C21,1*%
%TO.N,VDD*%
%TA.AperFunction,SMDPad,CuDef*%
G36*
G01*
X59025000Y-34412500D02*
X59975000Y-34412500D01*
G75*
G02*
X60225000Y-34662500I0J-250000D01*
G01*
X60225000Y-35337500D01*
G75*
G02*
X59975000Y-35587500I-250000J0D01*
G01*
X59025000Y-35587500D01*
G75*
G02*
X58775000Y-35337500I0J250000D01*
G01*
X58775000Y-34662500D01*
G75*
G02*
X59025000Y-34412500I250000J0D01*
G01*
G37*
%TD.AperFunction*%
%TO.P,C21,2*%
%TO.N,GND1*%
%TA.AperFunction,SMDPad,CuDef*%
G36*
G01*
X59025000Y-36487500D02*
X59975000Y-36487500D01*
G75*
G02*
X60225000Y-36737500I0J-250000D01*
G01*
X60225000Y-37412500D01*
G75*
G02*
X59975000Y-37662500I-250000J0D01*
G01*
X59025000Y-37662500D01*
G75*
G02*
X58775000Y-37412500I0J250000D01*
G01*
X58775000Y-36737500D01*
G75*
G02*
X59025000Y-36487500I250000J0D01*
G01*
G37*
%TD.AperFunction*%
%TD*%
%TO.P,C22,2*%
%TO.N,GND1*%
%TA.AperFunction,SMDPad,CuDef*%
G36*
G01*
X146275000Y-107237500D02*
X147225000Y-107237500D01*
G75*
G02*
X147475000Y-107487500I0J-250000D01*
G01*
X147475000Y-108162500D01*
G75*
G02*
X147225000Y-108412500I-250000J0D01*
G01*
X146275000Y-108412500D01*
G75*
G02*
X146025000Y-108162500I0J250000D01*
G01*
X146025000Y-107487500D01*
G75*
G02*
X146275000Y-107237500I250000J0D01*
G01*
G37*
%TD.AperFunction*%
%TO.P,C22,1*%
%TO.N,VDD*%
%TA.AperFunction,SMDPad,CuDef*%
G36*
G01*
X146275000Y-105162500D02*
X147225000Y-105162500D01*
G75*
G02*
X147475000Y-105412500I0J-250000D01*
G01*
X147475000Y-106087500D01*
G75*
G02*
X147225000Y-106337500I-250000J0D01*
G01*
X146275000Y-106337500D01*
G75*
G02*
X146025000Y-106087500I0J250000D01*
G01*
X146025000Y-105412500D01*
G75*
G02*
X146275000Y-105162500I250000J0D01*
G01*
G37*
%TD.AperFunction*%
%TD*%
%TO.P,C23,2*%
%TO.N,GND1*%
%TA.AperFunction,SMDPad,CuDef*%
G36*
G01*
X32525000Y-75987500D02*
X33475000Y-75987500D01*
G75*
G02*
X33725000Y-76237500I0J-250000D01*
G01*
X33725000Y-76912500D01*
G75*
G02*
X33475000Y-77162500I-250000J0D01*
G01*
X32525000Y-77162500D01*
G75*
G02*
X32275000Y-76912500I0J250000D01*
G01*
X32275000Y-76237500D01*
G75*
G02*
X32525000Y-75987500I250000J0D01*
G01*
G37*
%TD.AperFunction*%
%TO.P,C23,1*%
%TO.N,VDD*%
%TA.AperFunction,SMDPad,CuDef*%
G36*
G01*
X32525000Y-73912500D02*
X33475000Y-73912500D01*
G75*
G02*
X33725000Y-74162500I0J-250000D01*
G01*
X33725000Y-74837500D01*
G75*
G02*
X33475000Y-75087500I-250000J0D01*
G01*
X32525000Y-75087500D01*
G75*
G02*
X32275000Y-74837500I0J250000D01*
G01*
X32275000Y-74162500D01*
G75*
G02*
X32525000Y-73912500I250000J0D01*
G01*
G37*
%TD.AperFunction*%
%TD*%
%TO.P,C24,1*%
%TO.N,VDD*%
%TA.AperFunction,SMDPad,CuDef*%
G36*
G01*
X136087500Y-38025000D02*
X136087500Y-38975000D01*
G75*
G02*
X135837500Y-39225000I-250000J0D01*
G01*
X135162500Y-39225000D01*
G75*
G02*
X134912500Y-38975000I0J250000D01*
G01*
X134912500Y-38025000D01*
G75*
G02*
X135162500Y-37775000I250000J0D01*
G01*
X135837500Y-37775000D01*
G75*
G02*
X136087500Y-38025000I0J-250000D01*
G01*
G37*
%TD.AperFunction*%
%TO.P,C24,2*%
%TO.N,GND1*%
%TA.AperFunction,SMDPad,CuDef*%
G36*
G01*
X134012500Y-38025000D02*
X134012500Y-38975000D01*
G75*
G02*
X133762500Y-39225000I-250000J0D01*
G01*
X133087500Y-39225000D01*
G75*
G02*
X132837500Y-38975000I0J250000D01*
G01*
X132837500Y-38025000D01*
G75*
G02*
X133087500Y-37775000I250000J0D01*
G01*
X133762500Y-37775000D01*
G75*
G02*
X134012500Y-38025000I0J-250000D01*
G01*
G37*
%TD.AperFunction*%
%TD*%
%TO.P,C25,1*%
%TO.N,VDD*%
%TA.AperFunction,SMDPad,CuDef*%
G36*
G01*
X153087500Y-90025000D02*
X153087500Y-90975000D01*
G75*
G02*
X152837500Y-91225000I-250000J0D01*
G01*
X152162500Y-91225000D01*
G75*
G02*
X151912500Y-90975000I0J250000D01*
G01*
X151912500Y-90025000D01*
G75*
G02*
X152162500Y-89775000I250000J0D01*
G01*
X152837500Y-89775000D01*
G75*
G02*
X153087500Y-90025000I0J-250000D01*
G01*
G37*
%TD.AperFunction*%
%TO.P,C25,2*%
%TO.N,GND1*%
%TA.AperFunction,SMDPad,CuDef*%
G36*
G01*
X151012500Y-90025000D02*
X151012500Y-90975000D01*
G75*
G02*
X150762500Y-91225000I-250000J0D01*
G01*
X150087500Y-91225000D01*
G75*
G02*
X149837500Y-90975000I0J250000D01*
G01*
X149837500Y-90025000D01*
G75*
G02*
X150087500Y-89775000I250000J0D01*
G01*
X150762500Y-89775000D01*
G75*
G02*
X151012500Y-90025000I0J-250000D01*
G01*
G37*
%TD.AperFunction*%
%TD*%
%TO.P,C26,2*%
%TO.N,GND1*%
%TA.AperFunction,SMDPad,CuDef*%
G36*
G01*
X78025000Y-33487500D02*
X78975000Y-33487500D01*
G75*
G02*
X79225000Y-33737500I0J-250000D01*
G01*
X79225000Y-34412500D01*
G75*
G02*
X78975000Y-34662500I-250000J0D01*
G01*
X78025000Y-34662500D01*
G75*
G02*
X77775000Y-34412500I0J250000D01*
G01*
X77775000Y-33737500D01*
G75*
G02*
X78025000Y-33487500I250000J0D01*
G01*
G37*
%TD.AperFunction*%
%TO.P,C26,1*%
%TO.N,VDD*%
%TA.AperFunction,SMDPad,CuDef*%
G36*
G01*
X78025000Y-31412500D02*
X78975000Y-31412500D01*
G75*
G02*
X79225000Y-31662500I0J-250000D01*
G01*
X79225000Y-32337500D01*
G75*
G02*
X78975000Y-32587500I-250000J0D01*
G01*
X78025000Y-32587500D01*
G75*
G02*
X77775000Y-32337500I0J250000D01*
G01*
X77775000Y-31662500D01*
G75*
G02*
X78025000Y-31412500I250000J0D01*
G01*
G37*
%TD.AperFunction*%
%TD*%
%TO.P,C27,2*%
%TO.N,GND1*%
%TA.AperFunction,SMDPad,CuDef*%
G36*
G01*
X97012500Y-72025000D02*
X97012500Y-72975000D01*
G75*
G02*
X96762500Y-73225000I-250000J0D01*
G01*
X96087500Y-73225000D01*
G75*
G02*
X95837500Y-72975000I0J250000D01*
G01*
X95837500Y-72025000D01*
G75*
G02*
X96087500Y-71775000I250000J0D01*
G01*
X96762500Y-71775000D01*
G75*
G02*
X97012500Y-72025000I0J-250000D01*
G01*
G37*
%TD.AperFunction*%
%TO.P,C27,1*%
%TO.N,VDD*%
%TA.AperFunction,SMDPad,CuDef*%
G36*
G01*
X99087500Y-72025000D02*
X99087500Y-72975000D01*
G75*
G02*
X98837500Y-73225000I-250000J0D01*
G01*
X98162500Y-73225000D01*
G75*
G02*
X97912500Y-72975000I0J250000D01*
G01*
X97912500Y-72025000D01*
G75*
G02*
X98162500Y-71775000I250000J0D01*
G01*
X98837500Y-71775000D01*
G75*
G02*
X99087500Y-72025000I0J-250000D01*
G01*
G37*
%TD.AperFunction*%
%TD*%
%TO.P,C28,1*%
%TO.N,VDD*%
%TA.AperFunction,SMDPad,CuDef*%
G36*
G01*
X108162500Y-95225000D02*
X108162500Y-94275000D01*
G75*
G02*
X108412500Y-94025000I250000J0D01*
G01*
X109087500Y-94025000D01*
G75*
G02*
X109337500Y-94275000I0J-250000D01*
G01*
X109337500Y-95225000D01*
G75*
G02*
X109087500Y-95475000I-250000J0D01*
G01*
X108412500Y-95475000D01*
G75*
G02*
X108162500Y-95225000I0J250000D01*
G01*
G37*
%TD.AperFunction*%
%TO.P,C28,2*%
%TO.N,GND1*%
%TA.AperFunction,SMDPad,CuDef*%
G36*
G01*
X110237500Y-95225000D02*
X110237500Y-94275000D01*
G75*
G02*
X110487500Y-94025000I250000J0D01*
G01*
X111162500Y-94025000D01*
G75*
G02*
X111412500Y-94275000I0J-250000D01*
G01*
X111412500Y-95225000D01*
G75*
G02*
X111162500Y-95475000I-250000J0D01*
G01*
X110487500Y-95475000D01*
G75*
G02*
X110237500Y-95225000I0J250000D01*
G01*
G37*
%TD.AperFunction*%
%TD*%
%TO.P,C29,1*%
%TO.N,VDD*%
%TA.AperFunction,SMDPad,CuDef*%
G36*
G01*
X21025000Y-52912500D02*
X21975000Y-52912500D01*
G75*
G02*
X22225000Y-53162500I0J-250000D01*
G01*
X22225000Y-53837500D01*
G75*
G02*
X21975000Y-54087500I-250000J0D01*
G01*
X21025000Y-54087500D01*
G75*
G02*
X20775000Y-53837500I0J250000D01*
G01*
X20775000Y-53162500D01*
G75*
G02*
X21025000Y-52912500I250000J0D01*
G01*
G37*
%TD.AperFunction*%
%TO.P,C29,2*%
%TO.N,GND1*%
%TA.AperFunction,SMDPad,CuDef*%
G36*
G01*
X21025000Y-54987500D02*
X21975000Y-54987500D01*
G75*
G02*
X22225000Y-55237500I0J-250000D01*
G01*
X22225000Y-55912500D01*
G75*
G02*
X21975000Y-56162500I-250000J0D01*
G01*
X21025000Y-56162500D01*
G75*
G02*
X20775000Y-55912500I0J250000D01*
G01*
X20775000Y-55237500D01*
G75*
G02*
X21025000Y-54987500I250000J0D01*
G01*
G37*
%TD.AperFunction*%
%TD*%
%TO.P,C30,2*%
%TO.N,GND1*%
%TA.AperFunction,SMDPad,CuDef*%
G36*
G01*
X144225000Y-43512500D02*
X143275000Y-43512500D01*
G75*
G02*
X143025000Y-43262500I0J250000D01*
G01*
X143025000Y-42587500D01*
G75*
G02*
X143275000Y-42337500I250000J0D01*
G01*
X144225000Y-42337500D01*
G75*
G02*
X144475000Y-42587500I0J-250000D01*
G01*
X144475000Y-43262500D01*
G75*
G02*
X144225000Y-43512500I-250000J0D01*
G01*
G37*
%TD.AperFunction*%
%TO.P,C30,1*%
%TO.N,VDD*%
%TA.AperFunction,SMDPad,CuDef*%
G36*
G01*
X144225000Y-45587500D02*
X143275000Y-45587500D01*
G75*
G02*
X143025000Y-45337500I0J250000D01*
G01*
X143025000Y-44662500D01*
G75*
G02*
X143275000Y-44412500I250000J0D01*
G01*
X144225000Y-44412500D01*
G75*
G02*
X144475000Y-44662500I0J-250000D01*
G01*
X144475000Y-45337500D01*
G75*
G02*
X144225000Y-45587500I-250000J0D01*
G01*
G37*
%TD.AperFunction*%
%TD*%
%TO.P,C31,1*%
%TO.N,VDD*%
%TA.AperFunction,SMDPad,CuDef*%
G36*
G01*
X108525000Y-54912500D02*
X109475000Y-54912500D01*
G75*
G02*
X109725000Y-55162500I0J-250000D01*
G01*
X109725000Y-55837500D01*
G75*
G02*
X109475000Y-56087500I-250000J0D01*
G01*
X108525000Y-56087500D01*
G75*
G02*
X108275000Y-55837500I0J250000D01*
G01*
X108275000Y-55162500D01*
G75*
G02*
X108525000Y-54912500I250000J0D01*
G01*
G37*
%TD.AperFunction*%
%TO.P,C31,2*%
%TO.N,GND1*%
%TA.AperFunction,SMDPad,CuDef*%
G36*
G01*
X108525000Y-56987500D02*
X109475000Y-56987500D01*
G75*
G02*
X109725000Y-57237500I0J-250000D01*
G01*
X109725000Y-57912500D01*
G75*
G02*
X109475000Y-58162500I-250000J0D01*
G01*
X108525000Y-58162500D01*
G75*
G02*
X108275000Y-57912500I0J250000D01*
G01*
X108275000Y-57237500D01*
G75*
G02*
X108525000Y-56987500I250000J0D01*
G01*
G37*
%TD.AperFunction*%
%TD*%
%TO.P,C32,2*%
%TO.N,GND2*%
%TA.AperFunction,SMDPad,CuDef*%
G36*
G01*
X350737500Y-93725000D02*
X350737500Y-92775000D01*
G75*
G02*
X350987500Y-92525000I250000J0D01*
G01*
X351662500Y-92525000D01*
G75*
G02*
X351912500Y-92775000I0J-250000D01*
G01*
X351912500Y-93725000D01*
G75*
G02*
X351662500Y-93975000I-250000J0D01*
G01*
X350987500Y-93975000D01*
G75*
G02*
X350737500Y-93725000I0J250000D01*
G01*
G37*
%TD.AperFunction*%
%TO.P,C32,1*%
%TO.N,VCC*%
%TA.AperFunction,SMDPad,CuDef*%
G36*
G01*
X348662500Y-93725000D02*
X348662500Y-92775000D01*
G75*
G02*
X348912500Y-92525000I250000J0D01*
G01*
X349587500Y-92525000D01*
G75*
G02*
X349837500Y-92775000I0J-250000D01*
G01*
X349837500Y-93725000D01*
G75*
G02*
X349587500Y-93975000I-250000J0D01*
G01*
X348912500Y-93975000D01*
G75*
G02*
X348662500Y-93725000I0J250000D01*
G01*
G37*
%TD.AperFunction*%
%TD*%
%TO.P,C33,1*%
%TO.N,VCC*%
%TA.AperFunction,SMDPad,CuDef*%
G36*
G01*
X309987500Y-76325000D02*
X309987500Y-77275000D01*
G75*
G02*
X309737500Y-77525000I-250000J0D01*
G01*
X309062500Y-77525000D01*
G75*
G02*
X308812500Y-77275000I0J250000D01*
G01*
X308812500Y-76325000D01*
G75*
G02*
X309062500Y-76075000I250000J0D01*
G01*
X309737500Y-76075000D01*
G75*
G02*
X309987500Y-76325000I0J-250000D01*
G01*
G37*
%TD.AperFunction*%
%TO.P,C33,2*%
%TO.N,GND2*%
%TA.AperFunction,SMDPad,CuDef*%
G36*
G01*
X307912500Y-76325000D02*
X307912500Y-77275000D01*
G75*
G02*
X307662500Y-77525000I-250000J0D01*
G01*
X306987500Y-77525000D01*
G75*
G02*
X306737500Y-77275000I0J250000D01*
G01*
X306737500Y-76325000D01*
G75*
G02*
X306987500Y-76075000I250000J0D01*
G01*
X307662500Y-76075000D01*
G75*
G02*
X307912500Y-76325000I0J-250000D01*
G01*
G37*
%TD.AperFunction*%
%TD*%
%TO.P,C34,1*%
%TO.N,VCC*%
%TA.AperFunction,SMDPad,CuDef*%
G36*
G01*
X292612500Y-34075000D02*
X292612500Y-33125000D01*
G75*
G02*
X292862500Y-32875000I250000J0D01*
G01*
X293537500Y-32875000D01*
G75*
G02*
X293787500Y-33125000I0J-250000D01*
G01*
X293787500Y-34075000D01*
G75*
G02*
X293537500Y-34325000I-250000J0D01*
G01*
X292862500Y-34325000D01*
G75*
G02*
X292612500Y-34075000I0J250000D01*
G01*
G37*
%TD.AperFunction*%
%TO.P,C34,2*%
%TO.N,GND2*%
%TA.AperFunction,SMDPad,CuDef*%
G36*
G01*
X294687500Y-34075000D02*
X294687500Y-33125000D01*
G75*
G02*
X294937500Y-32875000I250000J0D01*
G01*
X295612500Y-32875000D01*
G75*
G02*
X295862500Y-33125000I0J-250000D01*
G01*
X295862500Y-34075000D01*
G75*
G02*
X295612500Y-34325000I-250000J0D01*
G01*
X294937500Y-34325000D01*
G75*
G02*
X294687500Y-34075000I0J250000D01*
G01*
G37*
%TD.AperFunction*%
%TD*%
%TO.P,C35,2*%
%TO.N,GND2*%
%TA.AperFunction,SMDPad,CuDef*%
G36*
G01*
X223925000Y-59487500D02*
X224875000Y-59487500D01*
G75*
G02*
X225125000Y-59737500I0J-250000D01*
G01*
X225125000Y-60412500D01*
G75*
G02*
X224875000Y-60662500I-250000J0D01*
G01*
X223925000Y-60662500D01*
G75*
G02*
X223675000Y-60412500I0J250000D01*
G01*
X223675000Y-59737500D01*
G75*
G02*
X223925000Y-59487500I250000J0D01*
G01*
G37*
%TD.AperFunction*%
%TO.P,C35,1*%
%TO.N,VCC*%
%TA.AperFunction,SMDPad,CuDef*%
G36*
G01*
X223925000Y-57412500D02*
X224875000Y-57412500D01*
G75*
G02*
X225125000Y-57662500I0J-250000D01*
G01*
X225125000Y-58337500D01*
G75*
G02*
X224875000Y-58587500I-250000J0D01*
G01*
X223925000Y-58587500D01*
G75*
G02*
X223675000Y-58337500I0J250000D01*
G01*
X223675000Y-57662500D01*
G75*
G02*
X223925000Y-57412500I250000J0D01*
G01*
G37*
%TD.AperFunction*%
%TD*%
%TO.P,C36,1*%
%TO.N,VCC*%
%TA.AperFunction,SMDPad,CuDef*%
G36*
G01*
X271325000Y-75937500D02*
X272275000Y-75937500D01*
G75*
G02*
X272525000Y-76187500I0J-250000D01*
G01*
X272525000Y-76862500D01*
G75*
G02*
X272275000Y-77112500I-250000J0D01*
G01*
X271325000Y-77112500D01*
G75*
G02*
X271075000Y-76862500I0J250000D01*
G01*
X271075000Y-76187500D01*
G75*
G02*
X271325000Y-75937500I250000J0D01*
G01*
G37*
%TD.AperFunction*%
%TO.P,C36,2*%
%TO.N,GND2*%
%TA.AperFunction,SMDPad,CuDef*%
G36*
G01*
X271325000Y-78012500D02*
X272275000Y-78012500D01*
G75*
G02*
X272525000Y-78262500I0J-250000D01*
G01*
X272525000Y-78937500D01*
G75*
G02*
X272275000Y-79187500I-250000J0D01*
G01*
X271325000Y-79187500D01*
G75*
G02*
X271075000Y-78937500I0J250000D01*
G01*
X271075000Y-78262500D01*
G75*
G02*
X271325000Y-78012500I250000J0D01*
G01*
G37*
%TD.AperFunction*%
%TD*%
%TO.P,C37,1*%
%TO.N,VCC*%
%TA.AperFunction,SMDPad,CuDef*%
G36*
G01*
X330925000Y-49212500D02*
X331875000Y-49212500D01*
G75*
G02*
X332125000Y-49462500I0J-250000D01*
G01*
X332125000Y-50137500D01*
G75*
G02*
X331875000Y-50387500I-250000J0D01*
G01*
X330925000Y-50387500D01*
G75*
G02*
X330675000Y-50137500I0J250000D01*
G01*
X330675000Y-49462500D01*
G75*
G02*
X330925000Y-49212500I250000J0D01*
G01*
G37*
%TD.AperFunction*%
%TO.P,C37,2*%
%TO.N,GND2*%
%TA.AperFunction,SMDPad,CuDef*%
G36*
G01*
X330925000Y-51287500D02*
X331875000Y-51287500D01*
G75*
G02*
X332125000Y-51537500I0J-250000D01*
G01*
X332125000Y-52212500D01*
G75*
G02*
X331875000Y-52462500I-250000J0D01*
G01*
X330925000Y-52462500D01*
G75*
G02*
X330675000Y-52212500I0J250000D01*
G01*
X330675000Y-51537500D01*
G75*
G02*
X330925000Y-51287500I250000J0D01*
G01*
G37*
%TD.AperFunction*%
%TD*%
%TO.P,C38,1*%
%TO.N,VCC*%
%TA.AperFunction,SMDPad,CuDef*%
G36*
G01*
X280875000Y-72587500D02*
X279925000Y-72587500D01*
G75*
G02*
X279675000Y-72337500I0J250000D01*
G01*
X279675000Y-71662500D01*
G75*
G02*
X279925000Y-71412500I250000J0D01*
G01*
X280875000Y-71412500D01*
G75*
G02*
X281125000Y-71662500I0J-250000D01*
G01*
X281125000Y-72337500D01*
G75*
G02*
X280875000Y-72587500I-250000J0D01*
G01*
G37*
%TD.AperFunction*%
%TO.P,C38,2*%
%TO.N,GND2*%
%TA.AperFunction,SMDPad,CuDef*%
G36*
G01*
X280875000Y-70512500D02*
X279925000Y-70512500D01*
G75*
G02*
X279675000Y-70262500I0J250000D01*
G01*
X279675000Y-69587500D01*
G75*
G02*
X279925000Y-69337500I250000J0D01*
G01*
X280875000Y-69337500D01*
G75*
G02*
X281125000Y-69587500I0J-250000D01*
G01*
X281125000Y-70262500D01*
G75*
G02*
X280875000Y-70512500I-250000J0D01*
G01*
G37*
%TD.AperFunction*%
%TD*%
%TO.P,C39,2*%
%TO.N,GND2*%
%TA.AperFunction,SMDPad,CuDef*%
G36*
G01*
X242112500Y-55725000D02*
X242112500Y-56675000D01*
G75*
G02*
X241862500Y-56925000I-250000J0D01*
G01*
X241187500Y-56925000D01*
G75*
G02*
X240937500Y-56675000I0J250000D01*
G01*
X240937500Y-55725000D01*
G75*
G02*
X241187500Y-55475000I250000J0D01*
G01*
X241862500Y-55475000D01*
G75*
G02*
X242112500Y-55725000I0J-250000D01*
G01*
G37*
%TD.AperFunction*%
%TO.P,C39,1*%
%TO.N,VCC*%
%TA.AperFunction,SMDPad,CuDef*%
G36*
G01*
X244187500Y-55725000D02*
X244187500Y-56675000D01*
G75*
G02*
X243937500Y-56925000I-250000J0D01*
G01*
X243262500Y-56925000D01*
G75*
G02*
X243012500Y-56675000I0J250000D01*
G01*
X243012500Y-55725000D01*
G75*
G02*
X243262500Y-55475000I250000J0D01*
G01*
X243937500Y-55475000D01*
G75*
G02*
X244187500Y-55725000I0J-250000D01*
G01*
G37*
%TD.AperFunction*%
%TD*%
%TO.P,C40,2*%
%TO.N,GND2*%
%TA.AperFunction,SMDPad,CuDef*%
G36*
G01*
X281287500Y-32275000D02*
X281287500Y-31325000D01*
G75*
G02*
X281537500Y-31075000I250000J0D01*
G01*
X282212500Y-31075000D01*
G75*
G02*
X282462500Y-31325000I0J-250000D01*
G01*
X282462500Y-32275000D01*
G75*
G02*
X282212500Y-32525000I-250000J0D01*
G01*
X281537500Y-32525000D01*
G75*
G02*
X281287500Y-32275000I0J250000D01*
G01*
G37*
%TD.AperFunction*%
%TO.P,C40,1*%
%TO.N,VCC*%
%TA.AperFunction,SMDPad,CuDef*%
G36*
G01*
X279212500Y-32275000D02*
X279212500Y-31325000D01*
G75*
G02*
X279462500Y-31075000I250000J0D01*
G01*
X280137500Y-31075000D01*
G75*
G02*
X280387500Y-31325000I0J-250000D01*
G01*
X280387500Y-32275000D01*
G75*
G02*
X280137500Y-32525000I-250000J0D01*
G01*
X279462500Y-32525000D01*
G75*
G02*
X279212500Y-32275000I0J250000D01*
G01*
G37*
%TD.AperFunction*%
%TD*%
%TO.P,C41,1*%
%TO.N,VCC*%
%TA.AperFunction,SMDPad,CuDef*%
G36*
G01*
X290587500Y-73925000D02*
X290587500Y-74875000D01*
G75*
G02*
X290337500Y-75125000I-250000J0D01*
G01*
X289662500Y-75125000D01*
G75*
G02*
X289412500Y-74875000I0J250000D01*
G01*
X289412500Y-73925000D01*
G75*
G02*
X289662500Y-73675000I250000J0D01*
G01*
X290337500Y-73675000D01*
G75*
G02*
X290587500Y-73925000I0J-250000D01*
G01*
G37*
%TD.AperFunction*%
%TO.P,C41,2*%
%TO.N,GND2*%
%TA.AperFunction,SMDPad,CuDef*%
G36*
G01*
X288512500Y-73925000D02*
X288512500Y-74875000D01*
G75*
G02*
X288262500Y-75125000I-250000J0D01*
G01*
X287587500Y-75125000D01*
G75*
G02*
X287337500Y-74875000I0J250000D01*
G01*
X287337500Y-73925000D01*
G75*
G02*
X287587500Y-73675000I250000J0D01*
G01*
X288262500Y-73675000D01*
G75*
G02*
X288512500Y-73925000I0J-250000D01*
G01*
G37*
%TD.AperFunction*%
%TD*%
%TO.P,C42,1*%
%TO.N,VCC*%
%TA.AperFunction,SMDPad,CuDef*%
G36*
G01*
X347787500Y-57525000D02*
X347787500Y-58475000D01*
G75*
G02*
X347537500Y-58725000I-250000J0D01*
G01*
X346862500Y-58725000D01*
G75*
G02*
X346612500Y-58475000I0J250000D01*
G01*
X346612500Y-57525000D01*
G75*
G02*
X346862500Y-57275000I250000J0D01*
G01*
X347537500Y-57275000D01*
G75*
G02*
X347787500Y-57525000I0J-250000D01*
G01*
G37*
%TD.AperFunction*%
%TO.P,C42,2*%
%TO.N,GND2*%
%TA.AperFunction,SMDPad,CuDef*%
G36*
G01*
X345712500Y-57525000D02*
X345712500Y-58475000D01*
G75*
G02*
X345462500Y-58725000I-250000J0D01*
G01*
X344787500Y-58725000D01*
G75*
G02*
X344537500Y-58475000I0J250000D01*
G01*
X344537500Y-57525000D01*
G75*
G02*
X344787500Y-57275000I250000J0D01*
G01*
X345462500Y-57275000D01*
G75*
G02*
X345712500Y-57525000I0J-250000D01*
G01*
G37*
%TD.AperFunction*%
%TD*%
%TO.P,C43,2*%
%TO.N,GND2*%
%TA.AperFunction,SMDPad,CuDef*%
G36*
G01*
X253887500Y-80250000D02*
X254837500Y-80250000D01*
G75*
G02*
X255087500Y-80500000I0J-250000D01*
G01*
X255087500Y-81175000D01*
G75*
G02*
X254837500Y-81425000I-250000J0D01*
G01*
X253887500Y-81425000D01*
G75*
G02*
X253637500Y-81175000I0J250000D01*
G01*
X253637500Y-80500000D01*
G75*
G02*
X253887500Y-80250000I250000J0D01*
G01*
G37*
%TD.AperFunction*%
%TO.P,C43,1*%
%TO.N,VCC*%
%TA.AperFunction,SMDPad,CuDef*%
G36*
G01*
X253887500Y-78175000D02*
X254837500Y-78175000D01*
G75*
G02*
X255087500Y-78425000I0J-250000D01*
G01*
X255087500Y-79100000D01*
G75*
G02*
X254837500Y-79350000I-250000J0D01*
G01*
X253887500Y-79350000D01*
G75*
G02*
X253637500Y-79100000I0J250000D01*
G01*
X253637500Y-78425000D01*
G75*
G02*
X253887500Y-78175000I250000J0D01*
G01*
G37*
%TD.AperFunction*%
%TD*%
%TO.P,C44,2*%
%TO.N,GND2*%
%TA.AperFunction,SMDPad,CuDef*%
G36*
G01*
X207377841Y-113542317D02*
X208226544Y-113115464D01*
G75*
G02*
X208562217Y-113226477I112330J-223343D01*
G01*
X208865508Y-113829502D01*
G75*
G02*
X208754495Y-114165175I-223343J-112330D01*
G01*
X207905792Y-114592028D01*
G75*
G02*
X207570119Y-114481015I-112330J223343D01*
G01*
X207266828Y-113877990D01*
G75*
G02*
X207377841Y-113542317I223343J112330D01*
G01*
G37*
%TD.AperFunction*%
%TO.P,C44,1*%
%TO.N,VCC*%
%TA.AperFunction,SMDPad,CuDef*%
G36*
G01*
X206445505Y-111688571D02*
X207294208Y-111261718D01*
G75*
G02*
X207629881Y-111372731I112330J-223343D01*
G01*
X207933172Y-111975756D01*
G75*
G02*
X207822159Y-112311429I-223343J-112330D01*
G01*
X206973456Y-112738282D01*
G75*
G02*
X206637783Y-112627269I-112330J223343D01*
G01*
X206334492Y-112024244D01*
G75*
G02*
X206445505Y-111688571I223343J112330D01*
G01*
G37*
%TD.AperFunction*%
%TD*%
%TO.P,C45,1*%
%TO.N,VCC*%
%TA.AperFunction,SMDPad,CuDef*%
G36*
G01*
X300987500Y-53325000D02*
X300987500Y-54275000D01*
G75*
G02*
X300737500Y-54525000I-250000J0D01*
G01*
X300062500Y-54525000D01*
G75*
G02*
X299812500Y-54275000I0J250000D01*
G01*
X299812500Y-53325000D01*
G75*
G02*
X300062500Y-53075000I250000J0D01*
G01*
X300737500Y-53075000D01*
G75*
G02*
X300987500Y-53325000I0J-250000D01*
G01*
G37*
%TD.AperFunction*%
%TO.P,C45,2*%
%TO.N,GND2*%
%TA.AperFunction,SMDPad,CuDef*%
G36*
G01*
X298912500Y-53325000D02*
X298912500Y-54275000D01*
G75*
G02*
X298662500Y-54525000I-250000J0D01*
G01*
X297987500Y-54525000D01*
G75*
G02*
X297737500Y-54275000I0J250000D01*
G01*
X297737500Y-53325000D01*
G75*
G02*
X297987500Y-53075000I250000J0D01*
G01*
X298662500Y-53075000D01*
G75*
G02*
X298912500Y-53325000I0J-250000D01*
G01*
G37*
%TD.AperFunction*%
%TD*%
%TO.P,C46,1*%
%TO.N,VCC*%
%TA.AperFunction,SMDPad,CuDef*%
G36*
G01*
X216987500Y-85525000D02*
X216987500Y-86475000D01*
G75*
G02*
X216737500Y-86725000I-250000J0D01*
G01*
X216062500Y-86725000D01*
G75*
G02*
X215812500Y-86475000I0J250000D01*
G01*
X215812500Y-85525000D01*
G75*
G02*
X216062500Y-85275000I250000J0D01*
G01*
X216737500Y-85275000D01*
G75*
G02*
X216987500Y-85525000I0J-250000D01*
G01*
G37*
%TD.AperFunction*%
%TO.P,C46,2*%
%TO.N,GND2*%
%TA.AperFunction,SMDPad,CuDef*%
G36*
G01*
X214912500Y-85525000D02*
X214912500Y-86475000D01*
G75*
G02*
X214662500Y-86725000I-250000J0D01*
G01*
X213987500Y-86725000D01*
G75*
G02*
X213737500Y-86475000I0J250000D01*
G01*
X213737500Y-85525000D01*
G75*
G02*
X213987500Y-85275000I250000J0D01*
G01*
X214662500Y-85275000D01*
G75*
G02*
X214912500Y-85525000I0J-250000D01*
G01*
G37*
%TD.AperFunction*%
%TD*%
%TO.P,C47,2*%
%TO.N,GND2*%
%TA.AperFunction,SMDPad,CuDef*%
G36*
G01*
X337512500Y-71325000D02*
X337512500Y-72275000D01*
G75*
G02*
X337262500Y-72525000I-250000J0D01*
G01*
X336587500Y-72525000D01*
G75*
G02*
X336337500Y-72275000I0J250000D01*
G01*
X336337500Y-71325000D01*
G75*
G02*
X336587500Y-71075000I250000J0D01*
G01*
X337262500Y-71075000D01*
G75*
G02*
X337512500Y-71325000I0J-250000D01*
G01*
G37*
%TD.AperFunction*%
%TO.P,C47,1*%
%TO.N,VCC*%
%TA.AperFunction,SMDPad,CuDef*%
G36*
G01*
X339587500Y-71325000D02*
X339587500Y-72275000D01*
G75*
G02*
X339337500Y-72525000I-250000J0D01*
G01*
X338662500Y-72525000D01*
G75*
G02*
X338412500Y-72275000I0J250000D01*
G01*
X338412500Y-71325000D01*
G75*
G02*
X338662500Y-71075000I250000J0D01*
G01*
X339337500Y-71075000D01*
G75*
G02*
X339587500Y-71325000I0J-250000D01*
G01*
G37*
%TD.AperFunction*%
%TD*%
%TO.P,C48,2*%
%TO.N,GND2*%
%TA.AperFunction,SMDPad,CuDef*%
G36*
G01*
X269712500Y-38525000D02*
X269712500Y-39475000D01*
G75*
G02*
X269462500Y-39725000I-250000J0D01*
G01*
X268787500Y-39725000D01*
G75*
G02*
X268537500Y-39475000I0J250000D01*
G01*
X268537500Y-38525000D01*
G75*
G02*
X268787500Y-38275000I250000J0D01*
G01*
X269462500Y-38275000D01*
G75*
G02*
X269712500Y-38525000I0J-250000D01*
G01*
G37*
%TD.AperFunction*%
%TO.P,C48,1*%
%TO.N,VCC*%
%TA.AperFunction,SMDPad,CuDef*%
G36*
G01*
X271787500Y-38525000D02*
X271787500Y-39475000D01*
G75*
G02*
X271537500Y-39725000I-250000J0D01*
G01*
X270862500Y-39725000D01*
G75*
G02*
X270612500Y-39475000I0J250000D01*
G01*
X270612500Y-38525000D01*
G75*
G02*
X270862500Y-38275000I250000J0D01*
G01*
X271537500Y-38275000D01*
G75*
G02*
X271787500Y-38525000I0J-250000D01*
G01*
G37*
%TD.AperFunction*%
%TD*%
%TO.P,C49,1*%
%TO.N,VCC*%
%TA.AperFunction,SMDPad,CuDef*%
G36*
G01*
X318925000Y-66412500D02*
X319875000Y-66412500D01*
G75*
G02*
X320125000Y-66662500I0J-250000D01*
G01*
X320125000Y-67337500D01*
G75*
G02*
X319875000Y-67587500I-250000J0D01*
G01*
X318925000Y-67587500D01*
G75*
G02*
X318675000Y-67337500I0J250000D01*
G01*
X318675000Y-66662500D01*
G75*
G02*
X318925000Y-66412500I250000J0D01*
G01*
G37*
%TD.AperFunction*%
%TO.P,C49,2*%
%TO.N,GND2*%
%TA.AperFunction,SMDPad,CuDef*%
G36*
G01*
X318925000Y-68487500D02*
X319875000Y-68487500D01*
G75*
G02*
X320125000Y-68737500I0J-250000D01*
G01*
X320125000Y-69412500D01*
G75*
G02*
X319875000Y-69662500I-250000J0D01*
G01*
X318925000Y-69662500D01*
G75*
G02*
X318675000Y-69412500I0J250000D01*
G01*
X318675000Y-68737500D01*
G75*
G02*
X318925000Y-68487500I250000J0D01*
G01*
G37*
%TD.AperFunction*%
%TD*%
%TO.P,C50,1*%
%TO.N,VCC*%
%TA.AperFunction,SMDPad,CuDef*%
G36*
G01*
X325925000Y-30212500D02*
X326875000Y-30212500D01*
G75*
G02*
X327125000Y-30462500I0J-250000D01*
G01*
X327125000Y-31137500D01*
G75*
G02*
X326875000Y-31387500I-250000J0D01*
G01*
X325925000Y-31387500D01*
G75*
G02*
X325675000Y-31137500I0J250000D01*
G01*
X325675000Y-30462500D01*
G75*
G02*
X325925000Y-30212500I250000J0D01*
G01*
G37*
%TD.AperFunction*%
%TO.P,C50,2*%
%TO.N,GND2*%
%TA.AperFunction,SMDPad,CuDef*%
G36*
G01*
X325925000Y-32287500D02*
X326875000Y-32287500D01*
G75*
G02*
X327125000Y-32537500I0J-250000D01*
G01*
X327125000Y-33212500D01*
G75*
G02*
X326875000Y-33462500I-250000J0D01*
G01*
X325925000Y-33462500D01*
G75*
G02*
X325675000Y-33212500I0J250000D01*
G01*
X325675000Y-32537500D01*
G75*
G02*
X325925000Y-32287500I250000J0D01*
G01*
G37*
%TD.AperFunction*%
%TD*%
%TO.P,C51,2*%
%TO.N,GND2*%
%TA.AperFunction,SMDPad,CuDef*%
G36*
G01*
X222750000Y-104925000D02*
X222750000Y-105875000D01*
G75*
G02*
X222500000Y-106125000I-250000J0D01*
G01*
X221825000Y-106125000D01*
G75*
G02*
X221575000Y-105875000I0J250000D01*
G01*
X221575000Y-104925000D01*
G75*
G02*
X221825000Y-104675000I250000J0D01*
G01*
X222500000Y-104675000D01*
G75*
G02*
X222750000Y-104925000I0J-250000D01*
G01*
G37*
%TD.AperFunction*%
%TO.P,C51,1*%
%TO.N,VCC*%
%TA.AperFunction,SMDPad,CuDef*%
G36*
G01*
X224825000Y-104925000D02*
X224825000Y-105875000D01*
G75*
G02*
X224575000Y-106125000I-250000J0D01*
G01*
X223900000Y-106125000D01*
G75*
G02*
X223650000Y-105875000I0J250000D01*
G01*
X223650000Y-104925000D01*
G75*
G02*
X223900000Y-104675000I250000J0D01*
G01*
X224575000Y-104675000D01*
G75*
G02*
X224825000Y-104925000I0J-250000D01*
G01*
G37*
%TD.AperFunction*%
%TD*%
%TO.P,C52,2*%
%TO.N,GND2*%
%TA.AperFunction,SMDPad,CuDef*%
G36*
G01*
X260112500Y-94025000D02*
X260112500Y-94975000D01*
G75*
G02*
X259862500Y-95225000I-250000J0D01*
G01*
X259187500Y-95225000D01*
G75*
G02*
X258937500Y-94975000I0J250000D01*
G01*
X258937500Y-94025000D01*
G75*
G02*
X259187500Y-93775000I250000J0D01*
G01*
X259862500Y-93775000D01*
G75*
G02*
X260112500Y-94025000I0J-250000D01*
G01*
G37*
%TD.AperFunction*%
%TO.P,C52,1*%
%TO.N,VCC*%
%TA.AperFunction,SMDPad,CuDef*%
G36*
G01*
X262187500Y-94025000D02*
X262187500Y-94975000D01*
G75*
G02*
X261937500Y-95225000I-250000J0D01*
G01*
X261262500Y-95225000D01*
G75*
G02*
X261012500Y-94975000I0J250000D01*
G01*
X261012500Y-94025000D01*
G75*
G02*
X261262500Y-93775000I250000J0D01*
G01*
X261937500Y-93775000D01*
G75*
G02*
X262187500Y-94025000I0J-250000D01*
G01*
G37*
%TD.AperFunction*%
%TD*%
%TO.P,C53,1*%
%TO.N,VCC*%
%TA.AperFunction,SMDPad,CuDef*%
G36*
G01*
X282187500Y-50725000D02*
X282187500Y-51675000D01*
G75*
G02*
X281937500Y-51925000I-250000J0D01*
G01*
X281262500Y-51925000D01*
G75*
G02*
X281012500Y-51675000I0J250000D01*
G01*
X281012500Y-50725000D01*
G75*
G02*
X281262500Y-50475000I250000J0D01*
G01*
X281937500Y-50475000D01*
G75*
G02*
X282187500Y-50725000I0J-250000D01*
G01*
G37*
%TD.AperFunction*%
%TO.P,C53,2*%
%TO.N,GND2*%
%TA.AperFunction,SMDPad,CuDef*%
G36*
G01*
X280112500Y-50725000D02*
X280112500Y-51675000D01*
G75*
G02*
X279862500Y-51925000I-250000J0D01*
G01*
X279187500Y-51925000D01*
G75*
G02*
X278937500Y-51675000I0J250000D01*
G01*
X278937500Y-50725000D01*
G75*
G02*
X279187500Y-50475000I250000J0D01*
G01*
X279862500Y-50475000D01*
G75*
G02*
X280112500Y-50725000I0J-250000D01*
G01*
G37*
%TD.AperFunction*%
%TD*%
%TO.P,C54,1*%
%TO.N,VCC*%
%TA.AperFunction,SMDPad,CuDef*%
G36*
G01*
X281387500Y-92525000D02*
X281387500Y-93475000D01*
G75*
G02*
X281137500Y-93725000I-250000J0D01*
G01*
X280462500Y-93725000D01*
G75*
G02*
X280212500Y-93475000I0J250000D01*
G01*
X280212500Y-92525000D01*
G75*
G02*
X280462500Y-92275000I250000J0D01*
G01*
X281137500Y-92275000D01*
G75*
G02*
X281387500Y-92525000I0J-250000D01*
G01*
G37*
%TD.AperFunction*%
%TO.P,C54,2*%
%TO.N,GND2*%
%TA.AperFunction,SMDPad,CuDef*%
G36*
G01*
X279312500Y-92525000D02*
X279312500Y-93475000D01*
G75*
G02*
X279062500Y-93725000I-250000J0D01*
G01*
X278387500Y-93725000D01*
G75*
G02*
X278137500Y-93475000I0J250000D01*
G01*
X278137500Y-92525000D01*
G75*
G02*
X278387500Y-92275000I250000J0D01*
G01*
X279062500Y-92275000D01*
G75*
G02*
X279312500Y-92525000I0J-250000D01*
G01*
G37*
%TD.AperFunction*%
%TD*%
%TO.P,C55,2*%
%TO.N,GND2*%
%TA.AperFunction,SMDPad,CuDef*%
G36*
G01*
X241412500Y-98525000D02*
X241412500Y-99475000D01*
G75*
G02*
X241162500Y-99725000I-250000J0D01*
G01*
X240487500Y-99725000D01*
G75*
G02*
X240237500Y-99475000I0J250000D01*
G01*
X240237500Y-98525000D01*
G75*
G02*
X240487500Y-98275000I250000J0D01*
G01*
X241162500Y-98275000D01*
G75*
G02*
X241412500Y-98525000I0J-250000D01*
G01*
G37*
%TD.AperFunction*%
%TO.P,C55,1*%
%TO.N,VCC*%
%TA.AperFunction,SMDPad,CuDef*%
G36*
G01*
X243487500Y-98525000D02*
X243487500Y-99475000D01*
G75*
G02*
X243237500Y-99725000I-250000J0D01*
G01*
X242562500Y-99725000D01*
G75*
G02*
X242312500Y-99475000I0J250000D01*
G01*
X242312500Y-98525000D01*
G75*
G02*
X242562500Y-98275000I250000J0D01*
G01*
X243237500Y-98275000D01*
G75*
G02*
X243487500Y-98525000I0J-250000D01*
G01*
G37*
%TD.AperFunction*%
%TD*%
%TO.P,C56,2*%
%TO.N,GND2*%
%TA.AperFunction,SMDPad,CuDef*%
G36*
G01*
X257287500Y-39275000D02*
X257287500Y-38325000D01*
G75*
G02*
X257537500Y-38075000I250000J0D01*
G01*
X258212500Y-38075000D01*
G75*
G02*
X258462500Y-38325000I0J-250000D01*
G01*
X258462500Y-39275000D01*
G75*
G02*
X258212500Y-39525000I-250000J0D01*
G01*
X257537500Y-39525000D01*
G75*
G02*
X257287500Y-39275000I0J250000D01*
G01*
G37*
%TD.AperFunction*%
%TO.P,C56,1*%
%TO.N,VCC*%
%TA.AperFunction,SMDPad,CuDef*%
G36*
G01*
X255212500Y-39275000D02*
X255212500Y-38325000D01*
G75*
G02*
X255462500Y-38075000I250000J0D01*
G01*
X256137500Y-38075000D01*
G75*
G02*
X256387500Y-38325000I0J-250000D01*
G01*
X256387500Y-39275000D01*
G75*
G02*
X256137500Y-39525000I-250000J0D01*
G01*
X255462500Y-39525000D01*
G75*
G02*
X255212500Y-39275000I0J250000D01*
G01*
G37*
%TD.AperFunction*%
%TD*%
%TO.P,C57,1*%
%TO.N,VCC*%
%TA.AperFunction,SMDPad,CuDef*%
G36*
G01*
X311212500Y-36875000D02*
X311212500Y-35925000D01*
G75*
G02*
X311462500Y-35675000I250000J0D01*
G01*
X312137500Y-35675000D01*
G75*
G02*
X312387500Y-35925000I0J-250000D01*
G01*
X312387500Y-36875000D01*
G75*
G02*
X312137500Y-37125000I-250000J0D01*
G01*
X311462500Y-37125000D01*
G75*
G02*
X311212500Y-36875000I0J250000D01*
G01*
G37*
%TD.AperFunction*%
%TO.P,C57,2*%
%TO.N,GND2*%
%TA.AperFunction,SMDPad,CuDef*%
G36*
G01*
X313287500Y-36875000D02*
X313287500Y-35925000D01*
G75*
G02*
X313537500Y-35675000I250000J0D01*
G01*
X314212500Y-35675000D01*
G75*
G02*
X314462500Y-35925000I0J-250000D01*
G01*
X314462500Y-36875000D01*
G75*
G02*
X314212500Y-37125000I-250000J0D01*
G01*
X313537500Y-37125000D01*
G75*
G02*
X313287500Y-36875000I0J250000D01*
G01*
G37*
%TD.AperFunction*%
%TD*%
%TO.P,C58,1*%
%TO.N,VCC*%
%TA.AperFunction,SMDPad,CuDef*%
G36*
G01*
X330325000Y-87037500D02*
X331275000Y-87037500D01*
G75*
G02*
X331525000Y-87287500I0J-250000D01*
G01*
X331525000Y-87962500D01*
G75*
G02*
X331275000Y-88212500I-250000J0D01*
G01*
X330325000Y-88212500D01*
G75*
G02*
X330075000Y-87962500I0J250000D01*
G01*
X330075000Y-87287500D01*
G75*
G02*
X330325000Y-87037500I250000J0D01*
G01*
G37*
%TD.AperFunction*%
%TO.P,C58,2*%
%TO.N,GND2*%
%TA.AperFunction,SMDPad,CuDef*%
G36*
G01*
X330325000Y-89112500D02*
X331275000Y-89112500D01*
G75*
G02*
X331525000Y-89362500I0J-250000D01*
G01*
X331525000Y-90037500D01*
G75*
G02*
X331275000Y-90287500I-250000J0D01*
G01*
X330325000Y-90287500D01*
G75*
G02*
X330075000Y-90037500I0J250000D01*
G01*
X330075000Y-89362500D01*
G75*
G02*
X330325000Y-89112500I250000J0D01*
G01*
G37*
%TD.AperFunction*%
%TD*%
%TO.P,C59,2*%
%TO.N,GND2*%
%TA.AperFunction,SMDPad,CuDef*%
G36*
G01*
X315475000Y-83212500D02*
X314525000Y-83212500D01*
G75*
G02*
X314275000Y-82962500I0J250000D01*
G01*
X314275000Y-82287500D01*
G75*
G02*
X314525000Y-82037500I250000J0D01*
G01*
X315475000Y-82037500D01*
G75*
G02*
X315725000Y-82287500I0J-250000D01*
G01*
X315725000Y-82962500D01*
G75*
G02*
X315475000Y-83212500I-250000J0D01*
G01*
G37*
%TD.AperFunction*%
%TO.P,C59,1*%
%TO.N,VCC*%
%TA.AperFunction,SMDPad,CuDef*%
G36*
G01*
X315475000Y-85287500D02*
X314525000Y-85287500D01*
G75*
G02*
X314275000Y-85037500I0J250000D01*
G01*
X314275000Y-84362500D01*
G75*
G02*
X314525000Y-84112500I250000J0D01*
G01*
X315475000Y-84112500D01*
G75*
G02*
X315725000Y-84362500I0J-250000D01*
G01*
X315725000Y-85037500D01*
G75*
G02*
X315475000Y-85287500I-250000J0D01*
G01*
G37*
%TD.AperFunction*%
%TD*%
%TO.P,C60,2*%
%TO.N,GND2*%
%TA.AperFunction,SMDPad,CuDef*%
G36*
G01*
X260912500Y-53525000D02*
X260912500Y-54475000D01*
G75*
G02*
X260662500Y-54725000I-250000J0D01*
G01*
X259987500Y-54725000D01*
G75*
G02*
X259737500Y-54475000I0J250000D01*
G01*
X259737500Y-53525000D01*
G75*
G02*
X259987500Y-53275000I250000J0D01*
G01*
X260662500Y-53275000D01*
G75*
G02*
X260912500Y-53525000I0J-250000D01*
G01*
G37*
%TD.AperFunction*%
%TO.P,C60,1*%
%TO.N,VCC*%
%TA.AperFunction,SMDPad,CuDef*%
G36*
G01*
X262987500Y-53525000D02*
X262987500Y-54475000D01*
G75*
G02*
X262737500Y-54725000I-250000J0D01*
G01*
X262062500Y-54725000D01*
G75*
G02*
X261812500Y-54475000I0J250000D01*
G01*
X261812500Y-53525000D01*
G75*
G02*
X262062500Y-53275000I250000J0D01*
G01*
X262737500Y-53275000D01*
G75*
G02*
X262987500Y-53525000I0J-250000D01*
G01*
G37*
%TD.AperFunction*%
%TD*%
%TO.P,C61,1*%
%TO.N,VCC*%
%TA.AperFunction,SMDPad,CuDef*%
G36*
G01*
X224887500Y-40225000D02*
X224887500Y-41175000D01*
G75*
G02*
X224637500Y-41425000I-250000J0D01*
G01*
X223962500Y-41425000D01*
G75*
G02*
X223712500Y-41175000I0J250000D01*
G01*
X223712500Y-40225000D01*
G75*
G02*
X223962500Y-39975000I250000J0D01*
G01*
X224637500Y-39975000D01*
G75*
G02*
X224887500Y-40225000I0J-250000D01*
G01*
G37*
%TD.AperFunction*%
%TO.P,C61,2*%
%TO.N,GND2*%
%TA.AperFunction,SMDPad,CuDef*%
G36*
G01*
X222812500Y-40225000D02*
X222812500Y-41175000D01*
G75*
G02*
X222562500Y-41425000I-250000J0D01*
G01*
X221887500Y-41425000D01*
G75*
G02*
X221637500Y-41175000I0J250000D01*
G01*
X221637500Y-40225000D01*
G75*
G02*
X221887500Y-39975000I250000J0D01*
G01*
X222562500Y-39975000D01*
G75*
G02*
X222812500Y-40225000I0J-250000D01*
G01*
G37*
%TD.AperFunction*%
%TD*%
%TO.P,C62,2*%
%TO.N,GND2*%
%TA.AperFunction,SMDPad,CuDef*%
G36*
G01*
X237687500Y-41075000D02*
X237687500Y-40125000D01*
G75*
G02*
X237937500Y-39875000I250000J0D01*
G01*
X238612500Y-39875000D01*
G75*
G02*
X238862500Y-40125000I0J-250000D01*
G01*
X238862500Y-41075000D01*
G75*
G02*
X238612500Y-41325000I-250000J0D01*
G01*
X237937500Y-41325000D01*
G75*
G02*
X237687500Y-41075000I0J250000D01*
G01*
G37*
%TD.AperFunction*%
%TO.P,C62,1*%
%TO.N,VCC*%
%TA.AperFunction,SMDPad,CuDef*%
G36*
G01*
X235612500Y-41075000D02*
X235612500Y-40125000D01*
G75*
G02*
X235862500Y-39875000I250000J0D01*
G01*
X236537500Y-39875000D01*
G75*
G02*
X236787500Y-40125000I0J-250000D01*
G01*
X236787500Y-41075000D01*
G75*
G02*
X236537500Y-41325000I-250000J0D01*
G01*
X235862500Y-41325000D01*
G75*
G02*
X235612500Y-41075000I0J250000D01*
G01*
G37*
%TD.AperFunction*%
%TD*%
D21*
%TO.N,VDD*%
X60500000Y-34500000D03*
X23000000Y-54000000D03*
X42500000Y-48000000D03*
X45000000Y-34500000D03*
X80000000Y-31500000D03*
X99000000Y-35500000D03*
X118000000Y-37000000D03*
X137000000Y-38500000D03*
X145000000Y-46000000D03*
X145500000Y-59500000D03*
X126500000Y-57500000D03*
X107500000Y-55000000D03*
X88500000Y-52500000D03*
X69500000Y-55000000D03*
X51000000Y-68500000D03*
X31818820Y-74181180D03*
X52803780Y-90803780D03*
X61204980Y-72704980D03*
X80500000Y-69500000D03*
X88881620Y-93118380D03*
X99500000Y-72500000D03*
X107750000Y-94658219D03*
X118000000Y-75000000D03*
X126500000Y-98500000D03*
X145500000Y-105000000D03*
X163000000Y-112500000D03*
X153500000Y-92000000D03*
X87750000Y-77500000D03*
X23000000Y-91750000D03*
X42250000Y-86250000D03*
X85250000Y-37500000D03*
%TO.N,Net-(D1-Pad4)*%
X54230000Y-36400000D03*
X54220000Y-48040000D03*
%TO.N,Net-(D1-Pad2)*%
X57320000Y-39810000D03*
X53710000Y-34310000D03*
%TO.N,GND1*%
X32000000Y-55000000D03*
X51000000Y-49500000D03*
X53000000Y-31000000D03*
X70000000Y-36000000D03*
X89000000Y-33500000D03*
X106500000Y-37500000D03*
X126500000Y-39500000D03*
X136500000Y-40500000D03*
X137000000Y-58000000D03*
X118000000Y-56000000D03*
X99000000Y-53500000D03*
X80000000Y-51000000D03*
X61000000Y-54000000D03*
X42000000Y-67500000D03*
X23000000Y-72500000D03*
X32000000Y-93000000D03*
X51000000Y-87500000D03*
X61000000Y-87500000D03*
X70000000Y-74000000D03*
X89000000Y-71500000D03*
X80000000Y-91500000D03*
X106500000Y-75500000D03*
X100500000Y-91000000D03*
X126500000Y-76500000D03*
X118500000Y-95000000D03*
X137000000Y-100000000D03*
X155500000Y-107500000D03*
X151500000Y-44000000D03*
X161364220Y-89635780D03*
X132000000Y-38500000D03*
X113000000Y-37000000D03*
X94450000Y-35950000D03*
X80000000Y-33500000D03*
X60500000Y-36500000D03*
X45000000Y-32500000D03*
X23000000Y-56000000D03*
X42000000Y-50000000D03*
X34500000Y-77000000D03*
X51000000Y-71000000D03*
X69575000Y-57575000D03*
X88575000Y-55075000D03*
X107575000Y-57575000D03*
X126575000Y-60075000D03*
X142250000Y-61750000D03*
X113250000Y-75000000D03*
X95147490Y-73147490D03*
X86500000Y-73750000D03*
X79250000Y-72750000D03*
X60000000Y-75750000D03*
X22500000Y-94500000D03*
X48000000Y-91000000D03*
X93250000Y-93250000D03*
X112000000Y-95500000D03*
X129250000Y-101250000D03*
X148000000Y-108500000D03*
X165175000Y-115575000D03*
X150000000Y-89250000D03*
X39250000Y-88500000D03*
%TO.N,LRow1*%
X152720000Y-31210000D03*
X152720000Y-55140000D03*
%TO.N,LRow2*%
X160110000Y-79310000D03*
X152770000Y-79660000D03*
X149000000Y-80500000D03*
X131000000Y-74000000D03*
X75374830Y-68625170D03*
X61000000Y-80500000D03*
%TO.N,LRow3*%
X94719780Y-88819780D03*
X165860000Y-113380000D03*
X149360000Y-103670000D03*
X130820000Y-97020000D03*
X113720000Y-91770000D03*
X161280000Y-80300000D03*
X153480000Y-85050000D03*
%TO.N,RRow2*%
X220500000Y-65000000D03*
%TO.N,VCC*%
X234600000Y-40600000D03*
X254000000Y-38800000D03*
X271200000Y-37400000D03*
X278600000Y-32600000D03*
X291854400Y-33345600D03*
X310600000Y-36400000D03*
X347030220Y-56569780D03*
X325000000Y-30800000D03*
X329800000Y-49800000D03*
X301800000Y-53800000D03*
X282966960Y-50833040D03*
X263835800Y-53764200D03*
X245000000Y-56200000D03*
X225800000Y-58000000D03*
X339927840Y-72727840D03*
X320800000Y-67000000D03*
X309400000Y-75400000D03*
X290000000Y-72800000D03*
X271800000Y-75200000D03*
X253600000Y-78000000D03*
X216514580Y-87685420D03*
X208855526Y-111855526D03*
X225979601Y-104379601D03*
X244250000Y-97650000D03*
X263000000Y-93300000D03*
X281971360Y-91828640D03*
X316250000Y-85950000D03*
X329426440Y-87573560D03*
X225250000Y-41650000D03*
X280479400Y-73020600D03*
X348250000Y-93250000D03*
%TO.N,GND2*%
X225632200Y-39032200D03*
X239800000Y-40200000D03*
X244869600Y-37330400D03*
X259600000Y-38800000D03*
X263846200Y-34753800D03*
X267200000Y-39000000D03*
X283000000Y-31800000D03*
X297000000Y-33600000D03*
X315600000Y-36400000D03*
X316800000Y-33200000D03*
X328325000Y-32875000D03*
X343600000Y-58000000D03*
X341000000Y-52200000D03*
X329675000Y-51875000D03*
X320869140Y-48269140D03*
X297400000Y-52400000D03*
X278200000Y-52200000D03*
X258800000Y-54800000D03*
X272564200Y-55164200D03*
X290022460Y-53577540D03*
X308876880Y-56523120D03*
X240100000Y-56500000D03*
X253687800Y-57512200D03*
X225800000Y-61000000D03*
X234600000Y-59400000D03*
X348600000Y-74400000D03*
X336200000Y-70200000D03*
X319400000Y-70600000D03*
X329600000Y-69400000D03*
X305400000Y-76800000D03*
X302000000Y-72400000D03*
X286000000Y-74400000D03*
X282271240Y-69928760D03*
X274000000Y-77400000D03*
X263636400Y-72636400D03*
X252437500Y-80837500D03*
X244800000Y-74600000D03*
X212800000Y-86000000D03*
X210200000Y-93800000D03*
X209746254Y-113853746D03*
X217360707Y-109439293D03*
X220600000Y-105400000D03*
X240825000Y-97525000D03*
X233800000Y-103500000D03*
X252700000Y-98500000D03*
X257700000Y-94500000D03*
X270791509Y-95191509D03*
X277400000Y-92400000D03*
X291771360Y-93228640D03*
X315000000Y-80700000D03*
X312208740Y-92291260D03*
X330800000Y-91600000D03*
X320826440Y-86173560D03*
X351325000Y-95275000D03*
X339722260Y-91677740D03*
X220300000Y-40700000D03*
X219500000Y-45100000D03*
X275411760Y-38888240D03*
X301900000Y-34400000D03*
%TO.N,RRow3*%
X219774999Y-85475001D03*
%TO.N,Net-(D51-Pad4)*%
X319000000Y-36250000D03*
X320250000Y-49750000D03*
%TO.N,LUSART_RX*%
X164260000Y-86670000D03*
%TO.N,Net-(LED1-Pad2)*%
X35380000Y-60640000D03*
X24720000Y-76130000D03*
%TO.N,Net-(LED26-Pad2)*%
X349152440Y-53652440D03*
X349500000Y-72750000D03*
%TO.N,Net-(LED46-Pad4)*%
X241500000Y-61500000D03*
X244500000Y-76500000D03*
%TO.N,LCol2*%
X39310000Y-44420000D03*
X39310000Y-57890000D03*
X39350760Y-63470760D03*
X39350760Y-76989240D03*
X40620000Y-53750000D03*
X135830000Y-41540000D03*
%TO.N,LCol3*%
X58349960Y-31000040D03*
X58349960Y-44180040D03*
X58349960Y-49939960D03*
X58349960Y-63429960D03*
X58349960Y-70610040D03*
X73090000Y-85530000D03*
X137000000Y-42500000D03*
%TO.N,LCol4*%
X76380000Y-28140000D03*
X76380000Y-41310000D03*
X76630000Y-47260000D03*
X76630000Y-60230000D03*
X76480000Y-66610000D03*
X96550000Y-79930000D03*
X136000000Y-43550000D03*
%TO.N,LCol5*%
X95710000Y-30710000D03*
X95710000Y-44040000D03*
X96350000Y-49820000D03*
X96350000Y-63470000D03*
X96330000Y-69740000D03*
X117540000Y-84810000D03*
X135880000Y-45000000D03*
%TO.N,LCol6*%
X115370000Y-33260000D03*
X115420000Y-46760000D03*
X115347560Y-52312440D03*
X115400000Y-65940000D03*
X115347560Y-71737560D03*
X137160000Y-88510000D03*
X135860000Y-46500000D03*
%TO.N,LCol7*%
X134346760Y-35023240D03*
X134346760Y-48506760D03*
X134346760Y-54173240D03*
X156250000Y-97630000D03*
X174400000Y-29900000D03*
X134400000Y-25400000D03*
X134900000Y-30600000D03*
%TO.N,LENCB*%
X150000000Y-69080000D03*
%TO.N,LENCA*%
X150000000Y-67900000D03*
%TO.N,RCol1*%
X337030120Y-49719880D03*
X335047000Y-66453000D03*
X335000000Y-84500000D03*
X226750000Y-48000000D03*
X228700000Y-42400000D03*
%TO.N,RCol2*%
X317500000Y-58250000D03*
X317500000Y-43750000D03*
X318081720Y-62918280D03*
X318081720Y-77331720D03*
X225500000Y-48750000D03*
X230500000Y-43000000D03*
%TO.N,RCol3*%
X299000000Y-30750000D03*
X299000000Y-45250000D03*
X298750000Y-49500000D03*
X298750000Y-64250000D03*
X298750000Y-68500000D03*
X280250000Y-83250000D03*
%TO.N,RCol4*%
X279750000Y-28000000D03*
X279750000Y-42500000D03*
X279750000Y-46750000D03*
X279750000Y-61500000D03*
X279750000Y-65500000D03*
X260048762Y-85048762D03*
%TO.N,RCol5*%
X260750000Y-31000000D03*
X260750000Y-44750000D03*
X260750000Y-49500000D03*
X260750000Y-64250000D03*
X260500000Y-68500000D03*
X240393763Y-89606237D03*
%TO.N,RCol6*%
X241750000Y-33000000D03*
X241750000Y-47750000D03*
X242250000Y-53000000D03*
X242250000Y-66500000D03*
%TO.N,RCol7*%
X223085720Y-34914280D03*
X223085720Y-49585720D03*
X223085720Y-53664280D03*
X202250000Y-104750000D03*
X218700000Y-53700000D03*
%TO.N,RENCA*%
X225750000Y-75750000D03*
%TO.N,Net-(D51-Pad2)*%
X314727380Y-34772620D03*
X316750000Y-31000000D03*
%TO.N,Net-(LED28-Pad2)*%
X346960820Y-90289180D03*
X292500000Y-91750000D03*
%TD*%
D22*
%TO.N,VDD*%
X23243420Y-53756580D02*
X23000000Y-54000000D01*
X24610360Y-53756580D02*
X23243420Y-53756580D01*
X42541580Y-48041580D02*
X42500000Y-48000000D01*
X43711160Y-48041580D02*
X42541580Y-48041580D01*
D23*
X45185820Y-34314180D02*
X45000000Y-34500000D01*
D22*
X46474960Y-34314180D02*
X45185820Y-34314180D01*
D23*
X62837360Y-34808180D02*
X62191820Y-34808180D01*
D22*
X80488780Y-31988780D02*
X80000000Y-31500000D01*
X81785760Y-31988780D02*
X80488780Y-31988780D01*
X99488620Y-35011380D02*
X99000000Y-35500000D01*
X100683360Y-35011380D02*
X99488620Y-35011380D01*
X119758760Y-37322780D02*
X118322780Y-37322780D01*
X118322780Y-37322780D02*
X118000000Y-37000000D01*
X118000000Y-37000000D02*
X118000000Y-37000000D01*
X138681760Y-38897580D02*
X137397580Y-38897580D01*
X137397580Y-38897580D02*
X137000000Y-38500000D01*
X137000000Y-38500000D02*
X137000000Y-38500000D01*
X146220760Y-45972780D02*
X145000000Y-46000000D01*
X145000000Y-46000000D02*
X145027220Y-45972780D01*
X144283360Y-59372980D02*
X145500000Y-59500000D01*
X145500000Y-59500000D02*
X145372980Y-59372980D01*
X125284160Y-57467980D02*
X126500000Y-57500000D01*
X126500000Y-57500000D02*
X126467980Y-57467980D01*
X106234160Y-55105780D02*
X107500000Y-55000000D01*
X107500000Y-55000000D02*
X107394220Y-55105780D01*
X87285760Y-52438780D02*
X88500000Y-52500000D01*
X88500000Y-52500000D02*
X88438780Y-52438780D01*
X68261160Y-55004180D02*
X69500000Y-55000000D01*
X69500000Y-55000000D02*
X69495820Y-55004180D01*
X49312760Y-68542380D02*
X51000000Y-68500000D01*
X51000000Y-68500000D02*
X50957620Y-68542380D01*
X30237360Y-74181180D02*
X31818820Y-74181180D01*
X31818820Y-74181180D02*
X31818820Y-74181180D01*
X54399760Y-90803780D02*
X52803780Y-90803780D01*
X52803780Y-90803780D02*
X52803780Y-90803780D01*
X62761160Y-72704980D02*
X61204980Y-72704980D01*
X61204980Y-72704980D02*
X61204980Y-72704980D01*
X81836560Y-69860180D02*
X80860180Y-69860180D01*
X80860180Y-69860180D02*
X80500000Y-69500000D01*
X80500000Y-69500000D02*
X80500000Y-69500000D01*
X87292560Y-93118380D02*
X88881620Y-93118380D01*
X88881620Y-93118380D02*
X88881620Y-93118380D01*
X100766360Y-72693780D02*
X99693780Y-72693780D01*
X99693780Y-72693780D02*
X99500000Y-72500000D01*
X99500000Y-72500000D02*
X99500000Y-72500000D01*
X119657160Y-75117980D02*
X118117980Y-75117980D01*
X118117980Y-75117980D02*
X118000000Y-75000000D01*
X118000000Y-75000000D02*
X118000000Y-75000000D01*
X125174070Y-98142030D02*
X126142030Y-98142030D01*
X126142030Y-98142030D02*
X126500000Y-98500000D01*
X126500000Y-98500000D02*
X126500000Y-98500000D01*
X161049208Y-111943567D02*
X161605641Y-112500000D01*
X161605641Y-112500000D02*
X163000000Y-112500000D01*
X163000000Y-112500000D02*
X163000000Y-112500000D01*
X154907560Y-92835780D02*
X154335780Y-92835780D01*
X154335780Y-92835780D02*
X153500000Y-92000000D01*
X153500000Y-92000000D02*
X153500000Y-92000000D01*
X116575000Y-37000000D02*
X118000000Y-37000000D01*
X98500000Y-35500000D02*
X97500000Y-34500000D01*
X99000000Y-35500000D02*
X98500000Y-35500000D01*
X135500000Y-38500000D02*
X137000000Y-38500000D01*
X89230620Y-37500000D02*
X89550000Y-37819380D01*
X87000000Y-37500000D02*
X89230620Y-37500000D01*
X79500000Y-32000000D02*
X80000000Y-31500000D01*
X78500000Y-32000000D02*
X79500000Y-32000000D01*
X60000000Y-35000000D02*
X60500000Y-34500000D01*
X59500000Y-35000000D02*
X60000000Y-35000000D01*
X62529180Y-34500000D02*
X62837360Y-34808180D01*
X60500000Y-34500000D02*
X62529180Y-34500000D01*
X44000000Y-34500000D02*
X45000000Y-34500000D01*
X22500000Y-53500000D02*
X23000000Y-54000000D01*
X21500000Y-53500000D02*
X22500000Y-53500000D01*
X42000000Y-48500000D02*
X42500000Y-48000000D01*
X41000000Y-48500000D02*
X42000000Y-48500000D01*
X32681180Y-74181180D02*
X33000000Y-74500000D01*
X31818820Y-74181180D02*
X32681180Y-74181180D01*
X52500000Y-68500000D02*
X51000000Y-68500000D01*
X70000000Y-55500000D02*
X69500000Y-55000000D01*
X71000000Y-55500000D02*
X70000000Y-55500000D01*
X89500000Y-52500000D02*
X90000000Y-53000000D01*
X88500000Y-52500000D02*
X89500000Y-52500000D01*
X108500000Y-55000000D02*
X109000000Y-55500000D01*
X107500000Y-55000000D02*
X108500000Y-55000000D01*
X127000000Y-58000000D02*
X126500000Y-57500000D01*
X128000000Y-58000000D02*
X127000000Y-58000000D01*
X145500000Y-61750000D02*
X145500000Y-59500000D01*
X116750000Y-75000000D02*
X118000000Y-75000000D01*
X89050000Y-77544980D02*
X87750000Y-77500000D01*
X87750000Y-77500000D02*
X87794980Y-77544980D01*
X87250000Y-77000000D02*
X87750000Y-77500000D01*
X86500000Y-77000000D02*
X87250000Y-77000000D01*
X80250000Y-69750000D02*
X80500000Y-69500000D01*
X79250000Y-69750000D02*
X80250000Y-69750000D01*
X61159960Y-72750000D02*
X61204980Y-72704980D01*
X60000000Y-72750000D02*
X61159960Y-72750000D01*
X52607560Y-91000000D02*
X52803780Y-90803780D01*
X51500000Y-91000000D02*
X52607560Y-91000000D01*
X89013240Y-93250000D02*
X88881620Y-93118380D01*
X90000000Y-93250000D02*
X89013240Y-93250000D01*
X106216421Y-94658219D02*
X107750000Y-94658219D01*
X108658219Y-94658219D02*
X108750000Y-94750000D01*
X107750000Y-94658219D02*
X108658219Y-94658219D01*
X126500000Y-98500000D02*
X127750000Y-98500000D01*
X144433920Y-103933920D02*
X145500000Y-105000000D01*
X143344701Y-103933920D02*
X144433920Y-103933920D01*
X146000000Y-105000000D02*
X146750000Y-105750000D01*
X145500000Y-105000000D02*
X146000000Y-105000000D01*
X163750000Y-113250000D02*
X163000000Y-112500000D01*
X163750000Y-113500000D02*
X163750000Y-113250000D01*
X153500000Y-91500000D02*
X152500000Y-90500000D01*
X153500000Y-92000000D02*
X153500000Y-91500000D01*
X144750000Y-46000000D02*
X143750000Y-45000000D01*
X145000000Y-46000000D02*
X144750000Y-46000000D01*
X24585540Y-91750000D02*
X24667960Y-91667580D01*
X21500000Y-91750000D02*
X23000000Y-91750000D01*
X23000000Y-91750000D02*
X24585540Y-91750000D01*
X43547540Y-86250000D02*
X43794160Y-86003380D01*
X40750000Y-86250000D02*
X42250000Y-86250000D01*
X42250000Y-86250000D02*
X43547540Y-86250000D01*
X87000000Y-37500000D02*
X85250000Y-37500000D01*
X85250000Y-37500000D02*
X85250000Y-37500000D01*
X98500000Y-72500000D02*
X99500000Y-72500000D01*
D23*
%TO.N,Net-(D1-Pad4)*%
X54230000Y-36400000D02*
X54230000Y-36400000D01*
X54218420Y-48041580D02*
X54220000Y-48040000D01*
X49211160Y-48041580D02*
X54218420Y-48041580D01*
X44170000Y-36400000D02*
X54230000Y-36400000D01*
X42000000Y-32500000D02*
X42000000Y-34230000D01*
X43385820Y-31114180D02*
X42000000Y-32500000D01*
X42000000Y-34230000D02*
X44170000Y-36400000D01*
X46474960Y-31114180D02*
X43385820Y-31114180D01*
%TO.N,Net-(D1-Pad2)*%
X51379140Y-34310000D02*
X51374960Y-34314180D01*
X53710000Y-34310000D02*
X51379140Y-34310000D01*
X59235540Y-39810000D02*
X57320000Y-39810000D01*
X62837360Y-36208180D02*
X59235540Y-39810000D01*
%TO.N,GND1*%
X31843420Y-55156580D02*
X32000000Y-55000000D01*
D22*
X30110360Y-55156580D02*
X31843420Y-55156580D01*
D23*
X50941580Y-49441580D02*
X51000000Y-49500000D01*
D22*
X49211160Y-49441580D02*
X50941580Y-49441580D01*
D23*
X52885820Y-31114180D02*
X53000000Y-31000000D01*
D22*
X51374960Y-31114180D02*
X52885820Y-31114180D01*
D23*
X69791820Y-36208180D02*
X70000000Y-36000000D01*
D22*
X68337360Y-36208180D02*
X69791820Y-36208180D01*
X88888780Y-33388780D02*
X89000000Y-33500000D01*
X87285760Y-33388780D02*
X88888780Y-33388780D01*
X106183360Y-37183360D02*
X106500000Y-37500000D01*
X106183360Y-36411380D02*
X106183360Y-37183360D01*
X125722780Y-38722780D02*
X126500000Y-39500000D01*
X125258760Y-38722780D02*
X125722780Y-38722780D01*
X144181760Y-40297580D02*
X144181760Y-41318240D01*
X144181760Y-41318240D02*
X143842410Y-41657590D01*
X137657590Y-41657590D02*
X136500000Y-40500000D01*
X136500000Y-40500000D02*
X136500000Y-40500000D01*
X137027020Y-57972980D02*
X137000000Y-58000000D01*
X138783360Y-57972980D02*
X137027020Y-57972980D01*
X118067980Y-56067980D02*
X118000000Y-56000000D01*
X119784160Y-56067980D02*
X118067980Y-56067980D01*
X99205780Y-53705780D02*
X99000000Y-53500000D01*
X100734160Y-53705780D02*
X99205780Y-53705780D01*
X80038780Y-51038780D02*
X80000000Y-51000000D01*
X81785760Y-51038780D02*
X80038780Y-51038780D01*
X61395820Y-53604180D02*
X61000000Y-54000000D01*
X62761160Y-53604180D02*
X61395820Y-53604180D01*
X42357620Y-67142380D02*
X42000000Y-67500000D01*
X43812760Y-67142380D02*
X42357620Y-67142380D01*
X23281180Y-72781180D02*
X23000000Y-72500000D01*
X24737360Y-72781180D02*
X23281180Y-72781180D01*
X31932420Y-93067580D02*
X32000000Y-93000000D01*
X30167960Y-93067580D02*
X31932420Y-93067580D01*
X50903380Y-87403380D02*
X51000000Y-87500000D01*
X49294160Y-87403380D02*
X50903380Y-87403380D01*
X60896220Y-87603780D02*
X61000000Y-87500000D01*
X59299760Y-87603780D02*
X60896220Y-87603780D01*
X69895020Y-74104980D02*
X70000000Y-74000000D01*
X68261160Y-74104980D02*
X69895020Y-74104980D01*
X88760180Y-71260180D02*
X89000000Y-71500000D01*
X87336560Y-71260180D02*
X88760180Y-71260180D01*
X80218380Y-91718380D02*
X80000000Y-91500000D01*
X81792560Y-91718380D02*
X80218380Y-91718380D01*
X106266360Y-75266360D02*
X106500000Y-75500000D01*
X106266360Y-74093780D02*
X106266360Y-75266360D01*
X100500000Y-92208770D02*
X100917321Y-92626091D01*
X100500000Y-91000000D02*
X100500000Y-92208770D01*
X126482020Y-76517980D02*
X126500000Y-76500000D01*
X125157160Y-76517980D02*
X126482020Y-76517980D01*
X119005530Y-95505530D02*
X118500000Y-95000000D01*
X120148250Y-95505530D02*
X119005530Y-95505530D01*
X137737240Y-100737240D02*
X137000000Y-100000000D01*
X138655219Y-100737240D02*
X137737240Y-100737240D01*
X156221593Y-108221593D02*
X155500000Y-107500000D01*
X156764712Y-108221593D02*
X156221593Y-108221593D01*
X151120760Y-43120760D02*
X151120760Y-42772780D01*
X151500000Y-44000000D02*
X151120760Y-43120760D01*
X159807560Y-89635780D02*
X161364220Y-89635780D01*
X161364220Y-89635780D02*
X161364220Y-89635780D01*
X133425000Y-38500000D02*
X132000000Y-38500000D01*
D23*
X132000000Y-38500000D02*
X132000000Y-38500000D01*
D22*
X114500000Y-37000000D02*
X113000000Y-37000000D01*
D23*
X113000000Y-37000000D02*
X113000000Y-37000000D01*
D22*
X96405620Y-36575000D02*
X94450000Y-34619380D01*
X97500000Y-36575000D02*
X96405620Y-36575000D01*
X94450000Y-34619380D02*
X94450000Y-35950000D01*
D23*
X94450000Y-35950000D02*
X94450000Y-35950000D01*
D22*
X87000000Y-33674540D02*
X87285760Y-33388780D01*
X87000000Y-35425000D02*
X87000000Y-33674540D01*
X78500000Y-34075000D02*
X79425000Y-34075000D01*
X79425000Y-34075000D02*
X80000000Y-33500000D01*
X80000000Y-33500000D02*
X80000000Y-33500000D01*
X59500000Y-37075000D02*
X59925000Y-37075000D01*
X59925000Y-37075000D02*
X60500000Y-36500000D01*
X60500000Y-36500000D02*
X60500000Y-36500000D01*
X44000000Y-32425000D02*
X45000000Y-32500000D01*
X45000000Y-32500000D02*
X44925000Y-32425000D01*
X21500000Y-55575000D02*
X22575000Y-55575000D01*
X22575000Y-55575000D02*
X23000000Y-56000000D01*
X23000000Y-56000000D02*
X23000000Y-56000000D01*
X41000000Y-50575000D02*
X41425000Y-50575000D01*
X41425000Y-50575000D02*
X42000000Y-50000000D01*
X42000000Y-50000000D02*
X42000000Y-50000000D01*
X33000000Y-76575000D02*
X34075000Y-76575000D01*
X34075000Y-76575000D02*
X34500000Y-77000000D01*
X34500000Y-77000000D02*
X34500000Y-77000000D01*
X52500000Y-70575000D02*
X51425000Y-70575000D01*
X51425000Y-70575000D02*
X51000000Y-71000000D01*
X51000000Y-71000000D02*
X51000000Y-71000000D01*
X71000000Y-57575000D02*
X69575000Y-57575000D01*
X69575000Y-57575000D02*
X69575000Y-57575000D01*
X90000000Y-55075000D02*
X88575000Y-55075000D01*
X88575000Y-55075000D02*
X88575000Y-55075000D01*
X109000000Y-57575000D02*
X107575000Y-57575000D01*
X107575000Y-57575000D02*
X107575000Y-57575000D01*
X128000000Y-60075000D02*
X126575000Y-60075000D01*
X126575000Y-60075000D02*
X126575000Y-60075000D01*
X143425000Y-61750000D02*
X142250000Y-61750000D01*
X142250000Y-61750000D02*
X142250000Y-61750000D01*
X114675000Y-75000000D02*
X113250000Y-75000000D01*
X113250000Y-75000000D02*
X113250000Y-75000000D01*
X95147490Y-73147490D02*
X93950000Y-74344980D01*
X86500000Y-74925000D02*
X86500000Y-73750000D01*
X86500000Y-73750000D02*
X86500000Y-73750000D01*
X79250000Y-71825000D02*
X79250000Y-72750000D01*
X79250000Y-72750000D02*
X79250000Y-72750000D01*
X60000000Y-74825000D02*
X60000000Y-75750000D01*
X60000000Y-75750000D02*
X60000000Y-75750000D01*
X21500000Y-93825000D02*
X21825000Y-93825000D01*
X21825000Y-93825000D02*
X22500000Y-94500000D01*
X22500000Y-94500000D02*
X22500000Y-94500000D01*
X49425000Y-91000000D02*
X48000000Y-91000000D01*
X48000000Y-91000000D02*
X48000000Y-91000000D01*
X92075000Y-93250000D02*
X93250000Y-93250000D01*
X93250000Y-93250000D02*
X93250000Y-93250000D01*
X110825000Y-94750000D02*
X111250000Y-94750000D01*
X111250000Y-94750000D02*
X112000000Y-95500000D01*
X112000000Y-95500000D02*
X112000000Y-95500000D01*
X127750000Y-100575000D02*
X128575000Y-100575000D01*
X128575000Y-100575000D02*
X129250000Y-101250000D01*
X129250000Y-101250000D02*
X129250000Y-101250000D01*
X146750000Y-107825000D02*
X147325000Y-107825000D01*
X147325000Y-107825000D02*
X148000000Y-108500000D01*
X148000000Y-108500000D02*
X148000000Y-108500000D01*
X163750000Y-115575000D02*
X165175000Y-115575000D01*
X165175000Y-115575000D02*
X165175000Y-115575000D01*
X150425000Y-90500000D02*
X150425000Y-89675000D01*
X150425000Y-89675000D02*
X150000000Y-89250000D01*
X150000000Y-89250000D02*
X150000000Y-89250000D01*
X143750000Y-41815180D02*
X143592410Y-41657590D01*
X143750000Y-42925000D02*
X143750000Y-41815180D01*
X143592410Y-41657590D02*
X137657590Y-41657590D01*
X143842410Y-41657590D02*
X143592410Y-41657590D01*
X40750000Y-88325000D02*
X39425000Y-88325000D01*
X39425000Y-88325000D02*
X39250000Y-88500000D01*
X39250000Y-88500000D02*
X39250000Y-88500000D01*
X95794980Y-72500000D02*
X95147490Y-73147490D01*
X96425000Y-72500000D02*
X95794980Y-72500000D01*
D23*
%TO.N,LRow0*%
X36800000Y-50480000D02*
X36058340Y-50480000D01*
X40490000Y-46790000D02*
X36800000Y-50480000D01*
X56050000Y-46790000D02*
X40490000Y-46790000D01*
X95967381Y-33387381D02*
X93333770Y-30753770D01*
X151600000Y-36450000D02*
X150497019Y-37552981D01*
X114214981Y-35774981D02*
X111827381Y-33387381D01*
X168740000Y-40110000D02*
X168740000Y-30070000D01*
X169696980Y-41066980D02*
X168740000Y-40110000D01*
X36058340Y-50480000D02*
X35666160Y-50872180D01*
X151600000Y-30070000D02*
X151600000Y-36450000D01*
X77026230Y-30753770D02*
X74206830Y-33573170D01*
X168740000Y-30070000D02*
X151600000Y-30070000D01*
X171399960Y-41066980D02*
X169696980Y-41066980D01*
X55958220Y-45131780D02*
X56050000Y-45040000D01*
X54665360Y-45131780D02*
X55958220Y-45131780D01*
X56050000Y-45040000D02*
X56050000Y-46790000D01*
X73664560Y-33571780D02*
X73663170Y-33573170D01*
X73664560Y-31771380D02*
X73664560Y-33571780D01*
X74206830Y-33573170D02*
X73663170Y-33573170D01*
X92663760Y-30703780D02*
X92613770Y-30753770D01*
X92663760Y-29028180D02*
X92663760Y-30703780D01*
X92613770Y-30753770D02*
X77026230Y-30753770D01*
X93333770Y-30753770D02*
X92613770Y-30753770D01*
X111612160Y-33362160D02*
X111637381Y-33387381D01*
X111612160Y-31923780D02*
X111612160Y-33362160D01*
X111637381Y-33387381D02*
X95967381Y-33387381D01*
X111827381Y-33387381D02*
X111637381Y-33387381D01*
X130712960Y-35667040D02*
X130605019Y-35774981D01*
X130712960Y-34260580D02*
X130712960Y-35667040D01*
X130605019Y-35774981D02*
X114214981Y-35774981D01*
X149661360Y-36140180D02*
X149661360Y-37488640D01*
X149661360Y-37488640D02*
X149597019Y-37552981D01*
X150497019Y-37552981D02*
X149597019Y-37552981D01*
X56050000Y-39660538D02*
X56050000Y-45040000D01*
X56050000Y-35950000D02*
X56050000Y-39660538D01*
X58426830Y-33573170D02*
X56050000Y-35950000D01*
X73663170Y-33573170D02*
X58426830Y-33573170D01*
X135601759Y-28272979D02*
X130712960Y-33161778D01*
X130712960Y-33161778D02*
X130712960Y-34260580D01*
X149802979Y-28272979D02*
X135601759Y-28272979D01*
X151600000Y-30070000D02*
X149802979Y-28272979D01*
%TO.N,LRow1*%
X171399960Y-43606980D02*
X168010000Y-40217020D01*
X168010000Y-40217020D02*
X168010000Y-31220000D01*
X168000000Y-31210000D02*
X152720000Y-31210000D01*
X168010000Y-31220000D02*
X168000000Y-31210000D01*
X152720000Y-55140000D02*
X151122030Y-56737970D01*
X133037970Y-56737970D02*
X131132970Y-54832970D01*
X115742970Y-54832970D02*
X113245781Y-52335781D01*
X96845781Y-52335781D02*
X94000981Y-49490981D01*
X77719019Y-49490981D02*
X74874219Y-52335781D01*
X61085781Y-52335781D02*
X55940000Y-57481562D01*
X55940000Y-57481562D02*
X55940000Y-61142142D01*
X73664560Y-50719780D02*
X73664560Y-52246122D01*
X73664560Y-52246122D02*
X73754219Y-52335781D01*
X73754219Y-52335781D02*
X61085781Y-52335781D01*
X74874219Y-52335781D02*
X73754219Y-52335781D01*
X94000981Y-49490981D02*
X92920981Y-49490981D01*
X92612960Y-48027380D02*
X92612960Y-49442960D01*
X92660981Y-49490981D02*
X77719019Y-49490981D01*
X92612960Y-49442960D02*
X92660981Y-49490981D01*
X92920981Y-49490981D02*
X92660981Y-49490981D01*
X111662960Y-52244522D02*
X111754219Y-52335781D01*
X111662960Y-50872180D02*
X111662960Y-52244522D01*
X111754219Y-52335781D02*
X96845781Y-52335781D01*
X113245781Y-52335781D02*
X111754219Y-52335781D01*
X130611360Y-54754580D02*
X130532970Y-54832970D01*
X130611360Y-53259780D02*
X130611360Y-54754580D01*
X130532970Y-54832970D02*
X115742970Y-54832970D01*
X131132970Y-54832970D02*
X130532970Y-54832970D01*
X149661360Y-56688640D02*
X149612030Y-56737970D01*
X149612030Y-56737970D02*
X133037970Y-56737970D01*
X149661360Y-55085580D02*
X149661360Y-56688640D01*
X151122030Y-56737970D02*
X149612030Y-56737970D01*
X55002858Y-61142142D02*
X54730000Y-61415000D01*
X55940000Y-61142142D02*
X55002858Y-61142142D01*
X35666160Y-70976160D02*
X35666160Y-69820580D01*
X35830000Y-71140000D02*
X35666160Y-70976160D01*
X37030000Y-71140000D02*
X35830000Y-71140000D01*
X51187630Y-65907370D02*
X42262630Y-65907370D01*
X54730000Y-62365000D02*
X51187630Y-65907370D01*
X42262630Y-65907370D02*
X37030000Y-71140000D01*
X54730000Y-61415000D02*
X54730000Y-62365000D01*
%TO.N,LRow2*%
X171399960Y-46146980D02*
X160110000Y-57436940D01*
X160110000Y-57436940D02*
X160110000Y-79310000D01*
X160110000Y-79310000D02*
X160110000Y-79360000D01*
X152480980Y-79370980D02*
X152770000Y-79660000D01*
X151185360Y-79370980D02*
X152480980Y-79370980D01*
X151185360Y-79370980D02*
X150129020Y-79370980D01*
X150129020Y-79370980D02*
X149000000Y-80500000D01*
X149000000Y-80500000D02*
X149000000Y-80500000D01*
X130712960Y-73712960D02*
X131000000Y-74000000D01*
X130712960Y-72258980D02*
X130712960Y-73712960D01*
X115615761Y-73773381D02*
X111612160Y-69769780D01*
X129198559Y-73773381D02*
X115615761Y-73773381D01*
X130712960Y-72258980D02*
X129198559Y-73773381D01*
X96174561Y-71334981D02*
X92714560Y-67874980D01*
X92714560Y-67874980D02*
X92714560Y-66924980D01*
X110046959Y-71334981D02*
X96174561Y-71334981D01*
X111612160Y-69769780D02*
X110046959Y-71334981D01*
X74809170Y-68625170D02*
X73613760Y-69820580D01*
X91014370Y-68625170D02*
X75374830Y-68625170D01*
X92714560Y-66924980D02*
X91014370Y-68625170D01*
X75374830Y-68625170D02*
X74809170Y-68625170D01*
X58369820Y-83130180D02*
X61000000Y-80500000D01*
X54665360Y-83130180D02*
X58369820Y-83130180D01*
X39869970Y-84768370D02*
X35666160Y-88972180D01*
X53027170Y-84768370D02*
X39869970Y-84768370D01*
X54665360Y-83130180D02*
X53027170Y-84768370D01*
%TO.N,Net-(D5-Pad4)*%
X52799360Y-86003380D02*
X49294160Y-86003380D01*
X54399760Y-87603780D02*
X52799360Y-86003380D01*
%TO.N,Net-(D6-Pad2)*%
X33278560Y-44934580D02*
X35666160Y-47322180D01*
X33278560Y-44880780D02*
X33278560Y-44934580D01*
%TO.N,Net-(D7-Pad2)*%
X33278560Y-63882980D02*
X35666160Y-66270580D01*
X33278560Y-63879980D02*
X33278560Y-63882980D01*
%TO.N,Net-(D8-Pad2)*%
X33278560Y-83034580D02*
X35666160Y-85422180D01*
X33278560Y-82929980D02*
X33278560Y-83034580D01*
%TO.N,Net-(D13-Pad2)*%
X97401200Y-74093780D02*
X93950000Y-77544980D01*
X100766360Y-74093780D02*
X97401200Y-74093780D01*
%TO.N,Net-(D10-Pad2)*%
X52274760Y-39191180D02*
X54665360Y-41581780D01*
X52226960Y-39191180D02*
X52274760Y-39191180D01*
%TO.N,Net-(D11-Pad2)*%
X52277760Y-58190380D02*
X52277760Y-58244180D01*
X54404620Y-58190380D02*
X54730000Y-57865000D01*
X52277760Y-58190380D02*
X54404620Y-58190380D01*
%TO.N,Net-(D12-Pad2)*%
X52277760Y-77192580D02*
X54665360Y-79580180D01*
X52277760Y-77189580D02*
X52277760Y-77192580D01*
%TO.N,Net-(D13-Pad4)*%
X89725001Y-71151999D02*
X88433182Y-69860180D01*
X88433182Y-69860180D02*
X87336560Y-69860180D01*
X89725001Y-73669979D02*
X89725001Y-71151999D01*
X89050000Y-74344980D02*
X89725001Y-73669979D01*
%TO.N,Net-(D14-Pad2)*%
X71375560Y-25932380D02*
X73664560Y-28221380D01*
X71276960Y-25932380D02*
X71375560Y-25932380D01*
%TO.N,Net-(D15-Pad2)*%
X71375560Y-44880780D02*
X73664560Y-47169780D01*
X71276960Y-44880780D02*
X71375560Y-44880780D01*
%TO.N,Net-(D16-Pad2)*%
X90276160Y-82882180D02*
X92663760Y-85269780D01*
X90276160Y-82879180D02*
X90276160Y-82882180D01*
%TO.N,LRow3*%
X92663760Y-88819780D02*
X94719780Y-88819780D01*
X94719780Y-88819780D02*
X94719780Y-88819780D01*
X167837619Y-111402381D02*
X165860000Y-113380000D01*
X167837619Y-110576114D02*
X167837619Y-111402381D01*
X150146474Y-102883526D02*
X149360000Y-103670000D01*
X150146474Y-101971534D02*
X150146474Y-102883526D01*
X131495407Y-96344593D02*
X130820000Y-97020000D01*
X131495407Y-95324657D02*
X131495407Y-96344593D01*
X112992858Y-91042858D02*
X113720000Y-91770000D01*
X112217869Y-91042858D02*
X112992858Y-91042858D01*
X171399960Y-48686980D02*
X161280000Y-58806940D01*
X161280000Y-58806940D02*
X161280000Y-80300000D01*
X161280000Y-80300000D02*
X161280000Y-80320000D01*
X134110000Y-92710064D02*
X131495407Y-95324657D01*
X134110000Y-89270000D02*
X134110000Y-92710064D01*
X150745001Y-87784999D02*
X135595001Y-87784999D01*
X135595001Y-87784999D02*
X134110000Y-89270000D01*
X153480000Y-85050000D02*
X150745001Y-87784999D01*
%TO.N,Net-(D17-Pad2)*%
X71276960Y-63933780D02*
X73613760Y-66270580D01*
X71276960Y-63879980D02*
X71276960Y-63933780D01*
%TO.N,Net-(D18-Pad4)*%
X145281760Y-38897580D02*
X144181760Y-38897580D01*
X146220760Y-39836580D02*
X145281760Y-38897580D01*
X146220760Y-42772780D02*
X146220760Y-39836580D01*
%TO.N,Net-(D19-Pad2)*%
X90276160Y-23090580D02*
X92663760Y-25478180D01*
X90276160Y-23036780D02*
X90276160Y-23090580D01*
%TO.N,Net-(D20-Pad2)*%
X90276160Y-42140580D02*
X92612960Y-44477380D01*
X90276160Y-42035980D02*
X90276160Y-42140580D01*
%TO.N,Net-(D21-Pad2)*%
X110590150Y-85475201D02*
X112632051Y-87517102D01*
X110590150Y-84763864D02*
X110590150Y-85475201D01*
%TO.N,Net-(D23-Pad2)*%
X90374760Y-61035180D02*
X92714560Y-63374980D01*
X90276160Y-61035180D02*
X90374760Y-61035180D01*
%TO.N,Net-(D24-Pad2)*%
X109275360Y-26036980D02*
X111612160Y-28373780D01*
X109275360Y-25932380D02*
X109275360Y-26036980D01*
%TO.N,Net-(D25-Pad2)*%
X109275360Y-44934580D02*
X111662960Y-47322180D01*
X109275360Y-44880780D02*
X109275360Y-44934580D01*
%TO.N,Net-(D26-Pad2)*%
X132318113Y-90698667D02*
X132318113Y-91871303D01*
X130562796Y-88943350D02*
X132318113Y-90698667D01*
%TO.N,Net-(D27-Pad2)*%
X109275360Y-63882980D02*
X111612160Y-66219780D01*
X109275360Y-63879980D02*
X109275360Y-63882980D01*
%TO.N,Net-(D28-Pad2)*%
X128322360Y-28319980D02*
X130712960Y-30710580D01*
X128274560Y-28319980D02*
X128322360Y-28319980D01*
%TO.N,Net-(D29-Pad2)*%
X128274560Y-47372980D02*
X130611360Y-49709780D01*
X128274560Y-47319180D02*
X128274560Y-47372980D01*
%TO.N,Net-(D30-Pad2)*%
X149928907Y-97203887D02*
X151360646Y-98635626D01*
X149928907Y-95496023D02*
X149928907Y-97203887D01*
%TO.N,Net-(D31-Pad2)*%
X128322360Y-66318380D02*
X130712960Y-68708980D01*
X128274560Y-66318380D02*
X128322360Y-66318380D01*
%TO.N,Net-(D32-Pad2)*%
X151051560Y-75687180D02*
X151185360Y-75820980D01*
X148464160Y-75687180D02*
X151051560Y-75687180D01*
%TO.N,Net-(D33-Pad2)*%
X147273760Y-49147980D02*
X149661360Y-51535580D01*
X147273760Y-49097180D02*
X147273760Y-49147980D01*
%TO.N,Net-(D34-Pad2)*%
X147273760Y-30202580D02*
X149661360Y-32590180D01*
X147273760Y-30097980D02*
X147273760Y-30202580D01*
%TO.N,Net-(D35-Pad2)*%
X168389776Y-106361721D02*
X169432701Y-107404646D01*
X168389776Y-104232175D02*
X168389776Y-106361721D01*
%TO.N,RRow0*%
X256088319Y-35782601D02*
X257501120Y-34369800D01*
X238663919Y-35782601D02*
X256088319Y-35782601D01*
X238298720Y-36147800D02*
X238663919Y-35782601D01*
X274935119Y-33395001D02*
X276398720Y-31931400D01*
X258475919Y-33395001D02*
X274935119Y-33395001D01*
X257501120Y-34369800D02*
X258475919Y-33395001D01*
X293883519Y-30550201D02*
X295397920Y-29035800D01*
X277779919Y-30550201D02*
X293883519Y-30550201D01*
X276398720Y-31931400D02*
X277779919Y-30550201D01*
X312831919Y-33395001D02*
X314346320Y-31880600D01*
X299757121Y-33395001D02*
X312831919Y-33395001D01*
X295397920Y-29035800D02*
X299757121Y-33395001D01*
X331108319Y-43003799D02*
X333345520Y-45241000D01*
X325056918Y-39250000D02*
X328810717Y-43003799D01*
X328810717Y-43003799D02*
X331108319Y-43003799D01*
X320765720Y-39250000D02*
X325056918Y-39250000D01*
X314346320Y-32830600D02*
X320765720Y-39250000D01*
X314346320Y-31880600D02*
X314346320Y-32830600D01*
X350107519Y-48693399D02*
X352344720Y-50930600D01*
X347759117Y-48693399D02*
X350107519Y-48693399D01*
X344306718Y-45241000D02*
X347759117Y-48693399D01*
X333345520Y-45241000D02*
X344306718Y-45241000D01*
X236885919Y-37560601D02*
X238298720Y-36147800D01*
X218872719Y-37560601D02*
X236885919Y-37560601D01*
X215409520Y-41023800D02*
X218872719Y-37560601D01*
%TO.N,RRow1*%
X255834319Y-54781801D02*
X257348720Y-53267400D01*
X238765519Y-54781801D02*
X255834319Y-54781801D01*
X238451120Y-55096200D02*
X238765519Y-54781801D01*
X274985919Y-52343401D02*
X276347920Y-50981400D01*
X258272719Y-52343401D02*
X274985919Y-52343401D01*
X257348720Y-53267400D02*
X258272719Y-52343401D01*
X293883519Y-49549401D02*
X295397920Y-48035000D01*
X277779919Y-49549401D02*
X293883519Y-49549401D01*
X276347920Y-50981400D02*
X277779919Y-49549401D01*
X313136719Y-52394201D02*
X314397120Y-51133800D01*
X299757121Y-52394201D02*
X313136719Y-52394201D01*
X295397920Y-48035000D02*
X299757121Y-52394201D01*
X329179121Y-60073801D02*
X333396320Y-64291000D01*
X323337121Y-60073801D02*
X329179121Y-60073801D01*
X314397120Y-51133800D02*
X323337121Y-60073801D01*
X350107519Y-67717999D02*
X352370120Y-69980600D01*
X347809917Y-67717999D02*
X350107519Y-67717999D01*
X344382918Y-64291000D02*
X347809917Y-67717999D01*
X333396320Y-64291000D02*
X344382918Y-64291000D01*
X236264719Y-52909799D02*
X238451120Y-55096200D01*
X233814717Y-52909799D02*
X236264719Y-52909799D01*
X218831461Y-46985741D02*
X227890659Y-46985741D01*
X227890659Y-46985741D02*
X233814717Y-52909799D01*
X215409520Y-43563800D02*
X218831461Y-46985741D01*
%TO.N,RRow2*%
X255213119Y-70130999D02*
X257450320Y-72368200D01*
X247183917Y-64500999D02*
X252813917Y-70130999D01*
X252813917Y-70130999D02*
X255213119Y-70130999D01*
X223224001Y-64500999D02*
X247183917Y-64500999D01*
X220500000Y-67225000D02*
X223224001Y-64500999D01*
X274825530Y-71401390D02*
X276449520Y-69777400D01*
X258417130Y-71401390D02*
X274825530Y-71401390D01*
X257450320Y-72368200D02*
X258417130Y-71401390D01*
X293934319Y-68548601D02*
X295397920Y-67085000D01*
X277678319Y-68548601D02*
X293934319Y-68548601D01*
X276449520Y-69777400D02*
X277678319Y-68548601D01*
X299706321Y-71393401D02*
X312984319Y-71393401D01*
X312984319Y-71393401D02*
X314397120Y-69980600D01*
X295397920Y-67085000D02*
X299706321Y-71393401D01*
X329331521Y-79073001D02*
X333396320Y-83137800D01*
X323489521Y-79073001D02*
X329331521Y-79073001D01*
X314397120Y-69980600D02*
X323489521Y-79073001D01*
X343196521Y-85642599D02*
X349159919Y-85642599D01*
X349159919Y-85642599D02*
X352344720Y-88827400D01*
X340691722Y-83137800D02*
X343196521Y-85642599D01*
X333396320Y-83137800D02*
X340691722Y-83137800D01*
X220500000Y-67225000D02*
X220500000Y-65000000D01*
%TO.N,Net-(D39-Pad2)*%
X349957120Y-44993000D02*
X352344720Y-47380600D01*
X349957120Y-44888400D02*
X349957120Y-44993000D01*
%TO.N,Net-(D40-Pad2)*%
X350007920Y-64068400D02*
X352370120Y-66430600D01*
X350007920Y-63913000D02*
X350007920Y-64068400D01*
%TO.N,Net-(D41-Pad2)*%
X350004920Y-82937600D02*
X352344720Y-85277400D01*
X349982520Y-82937600D02*
X350004920Y-82937600D01*
D22*
%TO.N,VCC*%
X233164720Y-40600000D02*
X232996920Y-40432200D01*
X236200000Y-40600000D02*
X234600000Y-40600000D01*
X234600000Y-40600000D02*
X233164720Y-40600000D01*
X252091120Y-38800000D02*
X252021520Y-38730400D01*
X255800000Y-38800000D02*
X254000000Y-38800000D01*
X254000000Y-38800000D02*
X252091120Y-38800000D01*
X271200000Y-36224680D02*
X271129120Y-36153800D01*
X271200000Y-39000000D02*
X271200000Y-37400000D01*
X271200000Y-37400000D02*
X271200000Y-36224680D01*
X280311760Y-34497460D02*
X279897460Y-34497460D01*
X279897460Y-34497460D02*
X278600000Y-33200000D01*
X278600000Y-33200000D02*
X278600000Y-32600000D01*
X279000000Y-31800000D02*
X279800000Y-31800000D01*
X278600000Y-32200000D02*
X279000000Y-31800000D01*
X278600000Y-32600000D02*
X278600000Y-32200000D01*
X292945600Y-33345600D02*
X293200000Y-33600000D01*
X290096120Y-33345600D02*
X291854400Y-33345600D01*
X291854400Y-33345600D02*
X292945600Y-33345600D01*
X309210940Y-36400000D02*
X308983560Y-36172620D01*
X311800000Y-36400000D02*
X310600000Y-36400000D01*
X310600000Y-36400000D02*
X309210940Y-36400000D01*
X323610360Y-30800000D02*
X323565420Y-30844940D01*
X326400000Y-30800000D02*
X325000000Y-30800000D01*
X347030220Y-57830220D02*
X347200000Y-58000000D01*
X347030220Y-55052440D02*
X347030220Y-56569780D01*
X347030220Y-56569780D02*
X347030220Y-57830220D01*
X325000000Y-30800000D02*
X323610360Y-30800000D01*
X328128040Y-49800000D02*
X327997180Y-49669140D01*
X331400000Y-49800000D02*
X329800000Y-49800000D01*
X329800000Y-49800000D02*
X328128040Y-49800000D01*
X303351240Y-53800000D02*
X303376880Y-53774360D01*
X300400000Y-53800000D02*
X301800000Y-53800000D01*
X301800000Y-53800000D02*
X303351240Y-53800000D01*
X281966960Y-50833040D02*
X281600000Y-51200000D01*
X284522460Y-50833040D02*
X282966960Y-50833040D01*
X282966960Y-50833040D02*
X281966960Y-50833040D01*
X262635800Y-53764200D02*
X262400000Y-54000000D01*
X265419120Y-53764200D02*
X263835800Y-53764200D01*
X263835800Y-53764200D02*
X262635800Y-53764200D01*
X246415120Y-56200000D02*
X246502920Y-56112200D01*
X243600000Y-56200000D02*
X245000000Y-56200000D01*
X245000000Y-56200000D02*
X246415120Y-56200000D01*
X227389320Y-58000000D02*
X227395320Y-58006000D01*
X224400000Y-58000000D02*
X225800000Y-58000000D01*
X225800000Y-58000000D02*
X227389320Y-58000000D01*
X339927840Y-72727840D02*
X339927840Y-72727840D01*
X341362580Y-72727840D02*
X339927840Y-72727840D01*
X339927840Y-72727840D02*
X339000000Y-71800000D01*
X322294880Y-67000000D02*
X322497180Y-67202300D01*
X319400000Y-67000000D02*
X320800000Y-67000000D01*
X320800000Y-67000000D02*
X322294880Y-67000000D01*
X309400000Y-74369240D02*
X309225680Y-74194920D01*
X309400000Y-76800000D02*
X309400000Y-75400000D01*
X309400000Y-75400000D02*
X309400000Y-74369240D01*
X290000000Y-71385040D02*
X289943720Y-71328760D01*
X290000000Y-74400000D02*
X290000000Y-72800000D01*
X290000000Y-72800000D02*
X290000000Y-71385040D01*
X280479400Y-72079400D02*
X280400000Y-72000000D01*
X280479400Y-74177340D02*
X280479400Y-73020600D01*
X271800000Y-74942680D02*
X270893720Y-74036400D01*
X271800000Y-76525000D02*
X271800000Y-75200000D01*
X271800000Y-75200000D02*
X271800000Y-74942680D01*
X252190600Y-76590600D02*
X253600000Y-78000000D01*
X251875920Y-76590600D02*
X252190600Y-76590600D01*
X253600000Y-78000000D02*
X254362500Y-78762500D01*
X216514580Y-86114580D02*
X216400000Y-86000000D01*
X216514580Y-89498620D02*
X216514580Y-87685420D01*
X216514580Y-87685420D02*
X216514580Y-86114580D01*
X208711052Y-112000000D02*
X208855526Y-111855526D01*
X207133832Y-112000000D02*
X208711052Y-112000000D01*
X208855526Y-111855526D02*
X210051225Y-110659827D01*
X224959202Y-105400000D02*
X225979601Y-104379601D01*
X224237500Y-105400000D02*
X224959202Y-105400000D01*
X225979601Y-104379601D02*
X227654491Y-102704711D01*
X245076676Y-96823324D02*
X246251283Y-96823324D01*
X242900000Y-99000000D02*
X244250000Y-97650000D01*
X244250000Y-97650000D02*
X245076676Y-96823324D01*
X262985615Y-93114385D02*
X265165731Y-93114385D01*
X261600000Y-94500000D02*
X263000000Y-93300000D01*
X263000000Y-93300000D02*
X262985615Y-93114385D01*
X281971360Y-91828640D02*
X284443720Y-91828640D01*
X280800000Y-93000000D02*
X281971360Y-91828640D01*
X281971360Y-91828640D02*
X281971360Y-91828640D01*
X317108740Y-86808740D02*
X316250000Y-85950000D01*
X317108740Y-87481860D02*
X317108740Y-86808740D01*
X316250000Y-85950000D02*
X315000000Y-84700000D01*
X330748560Y-87573560D02*
X330800000Y-87625000D01*
X327959080Y-87573560D02*
X329426440Y-87573560D01*
X329426440Y-87573560D02*
X330748560Y-87573560D01*
X347133080Y-93250000D02*
X346960820Y-93077740D01*
X349250000Y-93250000D02*
X348250000Y-93250000D01*
X225709380Y-42109380D02*
X225250000Y-41650000D01*
X225709380Y-42960740D02*
X225709380Y-42109380D01*
X225250000Y-41650000D02*
X224300000Y-40700000D01*
X280479400Y-73020600D02*
X280479400Y-72079400D01*
X348250000Y-93250000D02*
X347133080Y-93250000D01*
D23*
%TO.N,Net-(D42-Pad4)*%
X280311760Y-37629960D02*
X284596120Y-33345600D01*
X280311760Y-37697460D02*
X280311760Y-37629960D01*
%TO.N,Net-(D42-Pad2)*%
X275155420Y-34753800D02*
X275411760Y-34497460D01*
X271129120Y-34753800D02*
X275155420Y-34753800D01*
D22*
%TO.N,GND2*%
X227496920Y-39032200D02*
X225632200Y-39032200D01*
X225632200Y-39032200D02*
X225632200Y-39032200D01*
X238275000Y-40600000D02*
X239400000Y-40600000D01*
X239400000Y-40600000D02*
X239800000Y-40200000D01*
X239800000Y-40200000D02*
X239800000Y-40200000D01*
X246521520Y-37330400D02*
X244869600Y-37330400D01*
X244869600Y-37330400D02*
X244869600Y-37330400D01*
X257875000Y-38800000D02*
X259600000Y-38800000D01*
X259600000Y-38800000D02*
X259600000Y-38800000D01*
X265629120Y-34753800D02*
X263846200Y-34753800D01*
X263846200Y-34753800D02*
X263846200Y-34753800D01*
X269125000Y-39000000D02*
X267200000Y-39000000D01*
X267200000Y-39000000D02*
X267200000Y-39000000D01*
X284450520Y-31800000D02*
X284596120Y-31945600D01*
X281875000Y-31800000D02*
X283000000Y-31800000D01*
X283000000Y-31800000D02*
X284450520Y-31800000D01*
X295275000Y-33600000D02*
X297000000Y-33600000D01*
X297000000Y-33600000D02*
X297000000Y-33600000D01*
X313875000Y-36400000D02*
X315600000Y-36400000D01*
X315600000Y-36400000D02*
X315600000Y-36400000D01*
X318665420Y-34044940D02*
X317644940Y-34044940D01*
X317644940Y-34044940D02*
X316800000Y-33200000D01*
X316800000Y-33200000D02*
X316800000Y-33200000D01*
X326400000Y-32875000D02*
X328325000Y-32875000D01*
X328325000Y-32875000D02*
X328325000Y-32875000D01*
X345125000Y-58000000D02*
X343600000Y-58000000D01*
X343600000Y-58000000D02*
X343600000Y-58000000D01*
X341530220Y-53652440D02*
X341530220Y-52730220D01*
X341530220Y-52730220D02*
X341000000Y-52200000D01*
X341000000Y-52200000D02*
X341000000Y-52200000D01*
X331400000Y-51875000D02*
X329675000Y-51875000D01*
X329675000Y-51875000D02*
X329675000Y-51875000D01*
X322497180Y-48269140D02*
X320869140Y-48269140D01*
X320869140Y-48269140D02*
X320869140Y-48269140D01*
X298325000Y-53800000D02*
X298325000Y-53325000D01*
X298325000Y-53325000D02*
X297400000Y-52400000D01*
X297400000Y-52400000D02*
X297400000Y-52400000D01*
X279525000Y-51200000D02*
X279200000Y-51200000D01*
X279200000Y-51200000D02*
X278200000Y-52200000D01*
X278200000Y-52200000D02*
X278200000Y-52200000D01*
X260325000Y-54000000D02*
X259600000Y-54000000D01*
X259600000Y-54000000D02*
X258800000Y-54800000D01*
X258800000Y-54800000D02*
X258800000Y-54800000D01*
X270919120Y-55164200D02*
X272564200Y-55164200D01*
X272564200Y-55164200D02*
X272564200Y-55164200D01*
X290022460Y-52233040D02*
X290022460Y-53577540D01*
X290022460Y-53577540D02*
X290022460Y-53577540D01*
X308876880Y-55174360D02*
X308876880Y-56523120D01*
X308876880Y-56523120D02*
X308876880Y-56523120D01*
X241525000Y-56200000D02*
X240400000Y-56200000D01*
X240400000Y-56200000D02*
X240100000Y-56500000D01*
X240100000Y-56500000D02*
X240000000Y-56600000D01*
X252002920Y-57512200D02*
X253687800Y-57512200D01*
X253687800Y-57512200D02*
X253687800Y-57512200D01*
X224400000Y-60075000D02*
X224875000Y-60075000D01*
X224875000Y-60075000D02*
X225800000Y-61000000D01*
X225800000Y-61000000D02*
X225800000Y-61000000D01*
X232895320Y-59406000D02*
X234600000Y-59400000D01*
X234600000Y-59400000D02*
X234594000Y-59406000D01*
X336925000Y-71800000D02*
X336925000Y-70925000D01*
X336925000Y-70925000D02*
X336200000Y-70200000D01*
X346862580Y-74127840D02*
X348327840Y-74127840D01*
X348327840Y-74127840D02*
X348600000Y-74400000D01*
X348600000Y-74400000D02*
X348600000Y-74400000D01*
X336200000Y-70200000D02*
X336200000Y-70200000D01*
X319400000Y-69075000D02*
X319400000Y-70600000D01*
X319400000Y-70600000D02*
X319400000Y-70600000D01*
X327997180Y-68602300D02*
X328802300Y-68602300D01*
X328802300Y-68602300D02*
X329600000Y-69400000D01*
X329600000Y-69400000D02*
X329600000Y-69400000D01*
X307325000Y-76800000D02*
X305400000Y-76800000D01*
X305400000Y-76800000D02*
X305400000Y-76800000D01*
X303725680Y-72794920D02*
X302394920Y-72794920D01*
X302394920Y-72794920D02*
X302000000Y-72400000D01*
X302000000Y-72400000D02*
X302000000Y-72400000D01*
X287925000Y-74400000D02*
X286000000Y-74400000D01*
X286000000Y-74400000D02*
X286000000Y-74400000D01*
X284443720Y-69928760D02*
X282271240Y-69928760D01*
X282271240Y-69928760D02*
X282271240Y-69928760D01*
X282267480Y-69925000D02*
X282271240Y-69928760D01*
X280400000Y-69925000D02*
X282267480Y-69925000D01*
X275579400Y-77377340D02*
X274000000Y-77400000D01*
X274000000Y-77400000D02*
X274022660Y-77377340D01*
X272800000Y-78600000D02*
X274000000Y-77400000D01*
X271800000Y-78600000D02*
X272800000Y-78600000D01*
X265393720Y-72636400D02*
X263636400Y-72636400D01*
X263636400Y-72636400D02*
X263636400Y-72636400D01*
X254362500Y-80837500D02*
X252437500Y-80837500D01*
X252437500Y-80837500D02*
X252437500Y-80837500D01*
X246375920Y-75190600D02*
X245390600Y-75190600D01*
X245390600Y-75190600D02*
X244800000Y-74600000D01*
X244800000Y-74600000D02*
X244800000Y-74600000D01*
X214325000Y-86000000D02*
X212800000Y-86000000D01*
X212800000Y-86000000D02*
X212800000Y-86000000D01*
X211614580Y-92698620D02*
X211301380Y-92698620D01*
X211301380Y-92698620D02*
X210200000Y-93800000D01*
X210200000Y-93800000D02*
X210200000Y-93800000D01*
X208066168Y-113853746D02*
X209746254Y-113853746D01*
X209746254Y-113853746D02*
X209746254Y-113853746D01*
X215593815Y-109439293D02*
X217360707Y-109439293D01*
X217360707Y-109439293D02*
X217360707Y-109439293D01*
X222162500Y-105400000D02*
X220600000Y-105400000D01*
X220600000Y-105400000D02*
X220600000Y-105400000D01*
X240825000Y-99000000D02*
X240825000Y-97525000D01*
X240825000Y-97525000D02*
X240825000Y-97525000D01*
X233301629Y-102139169D02*
X233301629Y-103001629D01*
X233301629Y-103001629D02*
X233800000Y-103500000D01*
X233800000Y-103500000D02*
X233800000Y-103500000D01*
X251925997Y-96910596D02*
X251925997Y-97725997D01*
X251925997Y-97725997D02*
X252700000Y-98500000D01*
X252700000Y-98500000D02*
X252700000Y-98500000D01*
X259525000Y-94500000D02*
X257700000Y-94500000D01*
X257700000Y-94500000D02*
X257700000Y-94500000D01*
X270791509Y-93863135D02*
X270791509Y-95191509D01*
X270791509Y-95191509D02*
X270791509Y-95191509D01*
X278725000Y-93000000D02*
X278000000Y-93000000D01*
X278000000Y-93000000D02*
X277400000Y-92400000D01*
X277400000Y-92400000D02*
X277400000Y-92400000D01*
X289943720Y-93228640D02*
X291771360Y-93228640D01*
X291771360Y-93228640D02*
X291771360Y-93228640D01*
X315000000Y-82625000D02*
X315000000Y-80700000D01*
X315000000Y-80700000D02*
X315000000Y-80700000D01*
X312208740Y-90681860D02*
X312208740Y-92291260D01*
X312208740Y-92291260D02*
X312208740Y-92291260D01*
X330800000Y-89700000D02*
X330800000Y-91600000D01*
X330800000Y-91600000D02*
X330800000Y-91600000D01*
X322459080Y-86173560D02*
X320826440Y-86173560D01*
X320826440Y-86173560D02*
X320826440Y-86173560D01*
X351325000Y-93250000D02*
X351325000Y-95275000D01*
X351325000Y-95275000D02*
X351325000Y-95275000D01*
X341460820Y-91677740D02*
X339722260Y-91677740D01*
X339722260Y-91677740D02*
X339722260Y-91677740D01*
X222225000Y-40700000D02*
X220300000Y-40700000D01*
X220300000Y-40700000D02*
X220300000Y-40700000D01*
X220809380Y-46160740D02*
X220560740Y-46160740D01*
X220560740Y-46160740D02*
X219500000Y-45100000D01*
X219500000Y-45100000D02*
X219500000Y-45100000D01*
X275411760Y-37697460D02*
X275411760Y-38888240D01*
X275411760Y-38888240D02*
X275411760Y-38888240D01*
X303483560Y-34772620D02*
X302272620Y-34772620D01*
X302272620Y-34772620D02*
X301900000Y-34400000D01*
X301900000Y-34400000D02*
X301900000Y-34400000D01*
D23*
%TO.N,Net-(D43-Pad2)*%
X331008720Y-39354200D02*
X333345520Y-41691000D01*
X331008720Y-39198800D02*
X331008720Y-39354200D01*
%TO.N,Net-(D44-Pad2)*%
X331008720Y-58353400D02*
X333396320Y-60741000D01*
X331008720Y-58248800D02*
X331008720Y-58353400D01*
%TO.N,Net-(D45-Pad2)*%
X331056520Y-77248000D02*
X333396320Y-79587800D01*
X331008720Y-77248000D02*
X331056520Y-77248000D01*
%TO.N,Net-(D46-Pad4)*%
X227496920Y-44373200D02*
X227496920Y-40432200D01*
X225709380Y-46160740D02*
X227496920Y-44373200D01*
%TO.N,Net-(D47-Pad2)*%
X312009520Y-25993800D02*
X314346320Y-28330600D01*
X312009520Y-25940000D02*
X312009520Y-25993800D01*
%TO.N,Net-(D48-Pad2)*%
X312009520Y-45196200D02*
X314397120Y-47583800D01*
X312009520Y-44939200D02*
X312009520Y-45196200D01*
%TO.N,Net-(D49-Pad2)*%
X293010320Y-82915200D02*
X295397920Y-85302800D01*
X293010320Y-82912200D02*
X293010320Y-82915200D01*
%TO.N,RRow3*%
X276913134Y-90367201D02*
X275666011Y-89120078D01*
X293274722Y-88852800D02*
X291760321Y-90367201D01*
X291760321Y-90367201D02*
X276913134Y-90367201D01*
X295397920Y-88852800D02*
X293274722Y-88852800D01*
X267484616Y-91598477D02*
X256134473Y-91598477D01*
X275075871Y-91338352D02*
X269698955Y-91338352D01*
X269698955Y-91338352D02*
X267484616Y-91598477D01*
X275666011Y-90748212D02*
X275075871Y-91338352D01*
X275666011Y-89120078D02*
X275666011Y-90748212D01*
X237699226Y-95438734D02*
X236924606Y-96213354D01*
X246734075Y-95438734D02*
X237699226Y-95438734D01*
X250546336Y-94530525D02*
X246734075Y-95438734D01*
X251347260Y-93729601D02*
X250546336Y-94530525D01*
X254003349Y-93729601D02*
X251347260Y-93729601D01*
X256134473Y-91598477D02*
X254003349Y-93729601D01*
X227840147Y-101562876D02*
X220202519Y-101562876D01*
X231657552Y-99933445D02*
X227974943Y-101273806D01*
X232672427Y-99933445D02*
X231657552Y-99933445D01*
X220202519Y-101562876D02*
X218522261Y-103243134D01*
X236392518Y-96213354D02*
X232672427Y-99933445D01*
X227974943Y-101273806D02*
X227840147Y-101562876D01*
X236924606Y-96213354D02*
X236392518Y-96213354D01*
X219423624Y-102341771D02*
X218522261Y-103243134D01*
X218013398Y-102734271D02*
X218522261Y-103243134D01*
X218013398Y-87236602D02*
X218013398Y-102734271D01*
X219774999Y-85475001D02*
X218013398Y-87236602D01*
%TO.N,Net-(D50-Pad2)*%
X312009520Y-64043000D02*
X314397120Y-66430600D01*
X312009520Y-63938400D02*
X312009520Y-64043000D01*
%TO.N,Net-(D51-Pad4)*%
X323565420Y-34044940D02*
X321205060Y-34044940D01*
X321205060Y-34044940D02*
X319000000Y-36250000D01*
X319000000Y-36250000D02*
X319000000Y-36250000D01*
X320330860Y-49669140D02*
X320250000Y-49750000D01*
X322497180Y-49669140D02*
X320330860Y-49669140D01*
%TO.N,Net-(D52-Pad2)*%
X293010320Y-23098200D02*
X295397920Y-25485800D01*
X293010320Y-23095200D02*
X293010320Y-23098200D01*
%TO.N,Net-(D53-Pad2)*%
X293010320Y-42097400D02*
X295397920Y-44485000D01*
X293010320Y-42094400D02*
X293010320Y-42097400D01*
%TO.N,Net-(D54-Pad2)*%
X273116610Y-83459103D02*
X275251829Y-85594322D01*
X272591136Y-83459103D02*
X273116610Y-83459103D01*
%TO.N,Net-(D55-Pad2)*%
X293010320Y-61147400D02*
X295397920Y-63535000D01*
X293010320Y-61093600D02*
X293010320Y-61147400D01*
%TO.N,Net-(D56-Pad4)*%
X319350780Y-90681860D02*
X322459080Y-87573560D01*
X317108740Y-90681860D02*
X319350780Y-90681860D01*
%TO.N,Net-(D57-Pad2)*%
X274011120Y-25993800D02*
X276398720Y-28381400D01*
X274011120Y-25940000D02*
X274011120Y-25993800D01*
%TO.N,Net-(D58-Pad2)*%
X274011120Y-45094600D02*
X276347920Y-47431400D01*
X274011120Y-44888400D02*
X274011120Y-45094600D01*
%TO.N,Net-(D59-Pad2)*%
X254231293Y-88145123D02*
X255311767Y-88145123D01*
X252380197Y-86294027D02*
X254231293Y-88145123D01*
%TO.N,Net-(D60-Pad2)*%
X274160520Y-63938400D02*
X276449520Y-66227400D01*
X274011120Y-63938400D02*
X274160520Y-63938400D01*
%TO.N,Net-(D61-Pad4)*%
X284443720Y-73413020D02*
X284443720Y-71328760D01*
X280479400Y-77377340D02*
X284443720Y-73413020D01*
%TO.N,Net-(D63-Pad2)*%
X255011920Y-28330600D02*
X257501120Y-30819800D01*
X255011920Y-28327600D02*
X255011920Y-28330600D01*
%TO.N,Net-(D64-Pad2)*%
X255011920Y-47380600D02*
X257348720Y-49717400D01*
X255011920Y-47326800D02*
X255011920Y-47380600D01*
%TO.N,Net-(D65-Pad2)*%
X234365868Y-91532880D02*
X235710434Y-92877446D01*
X232652942Y-91532880D02*
X234365868Y-91532880D01*
%TO.N,Net-(D66-Pad2)*%
X255011920Y-66379800D02*
X257450320Y-68818200D01*
X255011920Y-66326000D02*
X255011920Y-66379800D01*
%TO.N,Net-(D67-Pad2)*%
X223082240Y-70775000D02*
X223140860Y-70716380D01*
X220500000Y-70775000D02*
X223082240Y-70775000D01*
%TO.N,Net-(D68-Pad2)*%
X236012720Y-49107800D02*
X238451120Y-51546200D01*
X236012720Y-49104800D02*
X236012720Y-49107800D01*
%TO.N,Net-(D69-Pad2)*%
X236012720Y-30311800D02*
X238298720Y-32597800D01*
X236012720Y-30105600D02*
X236012720Y-30311800D01*
%TO.N,Net-(D70-Pad2)*%
X215870865Y-99015352D02*
X216927179Y-100071666D01*
X213650855Y-99015352D02*
X215870865Y-99015352D01*
D22*
%TO.N,TRRS_VDD*%
X166352148Y-90936864D02*
X165251316Y-92037696D01*
X166352148Y-89848936D02*
X166352148Y-90936864D01*
D23*
%TO.N,LUSART_TX*%
X168478513Y-88959514D02*
X168218010Y-89220017D01*
X167735862Y-88959514D02*
X159110000Y-80333652D01*
X168478513Y-88959514D02*
X167735862Y-88959514D01*
X159110000Y-49071620D02*
X156185360Y-46146980D01*
X159110000Y-80333652D02*
X159110000Y-49071620D01*
D22*
X167012005Y-91710780D02*
X167012005Y-93068134D01*
X168478513Y-90244272D02*
X167012005Y-91710780D01*
X167012005Y-93068134D02*
X165805065Y-94275074D01*
X168478513Y-88959514D02*
X168478513Y-90244272D01*
D23*
%TO.N,LUSART_RX*%
X172051998Y-93398902D02*
X169378550Y-96072350D01*
X172051998Y-90756790D02*
X172051998Y-93398902D01*
X156185360Y-48686980D02*
X158330000Y-50831620D01*
X158330000Y-50831620D02*
X158330000Y-80470000D01*
X158330000Y-80470000D02*
X158330000Y-80740000D01*
X158330000Y-80740000D02*
X164260000Y-86670000D01*
X164260000Y-86670000D02*
X164260000Y-86670000D01*
%TO.N,RSCL*%
X197611720Y-66423800D02*
X195067920Y-68967600D01*
X200194920Y-66423800D02*
X197611720Y-66423800D01*
%TO.N,RUSART_RX*%
X203332578Y-91883749D02*
X205745523Y-94296694D01*
X203332578Y-89241637D02*
X203332578Y-91883749D01*
X203072075Y-88981134D02*
X203332578Y-89241637D01*
X200194920Y-48643800D02*
X193250000Y-55588720D01*
X193250000Y-79159059D02*
X203072075Y-88981134D01*
X193250000Y-55588720D02*
X193250000Y-79159059D01*
D22*
%TO.N,TRRS_VCC*%
X200194920Y-76583800D02*
X205250000Y-81638880D01*
X205250000Y-89818997D02*
X205198441Y-89870556D01*
X205250000Y-81638880D02*
X205250000Y-89818997D01*
X205198441Y-90958485D02*
X206299272Y-92059316D01*
X205198441Y-89870556D02*
X205198441Y-90958485D01*
D23*
%TO.N,RUSART_TX*%
X199498590Y-93420522D02*
X202172038Y-96093970D01*
X199498590Y-90778410D02*
X199498590Y-93420522D01*
%TO.N,Net-(LED1-Pad2)*%
X24610360Y-55906580D02*
X29343780Y-60640000D01*
X24610360Y-55156580D02*
X24610360Y-55906580D01*
X29343780Y-60640000D02*
X35380000Y-60640000D01*
X35380000Y-60640000D02*
X35380000Y-60640000D01*
X24737360Y-76112640D02*
X24720000Y-76130000D01*
X24737360Y-74181180D02*
X24737360Y-76112640D01*
%TO.N,Net-(LED1-Pad4)*%
X36416580Y-53756580D02*
X30110360Y-53756580D01*
X36420000Y-53760000D02*
X36416580Y-53756580D01*
X37148161Y-53024999D02*
X36416580Y-53756580D01*
X40877741Y-53024999D02*
X37148161Y-53024999D01*
X43711160Y-50191580D02*
X40877741Y-53024999D01*
X43711160Y-49441580D02*
X43711160Y-50191580D01*
%TO.N,Net-(LED2-Pad2)*%
X39573960Y-72781180D02*
X43812760Y-68542380D01*
X30237360Y-72781180D02*
X39573960Y-72781180D01*
%TO.N,Net-(LED10-Pad2)*%
X98250031Y-91718380D02*
X100548181Y-94016530D01*
X100548181Y-94016530D02*
X100753982Y-94016530D01*
X87292560Y-91718380D02*
X98250031Y-91718380D01*
%TO.N,Net-(LED11-Pad2)*%
X81785760Y-33388780D02*
X81611220Y-33388780D01*
X68516690Y-34987510D02*
X68337360Y-34808180D01*
X80012490Y-34987510D02*
X68516690Y-34987510D01*
X81611220Y-33388780D02*
X80012490Y-34987510D01*
%TO.N,Net-(LED10-Pad4)*%
X80608350Y-94302590D02*
X81792560Y-93118380D01*
X25152970Y-94302590D02*
X80608350Y-94302590D01*
X24667960Y-93817580D02*
X25152970Y-94302590D01*
X24667960Y-93067580D02*
X24667960Y-93817580D01*
%TO.N,Net-(LED12-Pad4)*%
X80620360Y-53604180D02*
X81785760Y-52438780D01*
X68261160Y-53604180D02*
X80620360Y-53604180D01*
%TO.N,Net-(LED15-Pad4)*%
X106718362Y-35011380D02*
X106183360Y-35011380D01*
X110429762Y-38722780D02*
X106718362Y-35011380D01*
X119758760Y-38722780D02*
X110429762Y-38722780D01*
%TO.N,Net-(LED16-Pad2)*%
X117741570Y-57467980D02*
X119784160Y-57467980D01*
X113979370Y-53705780D02*
X117741570Y-57467980D01*
X106234160Y-53705780D02*
X113979370Y-53705780D01*
%TO.N,Net-(LED19-Pad4)*%
X125793762Y-37322780D02*
X125258760Y-37322780D01*
X126358760Y-37322780D02*
X125258760Y-37322780D01*
X128810979Y-39774999D02*
X126358760Y-37322780D01*
X138159179Y-39774999D02*
X128810979Y-39774999D01*
X138681760Y-40297580D02*
X138159179Y-39774999D01*
%TO.N,Net-(LED21-Pad4)*%
X144283360Y-57972980D02*
X147952980Y-57972980D01*
X147952980Y-57972980D02*
X147952980Y-61797020D01*
X147952980Y-61797020D02*
X146090000Y-63660000D01*
X138406338Y-63660000D02*
X132220000Y-69846338D01*
X146090000Y-63660000D02*
X138406338Y-63660000D01*
X132220000Y-69846338D02*
X132220000Y-75090000D01*
X125185140Y-75090000D02*
X125157160Y-75117980D01*
X132220000Y-75090000D02*
X125185140Y-75090000D01*
%TO.N,LLED_In*%
X156185360Y-58846980D02*
X154180000Y-56841620D01*
X154180000Y-49032020D02*
X151120760Y-45972780D01*
X154180000Y-56841620D02*
X154180000Y-49032020D01*
%TO.N,Net-(LED26-Pad2)*%
X347030220Y-53652440D02*
X349152440Y-53652440D01*
X349152440Y-53652440D02*
X349152440Y-53652440D01*
X349477840Y-72727840D02*
X349500000Y-72750000D01*
X346862580Y-72727840D02*
X349477840Y-72727840D01*
%TO.N,Net-(LED26-Pad4)*%
X334211918Y-48269140D02*
X340995218Y-55052440D01*
X340995218Y-55052440D02*
X341530220Y-55052440D01*
X327997180Y-48269140D02*
X334211918Y-48269140D01*
%TO.N,Net-(LED27-Pad2)*%
X329097180Y-67202300D02*
X327997180Y-67202300D01*
X336022720Y-74127840D02*
X329097180Y-67202300D01*
X341362580Y-74127840D02*
X336022720Y-74127840D01*
%TO.N,Net-(LED32-Pad4)*%
X297671310Y-31945600D02*
X301898330Y-36172620D01*
X301898330Y-36172620D02*
X303483560Y-36172620D01*
X290096120Y-31945600D02*
X297671310Y-31945600D01*
%TO.N,Net-(LED33-Pad2)*%
X294898782Y-55174360D02*
X290557462Y-50833040D01*
X290557462Y-50833040D02*
X290022460Y-50833040D01*
X303376880Y-55174360D02*
X294898782Y-55174360D01*
%TO.N,Net-(LED40-Pad4)*%
X264452520Y-37330400D02*
X265629120Y-36153800D01*
X252021520Y-37330400D02*
X264452520Y-37330400D01*
%TO.N,Net-(LED41-Pad2)*%
X264471120Y-56112200D02*
X252002920Y-56112200D01*
X265419120Y-55164200D02*
X264471120Y-56112200D01*
%TO.N,Net-(LED44-Pad4)*%
X246219720Y-39032200D02*
X246521520Y-38730400D01*
X232996920Y-39032200D02*
X246219720Y-39032200D01*
%TO.N,Net-(LED46-Pad4)*%
X227395320Y-60156000D02*
X228739320Y-61500000D01*
X227395320Y-59406000D02*
X227395320Y-60156000D01*
X228739320Y-61500000D02*
X241500000Y-61500000D01*
X241500000Y-61500000D02*
X241500000Y-61500000D01*
X244590600Y-76590600D02*
X244500000Y-76500000D01*
X246375920Y-76590600D02*
X244590600Y-76590600D01*
%TO.N,RLED_In*%
X212305519Y-42388799D02*
X220237439Y-42388799D01*
X201369921Y-53324397D02*
X212305519Y-42388799D01*
X220237439Y-42388799D02*
X220809380Y-42960740D01*
X201369921Y-57628799D02*
X201369921Y-53324397D01*
X200194920Y-58803800D02*
X201369921Y-57628799D01*
%TO.N,LCol1*%
X20351560Y-66419980D02*
X20351560Y-85469980D01*
X20351560Y-66419980D02*
X20351560Y-47420780D01*
X74740000Y-23080000D02*
X58910000Y-23080000D01*
X54570000Y-27420000D02*
X44736338Y-27420000D01*
X77550000Y-20270000D02*
X74740000Y-23080000D01*
X92050000Y-20270000D02*
X77550000Y-20270000D01*
X94280000Y-22500000D02*
X92050000Y-20270000D01*
X111710000Y-22500000D02*
X94280000Y-22500000D01*
X58910000Y-23080000D02*
X54570000Y-27420000D01*
X130420000Y-24100000D02*
X113310000Y-24100000D01*
X173900000Y-31650000D02*
X171700000Y-29450000D01*
X171399960Y-53766980D02*
X173900000Y-51266940D01*
X132680000Y-26360000D02*
X130420000Y-24100000D01*
X148570000Y-26360000D02*
X132680000Y-26360000D01*
X171700000Y-29450000D02*
X151660000Y-29450000D01*
X113310000Y-24100000D02*
X111710000Y-22500000D01*
X151660000Y-29450000D02*
X148570000Y-26360000D01*
X173900000Y-51266940D02*
X173900000Y-31650000D01*
X20351560Y-45920780D02*
X20351560Y-47420780D01*
X31347341Y-34924999D02*
X20351560Y-45920780D01*
X37231339Y-34924999D02*
X31347341Y-34924999D01*
X44736338Y-27420000D02*
X37231339Y-34924999D01*
%TO.N,LCol2*%
X39299960Y-44409960D02*
X39310000Y-44420000D01*
X39299960Y-41731180D02*
X39299960Y-44409960D01*
X39350760Y-60730380D02*
X38584999Y-59964619D01*
X39350760Y-57930760D02*
X39310000Y-57890000D01*
X39350760Y-60730380D02*
X39350760Y-57930760D01*
X39350760Y-60730380D02*
X39350760Y-63470760D01*
X39350760Y-63470760D02*
X39350760Y-63470760D01*
X39350760Y-79729580D02*
X39350760Y-76989240D01*
X40620000Y-53750000D02*
X40620000Y-53760000D01*
X109385619Y-38644381D02*
X111151238Y-40410000D01*
X63004381Y-38644381D02*
X109385619Y-38644381D01*
X61113761Y-40535001D02*
X63004381Y-38644381D01*
X56500010Y-41219990D02*
X57184999Y-40535001D01*
X129020000Y-41540000D02*
X135830000Y-41540000D01*
X56500010Y-46976400D02*
X56500010Y-41219990D01*
X111151238Y-40410000D02*
X127890000Y-40410000D01*
X57184999Y-40535001D02*
X61113761Y-40535001D01*
X49716410Y-53760000D02*
X56500010Y-46976400D01*
X127890000Y-40410000D02*
X129020000Y-41540000D01*
X40620000Y-53750000D02*
X49716410Y-53760000D01*
%TO.N,LCol3*%
X58349960Y-28472380D02*
X58349960Y-31000040D01*
X58349960Y-31000040D02*
X58349960Y-31019960D01*
X58349960Y-47420780D02*
X58349960Y-44180040D01*
X58349960Y-47420780D02*
X58349960Y-49939960D01*
X58349960Y-49939960D02*
X58349960Y-49939960D01*
X58349960Y-66419980D02*
X58349960Y-63429960D01*
X58349960Y-66419980D02*
X58349960Y-70610040D01*
X58349960Y-70610040D02*
X58349960Y-70610040D01*
X73200820Y-85419180D02*
X73090000Y-85530000D01*
X77349160Y-85419180D02*
X73200820Y-85419180D01*
X129343590Y-42500000D02*
X127703600Y-40860010D01*
X110964837Y-40860009D02*
X109199219Y-39094391D01*
X127703600Y-40860010D02*
X110964837Y-40860009D01*
X58349960Y-43935212D02*
X58349960Y-44180040D01*
X63190781Y-39094391D02*
X58349960Y-43935212D01*
X109199219Y-39094391D02*
X63190781Y-39094391D01*
X129343590Y-42500000D02*
X137000000Y-42500000D01*
%TO.N,LCol4*%
X77349160Y-25576780D02*
X77349160Y-27170840D01*
X77349160Y-27170840D02*
X76380000Y-28140000D01*
X76380000Y-28140000D02*
X76380000Y-28140000D01*
X77349160Y-42279160D02*
X76380000Y-41310000D01*
X77349160Y-44575980D02*
X77349160Y-42279160D01*
X77349160Y-44575980D02*
X77349160Y-46540840D01*
X77349160Y-46540840D02*
X76630000Y-47260000D01*
X76630000Y-47260000D02*
X76630000Y-47260000D01*
X77349160Y-60949160D02*
X76630000Y-60230000D01*
X77349160Y-63575180D02*
X77349160Y-60949160D01*
X77349160Y-63575180D02*
X77349160Y-65740840D01*
X77349160Y-65740840D02*
X76480000Y-66610000D01*
X76480000Y-66610000D02*
X76480000Y-66610000D01*
X97455090Y-80835090D02*
X96550000Y-79930000D01*
X97455090Y-85778314D02*
X97455090Y-80835090D01*
X127513590Y-41310019D02*
X110778436Y-41310018D01*
X129753571Y-43550000D02*
X127513590Y-41310019D01*
X110778436Y-41310018D02*
X109012819Y-39544401D01*
X109012819Y-39544401D02*
X78060000Y-39544401D01*
X78060000Y-39630000D02*
X76380000Y-41310000D01*
X78060000Y-39544401D02*
X78060000Y-39630000D01*
X129753571Y-43550000D02*
X136000000Y-43550000D01*
%TO.N,LCol5*%
X96348360Y-28472380D02*
X96348360Y-30071640D01*
X96348360Y-30071640D02*
X95710000Y-30710000D01*
X95710000Y-30710000D02*
X95710000Y-30710000D01*
X96348360Y-44678360D02*
X95710000Y-44040000D01*
X96348360Y-47420780D02*
X96348360Y-44678360D01*
X96348360Y-47420780D02*
X96350000Y-49820000D01*
X96350000Y-49820000D02*
X96348360Y-49818360D01*
X96348360Y-63471640D02*
X96350000Y-63470000D01*
X96348360Y-66419980D02*
X96348360Y-63471640D01*
X96348360Y-66419980D02*
X96330000Y-69740000D01*
X96330000Y-69740000D02*
X96348360Y-69721640D01*
X117399083Y-84950917D02*
X117540000Y-84810000D01*
X117399083Y-88418395D02*
X117399083Y-84950917D01*
X127327189Y-41760028D02*
X110592035Y-41760027D01*
X130067161Y-44500000D02*
X127327189Y-41760028D01*
X110592035Y-41760027D02*
X108826419Y-39994411D01*
X99755589Y-39994411D02*
X95710000Y-44040000D01*
X108826419Y-39994411D02*
X99755589Y-39994411D01*
X135380000Y-44500000D02*
X135880000Y-45000000D01*
X130067161Y-44500000D02*
X135380000Y-44500000D01*
%TO.N,LCol6*%
X115347560Y-30859980D02*
X115370000Y-33260000D01*
X115370000Y-33260000D02*
X115347560Y-33267560D01*
X115347560Y-46832440D02*
X115420000Y-46760000D01*
X115347560Y-49859180D02*
X115347560Y-46832440D01*
X115347560Y-49859180D02*
X115347560Y-52312440D01*
X115347560Y-52312440D02*
X115347560Y-52312440D01*
X115347560Y-65992440D02*
X115400000Y-65940000D01*
X115347560Y-68858380D02*
X115347560Y-65992440D01*
X115347560Y-68858380D02*
X115347560Y-71737560D01*
X115347560Y-71737560D02*
X115347560Y-71737560D01*
X136912769Y-88757231D02*
X137160000Y-88510000D01*
X136912769Y-93461548D02*
X136912769Y-88757231D01*
X129940000Y-45490000D02*
X128570000Y-44120000D01*
X118060000Y-44120000D02*
X115420000Y-46760000D01*
X128570000Y-44120000D02*
X118060000Y-44120000D01*
X134850000Y-45490000D02*
X135860000Y-46500000D01*
X129940000Y-45490000D02*
X134850000Y-45490000D01*
%TO.N,LCol7*%
X134346760Y-32637980D02*
X134346760Y-35023240D01*
X134346760Y-35023240D02*
X134346760Y-35023240D01*
X134346760Y-51637180D02*
X134346760Y-48506760D01*
X134346760Y-51637180D02*
X134346760Y-54173240D01*
X134346760Y-54173240D02*
X134346760Y-54173240D01*
X155699894Y-98180106D02*
X156250000Y-97630000D01*
X155699894Y-100692992D02*
X155699894Y-98180106D01*
X173499990Y-28999990D02*
X151846400Y-28999990D01*
X151846400Y-28999990D02*
X148246410Y-25400000D01*
X174400000Y-29900000D02*
X173499990Y-28999990D01*
X148246410Y-25400000D02*
X134400000Y-25400000D01*
X134400000Y-25400000D02*
X134400000Y-25400000D01*
X134346760Y-32637980D02*
X134346760Y-31153240D01*
X134346760Y-31153240D02*
X134900000Y-30600000D01*
X134900000Y-30600000D02*
X134900000Y-30600000D01*
%TO.N,LENCB*%
X133964160Y-75687180D02*
X138542820Y-75687180D01*
X145150000Y-69080000D02*
X150000000Y-69080000D01*
X138542820Y-75687180D02*
X145150000Y-69080000D01*
%TO.N,LENCA*%
X135289161Y-69362179D02*
X143337821Y-69362179D01*
X133964160Y-70687180D02*
X135289161Y-69362179D01*
X144800000Y-67900000D02*
X150000000Y-67900000D01*
X143337821Y-69362179D02*
X144800000Y-67900000D01*
%TO.N,RCol1*%
X337030120Y-47428400D02*
X337030120Y-49719880D01*
X337030120Y-49719880D02*
X337030120Y-49719880D01*
X337080920Y-66453000D02*
X335047000Y-66453000D01*
X335047000Y-66453000D02*
X335047000Y-66453000D01*
X337055520Y-85477600D02*
X335977600Y-85477600D01*
X335977600Y-85477600D02*
X335000000Y-84500000D01*
X335000000Y-84500000D02*
X335000000Y-84500000D01*
X215409520Y-53723800D02*
X218750000Y-50383320D01*
X218750000Y-50383320D02*
X218750000Y-48000000D01*
X218750000Y-48000000D02*
X226750000Y-48000000D01*
X226750000Y-48000000D02*
X226750000Y-48000000D01*
X239750000Y-41750000D02*
X241250000Y-40250000D01*
X277250000Y-40250000D02*
X278500000Y-39000000D01*
X241250000Y-40250000D02*
X277250000Y-40250000D01*
X325084307Y-39913799D02*
X328971719Y-43801211D01*
X331509318Y-47428400D02*
X337030120Y-47428400D01*
X328971719Y-43801211D02*
X328971719Y-44890801D01*
X315163799Y-39913799D02*
X325084307Y-39913799D01*
X314250000Y-39000000D02*
X315163799Y-39913799D01*
X328971719Y-44890801D02*
X331509318Y-47428400D01*
X278500000Y-39000000D02*
X314250000Y-39000000D01*
X229350000Y-41750000D02*
X228700000Y-42400000D01*
X239750000Y-41750000D02*
X229350000Y-41750000D01*
%TO.N,RCol2*%
X318081720Y-41738800D02*
X318081720Y-43168280D01*
X318081720Y-43168280D02*
X317500000Y-43750000D01*
X318081720Y-60788800D02*
X318081720Y-58831720D01*
X318081720Y-58831720D02*
X317500000Y-58250000D01*
X317500000Y-58250000D02*
X317500000Y-58250000D01*
X317500000Y-43750000D02*
X317500000Y-43750000D01*
X318081720Y-60788800D02*
X318081720Y-62918280D01*
X318081720Y-62918280D02*
X318081720Y-62918280D01*
X318081720Y-79788000D02*
X318081720Y-77331720D01*
X318081720Y-77331720D02*
X318081720Y-77331720D01*
X215409520Y-56263800D02*
X215409520Y-56188918D01*
X222848438Y-48750000D02*
X225500000Y-48750000D01*
X225500000Y-48750000D02*
X225500000Y-48750000D01*
X230500000Y-43000000D02*
X239143215Y-43000000D01*
X241250000Y-40893215D02*
X241250000Y-40886410D01*
X239143215Y-43000000D02*
X241250000Y-40893215D01*
X241436400Y-40700010D02*
X277436401Y-40700009D01*
X277436401Y-40700009D02*
X278686400Y-39450010D01*
X241250000Y-40886410D02*
X241436400Y-40700010D01*
X278686400Y-39450010D02*
X314063600Y-39450010D01*
X316706729Y-40363809D02*
X318081720Y-41738800D01*
X314977399Y-40363809D02*
X316706729Y-40363809D01*
X314063600Y-39450010D02*
X314977399Y-40363809D01*
X215409520Y-56263800D02*
X216634865Y-55038455D01*
X216634865Y-53134865D02*
X219200010Y-50569720D01*
X216634865Y-55038455D02*
X216634865Y-53134865D01*
X219200010Y-50569720D02*
X219200010Y-48799990D01*
X219250000Y-48750000D02*
X222848438Y-48750000D01*
X219200010Y-48799990D02*
X219250000Y-48750000D01*
%TO.N,RCol3*%
X299082520Y-28480000D02*
X299082520Y-30667480D01*
X299082520Y-30667480D02*
X299000000Y-30750000D01*
X299000000Y-30750000D02*
X299000000Y-30750000D01*
X299082520Y-47479200D02*
X299082520Y-45332520D01*
X299082520Y-45332520D02*
X299000000Y-45250000D01*
X299000000Y-45250000D02*
X299000000Y-45250000D01*
X299082520Y-47479200D02*
X299082520Y-49167480D01*
X299082520Y-49167480D02*
X298750000Y-49500000D01*
X298750000Y-49500000D02*
X298750000Y-49500000D01*
X299082520Y-66478400D02*
X299082520Y-64582520D01*
X299082520Y-64582520D02*
X298750000Y-64250000D01*
X298750000Y-64250000D02*
X298750000Y-64250000D01*
X299082520Y-66478400D02*
X299082520Y-68167480D01*
X299082520Y-68167480D02*
X298750000Y-68500000D01*
X298750000Y-68500000D02*
X298750000Y-68500000D01*
X280083320Y-85452200D02*
X280083320Y-83416680D01*
X280083320Y-83416680D02*
X280250000Y-83250000D01*
X280250000Y-83250000D02*
X280250000Y-83250000D01*
X294334284Y-59268599D02*
X298750000Y-63684315D01*
X298750000Y-63684315D02*
X298750000Y-64250000D01*
X272677919Y-59268599D02*
X294334284Y-59268599D01*
X269721517Y-62225001D02*
X272677919Y-59268599D01*
X218830721Y-62225001D02*
X269721517Y-62225001D01*
X215409520Y-58803800D02*
X218830721Y-62225001D01*
%TO.N,RCol4*%
X280083320Y-25635200D02*
X280083320Y-27666680D01*
X280083320Y-27666680D02*
X279750000Y-28000000D01*
X279750000Y-28000000D02*
X279750000Y-28000000D01*
X280083320Y-44634400D02*
X280083320Y-42833320D01*
X280083320Y-42833320D02*
X279750000Y-42500000D01*
X279750000Y-42500000D02*
X279750000Y-42500000D01*
X280083320Y-44634400D02*
X280083320Y-46416680D01*
X280083320Y-46416680D02*
X279750000Y-46750000D01*
X279750000Y-46750000D02*
X279750000Y-46750000D01*
X280083320Y-63633600D02*
X280083320Y-61833320D01*
X280083320Y-61833320D02*
X279750000Y-61500000D01*
X279750000Y-61500000D02*
X279750000Y-61500000D01*
X280083320Y-63633600D02*
X280083320Y-65166680D01*
X280083320Y-65166680D02*
X279750000Y-65500000D01*
X279750000Y-65500000D02*
X279750000Y-65500000D01*
X260048762Y-87489959D02*
X260048762Y-85048762D01*
X260048762Y-85048762D02*
X260048762Y-85048762D01*
X277997599Y-67252401D02*
X279750000Y-65500000D01*
X271322119Y-67252401D02*
X277997599Y-67252401D01*
X267132117Y-63062399D02*
X271322119Y-67252401D01*
X217128119Y-63062399D02*
X267132117Y-63062399D01*
X215409520Y-61343800D02*
X217128119Y-63062399D01*
%TO.N,RCol5*%
X261084120Y-28480000D02*
X261084120Y-30665880D01*
X261084120Y-30665880D02*
X260750000Y-31000000D01*
X260750000Y-31000000D02*
X260750000Y-31000000D01*
X261084120Y-47428400D02*
X261084120Y-45084120D01*
X261084120Y-45084120D02*
X260750000Y-44750000D01*
X260750000Y-44750000D02*
X260750000Y-44750000D01*
X261084120Y-47428400D02*
X261084120Y-49165880D01*
X261084120Y-49165880D02*
X260750000Y-49500000D01*
X260750000Y-49500000D02*
X260750000Y-49500000D01*
X261084120Y-66478400D02*
X261084120Y-64584120D01*
X261084120Y-64584120D02*
X260750000Y-64250000D01*
X260750000Y-64250000D02*
X260750000Y-64250000D01*
X261084120Y-66478400D02*
X261084120Y-67915880D01*
X261084120Y-67915880D02*
X260500000Y-68500000D01*
X260500000Y-68500000D02*
X260500000Y-68500000D01*
X240393763Y-91760683D02*
X240393763Y-89606237D01*
X240393763Y-89606237D02*
X240393763Y-89606237D01*
X260383800Y-63883800D02*
X260750000Y-64250000D01*
X215409520Y-63883800D02*
X260383800Y-63883800D01*
%TO.N,RCol6*%
X242084920Y-30867600D02*
X242084920Y-32665080D01*
X242084920Y-32665080D02*
X241750000Y-33000000D01*
X241750000Y-33000000D02*
X241750000Y-33000000D01*
X242084920Y-49866800D02*
X242084920Y-48084920D01*
X242084920Y-48084920D02*
X241750000Y-47750000D01*
X241750000Y-47750000D02*
X241750000Y-47750000D01*
X242084920Y-49866800D02*
X242084920Y-52834920D01*
X242084920Y-52834920D02*
X242250000Y-53000000D01*
X242250000Y-53000000D02*
X242250000Y-53000000D01*
X242084920Y-68866000D02*
X242084920Y-66665080D01*
X242084920Y-66665080D02*
X242250000Y-66500000D01*
X242250000Y-66500000D02*
X242250000Y-66500000D01*
X221374267Y-95868575D02*
X221374267Y-98340993D01*
X242084920Y-75157922D02*
X221374267Y-95868575D01*
X242084920Y-68866000D02*
X242084920Y-75157922D01*
X242041379Y-66291379D02*
X242250000Y-66500000D01*
X228280859Y-66291379D02*
X242041379Y-66291379D01*
X226322237Y-68250001D02*
X228280859Y-66291379D01*
X217235721Y-68250001D02*
X226322237Y-68250001D01*
X215409520Y-66423800D02*
X217235721Y-68250001D01*
%TO.N,RCol7*%
X223085720Y-32645600D02*
X223085720Y-34914280D01*
X223085720Y-34914280D02*
X223085720Y-34914280D01*
X223085720Y-51644800D02*
X223085720Y-49585720D01*
X223085720Y-49585720D02*
X223085720Y-49585720D01*
X223085720Y-51644800D02*
X223085720Y-53664280D01*
X223085720Y-53664280D02*
X223085720Y-53664280D01*
X203243513Y-107092862D02*
X202250000Y-106099349D01*
X202250000Y-106099349D02*
X202250000Y-104750000D01*
X202250000Y-104750000D02*
X202250000Y-104750000D01*
X222162100Y-75716380D02*
X223140860Y-75716380D01*
X218735720Y-53664280D02*
X218700000Y-53700000D01*
X223085720Y-53664280D02*
X218735720Y-53664280D01*
%TO.N,RENCA*%
X216259519Y-77433799D02*
X224066201Y-77433799D01*
X215409520Y-76583800D02*
X216259519Y-77433799D01*
X224066201Y-77433799D02*
X225750000Y-75750000D01*
X225750000Y-75750000D02*
X225750000Y-75750000D01*
%TO.N,RENCB*%
X235055858Y-70716380D02*
X237640860Y-70716380D01*
X226648438Y-79123800D02*
X235055858Y-70716380D01*
X215409520Y-79123800D02*
X226648438Y-79123800D01*
%TO.N,Net-(D5-Pad2)*%
X62761160Y-87342380D02*
X59299760Y-90803780D01*
X62761160Y-74104980D02*
X62761160Y-87342380D01*
%TO.N,Net-(D9-Pad4)*%
X88561782Y-31988780D02*
X87285760Y-31988780D01*
X89725001Y-33151999D02*
X88561782Y-31988780D01*
X89725001Y-33848001D02*
X89725001Y-33151999D01*
X89550000Y-34023002D02*
X89725001Y-33848001D01*
X89550000Y-34619380D02*
X89550000Y-34023002D01*
%TO.N,Net-(D9-Pad2)*%
X99275360Y-37819380D02*
X100683360Y-36411380D01*
X94450000Y-37819380D02*
X99275360Y-37819380D01*
%TO.N,Net-(D22-Pad2)*%
X163263161Y-96291381D02*
X159807560Y-92835780D01*
X163263161Y-109107941D02*
X163263161Y-96291381D01*
X161678255Y-110692847D02*
X163263161Y-109107941D01*
%TO.N,Net-(D51-Pad2)*%
X308983560Y-34772620D02*
X314727380Y-34772620D01*
X314727380Y-34772620D02*
X314727380Y-34772620D01*
X316905060Y-30844940D02*
X316750000Y-31000000D01*
X318665420Y-30844940D02*
X316905060Y-30844940D01*
%TO.N,Net-(D56-Pad2)*%
X312208740Y-74677980D02*
X312208740Y-87481860D01*
X310325680Y-72794920D02*
X312208740Y-74677980D01*
X309225680Y-72794920D02*
X310325680Y-72794920D01*
%TO.N,Net-(D61-Pad2)*%
X274038460Y-72636400D02*
X275579400Y-74177340D01*
X270893720Y-72636400D02*
X274038460Y-72636400D01*
%TO.N,Net-(D62-Pad2)*%
X208339319Y-92773881D02*
X211614580Y-89498620D01*
X208339319Y-109318191D02*
X208339319Y-92773881D01*
X208339319Y-109318191D02*
X207681809Y-109318191D01*
X207681809Y-109318191D02*
X205200000Y-111800000D01*
X205200000Y-111800000D02*
X205200000Y-113700000D01*
X205200000Y-113700000D02*
X207500000Y-116000000D01*
X207500000Y-116000000D02*
X209400000Y-116000000D01*
X209400000Y-116000000D02*
X211500000Y-113900000D01*
X211500000Y-112730275D02*
X210680272Y-111910547D01*
X211500000Y-113900000D02*
X211500000Y-112730275D01*
%TO.N,Net-(LED3-Pad4)*%
X37642420Y-91667580D02*
X30167960Y-91667580D01*
X39529960Y-91667580D02*
X37642420Y-91667580D01*
X43794160Y-87403380D02*
X39529960Y-91667580D01*
%TO.N,Net-(LED5-Pad2)*%
X62761160Y-55754180D02*
X62761160Y-55004180D01*
X51372960Y-67142380D02*
X62761160Y-55754180D01*
X49312760Y-67142380D02*
X51372960Y-67142380D01*
%TO.N,Net-(LED13-Pad2)*%
X81836560Y-71260180D02*
X81836560Y-71663440D01*
X70053650Y-70912490D02*
X68261160Y-72704980D01*
X81488870Y-70912490D02*
X70053650Y-70912490D01*
X81836560Y-71260180D02*
X81488870Y-70912490D01*
%TO.N,Net-(LED12-Pad2)*%
X98979370Y-55105780D02*
X100734160Y-55105780D01*
X94912370Y-51038780D02*
X98979370Y-55105780D01*
X87285760Y-51038780D02*
X94912370Y-51038780D01*
%TO.N,Net-(LED14-Pad2)*%
X106379760Y-93267780D02*
X111497780Y-93267780D01*
X115097416Y-96867416D02*
X119823803Y-96867416D01*
X111497780Y-93267780D02*
X115097416Y-96867416D01*
%TO.N,Net-(LED17-Pad4)*%
X106801362Y-72693780D02*
X106266360Y-72693780D01*
X110625562Y-76517980D02*
X106801362Y-72693780D01*
X119657160Y-76517980D02*
X110625562Y-76517980D01*
%TO.N,Net-(LED18-Pad2)*%
X125498517Y-96780144D02*
X128570144Y-96780144D01*
X133842809Y-102052809D02*
X138176391Y-102052809D01*
X128570144Y-96780144D02*
X133842809Y-102052809D01*
%TO.N,Net-(LED20-Pad2)*%
X135036570Y-59372980D02*
X138783360Y-59372980D01*
X131731570Y-56067980D02*
X135036570Y-59372980D01*
X125284160Y-56067980D02*
X131731570Y-56067980D01*
%TO.N,Net-(LED22-Pad2)*%
X143823529Y-102618351D02*
X145478351Y-102618351D01*
X152332313Y-109472313D02*
X156135665Y-109472313D01*
X145478351Y-102618351D02*
X152332313Y-109472313D01*
%TO.N,Net-(LED28-Pad4)*%
X340925818Y-93077740D02*
X341460820Y-93077740D01*
X340049258Y-93077740D02*
X341460820Y-93077740D01*
X333145078Y-86173560D02*
X340049258Y-93077740D01*
X327959080Y-86173560D02*
X333145078Y-86173560D01*
%TO.N,Net-(LED28-Pad2)*%
X346960820Y-91677740D02*
X346960820Y-90289180D01*
X292421360Y-91828640D02*
X292500000Y-91750000D01*
X289943720Y-91828640D02*
X292421360Y-91828640D01*
%TO.N,Net-(LED30-Pad2)*%
X318936800Y-68162490D02*
X322057370Y-68162490D01*
X318349990Y-66749990D02*
X318349990Y-67575680D01*
X318349990Y-67575680D02*
X318936800Y-68162490D01*
X310051881Y-58451881D02*
X318349990Y-66749990D01*
X310051881Y-54414359D02*
X310051881Y-58451881D01*
X309411882Y-53774360D02*
X310051881Y-54414359D01*
X322057370Y-68162490D02*
X322497180Y-68602300D01*
X308876880Y-53774360D02*
X309411882Y-53774360D01*
%TO.N,Net-(LED34-Pad4)*%
X301871430Y-74194920D02*
X303725680Y-74194920D01*
X297605270Y-69928760D02*
X301871430Y-74194920D01*
X289943720Y-69928760D02*
X297605270Y-69928760D01*
%TO.N,Net-(LED35-Pad2)*%
X283622350Y-94050010D02*
X284443720Y-93228640D01*
X277977008Y-94050010D02*
X283622350Y-94050010D01*
X276399694Y-92472696D02*
X277977008Y-94050010D01*
X270628170Y-92472696D02*
X276399694Y-92472696D01*
%TO.N,Net-(LED37-Pad2)*%
X282991300Y-53764200D02*
X270919120Y-53764200D01*
X284522460Y-52233040D02*
X282991300Y-53764200D01*
%TO.N,Net-(LED39-Pad2)*%
X264283884Y-95550010D02*
X265329070Y-94504824D01*
X252476637Y-95550010D02*
X264283884Y-95550010D01*
X252475337Y-95548710D02*
X252476637Y-95550010D01*
X251601550Y-95548710D02*
X252475337Y-95548710D01*
%TO.N,Net-(LED42-Pad4)*%
X264239520Y-75190600D02*
X265393720Y-74036400D01*
X251875920Y-75190600D02*
X264239520Y-75190600D01*
%TO.N,Net-(LED43-Pad2)*%
X243937340Y-100823600D02*
X246575730Y-98185210D01*
X232822801Y-100823600D02*
X243937340Y-100823600D01*
%TO.N,Net-(LED45-Pad2)*%
X233389120Y-57512200D02*
X232895320Y-58006000D01*
X246502920Y-57512200D02*
X233389120Y-57512200D01*
%TO.N,Net-(LED47-Pad2)*%
X223965026Y-108188573D02*
X214964768Y-108188573D01*
X228133319Y-104020280D02*
X223965026Y-108188573D01*
%TD*%
M02*
