%TF.GenerationSoftware,KiCad,Pcbnew,(5.1.9-0-10_14)*%
%TF.CreationDate,2021-03-29T23:19:48+01:00*%
%TF.ProjectId,peautkb,70656175-746b-4622-9e6b-696361645f70,rev?*%
%TF.SameCoordinates,Original*%
%TF.FileFunction,Legend,Top*%
%TF.FilePolarity,Positive*%
%FSLAX46Y46*%
G04 Gerber Fmt 4.6, Leading zero omitted, Abs format (unit mm)*
G04 Created by KiCad (PCBNEW (5.1.9-0-10_14)) date 2021-03-29 23:19:48*
%MOMM*%
%LPD*%
G01*
G04 APERTURE LIST*
%ADD10C,0.150000*%
%ADD11C,0.120000*%
G04 APERTURE END LIST*
D10*
X207252380Y-70019047D02*
X207966666Y-70019047D01*
X208109523Y-70066666D01*
X208204761Y-70161904D01*
X208252380Y-70304761D01*
X208252380Y-70400000D01*
X208252380Y-69066666D02*
X208252380Y-69542857D01*
X207252380Y-69542857D01*
X208157142Y-68161904D02*
X208204761Y-68209523D01*
X208252380Y-68352380D01*
X208252380Y-68447619D01*
X208204761Y-68590476D01*
X208109523Y-68685714D01*
X208014285Y-68733333D01*
X207823809Y-68780952D01*
X207680952Y-68780952D01*
X207490476Y-68733333D01*
X207395238Y-68685714D01*
X207300000Y-68590476D01*
X207252380Y-68447619D01*
X207252380Y-68352380D01*
X207300000Y-68209523D01*
X207347619Y-68161904D01*
X207252380Y-67447619D02*
X207966666Y-67447619D01*
X208109523Y-67495238D01*
X208204761Y-67590476D01*
X208252380Y-67733333D01*
X208252380Y-67828571D01*
X208252380Y-66495238D02*
X208252380Y-66971428D01*
X207252380Y-66971428D01*
X208157142Y-65590476D02*
X208204761Y-65638095D01*
X208252380Y-65780952D01*
X208252380Y-65876190D01*
X208204761Y-66019047D01*
X208109523Y-66114285D01*
X208014285Y-66161904D01*
X207823809Y-66209523D01*
X207680952Y-66209523D01*
X207490476Y-66161904D01*
X207395238Y-66114285D01*
X207300000Y-66019047D01*
X207252380Y-65876190D01*
X207252380Y-65780952D01*
X207300000Y-65638095D01*
X207347619Y-65590476D01*
X207252380Y-64876190D02*
X207966666Y-64876190D01*
X208109523Y-64923809D01*
X208204761Y-65019047D01*
X208252380Y-65161904D01*
X208252380Y-65257142D01*
X208252380Y-63923809D02*
X208252380Y-64400000D01*
X207252380Y-64400000D01*
X208157142Y-63019047D02*
X208204761Y-63066666D01*
X208252380Y-63209523D01*
X208252380Y-63304761D01*
X208204761Y-63447619D01*
X208109523Y-63542857D01*
X208014285Y-63590476D01*
X207823809Y-63638095D01*
X207680952Y-63638095D01*
X207490476Y-63590476D01*
X207395238Y-63542857D01*
X207300000Y-63447619D01*
X207252380Y-63304761D01*
X207252380Y-63209523D01*
X207300000Y-63066666D01*
X207347619Y-63019047D01*
X207252380Y-62304761D02*
X207966666Y-62304761D01*
X208109523Y-62352380D01*
X208204761Y-62447619D01*
X208252380Y-62590476D01*
X208252380Y-62685714D01*
X208252380Y-61352380D02*
X208252380Y-61828571D01*
X207252380Y-61828571D01*
X208157142Y-60447619D02*
X208204761Y-60495238D01*
X208252380Y-60638095D01*
X208252380Y-60733333D01*
X208204761Y-60876190D01*
X208109523Y-60971428D01*
X208014285Y-61019047D01*
X207823809Y-61066666D01*
X207680952Y-61066666D01*
X207490476Y-61019047D01*
X207395238Y-60971428D01*
X207300000Y-60876190D01*
X207252380Y-60733333D01*
X207252380Y-60638095D01*
X207300000Y-60495238D01*
X207347619Y-60447619D01*
%TO.C,J1*%
X178167160Y-75266180D02*
X175867160Y-75266180D01*
X175867160Y-65366180D02*
X178167160Y-65366180D01*
X175867160Y-75266180D02*
X175867160Y-65366180D01*
X178167160Y-75266180D02*
X178167160Y-65366180D01*
%TO.C,J2*%
X177298317Y-94346866D02*
X174602403Y-99707094D01*
X174602403Y-99707094D02*
X163881946Y-94315266D01*
X163881946Y-94315266D02*
X166577860Y-88955038D01*
X166577860Y-88955038D02*
X177298317Y-94346866D01*
%TO.C,J3*%
X193917920Y-65277600D02*
X193917920Y-75177600D01*
X196217920Y-65277600D02*
X196217920Y-75177600D01*
X196217920Y-75177600D02*
X193917920Y-75177600D01*
X193917920Y-65277600D02*
X196217920Y-65277600D01*
%TO.C,J4*%
X206882334Y-92773486D02*
X196161877Y-98165314D01*
X204186420Y-87413258D02*
X206882334Y-92773486D01*
X193465963Y-92805086D02*
X204186420Y-87413258D01*
X196161877Y-98165314D02*
X193465963Y-92805086D01*
D11*
%TO.C,SW28*%
X144464160Y-73187180D02*
G75*
G03*
X144464160Y-73187180I-3000000J0D01*
G01*
X143464160Y-67287180D02*
X147564160Y-67287180D01*
X147564160Y-79087180D02*
X143464160Y-79087180D01*
X139464160Y-79087180D02*
X135364160Y-79087180D01*
X139464160Y-67287180D02*
X135364160Y-67287180D01*
X135364160Y-67287180D02*
X135364160Y-79087180D01*
X133964160Y-69387180D02*
X133664160Y-69087180D01*
X133664160Y-69087180D02*
X134264160Y-69087180D01*
X134264160Y-69087180D02*
X133964160Y-69387180D01*
X147564160Y-67287180D02*
X147564160Y-69687180D01*
X147564160Y-71887180D02*
X147564160Y-74487180D01*
X147564160Y-76687180D02*
X147564160Y-79087180D01*
X141464160Y-72687180D02*
X141464160Y-73687180D01*
X140964160Y-73187180D02*
X141964160Y-73187180D01*
%TO.C,SW57*%
X230640860Y-73216380D02*
X229640860Y-73216380D01*
X230140860Y-73716380D02*
X230140860Y-72716380D01*
X224040860Y-69716380D02*
X224040860Y-67316380D01*
X224040860Y-74516380D02*
X224040860Y-71916380D01*
X224040860Y-79116380D02*
X224040860Y-76716380D01*
X237340860Y-77316380D02*
X237640860Y-77016380D01*
X237940860Y-77316380D02*
X237340860Y-77316380D01*
X237640860Y-77016380D02*
X237940860Y-77316380D01*
X236240860Y-79116380D02*
X236240860Y-67316380D01*
X232140860Y-79116380D02*
X236240860Y-79116380D01*
X232140860Y-67316380D02*
X236240860Y-67316380D01*
X224040860Y-67316380D02*
X228140860Y-67316380D01*
X228140860Y-79116380D02*
X224040860Y-79116380D01*
X233140860Y-73216380D02*
G75*
G03*
X233140860Y-73216380I-3000000J0D01*
G01*
%TO.C,U1*%
X166660360Y-33246980D02*
X161260360Y-33246980D01*
X166660360Y-31621980D02*
X166660360Y-33246980D01*
X161260360Y-31621980D02*
X166660360Y-31621980D01*
X161260360Y-33246980D02*
X161260360Y-31621980D01*
X157515360Y-32116980D02*
X157515360Y-33446980D01*
X154855360Y-34716980D02*
X157515360Y-34716980D01*
X157515360Y-34716980D02*
X157515360Y-83036980D01*
X156185360Y-32116980D02*
X157515360Y-32116980D01*
X154855360Y-83036980D02*
X157515360Y-83036980D01*
X154855360Y-34716980D02*
X154855360Y-83036980D01*
X172729960Y-34716980D02*
X172729960Y-83036980D01*
X171399960Y-32116980D02*
X172729960Y-32116980D01*
X170069960Y-83036980D02*
X172729960Y-83036980D01*
X172729960Y-32116980D02*
X172729960Y-33446980D01*
X170069960Y-34716980D02*
X172729960Y-34716980D01*
X170069960Y-34716980D02*
X170069960Y-83036980D01*
%TO.C,U2*%
X214079520Y-34673800D02*
X214079520Y-82993800D01*
X214079520Y-34673800D02*
X216739520Y-34673800D01*
X216739520Y-32073800D02*
X216739520Y-33403800D01*
X214079520Y-82993800D02*
X216739520Y-82993800D01*
X215409520Y-32073800D02*
X216739520Y-32073800D01*
X216739520Y-34673800D02*
X216739520Y-82993800D01*
X198864920Y-34673800D02*
X198864920Y-82993800D01*
X198864920Y-82993800D02*
X201524920Y-82993800D01*
X200194920Y-32073800D02*
X201524920Y-32073800D01*
X201524920Y-34673800D02*
X201524920Y-82993800D01*
X198864920Y-34673800D02*
X201524920Y-34673800D01*
X201524920Y-32073800D02*
X201524920Y-33403800D01*
X205269920Y-33203800D02*
X205269920Y-31578800D01*
X205269920Y-31578800D02*
X210669920Y-31578800D01*
X210669920Y-31578800D02*
X210669920Y-33203800D01*
X210669920Y-33203800D02*
X205269920Y-33203800D01*
%TO.C,J1*%
D10*
X174369540Y-71768560D02*
X174369540Y-71578084D01*
X174417160Y-71482846D01*
X174512398Y-71387608D01*
X174702874Y-71339989D01*
X175036207Y-71339989D01*
X175226683Y-71387608D01*
X175321921Y-71482846D01*
X175369540Y-71578084D01*
X175369540Y-71768560D01*
X175321921Y-71863799D01*
X175226683Y-71959037D01*
X175036207Y-72006656D01*
X174702874Y-72006656D01*
X174512398Y-71959037D01*
X174417160Y-71863799D01*
X174369540Y-71768560D01*
X175369540Y-70435227D02*
X175369540Y-70911418D01*
X174369540Y-70911418D01*
X174845731Y-70101894D02*
X174845731Y-69768560D01*
X175369540Y-69625703D02*
X175369540Y-70101894D01*
X174369540Y-70101894D01*
X174369540Y-69625703D01*
X175369540Y-69197132D02*
X174369540Y-69197132D01*
X174369540Y-68959037D01*
X174417160Y-68816180D01*
X174512398Y-68720941D01*
X174607636Y-68673322D01*
X174798112Y-68625703D01*
X174940969Y-68625703D01*
X175131445Y-68673322D01*
X175226683Y-68720941D01*
X175321921Y-68816180D01*
X175369540Y-68959037D01*
X175369540Y-69197132D01*
%TO.C,J2*%
X169244219Y-94786823D02*
X169500973Y-94276325D01*
X170265967Y-94980893D02*
X169372596Y-94531574D01*
X170800871Y-93917356D02*
X170225683Y-94001185D01*
X170544117Y-94427854D02*
X169650746Y-93978535D01*
X169821915Y-93638203D01*
X169907249Y-93574516D01*
X169971186Y-93553371D01*
X170077665Y-93553621D01*
X170205290Y-93617810D01*
X170268977Y-93703144D01*
X170290122Y-93767081D01*
X170289871Y-93873560D01*
X170118702Y-94213892D01*
X171250190Y-93023984D02*
X170675002Y-93107813D01*
X170993436Y-93534482D02*
X170100065Y-93085163D01*
X170271234Y-92744831D01*
X170356568Y-92681145D01*
X170420505Y-92659999D01*
X170526984Y-92660250D01*
X170654609Y-92724438D01*
X170718296Y-92809772D01*
X170739441Y-92873710D01*
X170739190Y-92980189D01*
X170568021Y-93320521D01*
X171378817Y-92662256D02*
X171485547Y-92556028D01*
X171592528Y-92343321D01*
X171592779Y-92236841D01*
X171571634Y-92172904D01*
X171507947Y-92087570D01*
X171422864Y-92044778D01*
X171316385Y-92044527D01*
X171252447Y-92065672D01*
X171167113Y-92129359D01*
X171038987Y-92278129D01*
X170953653Y-92341816D01*
X170889716Y-92362961D01*
X170783237Y-92362710D01*
X170698154Y-92319918D01*
X170634467Y-92234584D01*
X170613321Y-92170647D01*
X170613572Y-92064168D01*
X170720553Y-91851460D01*
X170827283Y-91745232D01*
%TO.C,J3*%
X196620300Y-71679980D02*
X196620300Y-71489504D01*
X196667920Y-71394266D01*
X196763158Y-71299028D01*
X196953634Y-71251409D01*
X197286967Y-71251409D01*
X197477443Y-71299028D01*
X197572681Y-71394266D01*
X197620300Y-71489504D01*
X197620300Y-71679980D01*
X197572681Y-71775219D01*
X197477443Y-71870457D01*
X197286967Y-71918076D01*
X196953634Y-71918076D01*
X196763158Y-71870457D01*
X196667920Y-71775219D01*
X196620300Y-71679980D01*
X197620300Y-70346647D02*
X197620300Y-70822838D01*
X196620300Y-70822838D01*
X197096491Y-70013314D02*
X197096491Y-69679980D01*
X197620300Y-69537123D02*
X197620300Y-70013314D01*
X196620300Y-70013314D01*
X196620300Y-69537123D01*
X197620300Y-69108552D02*
X196620300Y-69108552D01*
X196620300Y-68870457D01*
X196667920Y-68727600D01*
X196763158Y-68632361D01*
X196858396Y-68584742D01*
X197048872Y-68537123D01*
X197191729Y-68537123D01*
X197382205Y-68584742D01*
X197477443Y-68632361D01*
X197572681Y-68727600D01*
X197620300Y-68870457D01*
X197620300Y-69108552D01*
%TO.C,J4*%
X200610724Y-91437030D02*
X200867478Y-91947527D01*
X199845730Y-92141598D02*
X200739101Y-91692279D01*
X200380633Y-93205135D02*
X200656275Y-92693383D01*
X200123880Y-92694637D02*
X201017251Y-92245318D01*
X201188420Y-92585650D01*
X201188671Y-92692129D01*
X201167526Y-92756067D01*
X201103839Y-92841400D01*
X200976214Y-92905589D01*
X200869735Y-92905840D01*
X200805798Y-92884694D01*
X200720464Y-92821007D01*
X200549295Y-92480676D01*
X200829952Y-94098506D02*
X201105594Y-93586754D01*
X200573199Y-93588008D02*
X201466570Y-93138689D01*
X201637739Y-93479021D01*
X201637990Y-93585500D01*
X201616845Y-93649438D01*
X201553158Y-93734772D01*
X201425533Y-93798960D01*
X201319054Y-93799211D01*
X201255117Y-93778066D01*
X201169783Y-93714379D01*
X200998614Y-93374047D01*
X201043663Y-94417442D02*
X201065310Y-94566463D01*
X201172291Y-94779170D01*
X201257625Y-94842857D01*
X201321562Y-94864002D01*
X201428041Y-94863752D01*
X201513124Y-94820959D01*
X201576811Y-94735626D01*
X201597956Y-94671688D01*
X201597706Y-94565209D01*
X201554663Y-94373647D01*
X201554412Y-94267168D01*
X201575557Y-94203230D01*
X201639244Y-94117896D01*
X201724327Y-94075104D01*
X201830806Y-94074853D01*
X201894744Y-94095998D01*
X201980078Y-94159685D01*
X202087058Y-94372393D01*
X202108705Y-94521413D01*
%TO.C,SW28*%
X134954636Y-66391941D02*
X135097493Y-66439560D01*
X135335588Y-66439560D01*
X135430826Y-66391941D01*
X135478445Y-66344322D01*
X135526064Y-66249084D01*
X135526064Y-66153846D01*
X135478445Y-66058608D01*
X135430826Y-66010989D01*
X135335588Y-65963370D01*
X135145112Y-65915751D01*
X135049874Y-65868132D01*
X135002255Y-65820513D01*
X134954636Y-65725275D01*
X134954636Y-65630037D01*
X135002255Y-65534799D01*
X135049874Y-65487180D01*
X135145112Y-65439560D01*
X135383207Y-65439560D01*
X135526064Y-65487180D01*
X135859398Y-65439560D02*
X136097493Y-66439560D01*
X136287969Y-65725275D01*
X136478445Y-66439560D01*
X136716540Y-65439560D01*
X137049874Y-65534799D02*
X137097493Y-65487180D01*
X137192731Y-65439560D01*
X137430826Y-65439560D01*
X137526064Y-65487180D01*
X137573683Y-65534799D01*
X137621302Y-65630037D01*
X137621302Y-65725275D01*
X137573683Y-65868132D01*
X137002255Y-66439560D01*
X137621302Y-66439560D01*
X138192731Y-65868132D02*
X138097493Y-65820513D01*
X138049874Y-65772894D01*
X138002255Y-65677656D01*
X138002255Y-65630037D01*
X138049874Y-65534799D01*
X138097493Y-65487180D01*
X138192731Y-65439560D01*
X138383207Y-65439560D01*
X138478445Y-65487180D01*
X138526064Y-65534799D01*
X138573683Y-65630037D01*
X138573683Y-65677656D01*
X138526064Y-65772894D01*
X138478445Y-65820513D01*
X138383207Y-65868132D01*
X138192731Y-65868132D01*
X138097493Y-65915751D01*
X138049874Y-65963370D01*
X138002255Y-66058608D01*
X138002255Y-66249084D01*
X138049874Y-66344322D01*
X138097493Y-66391941D01*
X138192731Y-66439560D01*
X138383207Y-66439560D01*
X138478445Y-66391941D01*
X138526064Y-66344322D01*
X138573683Y-66249084D01*
X138573683Y-66058608D01*
X138526064Y-65963370D01*
X138478445Y-65915751D01*
X138383207Y-65868132D01*
%TO.C,SW57*%
X233031336Y-80821141D02*
X233174193Y-80868760D01*
X233412288Y-80868760D01*
X233507526Y-80821141D01*
X233555145Y-80773522D01*
X233602764Y-80678284D01*
X233602764Y-80583046D01*
X233555145Y-80487808D01*
X233507526Y-80440189D01*
X233412288Y-80392570D01*
X233221812Y-80344951D01*
X233126574Y-80297332D01*
X233078955Y-80249713D01*
X233031336Y-80154475D01*
X233031336Y-80059237D01*
X233078955Y-79963999D01*
X233126574Y-79916380D01*
X233221812Y-79868760D01*
X233459907Y-79868760D01*
X233602764Y-79916380D01*
X233936098Y-79868760D02*
X234174193Y-80868760D01*
X234364669Y-80154475D01*
X234555145Y-80868760D01*
X234793240Y-79868760D01*
X235650383Y-79868760D02*
X235174193Y-79868760D01*
X235126574Y-80344951D01*
X235174193Y-80297332D01*
X235269431Y-80249713D01*
X235507526Y-80249713D01*
X235602764Y-80297332D01*
X235650383Y-80344951D01*
X235698002Y-80440189D01*
X235698002Y-80678284D01*
X235650383Y-80773522D01*
X235602764Y-80821141D01*
X235507526Y-80868760D01*
X235269431Y-80868760D01*
X235174193Y-80821141D01*
X235126574Y-80773522D01*
X236031336Y-79868760D02*
X236698002Y-79868760D01*
X236269431Y-80868760D01*
%TO.C,U1*%
X162223455Y-55824360D02*
X162223455Y-56633884D01*
X162271074Y-56729122D01*
X162318693Y-56776741D01*
X162413931Y-56824360D01*
X162604407Y-56824360D01*
X162699645Y-56776741D01*
X162747264Y-56729122D01*
X162794883Y-56633884D01*
X162794883Y-55824360D01*
X163794883Y-56824360D02*
X163223455Y-56824360D01*
X163509169Y-56824360D02*
X163509169Y-55824360D01*
X163413931Y-55967218D01*
X163318693Y-56062456D01*
X163223455Y-56110075D01*
X161579407Y-31974360D02*
X161579407Y-32783884D01*
X161627026Y-32879122D01*
X161674645Y-32926741D01*
X161769883Y-32974360D01*
X161960360Y-32974360D01*
X162055598Y-32926741D01*
X162103217Y-32879122D01*
X162150836Y-32783884D01*
X162150836Y-31974360D01*
X162579407Y-32926741D02*
X162722264Y-32974360D01*
X162960360Y-32974360D01*
X163055598Y-32926741D01*
X163103217Y-32879122D01*
X163150836Y-32783884D01*
X163150836Y-32688646D01*
X163103217Y-32593408D01*
X163055598Y-32545789D01*
X162960360Y-32498170D01*
X162769883Y-32450551D01*
X162674645Y-32402932D01*
X162627026Y-32355313D01*
X162579407Y-32260075D01*
X162579407Y-32164837D01*
X162627026Y-32069599D01*
X162674645Y-32021980D01*
X162769883Y-31974360D01*
X163007979Y-31974360D01*
X163150836Y-32021980D01*
X163912740Y-32450551D02*
X164055598Y-32498170D01*
X164103217Y-32545789D01*
X164150836Y-32641027D01*
X164150836Y-32783884D01*
X164103217Y-32879122D01*
X164055598Y-32926741D01*
X163960360Y-32974360D01*
X163579407Y-32974360D01*
X163579407Y-31974360D01*
X163912740Y-31974360D01*
X164007979Y-32021980D01*
X164055598Y-32069599D01*
X164103217Y-32164837D01*
X164103217Y-32260075D01*
X164055598Y-32355313D01*
X164007979Y-32402932D01*
X163912740Y-32450551D01*
X163579407Y-32450551D01*
X164579407Y-32593408D02*
X165341312Y-32593408D01*
X166388931Y-32879122D02*
X166341312Y-32926741D01*
X166198455Y-32974360D01*
X166103217Y-32974360D01*
X165960360Y-32926741D01*
X165865121Y-32831503D01*
X165817502Y-32736265D01*
X165769883Y-32545789D01*
X165769883Y-32402932D01*
X165817502Y-32212456D01*
X165865121Y-32117218D01*
X165960360Y-32021980D01*
X166103217Y-31974360D01*
X166198455Y-31974360D01*
X166341312Y-32021980D01*
X166388931Y-32069599D01*
X167702026Y-81299360D02*
X168035360Y-82299360D01*
X168368693Y-81299360D01*
X169035360Y-81775551D02*
X169178217Y-81823170D01*
X169225836Y-81870789D01*
X169273455Y-81966027D01*
X169273455Y-82108884D01*
X169225836Y-82204122D01*
X169178217Y-82251741D01*
X169082979Y-82299360D01*
X168702026Y-82299360D01*
X168702026Y-81299360D01*
X169035360Y-81299360D01*
X169130598Y-81346980D01*
X169178217Y-81394599D01*
X169225836Y-81489837D01*
X169225836Y-81585075D01*
X169178217Y-81680313D01*
X169130598Y-81727932D01*
X169035360Y-81775551D01*
X168702026Y-81775551D01*
X158222264Y-81299360D02*
X158841312Y-81299360D01*
X158507979Y-81680313D01*
X158650836Y-81680313D01*
X158746074Y-81727932D01*
X158793693Y-81775551D01*
X158841312Y-81870789D01*
X158841312Y-82108884D01*
X158793693Y-82204122D01*
X158746074Y-82251741D01*
X158650836Y-82299360D01*
X158365121Y-82299360D01*
X158269883Y-82251741D01*
X158222264Y-82204122D01*
X159127026Y-81299360D02*
X159460360Y-82299360D01*
X159793693Y-81299360D01*
X160031788Y-81299360D02*
X160650836Y-81299360D01*
X160317502Y-81680313D01*
X160460360Y-81680313D01*
X160555598Y-81727932D01*
X160603217Y-81775551D01*
X160650836Y-81870789D01*
X160650836Y-82108884D01*
X160603217Y-82204122D01*
X160555598Y-82251741D01*
X160460360Y-82299360D01*
X160174645Y-82299360D01*
X160079407Y-82251741D01*
X160031788Y-82204122D01*
X168344883Y-32899360D02*
X167868693Y-32899360D01*
X167821074Y-33375551D01*
X167868693Y-33327932D01*
X167963931Y-33280313D01*
X168202026Y-33280313D01*
X168297264Y-33327932D01*
X168344883Y-33375551D01*
X168392502Y-33470789D01*
X168392502Y-33708884D01*
X168344883Y-33804122D01*
X168297264Y-33851741D01*
X168202026Y-33899360D01*
X167963931Y-33899360D01*
X167868693Y-33851741D01*
X167821074Y-33804122D01*
X168678217Y-32899360D02*
X169011550Y-33899360D01*
X169344883Y-32899360D01*
X158579407Y-33450551D02*
X158722264Y-33498170D01*
X158769883Y-33545789D01*
X158817502Y-33641027D01*
X158817502Y-33783884D01*
X158769883Y-33879122D01*
X158722264Y-33926741D01*
X158627026Y-33974360D01*
X158246074Y-33974360D01*
X158246074Y-32974360D01*
X158579407Y-32974360D01*
X158674645Y-33021980D01*
X158722264Y-33069599D01*
X158769883Y-33164837D01*
X158769883Y-33260075D01*
X158722264Y-33355313D01*
X158674645Y-33402932D01*
X158579407Y-33450551D01*
X158246074Y-33450551D01*
X159769883Y-33974360D02*
X159198455Y-33974360D01*
X159484169Y-33974360D02*
X159484169Y-32974360D01*
X159388931Y-33117218D01*
X159293693Y-33212456D01*
X159198455Y-33260075D01*
X160150836Y-33069599D02*
X160198455Y-33021980D01*
X160293693Y-32974360D01*
X160531788Y-32974360D01*
X160627026Y-33021980D01*
X160674645Y-33069599D01*
X160722264Y-33164837D01*
X160722264Y-33260075D01*
X160674645Y-33402932D01*
X160103217Y-33974360D01*
X160722264Y-33974360D01*
%TO.C,U2*%
X206233015Y-55781180D02*
X206233015Y-56590704D01*
X206280634Y-56685942D01*
X206328253Y-56733561D01*
X206423491Y-56781180D01*
X206613967Y-56781180D01*
X206709205Y-56733561D01*
X206756824Y-56685942D01*
X206804443Y-56590704D01*
X206804443Y-55781180D01*
X207233015Y-55876419D02*
X207280634Y-55828800D01*
X207375872Y-55781180D01*
X207613967Y-55781180D01*
X207709205Y-55828800D01*
X207756824Y-55876419D01*
X207804443Y-55971657D01*
X207804443Y-56066895D01*
X207756824Y-56209752D01*
X207185396Y-56781180D01*
X207804443Y-56781180D01*
X202588967Y-33407371D02*
X202731824Y-33454990D01*
X202779443Y-33502609D01*
X202827062Y-33597847D01*
X202827062Y-33740704D01*
X202779443Y-33835942D01*
X202731824Y-33883561D01*
X202636586Y-33931180D01*
X202255634Y-33931180D01*
X202255634Y-32931180D01*
X202588967Y-32931180D01*
X202684205Y-32978800D01*
X202731824Y-33026419D01*
X202779443Y-33121657D01*
X202779443Y-33216895D01*
X202731824Y-33312133D01*
X202684205Y-33359752D01*
X202588967Y-33407371D01*
X202255634Y-33407371D01*
X203779443Y-33931180D02*
X203208015Y-33931180D01*
X203493729Y-33931180D02*
X203493729Y-32931180D01*
X203398491Y-33074038D01*
X203303253Y-33169276D01*
X203208015Y-33216895D01*
X204160396Y-33026419D02*
X204208015Y-32978800D01*
X204303253Y-32931180D01*
X204541348Y-32931180D01*
X204636586Y-32978800D01*
X204684205Y-33026419D01*
X204731824Y-33121657D01*
X204731824Y-33216895D01*
X204684205Y-33359752D01*
X204112777Y-33931180D01*
X204731824Y-33931180D01*
X212354443Y-32856180D02*
X211878253Y-32856180D01*
X211830634Y-33332371D01*
X211878253Y-33284752D01*
X211973491Y-33237133D01*
X212211586Y-33237133D01*
X212306824Y-33284752D01*
X212354443Y-33332371D01*
X212402062Y-33427609D01*
X212402062Y-33665704D01*
X212354443Y-33760942D01*
X212306824Y-33808561D01*
X212211586Y-33856180D01*
X211973491Y-33856180D01*
X211878253Y-33808561D01*
X211830634Y-33760942D01*
X212687777Y-32856180D02*
X213021110Y-33856180D01*
X213354443Y-32856180D01*
X202231824Y-81256180D02*
X202850872Y-81256180D01*
X202517539Y-81637133D01*
X202660396Y-81637133D01*
X202755634Y-81684752D01*
X202803253Y-81732371D01*
X202850872Y-81827609D01*
X202850872Y-82065704D01*
X202803253Y-82160942D01*
X202755634Y-82208561D01*
X202660396Y-82256180D01*
X202374681Y-82256180D01*
X202279443Y-82208561D01*
X202231824Y-82160942D01*
X203136586Y-81256180D02*
X203469920Y-82256180D01*
X203803253Y-81256180D01*
X204041348Y-81256180D02*
X204660396Y-81256180D01*
X204327062Y-81637133D01*
X204469920Y-81637133D01*
X204565158Y-81684752D01*
X204612777Y-81732371D01*
X204660396Y-81827609D01*
X204660396Y-82065704D01*
X204612777Y-82160942D01*
X204565158Y-82208561D01*
X204469920Y-82256180D01*
X204184205Y-82256180D01*
X204088967Y-82208561D01*
X204041348Y-82160942D01*
X211711586Y-81256180D02*
X212044920Y-82256180D01*
X212378253Y-81256180D01*
X213044920Y-81732371D02*
X213187777Y-81779990D01*
X213235396Y-81827609D01*
X213283015Y-81922847D01*
X213283015Y-82065704D01*
X213235396Y-82160942D01*
X213187777Y-82208561D01*
X213092539Y-82256180D01*
X212711586Y-82256180D01*
X212711586Y-81256180D01*
X213044920Y-81256180D01*
X213140158Y-81303800D01*
X213187777Y-81351419D01*
X213235396Y-81446657D01*
X213235396Y-81541895D01*
X213187777Y-81637133D01*
X213140158Y-81684752D01*
X213044920Y-81732371D01*
X212711586Y-81732371D01*
X205588967Y-31931180D02*
X205588967Y-32740704D01*
X205636586Y-32835942D01*
X205684205Y-32883561D01*
X205779443Y-32931180D01*
X205969920Y-32931180D01*
X206065158Y-32883561D01*
X206112777Y-32835942D01*
X206160396Y-32740704D01*
X206160396Y-31931180D01*
X206588967Y-32883561D02*
X206731824Y-32931180D01*
X206969920Y-32931180D01*
X207065158Y-32883561D01*
X207112777Y-32835942D01*
X207160396Y-32740704D01*
X207160396Y-32645466D01*
X207112777Y-32550228D01*
X207065158Y-32502609D01*
X206969920Y-32454990D01*
X206779443Y-32407371D01*
X206684205Y-32359752D01*
X206636586Y-32312133D01*
X206588967Y-32216895D01*
X206588967Y-32121657D01*
X206636586Y-32026419D01*
X206684205Y-31978800D01*
X206779443Y-31931180D01*
X207017539Y-31931180D01*
X207160396Y-31978800D01*
X207922300Y-32407371D02*
X208065158Y-32454990D01*
X208112777Y-32502609D01*
X208160396Y-32597847D01*
X208160396Y-32740704D01*
X208112777Y-32835942D01*
X208065158Y-32883561D01*
X207969920Y-32931180D01*
X207588967Y-32931180D01*
X207588967Y-31931180D01*
X207922300Y-31931180D01*
X208017539Y-31978800D01*
X208065158Y-32026419D01*
X208112777Y-32121657D01*
X208112777Y-32216895D01*
X208065158Y-32312133D01*
X208017539Y-32359752D01*
X207922300Y-32407371D01*
X207588967Y-32407371D01*
X208588967Y-32550228D02*
X209350872Y-32550228D01*
X210398491Y-32835942D02*
X210350872Y-32883561D01*
X210208015Y-32931180D01*
X210112777Y-32931180D01*
X209969920Y-32883561D01*
X209874681Y-32788323D01*
X209827062Y-32693085D01*
X209779443Y-32502609D01*
X209779443Y-32359752D01*
X209827062Y-32169276D01*
X209874681Y-32074038D01*
X209969920Y-31978800D01*
X210112777Y-31931180D01*
X210208015Y-31931180D01*
X210350872Y-31978800D01*
X210398491Y-32026419D01*
%TD*%
M02*
